<svg width="56" height="107" viewBox="0 0 56 107" fill="none" xmlns="http://www.w3.org/2000/svg">
<path d="M29.9758 1.17673C29.8092 2.01006 29.7675 2.84339 29.8508 3.67673C29.9342 4.42673 29.9758 5.21839 29.9758 6.05173C29.9758 6.30173 29.9342 6.55173 29.8508 6.80173C29.7675 7.05173 29.7258 7.26006 29.7258 7.42673C29.8092 7.84339 29.8925 8.21839 29.9758 8.55173C30.1425 8.80173 30.2258 9.13506 30.2258 9.55173C30.2258 10.0517 30.2675 10.5934 30.3508 11.1767C30.4342 11.6767 30.4758 12.1351 30.4758 12.5517C30.3925 13.2184 30.1842 13.9684 29.8508 14.8017C29.5175 15.6351 29.5592 16.3851 29.9758 17.0517C30.2258 17.4684 30.8925 17.6767 31.9758 17.6767C33.0592 17.6767 33.8092 17.5934 34.2258 17.4267C34.6425 17.9267 35.1842 18.2601 35.8508 18.4267C36.6008 18.5934 37.3092 18.6767 37.9758 18.6767C38.3092 19.0934 39.0175 19.5101 40.1008 19.9267C41.2675 20.2601 42.1008 20.5934 42.6008 20.9267C43.1842 21.7601 43.5592 22.1767 43.7258 22.1767C43.8925 22.1767 44.0592 22.2601 44.2258 22.4267C44.4758 22.5934 44.6842 22.8434 44.8508 23.1767C45.1008 23.5101 45.4342 23.7184 45.8508 23.8017C45.7675 24.1351 45.7675 24.3851 45.8508 24.5517C46.0175 24.6351 46.1842 24.8434 46.3508 25.1767C46.7675 25.3434 47.0175 25.6351 47.1008 26.0517C47.2675 26.3851 47.4758 26.7184 47.7258 27.0517C47.9758 27.3017 48.2675 27.5101 48.6008 27.6767C48.9342 27.8434 49.1842 28.0934 49.3508 28.4267C49.5175 26.6767 49.6425 24.9267 49.7258 23.1767C49.8092 21.4267 49.7675 19.6767 49.6008 17.9267C50.0175 17.4267 50.4342 17.0517 50.8508 16.8017C51.3508 16.4684 51.9342 16.3851 52.6008 16.5517C53.1842 16.9684 53.4758 17.3017 53.4758 17.5517C53.4758 17.7184 53.5592 17.7601 53.7258 17.6767C53.7258 18.1767 53.6842 18.8434 53.6008 19.6767C53.5175 20.5101 53.4342 21.3434 53.3508 22.1767C53.2675 23.0101 53.2258 23.8017 53.2258 24.5517C53.3092 25.3017 53.4758 25.8851 53.7258 26.3017C53.5592 27.4684 53.6008 28.3017 53.8508 28.8017C54.1008 29.2184 54.2258 29.7184 54.2258 30.3017C54.2258 30.9684 54.0592 31.5517 53.7258 32.0517C53.4758 32.5517 53.3092 33.1351 53.2258 33.8017C53.2258 34.0517 53.2675 34.3017 53.3508 34.5517C53.4342 34.8017 53.4758 35.0934 53.4758 35.4267C53.3092 36.6767 53.2675 37.5934 53.3508 38.1767C53.5175 38.6767 53.4758 39.1351 53.2258 39.5517C52.5592 39.8017 51.8925 40.0101 51.2258 40.1767C50.6425 40.2601 50.0175 40.2184 49.3508 40.0517C49.1008 39.8017 48.8925 39.5517 48.7258 39.3017C48.5592 38.9684 48.3508 38.6767 48.1008 38.4267C47.8508 38.0934 47.8925 37.8434 48.2258 37.6767C48.6425 37.4267 48.7675 37.0517 48.6008 36.5517C48.3508 35.0517 47.7675 33.7601 46.8508 32.6767C46.0175 31.5934 45.1425 30.4684 44.2258 29.3017L43.2258 27.9267C42.8925 27.5101 42.5175 27.1351 42.1008 26.8017C41.6842 26.3851 41.3925 25.9267 41.2258 25.4267C40.8092 25.4267 40.4758 25.2601 40.2258 24.9267C39.9758 24.5101 39.6842 24.2184 39.3508 24.0517C39.1008 23.9684 38.6425 23.8017 37.9758 23.5517C37.3092 23.3017 36.5592 23.0934 35.7258 22.9267C34.9758 22.6767 34.2258 22.4684 33.4758 22.3017C32.8092 22.0517 32.3508 21.9267 32.1008 21.9267C31.6008 21.8434 31.1008 21.8851 30.6008 22.0517C30.1842 22.1351 29.7675 22.1767 29.3508 22.1767C28.3508 21.8434 27.7258 21.7184 27.4758 21.8017C27.2258 21.8851 26.9758 21.9267 26.7258 21.9267C26.0592 21.9267 25.4758 21.8851 24.9758 21.8017C24.4758 21.7184 23.8925 21.9267 23.2258 22.4267C22.0592 22.2601 21.0175 22.3434 20.1008 22.6767C19.1842 22.9267 18.1425 23.1351 16.9758 23.3017C16.8925 23.5517 16.8925 23.8017 16.9758 24.0517C17.1425 24.3017 17.1425 24.5101 16.9758 24.6767C16.7258 25.1767 16.5175 25.6767 16.3508 26.1767C16.2675 26.6767 16.1425 27.1767 15.9758 27.6767C16.1425 27.8434 16.1008 28.1351 15.8508 28.5517C15.6842 28.8851 15.6008 29.1351 15.6008 29.3017C15.5175 29.6351 15.5175 29.9684 15.6008 30.3017C15.7675 30.5517 15.8508 30.8434 15.8508 31.1767C15.7675 31.4267 15.6425 31.6767 15.4758 31.9267C15.3925 32.1767 15.3508 32.3851 15.3508 32.5517C15.1842 33.4684 15.1842 34.3434 15.3508 35.1767C15.5175 36.0101 15.6008 36.8434 15.6008 37.6767C15.6008 37.9267 15.5592 38.1767 15.4758 38.4267C15.3925 38.6767 15.3508 38.9267 15.3508 39.1767C15.3508 39.5101 15.3925 39.8434 15.4758 40.1767C15.6425 40.5101 15.7675 40.8434 15.8508 41.1767C15.9342 41.7601 15.9758 42.4267 15.9758 43.1767C15.9758 43.9267 16.2258 44.5101 16.7258 44.9267C16.5592 45.0934 16.4758 45.3434 16.4758 45.6767C16.4758 45.9267 16.3925 46.1351 16.2258 46.3017C16.3925 46.9684 16.6008 47.5517 16.8508 48.0517C17.1008 48.4684 17.1425 49.0517 16.9758 49.8017C17.5592 50.3017 17.7675 50.6351 17.6008 50.8017C17.4342 50.9684 17.3925 51.0934 17.4758 51.1767C17.6425 51.5101 17.9758 51.8017 18.4758 52.0517C19.0592 52.3017 19.6842 52.5101 20.3508 52.6767C21.1008 52.7601 21.8092 52.8851 22.4758 53.0517C23.1425 53.1351 23.6425 53.2184 23.9758 53.3017C24.3925 53.4684 24.7258 53.6351 24.9758 53.8017C25.3092 53.9684 25.6842 54.1351 26.1008 54.3017C26.5175 54.3851 26.8925 54.4267 27.2258 54.4267C27.5592 54.3434 27.9342 54.3851 28.3508 54.5517C29.2675 54.7184 30.1008 54.9684 30.8508 55.3017C31.6842 55.5517 32.5592 55.7601 33.4758 55.9267C33.7258 56.0101 33.9758 56.0101 34.2258 55.9267C34.5592 55.8434 34.8508 55.8434 35.1008 55.9267C36.3508 56.3434 37.2675 56.5101 37.8508 56.4267C38.5175 56.3434 39.1425 56.3851 39.7258 56.5517C40.1425 56.6351 40.4758 56.7601 40.7258 56.9267C40.9758 57.0101 41.2675 57.1351 41.6008 57.3017C42.6008 57.6351 43.8508 58.0101 45.3508 58.4267C46.9342 58.8434 48.0175 59.4684 48.6008 60.3017C49.2675 60.3851 49.8092 60.5934 50.2258 60.9267C50.6425 61.2601 51.1842 61.5101 51.8508 61.6767C52.1008 62.2601 52.3925 62.7184 52.7258 63.0517C53.1425 63.3851 53.5592 63.8017 53.9758 64.3017C54.6425 65.6351 55.0592 66.6767 55.2258 67.4267C55.3925 68.1767 55.5175 68.9684 55.6008 69.8017C55.7675 70.8851 55.7675 71.5517 55.6008 71.8017C55.5175 71.9684 55.4342 72.1767 55.3508 72.4267C55.2675 72.7601 55.2675 73.0934 55.3508 73.4267C55.4342 73.7601 55.4342 74.1351 55.3508 74.5517C55.3508 74.8017 55.2675 75.3017 55.1008 76.0517C54.9342 76.7184 54.7675 77.4684 54.6008 78.3017C54.4342 79.0517 54.2258 79.8017 53.9758 80.5517C53.7258 81.2184 53.5592 81.6767 53.4758 81.9267C53.0592 82.3434 52.8925 82.6767 52.9758 82.9267C53.0592 83.1767 53.0175 83.3851 52.8508 83.5517C52.1842 84.3851 51.7258 85.0517 51.4758 85.5517C51.2258 85.9684 50.8925 86.2601 50.4758 86.4267C50.5592 86.7601 50.5175 87.0101 50.3508 87.1767C50.1842 87.2601 50.1425 87.4684 50.2258 87.8017C49.4758 88.5517 48.8508 89.0101 48.3508 89.1767C47.9342 89.3434 47.6425 89.5101 47.4758 89.6767L46.3508 90.5517C45.1008 90.6351 44.2675 90.8017 43.8508 91.0517C43.4342 91.2184 43.0175 91.3851 42.6008 91.5517C41.4342 91.8017 40.2258 91.9684 38.9758 92.0517C37.8092 92.0517 36.7675 92.3434 35.8508 92.9267C35.3508 92.5934 34.7675 92.5517 34.1008 92.8017C33.4342 93.0517 32.7675 93.0934 32.1008 92.9267C31.8508 93.5934 31.8925 94.3434 32.2258 95.1767C32.5592 96.0101 32.6842 96.6351 32.6008 97.0517C33.0175 98.0517 33.1842 98.7184 33.1008 99.0517C33.0175 99.3851 33.0592 99.7601 33.2258 100.177C33.4758 100.593 33.4758 101.468 33.2258 102.802C33.0592 104.052 32.8508 104.885 32.6008 105.302C32.1008 105.885 31.3925 106.177 30.4758 106.177C29.5592 106.177 28.8508 105.885 28.3508 105.302C28.3508 104.718 28.3092 104.135 28.2258 103.552C28.1425 102.885 28.2675 102.302 28.6008 101.802C28.3508 101.468 28.1842 101.218 28.1008 101.052C28.1008 100.802 28.1008 100.593 28.1008 100.427C28.1842 100.26 28.2258 100.093 28.2258 99.9267C28.3092 99.7601 28.3508 99.5101 28.3508 99.1767C28.3508 98.7601 28.2675 98.4267 28.1008 98.1767C28.0175 97.8434 27.9342 97.4684 27.8508 97.0517C27.7675 96.3851 27.7258 95.7601 27.7258 95.1767C27.7258 94.5101 27.6425 93.8434 27.4758 93.1767C27.2258 93.2601 26.8508 93.2601 26.3508 93.1767C25.9342 93.0934 25.6842 93.1767 25.6008 93.4267C24.8508 93.0934 24.2258 92.7601 23.7258 92.4267C23.2258 92.0934 22.5175 91.9267 21.6008 91.9267C21.1842 91.4267 20.4342 91.0101 19.3508 90.6767C18.2675 90.2601 17.3925 89.9267 16.7258 89.6767C16.3092 89.5101 15.8925 89.3017 15.4758 89.0517C15.1425 88.8017 14.7675 88.5934 14.3508 88.4267C13.9342 88.2601 13.5175 88.1351 13.1008 88.0517C12.6842 87.9684 12.2675 87.8017 11.8508 87.5517C11.5175 87.3851 11.2258 87.1351 10.9758 86.8017C10.7258 86.4684 10.3925 86.3434 9.97583 86.4267C9.80916 86.0101 9.55916 85.7601 9.22583 85.6767C8.97583 85.5101 8.68416 85.3434 8.35083 85.1767C7.93416 85.7601 7.72583 86.5934 7.72583 87.6767C7.80916 88.7601 7.93416 89.6351 8.10083 90.3017C8.18416 90.7184 8.3925 91.0517 8.72583 91.3017C9.05916 91.4684 9.22583 91.7601 9.22583 92.1767C8.8925 93.0934 8.5175 93.6351 8.10083 93.8017C7.7675 93.8851 7.55916 94.2184 7.47583 94.8017C7.05916 94.6351 6.60083 94.5517 6.10083 94.5517C5.68416 94.4684 5.2675 94.3851 4.85083 94.3017C4.68416 93.7184 4.43416 93.1767 4.10083 92.6767C3.7675 92.1767 3.55916 91.6351 3.47583 91.0517C3.30916 90.2184 3.30916 89.4267 3.47583 88.6767C3.72583 87.9267 3.80916 87.1767 3.72583 86.4267C3.6425 86.1767 3.55916 85.9684 3.47583 85.8017C3.47583 85.5517 3.30916 85.3434 2.97583 85.1767C3.30916 84.2601 3.2675 83.6351 2.85083 83.3017C2.5175 82.9684 2.2675 82.5101 2.10083 81.9267C1.93416 81.6767 1.85083 81.3851 1.85083 81.0517C1.93416 80.7184 1.93416 80.3851 1.85083 80.0517C1.85083 79.9684 1.7675 79.7601 1.60083 79.4267C1.5175 79.0934 1.43416 78.7601 1.35083 78.4267C1.2675 78.0934 1.18416 77.8017 1.10083 77.5517C1.10083 77.2184 1.18416 77.0517 1.35083 77.0517C1.2675 76.8851 1.1425 76.6767 0.97583 76.4267C0.892497 76.0934 0.85083 75.8434 0.85083 75.6767C0.85083 75.4267 0.892497 74.9684 0.97583 74.3017C1.1425 73.5517 1.30916 72.7601 1.47583 71.9267C1.6425 71.0934 1.85083 70.3434 2.10083 69.6767C2.35083 69.0101 2.55916 68.5934 2.72583 68.4267C2.97583 68.2601 3.1425 68.2184 3.22583 68.3017C3.30916 68.3851 3.55916 68.2184 3.97583 67.8017C4.3925 67.6351 4.7675 67.6767 5.10083 67.9267C5.43416 68.1767 5.80916 68.2184 6.22583 68.0517C6.55916 68.4684 6.7675 69.1767 6.85083 70.1767C6.93416 71.0934 7.05916 71.8434 7.22583 72.4267C7.05916 72.8434 7.1425 73.0517 7.47583 73.0517C7.80916 73.0517 8.0175 73.2184 8.10083 73.5517C8.18416 73.8851 8.2675 74.3017 8.35083 74.8017C8.43416 75.2184 8.68416 75.5101 9.10083 75.6767C9.0175 76.0934 9.0175 76.5517 9.10083 77.0517C9.18416 77.5517 9.3925 77.8851 9.72583 78.0517C9.6425 78.7184 9.7675 79.2601 10.1008 79.6767C10.4342 80.0934 10.6842 80.4684 10.8508 80.8017C11.2675 81.6351 11.8508 82.3017 12.6008 82.8017C13.3508 83.3017 14.0175 83.8851 14.6008 84.5517C15.4342 84.7184 16.1425 85.0517 16.7258 85.5517C17.3092 85.9684 17.9342 86.3851 18.6008 86.8017C19.6842 86.8017 20.5175 87.1351 21.1008 87.8017C21.7675 87.6351 22.6425 87.8017 23.7258 88.3017C24.8925 88.8017 25.5175 89.1767 25.6008 89.4267C26.0175 89.2601 26.4758 89.2184 26.9758 89.3017C27.5592 89.3851 28.1008 89.4267 28.6008 89.4267C29.5175 89.2601 30.1425 89.2184 30.4758 89.3017C30.8092 89.3851 31.1842 89.3434 31.6008 89.1767C31.7675 89.0934 32.1008 89.0934 32.6008 89.1767C33.1842 89.1767 33.7675 89.1767 34.3508 89.1767C34.9342 89.1767 35.4342 89.1351 35.8508 89.0517C36.2675 88.8851 36.4758 88.6767 36.4758 88.4267C36.6425 88.5934 36.9342 88.6351 37.3508 88.5517C37.8508 88.4684 38.1842 88.3851 38.3508 88.3017C39.3508 87.8851 39.9342 87.6767 40.1008 87.6767C40.2675 87.6767 40.4342 87.6767 40.6008 87.6767C40.7675 87.6767 40.9342 87.5934 41.1008 87.4267C41.3508 87.2601 41.6842 86.9267 42.1008 86.4267C42.2675 85.5101 42.5175 84.8851 42.8508 84.5517C43.1842 84.2184 43.3092 83.7601 43.2258 83.1767C42.8925 82.3434 42.7675 81.8851 42.8508 81.8017C43.0175 81.6351 43.0592 81.4684 42.9758 81.3017C42.9758 80.1351 42.8508 78.9267 42.6008 77.6767C42.3508 76.4267 42.1842 75.2184 42.1008 74.0517C42.1008 73.7184 42.1008 73.4267 42.1008 73.1767C42.1842 72.8434 42.1842 72.5101 42.1008 72.1767C41.6842 71.1767 41.4758 70.4684 41.4758 70.0517C41.4758 69.5517 41.3925 69.0934 41.2258 68.6767C40.5592 67.6767 40.1425 66.8434 39.9758 66.1767C39.8925 65.4267 39.6008 65.0101 39.1008 64.9267C39.1842 64.0934 39.0175 63.4684 38.6008 63.0517C38.2675 62.6351 38.1008 62.0517 38.1008 61.3017C37.3508 60.8851 36.3092 60.4684 34.9758 60.0517C33.6425 59.6351 32.5175 59.3434 31.6008 59.1767C31.1842 59.0934 30.7258 59.0934 30.2258 59.1767C29.8092 59.2601 29.3508 59.2601 28.8508 59.1767C28.1842 59.0101 27.6425 58.8017 27.2258 58.5517C26.8925 58.2184 26.4342 57.9684 25.8508 57.8017C25.2675 57.6351 24.6842 57.5517 24.1008 57.5517C23.6008 57.5517 23.1008 57.4684 22.6008 57.3017C22.1842 57.1351 21.8508 56.9684 21.6008 56.8017C21.3508 56.6351 21.0592 56.4684 20.7258 56.3017C20.3925 56.2184 20.0592 56.2184 19.7258 56.3017C19.4758 56.3851 19.1842 56.3851 18.8508 56.3017C17.9342 55.9684 17.3092 55.8434 16.9758 55.9267C16.7258 56.0101 16.4758 56.0101 16.2258 55.9267C15.9758 55.8434 15.7258 55.7184 15.4758 55.5517C15.3092 55.3851 15.1008 55.2601 14.8508 55.1767C14.6008 55.0934 14.3092 55.0517 13.9758 55.0517C13.7258 54.9684 13.4758 54.8434 13.2258 54.6767C12.4758 54.4267 12.1008 54.2601 12.1008 54.1767C12.1842 54.0101 12.1842 53.8851 12.1008 53.8017C11.9342 53.6351 11.6425 53.5517 11.2258 53.5517C10.8925 53.4684 10.6425 53.3851 10.4758 53.3017C9.1425 52.1351 7.85083 50.9684 6.60083 49.8017C5.43416 48.5517 4.22583 47.3017 2.97583 46.0517C2.97583 45.9684 2.93416 45.7601 2.85083 45.4267C2.85083 45.0101 2.80916 44.6351 2.72583 44.3017C2.72583 43.8851 2.68416 43.5101 2.60083 43.1767C2.5175 42.7601 2.47583 42.5101 2.47583 42.4267C2.22583 41.5934 2.1425 41.1351 2.22583 41.0517C2.30916 40.8851 2.35083 40.7184 2.35083 40.5517C2.18416 39.5517 2.1425 38.9684 2.22583 38.8017C2.3925 38.6351 2.47583 38.4267 2.47583 38.1767C2.55916 37.7601 2.5175 37.4267 2.35083 37.1767C2.2675 36.9267 2.30916 36.5517 2.47583 36.0517C2.97583 35.2184 3.18416 34.5934 3.10083 34.1767C3.10083 33.6767 3.1425 33.2184 3.22583 32.8017C3.22583 32.7184 3.2675 32.4684 3.35083 32.0517C3.5175 31.5517 3.6425 31.0101 3.72583 30.4267C3.8925 29.8434 4.0175 29.3434 4.10083 28.9267C4.2675 28.4267 4.35083 28.1767 4.35083 28.1767C4.7675 27.4267 5.0175 27.0101 5.10083 26.9267C5.2675 26.8434 5.43416 26.7184 5.60083 26.5517C5.7675 26.3017 5.93416 26.0517 6.10083 25.8017C6.2675 25.4684 6.47583 25.1767 6.72583 24.9267C7.1425 24.4267 7.60083 23.9684 8.10083 23.5517C8.60083 23.1351 9.05916 22.6767 9.47583 22.1767C10.3092 21.8434 10.8508 21.6351 11.1008 21.5517C11.4342 21.3851 11.6842 21.0934 11.8508 20.6767C12.7675 20.3434 13.2675 20.2184 13.3508 20.3017C13.4342 20.3017 13.5592 20.3017 13.7258 20.3017C14.1425 19.8017 14.5175 19.5934 14.8508 19.6767C15.1842 19.6767 15.5175 19.6351 15.8508 19.5517C16.5175 19.3851 17.2258 19.1351 17.9758 18.8017C18.7258 18.4684 19.4758 18.4267 20.2258 18.6767C20.9758 18.3434 21.3925 18.1767 21.4758 18.1767C21.6425 18.0934 21.7675 18.0101 21.8508 17.9267C22.1842 17.9267 22.4758 17.9684 22.7258 18.0517C23.0592 18.1351 23.3092 18.1767 23.4758 18.1767C24.3092 17.7601 24.8092 17.5934 24.9758 17.6767C25.2258 17.6767 25.4342 17.5934 25.6008 17.4267C25.6008 16.0934 25.6425 14.7601 25.7258 13.4267C25.8925 12.0101 25.8508 10.6351 25.6008 9.30173C25.5175 8.13506 25.5592 7.42673 25.7258 7.17673C25.9758 6.84339 25.9342 6.38506 25.6008 5.80173C25.6008 5.05173 25.6425 4.30173 25.7258 3.55173C25.8092 2.80173 25.9758 2.17673 26.2258 1.67673C26.5592 1.17673 27.0175 0.843394 27.6008 0.676727C28.1842 0.510061 28.9758 0.676727 29.9758 1.17673ZM10.4758 28.1767C9.97583 28.5934 9.72583 28.9684 9.72583 29.3017C9.72583 29.6351 9.5175 29.8017 9.10083 29.8017C8.93416 30.4684 8.7675 30.9684 8.60083 31.3017C8.43416 31.6351 8.18416 32.0517 7.85083 32.5517C8.10083 33.4684 8.0175 34.3851 7.60083 35.3017C7.18416 36.1351 7.1425 37.0101 7.47583 37.9267C7.22583 38.0934 7.0175 38.6351 6.85083 39.5517C6.68416 40.3851 6.6425 40.9267 6.72583 41.1767C6.72583 41.5101 6.80916 41.8017 6.97583 42.0517C7.1425 42.2184 7.30916 42.4267 7.47583 42.6767C7.55916 43.6767 7.72583 44.3434 7.97583 44.6767C8.22583 44.9267 8.2675 45.2601 8.10083 45.6767C8.35083 45.8434 8.6425 46.0934 8.97583 46.4267C9.30916 46.7601 9.6425 47.0934 9.97583 47.4267C10.3925 47.7601 10.7258 48.0517 10.9758 48.3017C11.3092 48.5517 11.6008 48.6767 11.8508 48.6767C12.1842 48.3434 12.2675 48.0101 12.1008 47.6767C11.9342 47.3434 11.7675 46.9684 11.6008 46.5517C11.9342 45.6351 11.9758 44.4684 11.7258 43.0517C11.4758 41.6351 11.1425 40.4684 10.7258 39.5517C10.7258 37.8851 10.7258 36.5517 10.7258 35.5517C10.8092 34.5517 10.9342 33.5934 11.1008 32.6767C11.3508 31.7601 11.5175 30.8434 11.6008 29.9267C11.7675 29.0101 11.7675 28.0517 11.6008 27.0517C10.9342 27.2184 10.6008 27.4267 10.6008 27.6767C10.6008 27.8434 10.5592 28.0101 10.4758 28.1767ZM46.4758 74.5517C46.4758 75.9684 46.6008 77.4267 46.8508 78.9267C47.1008 80.4267 47.3092 81.8851 47.4758 83.3017C48.2258 82.5517 48.7675 82.0101 49.1008 81.6767C49.2675 80.4267 49.7258 79.4267 50.4758 78.6767C50.5592 77.5101 50.7675 76.3434 51.1008 75.1767C51.5175 73.9267 51.6842 72.7184 51.6008 71.5517C51.6008 70.8851 51.4342 70.2184 51.1008 69.5517C50.8508 68.8851 50.8092 68.2184 50.9758 67.5517C50.5592 66.9684 50.1008 66.4684 49.6008 66.0517C49.1008 65.6351 48.6842 65.1351 48.3508 64.5517C48.2675 64.5517 47.9758 64.4267 47.4758 64.1767C46.9758 63.9267 46.4342 63.6767 45.8508 63.4267C45.3508 63.0934 44.8508 62.8017 44.3508 62.5517C43.8508 62.2184 43.5592 62.0101 43.4758 61.9267C42.8092 62.7601 42.6425 63.5101 42.9758 64.1767C43.3092 64.7601 43.6425 65.4267 43.9758 66.1767C44.3092 67.0934 44.6425 67.7184 44.9758 68.0517C45.3092 68.3851 45.6008 68.9267 45.8508 69.6767C46.0175 70.0934 46.0592 70.5101 45.9758 70.9267C45.8925 71.3434 45.9342 71.7601 46.1008 72.1767C46.1008 72.3434 46.1842 72.5934 46.3508 72.9267C46.5175 73.1767 46.5592 73.3851 46.4758 73.5517V74.5517Z" fill="#FF0000"/>
<path d="M29.9758 1.17673C29.8092 2.01006 29.7675 2.84339 29.8508 3.67673C29.9342 4.42673 29.9758 5.21839 29.9758 6.05173C29.9758 6.30173 29.9342 6.55173 29.8508 6.80173C29.7675 7.05173 29.7258 7.26006 29.7258 7.42673C29.8092 7.84339 29.8925 8.21839 29.9758 8.55173C30.1425 8.80173 30.2258 9.13506 30.2258 9.55173C30.2258 10.0517 30.2675 10.5934 30.3508 11.1767C30.4342 11.6767 30.4758 12.1351 30.4758 12.5517C30.3925 13.2184 30.1842 13.9684 29.8508 14.8017C29.5175 15.6351 29.5592 16.3851 29.9758 17.0517C30.2258 17.4684 30.8925 17.6767 31.9758 17.6767C33.0592 17.6767 33.8092 17.5934 34.2258 17.4267C34.6425 17.9267 35.1842 18.2601 35.8508 18.4267C36.6008 18.5934 37.3092 18.6767 37.9758 18.6767C38.3092 19.0934 39.0175 19.5101 40.1008 19.9267C41.2675 20.2601 42.1008 20.5934 42.6008 20.9267C43.1842 21.7601 43.5592 22.1767 43.7258 22.1767C43.8925 22.1767 44.0592 22.2601 44.2258 22.4267C44.4758 22.5934 44.6842 22.8434 44.8508 23.1767C45.1008 23.5101 45.4342 23.7184 45.8508 23.8017C45.7675 24.1351 45.7675 24.3851 45.8508 24.5517C46.0175 24.6351 46.1842 24.8434 46.3508 25.1767C46.7675 25.3434 47.0175 25.6351 47.1008 26.0517C47.2675 26.3851 47.4758 26.7184 47.7258 27.0517C47.9758 27.3017 48.2675 27.5101 48.6008 27.6767C48.9342 27.8434 49.1842 28.0934 49.3508 28.4267C49.5175 26.6767 49.6425 24.9267 49.7258 23.1767C49.8092 21.4267 49.7675 19.6767 49.6008 17.9267C50.0175 17.4267 50.4342 17.0517 50.8508 16.8017C51.3508 16.4684 51.9342 16.3851 52.6008 16.5517C53.1842 16.9684 53.4758 17.3017 53.4758 17.5517C53.4758 17.7184 53.5592 17.7601 53.7258 17.6767C53.7258 18.1767 53.6842 18.8434 53.6008 19.6767C53.5175 20.5101 53.4342 21.3434 53.3508 22.1767C53.2675 23.0101 53.2258 23.8017 53.2258 24.5517C53.3092 25.3017 53.4758 25.8851 53.7258 26.3017C53.5592 27.4684 53.6008 28.3017 53.8508 28.8017C54.1008 29.2184 54.2258 29.7184 54.2258 30.3017C54.2258 30.9684 54.0592 31.5517 53.7258 32.0517C53.4758 32.5517 53.3092 33.1351 53.2258 33.8017C53.2258 34.0517 53.2675 34.3017 53.3508 34.5517C53.4342 34.8017 53.4758 35.0934 53.4758 35.4267C53.3092 36.6767 53.2675 37.5934 53.3508 38.1767C53.5175 38.6767 53.4758 39.1351 53.2258 39.5517C52.5592 39.8017 51.8925 40.0101 51.2258 40.1767C50.6425 40.2601 50.0175 40.2184 49.3508 40.0517C49.1008 39.8017 48.8925 39.5517 48.7258 39.3017C48.5592 38.9684 48.3508 38.6767 48.1008 38.4267C47.8508 38.0934 47.8925 37.8434 48.2258 37.6767C48.6425 37.4267 48.7675 37.0517 48.6008 36.5517C48.3508 35.0517 47.7675 33.7601 46.8508 32.6767C46.0175 31.5934 45.1425 30.4684 44.2258 29.3017L43.2258 27.9267C42.8925 27.5101 42.5175 27.1351 42.1008 26.8017C41.6842 26.3851 41.3925 25.9267 41.2258 25.4267C40.8092 25.4267 40.4758 25.2601 40.2258 24.9267C39.9758 24.5101 39.6842 24.2184 39.3508 24.0517C39.1008 23.9684 38.6425 23.8017 37.9758 23.5517C37.3092 23.3017 36.5592 23.0934 35.7258 22.9267C34.9758 22.6767 34.2258 22.4684 33.4758 22.3017C32.8092 22.0517 32.3508 21.9267 32.1008 21.9267C31.6008 21.8434 31.1008 21.8851 30.6008 22.0517C30.1842 22.1351 29.7675 22.1767 29.3508 22.1767C28.3508 21.8434 27.7258 21.7184 27.4758 21.8017C27.2258 21.8851 26.9758 21.9267 26.7258 21.9267C26.0592 21.9267 25.4758 21.8851 24.9758 21.8017C24.4758 21.7184 23.8925 21.9267 23.2258 22.4267C22.0592 22.2601 21.0175 22.3434 20.1008 22.6767C19.1842 22.9267 18.1425 23.1351 16.9758 23.3017C16.8925 23.5517 16.8925 23.8017 16.9758 24.0517C17.1425 24.3017 17.1425 24.5101 16.9758 24.6767C16.7258 25.1767 16.5175 25.6767 16.3508 26.1767C16.2675 26.6767 16.1425 27.1767 15.9758 27.6767C16.1425 27.8434 16.1008 28.1351 15.8508 28.5517C15.6842 28.8851 15.6008 29.1351 15.6008 29.3017C15.5175 29.6351 15.5175 29.9684 15.6008 30.3017C15.7675 30.5517 15.8508 30.8434 15.8508 31.1767C15.7675 31.4267 15.6425 31.6767 15.4758 31.9267C15.3925 32.1767 15.3508 32.3851 15.3508 32.5517C15.1842 33.4684 15.1842 34.3434 15.3508 35.1767C15.5175 36.0101 15.6008 36.8434 15.6008 37.6767C15.6008 37.9267 15.5592 38.1767 15.4758 38.4267C15.3925 38.6767 15.3508 38.9267 15.3508 39.1767C15.3508 39.5101 15.3925 39.8434 15.4758 40.1767C15.6425 40.5101 15.7675 40.8434 15.8508 41.1767C15.9342 41.7601 15.9758 42.4267 15.9758 43.1767C15.9758 43.9267 16.2258 44.5101 16.7258 44.9267C16.5592 45.0934 16.4758 45.3434 16.4758 45.6767C16.4758 45.9267 16.3925 46.1351 16.2258 46.3017C16.3925 46.9684 16.6008 47.5517 16.8508 48.0517C17.1008 48.4684 17.1425 49.0517 16.9758 49.8017C17.5592 50.3017 17.7675 50.6351 17.6008 50.8017C17.4342 50.9684 17.3925 51.0934 17.4758 51.1767C17.6425 51.5101 17.9758 51.8017 18.4758 52.0517C19.0592 52.3017 19.6842 52.5101 20.3508 52.6767C21.1008 52.7601 21.8092 52.8851 22.4758 53.0517C23.1425 53.1351 23.6425 53.2184 23.9758 53.3017C24.3925 53.4684 24.7258 53.6351 24.9758 53.8017C25.3092 53.9684 25.6842 54.1351 26.1008 54.3017C26.5175 54.3851 26.8925 54.4267 27.2258 54.4267C27.5592 54.3434 27.9342 54.3851 28.3508 54.5517C29.2675 54.7184 30.1008 54.9684 30.8508 55.3017C31.6842 55.5517 32.5592 55.7601 33.4758 55.9267C33.7258 56.0101 33.9758 56.0101 34.2258 55.9267C34.5592 55.8434 34.8508 55.8434 35.1008 55.9267C36.3508 56.3434 37.2675 56.5101 37.8508 56.4267C38.5175 56.3434 39.1425 56.3851 39.7258 56.5517C40.1425 56.6351 40.4758 56.7601 40.7258 56.9267C40.9758 57.0101 41.2675 57.1351 41.6008 57.3017C42.6008 57.6351 43.8508 58.0101 45.3508 58.4267C46.9342 58.8434 48.0175 59.4684 48.6008 60.3017C49.2675 60.3851 49.8092 60.5934 50.2258 60.9267C50.6425 61.2601 51.1842 61.5101 51.8508 61.6767C52.1008 62.2601 52.3925 62.7184 52.7258 63.0517C53.1425 63.3851 53.5592 63.8017 53.9758 64.3017C54.6425 65.6351 55.0592 66.6767 55.2258 67.4267C55.3925 68.1767 55.5175 68.9684 55.6008 69.8017C55.7675 70.8851 55.7675 71.5517 55.6008 71.8017C55.5175 71.9684 55.4342 72.1767 55.3508 72.4267C55.2675 72.7601 55.2675 73.0934 55.3508 73.4267C55.4342 73.7601 55.4342 74.1351 55.3508 74.5517C55.3508 74.8017 55.2675 75.3017 55.1008 76.0517C54.9342 76.7184 54.7675 77.4684 54.6008 78.3017C54.4342 79.0517 54.2258 79.8017 53.9758 80.5517C53.7258 81.2184 53.5592 81.6767 53.4758 81.9267C53.0592 82.3434 52.8925 82.6767 52.9758 82.9267C53.0592 83.1767 53.0175 83.3851 52.8508 83.5517C52.1842 84.3851 51.7258 85.0517 51.4758 85.5517C51.2258 85.9684 50.8925 86.2601 50.4758 86.4267C50.5592 86.7601 50.5175 87.0101 50.3508 87.1767C50.1842 87.2601 50.1425 87.4684 50.2258 87.8017C49.4758 88.5517 48.8508 89.0101 48.3508 89.1767C47.9342 89.3434 47.6425 89.5101 47.4758 89.6767L46.3508 90.5517C45.1008 90.6351 44.2675 90.8017 43.8508 91.0517C43.4342 91.2184 43.0175 91.3851 42.6008 91.5517C41.4342 91.8017 40.2258 91.9684 38.9758 92.0517C37.8092 92.0517 36.7675 92.3434 35.8508 92.9267C35.3508 92.5934 34.7675 92.5517 34.1008 92.8017C33.4342 93.0517 32.7675 93.0934 32.1008 92.9267C31.8508 93.5934 31.8925 94.3434 32.2258 95.1767C32.5592 96.0101 32.6842 96.6351 32.6008 97.0517C33.0175 98.0517 33.1842 98.7184 33.1008 99.0517C33.0175 99.3851 33.0592 99.7601 33.2258 100.177C33.4758 100.593 33.4758 101.468 33.2258 102.802C33.0592 104.052 32.8508 104.885 32.6008 105.302C32.1008 105.885 31.3925 106.177 30.4758 106.177C29.5592 106.177 28.8508 105.885 28.3508 105.302C28.3508 104.718 28.3092 104.135 28.2258 103.552C28.1425 102.885 28.2675 102.302 28.6008 101.802C28.3508 101.468 28.1842 101.218 28.1008 101.052C28.1008 100.802 28.1008 100.593 28.1008 100.427C28.1842 100.26 28.2258 100.093 28.2258 99.9267C28.3092 99.7601 28.3508 99.5101 28.3508 99.1767C28.3508 98.7601 28.2675 98.4267 28.1008 98.1767C28.0175 97.8434 27.9342 97.4684 27.8508 97.0517C27.7675 96.3851 27.7258 95.7601 27.7258 95.1767C27.7258 94.5101 27.6425 93.8434 27.4758 93.1767C27.2258 93.2601 26.8508 93.2601 26.3508 93.1767C25.9342 93.0934 25.6842 93.1767 25.6008 93.4267C24.8508 93.0934 24.2258 92.7601 23.7258 92.4267C23.2258 92.0934 22.5175 91.9267 21.6008 91.9267C21.1842 91.4267 20.4342 91.0101 19.3508 90.6767C18.2675 90.2601 17.3925 89.9267 16.7258 89.6767C16.3092 89.5101 15.8925 89.3017 15.4758 89.0517C15.1425 88.8017 14.7675 88.5934 14.3508 88.4267C13.9342 88.2601 13.5175 88.1351 13.1008 88.0517C12.6842 87.9684 12.2675 87.8017 11.8508 87.5517C11.5175 87.3851 11.2258 87.1351 10.9758 86.8017C10.7258 86.4684 10.3925 86.3434 9.97583 86.4267C9.80916 86.0101 9.55916 85.7601 9.22583 85.6767C8.97583 85.5101 8.68416 85.3434 8.35083 85.1767C7.93416 85.7601 7.72583 86.5934 7.72583 87.6767C7.80916 88.7601 7.93416 89.6351 8.10083 90.3017C8.18416 90.7184 8.3925 91.0517 8.72583 91.3017C9.05916 91.4684 9.22583 91.7601 9.22583 92.1767C8.8925 93.0934 8.5175 93.6351 8.10083 93.8017C7.7675 93.8851 7.55916 94.2184 7.47583 94.8017C7.05916 94.6351 6.60083 94.5517 6.10083 94.5517C5.68416 94.4684 5.2675 94.3851 4.85083 94.3017C4.68416 93.7184 4.43416 93.1767 4.10083 92.6767C3.7675 92.1767 3.55916 91.6351 3.47583 91.0517C3.30916 90.2184 3.30916 89.4267 3.47583 88.6767C3.72583 87.9267 3.80916 87.1767 3.72583 86.4267C3.6425 86.1767 3.55916 85.9684 3.47583 85.8017C3.47583 85.5517 3.30916 85.3434 2.97583 85.1767C3.30916 84.2601 3.2675 83.6351 2.85083 83.3017C2.5175 82.9684 2.2675 82.5101 2.10083 81.9267C1.93416 81.6767 1.85083 81.3851 1.85083 81.0517C1.93416 80.7184 1.93416 80.3851 1.85083 80.0517C1.85083 79.9684 1.7675 79.7601 1.60083 79.4267C1.5175 79.0934 1.43416 78.7601 1.35083 78.4267C1.2675 78.0934 1.18416 77.8017 1.10083 77.5517C1.10083 77.2184 1.18416 77.0517 1.35083 77.0517C1.2675 76.8851 1.1425 76.6767 0.97583 76.4267C0.892497 76.0934 0.85083 75.8434 0.85083 75.6767C0.85083 75.4267 0.892497 74.9684 0.97583 74.3017C1.1425 73.5517 1.30916 72.7601 1.47583 71.9267C1.6425 71.0934 1.85083 70.3434 2.10083 69.6767C2.35083 69.0101 2.55916 68.5934 2.72583 68.4267C2.97583 68.2601 3.1425 68.2184 3.22583 68.3017C3.30916 68.3851 3.55916 68.2184 3.97583 67.8017C4.3925 67.6351 4.7675 67.6767 5.10083 67.9267C5.43416 68.1767 5.80916 68.2184 6.22583 68.0517C6.55916 68.4684 6.7675 69.1767 6.85083 70.1767C6.93416 71.0934 7.05916 71.8434 7.22583 72.4267C7.05916 72.8434 7.1425 73.0517 7.47583 73.0517C7.80916 73.0517 8.0175 73.2184 8.10083 73.5517C8.18416 73.8851 8.2675 74.3017 8.35083 74.8017C8.43416 75.2184 8.68416 75.5101 9.10083 75.6767C9.0175 76.0934 9.0175 76.5517 9.10083 77.0517C9.18416 77.5517 9.3925 77.8851 9.72583 78.0517C9.6425 78.7184 9.7675 79.2601 10.1008 79.6767C10.4342 80.0934 10.6842 80.4684 10.8508 80.8017C11.2675 81.6351 11.8508 82.3017 12.6008 82.8017C13.3508 83.3017 14.0175 83.8851 14.6008 84.5517C15.4342 84.7184 16.1425 85.0517 16.7258 85.5517C17.3092 85.9684 17.9342 86.3851 18.6008 86.8017C19.6842 86.8017 20.5175 87.1351 21.1008 87.8017C21.7675 87.6351 22.6425 87.8017 23.7258 88.3017C24.8925 88.8017 25.5175 89.1767 25.6008 89.4267C26.0175 89.2601 26.4758 89.2184 26.9758 89.3017C27.5592 89.3851 28.1008 89.4267 28.6008 89.4267C29.5175 89.2601 30.1425 89.2184 30.4758 89.3017C30.8092 89.3851 31.1842 89.3434 31.6008 89.1767C31.7675 89.0934 32.1008 89.0934 32.6008 89.1767C33.1842 89.1767 33.7675 89.1767 34.3508 89.1767C34.9342 89.1767 35.4342 89.1351 35.8508 89.0517C36.2675 88.8851 36.4758 88.6767 36.4758 88.4267C36.6425 88.5934 36.9342 88.6351 37.3508 88.5517C37.8508 88.4684 38.1842 88.3851 38.3508 88.3017C39.3508 87.8851 39.9342 87.6767 40.1008 87.6767C40.2675 87.6767 40.4342 87.6767 40.6008 87.6767C40.7675 87.6767 40.9342 87.5934 41.1008 87.4267C41.3508 87.2601 41.6842 86.9267 42.1008 86.4267C42.2675 85.5101 42.5175 84.8851 42.8508 84.5517C43.1842 84.2184 43.3092 83.7601 43.2258 83.1767C42.8925 82.3434 42.7675 81.8851 42.8508 81.8017C43.0175 81.6351 43.0592 81.4684 42.9758 81.3017C42.9758 80.1351 42.8508 78.9267 42.6008 77.6767C42.3508 76.4267 42.1842 75.2184 42.1008 74.0517C42.1008 73.7184 42.1008 73.4267 42.1008 73.1767C42.1842 72.8434 42.1842 72.5101 42.1008 72.1767C41.6842 71.1767 41.4758 70.4684 41.4758 70.0517C41.4758 69.5517 41.3925 69.0934 41.2258 68.6767C40.5592 67.6767 40.1425 66.8434 39.9758 66.1767C39.8925 65.4267 39.6008 65.0101 39.1008 64.9267C39.1842 64.0934 39.0175 63.4684 38.6008 63.0517C38.2675 62.6351 38.1008 62.0517 38.1008 61.3017C37.3508 60.8851 36.3092 60.4684 34.9758 60.0517C33.6425 59.6351 32.5175 59.3434 31.6008 59.1767C31.1842 59.0934 30.7258 59.0934 30.2258 59.1767C29.8092 59.2601 29.3508 59.2601 28.8508 59.1767C28.1842 59.0101 27.6425 58.8017 27.2258 58.5517C26.8925 58.2184 26.4342 57.9684 25.8508 57.8017C25.2675 57.6351 24.6842 57.5517 24.1008 57.5517C23.6008 57.5517 23.1008 57.4684 22.6008 57.3017C22.1842 57.1351 21.8508 56.9684 21.6008 56.8017C21.3508 56.6351 21.0592 56.4684 20.7258 56.3017C20.3925 56.2184 20.0592 56.2184 19.7258 56.3017C19.4758 56.3851 19.1842 56.3851 18.8508 56.3017C17.9342 55.9684 17.3092 55.8434 16.9758 55.9267C16.7258 56.0101 16.4758 56.0101 16.2258 55.9267C15.9758 55.8434 15.7258 55.7184 15.4758 55.5517C15.3092 55.3851 15.1008 55.2601 14.8508 55.1767C14.6008 55.0934 14.3092 55.0517 13.9758 55.0517C13.7258 54.9684 13.4758 54.8434 13.2258 54.6767C12.4758 54.4267 12.1008 54.2601 12.1008 54.1767C12.1842 54.0101 12.1842 53.8851 12.1008 53.8017C11.9342 53.6351 11.6425 53.5517 11.2258 53.5517C10.8925 53.4684 10.6425 53.3851 10.4758 53.3017C9.1425 52.1351 7.85083 50.9684 6.60083 49.8017C5.43416 48.5517 4.22583 47.3017 2.97583 46.0517C2.97583 45.9684 2.93416 45.7601 2.85083 45.4267C2.85083 45.0101 2.80916 44.6351 2.72583 44.3017C2.72583 43.8851 2.68416 43.5101 2.60083 43.1767C2.5175 42.7601 2.47583 42.5101 2.47583 42.4267C2.22583 41.5934 2.1425 41.1351 2.22583 41.0517C2.30916 40.8851 2.35083 40.7184 2.35083 40.5517C2.18416 39.5517 2.1425 38.9684 2.22583 38.8017C2.3925 38.6351 2.47583 38.4267 2.47583 38.1767C2.55916 37.7601 2.5175 37.4267 2.35083 37.1767C2.2675 36.9267 2.30916 36.5517 2.47583 36.0517C2.97583 35.2184 3.18416 34.5934 3.10083 34.1767C3.10083 33.6767 3.1425 33.2184 3.22583 32.8017C3.22583 32.7184 3.2675 32.4684 3.35083 32.0517C3.5175 31.5517 3.6425 31.0101 3.72583 30.4267C3.8925 29.8434 4.0175 29.3434 4.10083 28.9267C4.2675 28.4267 4.35083 28.1767 4.35083 28.1767C4.7675 27.4267 5.0175 27.0101 5.10083 26.9267C5.2675 26.8434 5.43416 26.7184 5.60083 26.5517C5.7675 26.3017 5.93416 26.0517 6.10083 25.8017C6.2675 25.4684 6.47583 25.1767 6.72583 24.9267C7.1425 24.4267 7.60083 23.9684 8.10083 23.5517C8.60083 23.1351 9.05916 22.6767 9.47583 22.1767C10.3092 21.8434 10.8508 21.6351 11.1008 21.5517C11.4342 21.3851 11.6842 21.0934 11.8508 20.6767C12.7675 20.3434 13.2675 20.2184 13.3508 20.3017C13.4342 20.3017 13.5592 20.3017 13.7258 20.3017C14.1425 19.8017 14.5175 19.5934 14.8508 19.6767C15.1842 19.6767 15.5175 19.6351 15.8508 19.5517C16.5175 19.3851 17.2258 19.1351 17.9758 18.8017C18.7258 18.4684 19.4758 18.4267 20.2258 18.6767C20.9758 18.3434 21.3925 18.1767 21.4758 18.1767C21.6425 18.0934 21.7675 18.0101 21.8508 17.9267C22.1842 17.9267 22.4758 17.9684 22.7258 18.0517C23.0592 18.1351 23.3092 18.1767 23.4758 18.1767C24.3092 17.7601 24.8092 17.5934 24.9758 17.6767C25.2258 17.6767 25.4342 17.5934 25.6008 17.4267C25.6008 16.0934 25.6425 14.7601 25.7258 13.4267C25.8925 12.0101 25.8508 10.6351 25.6008 9.30173C25.5175 8.13506 25.5592 7.42673 25.7258 7.17673C25.9758 6.84339 25.9342 6.38506 25.6008 5.80173C25.6008 5.05173 25.6425 4.30173 25.7258 3.55173C25.8092 2.80173 25.9758 2.17673 26.2258 1.67673C26.5592 1.17673 27.0175 0.843394 27.6008 0.676727C28.1842 0.510061 28.9758 0.676727 29.9758 1.17673ZM10.4758 28.1767C9.97583 28.5934 9.72583 28.9684 9.72583 29.3017C9.72583 29.6351 9.5175 29.8017 9.10083 29.8017C8.93416 30.4684 8.7675 30.9684 8.60083 31.3017C8.43416 31.6351 8.18416 32.0517 7.85083 32.5517C8.10083 33.4684 8.0175 34.3851 7.60083 35.3017C7.18416 36.1351 7.1425 37.0101 7.47583 37.9267C7.22583 38.0934 7.0175 38.6351 6.85083 39.5517C6.68416 40.3851 6.6425 40.9267 6.72583 41.1767C6.72583 41.5101 6.80916 41.8017 6.97583 42.0517C7.1425 42.2184 7.30916 42.4267 7.47583 42.6767C7.55916 43.6767 7.72583 44.3434 7.97583 44.6767C8.22583 44.9267 8.2675 45.2601 8.10083 45.6767C8.35083 45.8434 8.6425 46.0934 8.97583 46.4267C9.30916 46.7601 9.6425 47.0934 9.97583 47.4267C10.3925 47.7601 10.7258 48.0517 10.9758 48.3017C11.3092 48.5517 11.6008 48.6767 11.8508 48.6767C12.1842 48.3434 12.2675 48.0101 12.1008 47.6767C11.9342 47.3434 11.7675 46.9684 11.6008 46.5517C11.9342 45.6351 11.9758 44.4684 11.7258 43.0517C11.4758 41.6351 11.1425 40.4684 10.7258 39.5517C10.7258 37.8851 10.7258 36.5517 10.7258 35.5517C10.8092 34.5517 10.9342 33.5934 11.1008 32.6767C11.3508 31.7601 11.5175 30.8434 11.6008 29.9267C11.7675 29.0101 11.7675 28.0517 11.6008 27.0517C10.9342 27.2184 10.6008 27.4267 10.6008 27.6767C10.6008 27.8434 10.5592 28.0101 10.4758 28.1767ZM46.4758 74.5517C46.4758 75.9684 46.6008 77.4267 46.8508 78.9267C47.1008 80.4267 47.3092 81.8851 47.4758 83.3017C48.2258 82.5517 48.7675 82.0101 49.1008 81.6767C49.2675 80.4267 49.7258 79.4267 50.4758 78.6767C50.5592 77.5101 50.7675 76.3434 51.1008 75.1767C51.5175 73.9267 51.6842 72.7184 51.6008 71.5517C51.6008 70.8851 51.4342 70.2184 51.1008 69.5517C50.8508 68.8851 50.8092 68.2184 50.9758 67.5517C50.5592 66.9684 50.1008 66.4684 49.6008 66.0517C49.1008 65.6351 48.6842 65.1351 48.3508 64.5517C48.2675 64.5517 47.9758 64.4267 47.4758 64.1767C46.9758 63.9267 46.4342 63.6767 45.8508 63.4267C45.3508 63.0934 44.8508 62.8017 44.3508 62.5517C43.8508 62.2184 43.5592 62.0101 43.4758 61.9267C42.8092 62.7601 42.6425 63.5101 42.9758 64.1767C43.3092 64.7601 43.6425 65.4267 43.9758 66.1767C44.3092 67.0934 44.6425 67.7184 44.9758 68.0517C45.3092 68.3851 45.6008 68.9267 45.8508 69.6767C46.0175 70.0934 46.0592 70.5101 45.9758 70.9267C45.8925 71.3434 45.9342 71.7601 46.1008 72.1767C46.1008 72.3434 46.1842 72.5934 46.3508 72.9267C46.5175 73.1767 46.5592 73.3851 46.4758 73.5517V74.5517Z" fill="#FF0000"/>
<path d="M29.9758 1.17673C29.8092 2.01006 29.7675 2.84339 29.8508 3.67673C29.9342 4.42673 29.9758 5.21839 29.9758 6.05173C29.9758 6.30173 29.9342 6.55173 29.8508 6.80173C29.7675 7.05173 29.7258 7.26006 29.7258 7.42673C29.8092 7.84339 29.8925 8.21839 29.9758 8.55173C30.1425 8.80173 30.2258 9.13506 30.2258 9.55173C30.2258 10.0517 30.2675 10.5934 30.3508 11.1767C30.4342 11.6767 30.4758 12.1351 30.4758 12.5517C30.3925 13.2184 30.1842 13.9684 29.8508 14.8017C29.5175 15.6351 29.5592 16.3851 29.9758 17.0517C30.2258 17.4684 30.8925 17.6767 31.9758 17.6767C33.0592 17.6767 33.8092 17.5934 34.2258 17.4267C34.6425 17.9267 35.1842 18.2601 35.8508 18.4267C36.6008 18.5934 37.3092 18.6767 37.9758 18.6767C38.3092 19.0934 39.0175 19.5101 40.1008 19.9267C41.2675 20.2601 42.1008 20.5934 42.6008 20.9267C43.1842 21.7601 43.5592 22.1767 43.7258 22.1767C43.8925 22.1767 44.0592 22.2601 44.2258 22.4267C44.4758 22.5934 44.6842 22.8434 44.8508 23.1767C45.1008 23.5101 45.4342 23.7184 45.8508 23.8017C45.7675 24.1351 45.7675 24.3851 45.8508 24.5517C46.0175 24.6351 46.1842 24.8434 46.3508 25.1767C46.7675 25.3434 47.0175 25.6351 47.1008 26.0517C47.2675 26.3851 47.4758 26.7184 47.7258 27.0517C47.9758 27.3017 48.2675 27.5101 48.6008 27.6767C48.9342 27.8434 49.1842 28.0934 49.3508 28.4267C49.5175 26.6767 49.6425 24.9267 49.7258 23.1767C49.8092 21.4267 49.7675 19.6767 49.6008 17.9267C50.0175 17.4267 50.4342 17.0517 50.8508 16.8017C51.3508 16.4684 51.9342 16.3851 52.6008 16.5517C53.1842 16.9684 53.4758 17.3017 53.4758 17.5517C53.4758 17.7184 53.5592 17.7601 53.7258 17.6767C53.7258 18.1767 53.6842 18.8434 53.6008 19.6767C53.5175 20.5101 53.4342 21.3434 53.3508 22.1767C53.2675 23.0101 53.2258 23.8017 53.2258 24.5517C53.3092 25.3017 53.4758 25.8851 53.7258 26.3017C53.5592 27.4684 53.6008 28.3017 53.8508 28.8017C54.1008 29.2184 54.2258 29.7184 54.2258 30.3017C54.2258 30.9684 54.0592 31.5517 53.7258 32.0517C53.4758 32.5517 53.3092 33.1351 53.2258 33.8017C53.2258 34.0517 53.2675 34.3017 53.3508 34.5517C53.4342 34.8017 53.4758 35.0934 53.4758 35.4267C53.3092 36.6767 53.2675 37.5934 53.3508 38.1767C53.5175 38.6767 53.4758 39.1351 53.2258 39.5517C52.5592 39.8017 51.8925 40.0101 51.2258 40.1767C50.6425 40.2601 50.0175 40.2184 49.3508 40.0517C49.1008 39.8017 48.8925 39.5517 48.7258 39.3017C48.5592 38.9684 48.3508 38.6767 48.1008 38.4267C47.8508 38.0934 47.8925 37.8434 48.2258 37.6767C48.6425 37.4267 48.7675 37.0517 48.6008 36.5517C48.3508 35.0517 47.7675 33.7601 46.8508 32.6767C46.0175 31.5934 45.1425 30.4684 44.2258 29.3017L43.2258 27.9267C42.8925 27.5101 42.5175 27.1351 42.1008 26.8017C41.6842 26.3851 41.3925 25.9267 41.2258 25.4267C40.8092 25.4267 40.4758 25.2601 40.2258 24.9267C39.9758 24.5101 39.6842 24.2184 39.3508 24.0517C39.1008 23.9684 38.6425 23.8017 37.9758 23.5517C37.3092 23.3017 36.5592 23.0934 35.7258 22.9267C34.9758 22.6767 34.2258 22.4684 33.4758 22.3017C32.8092 22.0517 32.3508 21.9267 32.1008 21.9267C31.6008 21.8434 31.1008 21.8851 30.6008 22.0517C30.1842 22.1351 29.7675 22.1767 29.3508 22.1767C28.3508 21.8434 27.7258 21.7184 27.4758 21.8017C27.2258 21.8851 26.9758 21.9267 26.7258 21.9267C26.0592 21.9267 25.4758 21.8851 24.9758 21.8017C24.4758 21.7184 23.8925 21.9267 23.2258 22.4267C22.0592 22.2601 21.0175 22.3434 20.1008 22.6767C19.1842 22.9267 18.1425 23.1351 16.9758 23.3017C16.8925 23.5517 16.8925 23.8017 16.9758 24.0517C17.1425 24.3017 17.1425 24.5101 16.9758 24.6767C16.7258 25.1767 16.5175 25.6767 16.3508 26.1767C16.2675 26.6767 16.1425 27.1767 15.9758 27.6767C16.1425 27.8434 16.1008 28.1351 15.8508 28.5517C15.6842 28.8851 15.6008 29.1351 15.6008 29.3017C15.5175 29.6351 15.5175 29.9684 15.6008 30.3017C15.7675 30.5517 15.8508 30.8434 15.8508 31.1767C15.7675 31.4267 15.6425 31.6767 15.4758 31.9267C15.3925 32.1767 15.3508 32.3851 15.3508 32.5517C15.1842 33.4684 15.1842 34.3434 15.3508 35.1767C15.5175 36.0101 15.6008 36.8434 15.6008 37.6767C15.6008 37.9267 15.5592 38.1767 15.4758 38.4267C15.3925 38.6767 15.3508 38.9267 15.3508 39.1767C15.3508 39.5101 15.3925 39.8434 15.4758 40.1767C15.6425 40.5101 15.7675 40.8434 15.8508 41.1767C15.9342 41.7601 15.9758 42.4267 15.9758 43.1767C15.9758 43.9267 16.2258 44.5101 16.7258 44.9267C16.5592 45.0934 16.4758 45.3434 16.4758 45.6767C16.4758 45.9267 16.3925 46.1351 16.2258 46.3017C16.3925 46.9684 16.6008 47.5517 16.8508 48.0517C17.1008 48.4684 17.1425 49.0517 16.9758 49.8017C17.5592 50.3017 17.7675 50.6351 17.6008 50.8017C17.4342 50.9684 17.3925 51.0934 17.4758 51.1767C17.6425 51.5101 17.9758 51.8017 18.4758 52.0517C19.0592 52.3017 19.6842 52.5101 20.3508 52.6767C21.1008 52.7601 21.8092 52.8851 22.4758 53.0517C23.1425 53.1351 23.6425 53.2184 23.9758 53.3017C24.3925 53.4684 24.7258 53.6351 24.9758 53.8017C25.3092 53.9684 25.6842 54.1351 26.1008 54.3017C26.5175 54.3851 26.8925 54.4267 27.2258 54.4267C27.5592 54.3434 27.9342 54.3851 28.3508 54.5517C29.2675 54.7184 30.1008 54.9684 30.8508 55.3017C31.6842 55.5517 32.5592 55.7601 33.4758 55.9267C33.7258 56.0101 33.9758 56.0101 34.2258 55.9267C34.5592 55.8434 34.8508 55.8434 35.1008 55.9267C36.3508 56.3434 37.2675 56.5101 37.8508 56.4267C38.5175 56.3434 39.1425 56.3851 39.7258 56.5517C40.1425 56.6351 40.4758 56.7601 40.7258 56.9267C40.9758 57.0101 41.2675 57.1351 41.6008 57.3017C42.6008 57.6351 43.8508 58.0101 45.3508 58.4267C46.9342 58.8434 48.0175 59.4684 48.6008 60.3017C49.2675 60.3851 49.8092 60.5934 50.2258 60.9267C50.6425 61.2601 51.1842 61.5101 51.8508 61.6767C52.1008 62.2601 52.3925 62.7184 52.7258 63.0517C53.1425 63.3851 53.5592 63.8017 53.9758 64.3017C54.6425 65.6351 55.0592 66.6767 55.2258 67.4267C55.3925 68.1767 55.5175 68.9684 55.6008 69.8017C55.7675 70.8851 55.7675 71.5517 55.6008 71.8017C55.5175 71.9684 55.4342 72.1767 55.3508 72.4267C55.2675 72.7601 55.2675 73.0934 55.3508 73.4267C55.4342 73.7601 55.4342 74.1351 55.3508 74.5517C55.3508 74.8017 55.2675 75.3017 55.1008 76.0517C54.9342 76.7184 54.7675 77.4684 54.6008 78.3017C54.4342 79.0517 54.2258 79.8017 53.9758 80.5517C53.7258 81.2184 53.5592 81.6767 53.4758 81.9267C53.0592 82.3434 52.8925 82.6767 52.9758 82.9267C53.0592 83.1767 53.0175 83.3851 52.8508 83.5517C52.1842 84.3851 51.7258 85.0517 51.4758 85.5517C51.2258 85.9684 50.8925 86.2601 50.4758 86.4267C50.5592 86.7601 50.5175 87.0101 50.3508 87.1767C50.1842 87.2601 50.1425 87.4684 50.2258 87.8017C49.4758 88.5517 48.8508 89.0101 48.3508 89.1767C47.9342 89.3434 47.6425 89.5101 47.4758 89.6767L46.3508 90.5517C45.1008 90.6351 44.2675 90.8017 43.8508 91.0517C43.4342 91.2184 43.0175 91.3851 42.6008 91.5517C41.4342 91.8017 40.2258 91.9684 38.9758 92.0517C37.8092 92.0517 36.7675 92.3434 35.8508 92.9267C35.3508 92.5934 34.7675 92.5517 34.1008 92.8017C33.4342 93.0517 32.7675 93.0934 32.1008 92.9267C31.8508 93.5934 31.8925 94.3434 32.2258 95.1767C32.5592 96.0101 32.6842 96.6351 32.6008 97.0517C33.0175 98.0517 33.1842 98.7184 33.1008 99.0517C33.0175 99.3851 33.0592 99.7601 33.2258 100.177C33.4758 100.593 33.4758 101.468 33.2258 102.802C33.0592 104.052 32.8508 104.885 32.6008 105.302C32.1008 105.885 31.3925 106.177 30.4758 106.177C29.5592 106.177 28.8508 105.885 28.3508 105.302C28.3508 104.718 28.3092 104.135 28.2258 103.552C28.1425 102.885 28.2675 102.302 28.6008 101.802C28.3508 101.468 28.1842 101.218 28.1008 101.052C28.1008 100.802 28.1008 100.593 28.1008 100.427C28.1842 100.26 28.2258 100.093 28.2258 99.9267C28.3092 99.7601 28.3508 99.5101 28.3508 99.1767C28.3508 98.7601 28.2675 98.4267 28.1008 98.1767C28.0175 97.8434 27.9342 97.4684 27.8508 97.0517C27.7675 96.3851 27.7258 95.7601 27.7258 95.1767C27.7258 94.5101 27.6425 93.8434 27.4758 93.1767C27.2258 93.2601 26.8508 93.2601 26.3508 93.1767C25.9342 93.0934 25.6842 93.1767 25.6008 93.4267C24.8508 93.0934 24.2258 92.7601 23.7258 92.4267C23.2258 92.0934 22.5175 91.9267 21.6008 91.9267C21.1842 91.4267 20.4342 91.0101 19.3508 90.6767C18.2675 90.2601 17.3925 89.9267 16.7258 89.6767C16.3092 89.5101 15.8925 89.3017 15.4758 89.0517C15.1425 88.8017 14.7675 88.5934 14.3508 88.4267C13.9342 88.2601 13.5175 88.1351 13.1008 88.0517C12.6842 87.9684 12.2675 87.8017 11.8508 87.5517C11.5175 87.3851 11.2258 87.1351 10.9758 86.8017C10.7258 86.4684 10.3925 86.3434 9.97583 86.4267C9.80916 86.0101 9.55916 85.7601 9.22583 85.6767C8.97583 85.5101 8.68416 85.3434 8.35083 85.1767C7.93416 85.7601 7.72583 86.5934 7.72583 87.6767C7.80916 88.7601 7.93416 89.6351 8.10083 90.3017C8.18416 90.7184 8.3925 91.0517 8.72583 91.3017C9.05916 91.4684 9.22583 91.7601 9.22583 92.1767C8.8925 93.0934 8.5175 93.6351 8.10083 93.8017C7.7675 93.8851 7.55916 94.2184 7.47583 94.8017C7.05916 94.6351 6.60083 94.5517 6.10083 94.5517C5.68416 94.4684 5.2675 94.3851 4.85083 94.3017C4.68416 93.7184 4.43416 93.1767 4.10083 92.6767C3.7675 92.1767 3.55916 91.6351 3.47583 91.0517C3.30916 90.2184 3.30916 89.4267 3.47583 88.6767C3.72583 87.9267 3.80916 87.1767 3.72583 86.4267C3.6425 86.1767 3.55916 85.9684 3.47583 85.8017C3.47583 85.5517 3.30916 85.3434 2.97583 85.1767C3.30916 84.2601 3.2675 83.6351 2.85083 83.3017C2.5175 82.9684 2.2675 82.5101 2.10083 81.9267C1.93416 81.6767 1.85083 81.3851 1.85083 81.0517C1.93416 80.7184 1.93416 80.3851 1.85083 80.0517C1.85083 79.9684 1.7675 79.7601 1.60083 79.4267C1.5175 79.0934 1.43416 78.7601 1.35083 78.4267C1.2675 78.0934 1.18416 77.8017 1.10083 77.5517C1.10083 77.2184 1.18416 77.0517 1.35083 77.0517C1.2675 76.8851 1.1425 76.6767 0.97583 76.4267C0.892497 76.0934 0.85083 75.8434 0.85083 75.6767C0.85083 75.4267 0.892497 74.9684 0.97583 74.3017C1.1425 73.5517 1.30916 72.7601 1.47583 71.9267C1.6425 71.0934 1.85083 70.3434 2.10083 69.6767C2.35083 69.0101 2.55916 68.5934 2.72583 68.4267C2.97583 68.2601 3.1425 68.2184 3.22583 68.3017C3.30916 68.3851 3.55916 68.2184 3.97583 67.8017C4.3925 67.6351 4.7675 67.6767 5.10083 67.9267C5.43416 68.1767 5.80916 68.2184 6.22583 68.0517C6.55916 68.4684 6.7675 69.1767 6.85083 70.1767C6.93416 71.0934 7.05916 71.8434 7.22583 72.4267C7.05916 72.8434 7.1425 73.0517 7.47583 73.0517C7.80916 73.0517 8.0175 73.2184 8.10083 73.5517C8.18416 73.8851 8.2675 74.3017 8.35083 74.8017C8.43416 75.2184 8.68416 75.5101 9.10083 75.6767C9.0175 76.0934 9.0175 76.5517 9.10083 77.0517C9.18416 77.5517 9.3925 77.8851 9.72583 78.0517C9.6425 78.7184 9.7675 79.2601 10.1008 79.6767C10.4342 80.0934 10.6842 80.4684 10.8508 80.8017C11.2675 81.6351 11.8508 82.3017 12.6008 82.8017C13.3508 83.3017 14.0175 83.8851 14.6008 84.5517C15.4342 84.7184 16.1425 85.0517 16.7258 85.5517C17.3092 85.9684 17.9342 86.3851 18.6008 86.8017C19.6842 86.8017 20.5175 87.1351 21.1008 87.8017C21.7675 87.6351 22.6425 87.8017 23.7258 88.3017C24.8925 88.8017 25.5175 89.1767 25.6008 89.4267C26.0175 89.2601 26.4758 89.2184 26.9758 89.3017C27.5592 89.3851 28.1008 89.4267 28.6008 89.4267C29.5175 89.2601 30.1425 89.2184 30.4758 89.3017C30.8092 89.3851 31.1842 89.3434 31.6008 89.1767C31.7675 89.0934 32.1008 89.0934 32.6008 89.1767C33.1842 89.1767 33.7675 89.1767 34.3508 89.1767C34.9342 89.1767 35.4342 89.1351 35.8508 89.0517C36.2675 88.8851 36.4758 88.6767 36.4758 88.4267C36.6425 88.5934 36.9342 88.6351 37.3508 88.5517C37.8508 88.4684 38.1842 88.3851 38.3508 88.3017C39.3508 87.8851 39.9342 87.6767 40.1008 87.6767C40.2675 87.6767 40.4342 87.6767 40.6008 87.6767C40.7675 87.6767 40.9342 87.5934 41.1008 87.4267C41.3508 87.2601 41.6842 86.9267 42.1008 86.4267C42.2675 85.5101 42.5175 84.8851 42.8508 84.5517C43.1842 84.2184 43.3092 83.7601 43.2258 83.1767C42.8925 82.3434 42.7675 81.8851 42.8508 81.8017C43.0175 81.6351 43.0592 81.4684 42.9758 81.3017C42.9758 80.1351 42.8508 78.9267 42.6008 77.6767C42.3508 76.4267 42.1842 75.2184 42.1008 74.0517C42.1008 73.7184 42.1008 73.4267 42.1008 73.1767C42.1842 72.8434 42.1842 72.5101 42.1008 72.1767C41.6842 71.1767 41.4758 70.4684 41.4758 70.0517C41.4758 69.5517 41.3925 69.0934 41.2258 68.6767C40.5592 67.6767 40.1425 66.8434 39.9758 66.1767C39.8925 65.4267 39.6008 65.0101 39.1008 64.9267C39.1842 64.0934 39.0175 63.4684 38.6008 63.0517C38.2675 62.6351 38.1008 62.0517 38.1008 61.3017C37.3508 60.8851 36.3092 60.4684 34.9758 60.0517C33.6425 59.6351 32.5175 59.3434 31.6008 59.1767C31.1842 59.0934 30.7258 59.0934 30.2258 59.1767C29.8092 59.2601 29.3508 59.2601 28.8508 59.1767C28.1842 59.0101 27.6425 58.8017 27.2258 58.5517C26.8925 58.2184 26.4342 57.9684 25.8508 57.8017C25.2675 57.6351 24.6842 57.5517 24.1008 57.5517C23.6008 57.5517 23.1008 57.4684 22.6008 57.3017C22.1842 57.1351 21.8508 56.9684 21.6008 56.8017C21.3508 56.6351 21.0592 56.4684 20.7258 56.3017C20.3925 56.2184 20.0592 56.2184 19.7258 56.3017C19.4758 56.3851 19.1842 56.3851 18.8508 56.3017C17.9342 55.9684 17.3092 55.8434 16.9758 55.9267C16.7258 56.0101 16.4758 56.0101 16.2258 55.9267C15.9758 55.8434 15.7258 55.7184 15.4758 55.5517C15.3092 55.3851 15.1008 55.2601 14.8508 55.1767C14.6008 55.0934 14.3092 55.0517 13.9758 55.0517C13.7258 54.9684 13.4758 54.8434 13.2258 54.6767C12.4758 54.4267 12.1008 54.2601 12.1008 54.1767C12.1842 54.0101 12.1842 53.8851 12.1008 53.8017C11.9342 53.6351 11.6425 53.5517 11.2258 53.5517C10.8925 53.4684 10.6425 53.3851 10.4758 53.3017C9.1425 52.1351 7.85083 50.9684 6.60083 49.8017C5.43416 48.5517 4.22583 47.3017 2.97583 46.0517C2.97583 45.9684 2.93416 45.7601 2.85083 45.4267C2.85083 45.0101 2.80916 44.6351 2.72583 44.3017C2.72583 43.8851 2.68416 43.5101 2.60083 43.1767C2.5175 42.7601 2.47583 42.5101 2.47583 42.4267C2.22583 41.5934 2.1425 41.1351 2.22583 41.0517C2.30916 40.8851 2.35083 40.7184 2.35083 40.5517C2.18416 39.5517 2.1425 38.9684 2.22583 38.8017C2.3925 38.6351 2.47583 38.4267 2.47583 38.1767C2.55916 37.7601 2.5175 37.4267 2.35083 37.1767C2.2675 36.9267 2.30916 36.5517 2.47583 36.0517C2.97583 35.2184 3.18416 34.5934 3.10083 34.1767C3.10083 33.6767 3.1425 33.2184 3.22583 32.8017C3.22583 32.7184 3.2675 32.4684 3.35083 32.0517C3.5175 31.5517 3.6425 31.0101 3.72583 30.4267C3.8925 29.8434 4.0175 29.3434 4.10083 28.9267C4.2675 28.4267 4.35083 28.1767 4.35083 28.1767C4.7675 27.4267 5.0175 27.0101 5.10083 26.9267C5.2675 26.8434 5.43416 26.7184 5.60083 26.5517C5.7675 26.3017 5.93416 26.0517 6.10083 25.8017C6.2675 25.4684 6.47583 25.1767 6.72583 24.9267C7.1425 24.4267 7.60083 23.9684 8.10083 23.5517C8.60083 23.1351 9.05916 22.6767 9.47583 22.1767C10.3092 21.8434 10.8508 21.6351 11.1008 21.5517C11.4342 21.3851 11.6842 21.0934 11.8508 20.6767C12.7675 20.3434 13.2675 20.2184 13.3508 20.3017C13.4342 20.3017 13.5592 20.3017 13.7258 20.3017C14.1425 19.8017 14.5175 19.5934 14.8508 19.6767C15.1842 19.6767 15.5175 19.6351 15.8508 19.5517C16.5175 19.3851 17.2258 19.1351 17.9758 18.8017C18.7258 18.4684 19.4758 18.4267 20.2258 18.6767C20.9758 18.3434 21.3925 18.1767 21.4758 18.1767C21.6425 18.0934 21.7675 18.0101 21.8508 17.9267C22.1842 17.9267 22.4758 17.9684 22.7258 18.0517C23.0592 18.1351 23.3092 18.1767 23.4758 18.1767C24.3092 17.7601 24.8092 17.5934 24.9758 17.6767C25.2258 17.6767 25.4342 17.5934 25.6008 17.4267C25.6008 16.0934 25.6425 14.7601 25.7258 13.4267C25.8925 12.0101 25.8508 10.6351 25.6008 9.30173C25.5175 8.13506 25.5592 7.42673 25.7258 7.17673C25.9758 6.84339 25.9342 6.38506 25.6008 5.80173C25.6008 5.05173 25.6425 4.30173 25.7258 3.55173C25.8092 2.80173 25.9758 2.17673 26.2258 1.67673C26.5592 1.17673 27.0175 0.843394 27.6008 0.676727C28.1842 0.510061 28.9758 0.676727 29.9758 1.17673ZM10.4758 28.1767C9.97583 28.5934 9.72583 28.9684 9.72583 29.3017C9.72583 29.6351 9.5175 29.8017 9.10083 29.8017C8.93416 30.4684 8.7675 30.9684 8.60083 31.3017C8.43416 31.6351 8.18416 32.0517 7.85083 32.5517C8.10083 33.4684 8.0175 34.3851 7.60083 35.3017C7.18416 36.1351 7.1425 37.0101 7.47583 37.9267C7.22583 38.0934 7.0175 38.6351 6.85083 39.5517C6.68416 40.3851 6.6425 40.9267 6.72583 41.1767C6.72583 41.5101 6.80916 41.8017 6.97583 42.0517C7.1425 42.2184 7.30916 42.4267 7.47583 42.6767C7.55916 43.6767 7.72583 44.3434 7.97583 44.6767C8.22583 44.9267 8.2675 45.2601 8.10083 45.6767C8.35083 45.8434 8.6425 46.0934 8.97583 46.4267C9.30916 46.7601 9.6425 47.0934 9.97583 47.4267C10.3925 47.7601 10.7258 48.0517 10.9758 48.3017C11.3092 48.5517 11.6008 48.6767 11.8508 48.6767C12.1842 48.3434 12.2675 48.0101 12.1008 47.6767C11.9342 47.3434 11.7675 46.9684 11.6008 46.5517C11.9342 45.6351 11.9758 44.4684 11.7258 43.0517C11.4758 41.6351 11.1425 40.4684 10.7258 39.5517C10.7258 37.8851 10.7258 36.5517 10.7258 35.5517C10.8092 34.5517 10.9342 33.5934 11.1008 32.6767C11.3508 31.7601 11.5175 30.8434 11.6008 29.9267C11.7675 29.0101 11.7675 28.0517 11.6008 27.0517C10.9342 27.2184 10.6008 27.4267 10.6008 27.6767C10.6008 27.8434 10.5592 28.0101 10.4758 28.1767ZM46.4758 74.5517C46.4758 75.9684 46.6008 77.4267 46.8508 78.9267C47.1008 80.4267 47.3092 81.8851 47.4758 83.3017C48.2258 82.5517 48.7675 82.0101 49.1008 81.6767C49.2675 80.4267 49.7258 79.4267 50.4758 78.6767C50.5592 77.5101 50.7675 76.3434 51.1008 75.1767C51.5175 73.9267 51.6842 72.7184 51.6008 71.5517C51.6008 70.8851 51.4342 70.2184 51.1008 69.5517C50.8508 68.8851 50.8092 68.2184 50.9758 67.5517C50.5592 66.9684 50.1008 66.4684 49.6008 66.0517C49.1008 65.6351 48.6842 65.1351 48.3508 64.5517C48.2675 64.5517 47.9758 64.4267 47.4758 64.1767C46.9758 63.9267 46.4342 63.6767 45.8508 63.4267C45.3508 63.0934 44.8508 62.8017 44.3508 62.5517C43.8508 62.2184 43.5592 62.0101 43.4758 61.9267C42.8092 62.7601 42.6425 63.5101 42.9758 64.1767C43.3092 64.7601 43.6425 65.4267 43.9758 66.1767C44.3092 67.0934 44.6425 67.7184 44.9758 68.0517C45.3092 68.3851 45.6008 68.9267 45.8508 69.6767C46.0175 70.0934 46.0592 70.5101 45.9758 70.9267C45.8925 71.3434 45.9342 71.7601 46.1008 72.1767C46.1008 72.3434 46.1842 72.5934 46.3508 72.9267C46.5175 73.1767 46.5592 73.3851 46.4758 73.5517V74.5517Z" fill="#FF0000"/>
<path d="M29.9758 1.17673C29.8092 2.01006 29.7675 2.84339 29.8508 3.67673C29.9342 4.42673 29.9758 5.21839 29.9758 6.05173C29.9758 6.30173 29.9342 6.55173 29.8508 6.80173C29.7675 7.05173 29.7258 7.26006 29.7258 7.42673C29.8092 7.84339 29.8925 8.21839 29.9758 8.55173C30.1425 8.80173 30.2258 9.13506 30.2258 9.55173C30.2258 10.0517 30.2675 10.5934 30.3508 11.1767C30.4342 11.6767 30.4758 12.1351 30.4758 12.5517C30.3925 13.2184 30.1842 13.9684 29.8508 14.8017C29.5175 15.6351 29.5592 16.3851 29.9758 17.0517C30.2258 17.4684 30.8925 17.6767 31.9758 17.6767C33.0592 17.6767 33.8092 17.5934 34.2258 17.4267C34.6425 17.9267 35.1842 18.2601 35.8508 18.4267C36.6008 18.5934 37.3092 18.6767 37.9758 18.6767C38.3092 19.0934 39.0175 19.5101 40.1008 19.9267C41.2675 20.2601 42.1008 20.5934 42.6008 20.9267C43.1842 21.7601 43.5592 22.1767 43.7258 22.1767C43.8925 22.1767 44.0592 22.2601 44.2258 22.4267C44.4758 22.5934 44.6842 22.8434 44.8508 23.1767C45.1008 23.5101 45.4342 23.7184 45.8508 23.8017C45.7675 24.1351 45.7675 24.3851 45.8508 24.5517C46.0175 24.6351 46.1842 24.8434 46.3508 25.1767C46.7675 25.3434 47.0175 25.6351 47.1008 26.0517C47.2675 26.3851 47.4758 26.7184 47.7258 27.0517C47.9758 27.3017 48.2675 27.5101 48.6008 27.6767C48.9342 27.8434 49.1842 28.0934 49.3508 28.4267C49.5175 26.6767 49.6425 24.9267 49.7258 23.1767C49.8092 21.4267 49.7675 19.6767 49.6008 17.9267C50.0175 17.4267 50.4342 17.0517 50.8508 16.8017C51.3508 16.4684 51.9342 16.3851 52.6008 16.5517C53.1842 16.9684 53.4758 17.3017 53.4758 17.5517C53.4758 17.7184 53.5592 17.7601 53.7258 17.6767C53.7258 18.1767 53.6842 18.8434 53.6008 19.6767C53.5175 20.5101 53.4342 21.3434 53.3508 22.1767C53.2675 23.0101 53.2258 23.8017 53.2258 24.5517C53.3092 25.3017 53.4758 25.8851 53.7258 26.3017C53.5592 27.4684 53.6008 28.3017 53.8508 28.8017C54.1008 29.2184 54.2258 29.7184 54.2258 30.3017C54.2258 30.9684 54.0592 31.5517 53.7258 32.0517C53.4758 32.5517 53.3092 33.1351 53.2258 33.8017C53.2258 34.0517 53.2675 34.3017 53.3508 34.5517C53.4342 34.8017 53.4758 35.0934 53.4758 35.4267C53.3092 36.6767 53.2675 37.5934 53.3508 38.1767C53.5175 38.6767 53.4758 39.1351 53.2258 39.5517C52.5592 39.8017 51.8925 40.0101 51.2258 40.1767C50.6425 40.2601 50.0175 40.2184 49.3508 40.0517C49.1008 39.8017 48.8925 39.5517 48.7258 39.3017C48.5592 38.9684 48.3508 38.6767 48.1008 38.4267C47.8508 38.0934 47.8925 37.8434 48.2258 37.6767C48.6425 37.4267 48.7675 37.0517 48.6008 36.5517C48.3508 35.0517 47.7675 33.7601 46.8508 32.6767C46.0175 31.5934 45.1425 30.4684 44.2258 29.3017L43.2258 27.9267C42.8925 27.5101 42.5175 27.1351 42.1008 26.8017C41.6842 26.3851 41.3925 25.9267 41.2258 25.4267C40.8092 25.4267 40.4758 25.2601 40.2258 24.9267C39.9758 24.5101 39.6842 24.2184 39.3508 24.0517C39.1008 23.9684 38.6425 23.8017 37.9758 23.5517C37.3092 23.3017 36.5592 23.0934 35.7258 22.9267C34.9758 22.6767 34.2258 22.4684 33.4758 22.3017C32.8092 22.0517 32.3508 21.9267 32.1008 21.9267C31.6008 21.8434 31.1008 21.8851 30.6008 22.0517C30.1842 22.1351 29.7675 22.1767 29.3508 22.1767C28.3508 21.8434 27.7258 21.7184 27.4758 21.8017C27.2258 21.8851 26.9758 21.9267 26.7258 21.9267C26.0592 21.9267 25.4758 21.8851 24.9758 21.8017C24.4758 21.7184 23.8925 21.9267 23.2258 22.4267C22.0592 22.2601 21.0175 22.3434 20.1008 22.6767C19.1842 22.9267 18.1425 23.1351 16.9758 23.3017C16.8925 23.5517 16.8925 23.8017 16.9758 24.0517C17.1425 24.3017 17.1425 24.5101 16.9758 24.6767C16.7258 25.1767 16.5175 25.6767 16.3508 26.1767C16.2675 26.6767 16.1425 27.1767 15.9758 27.6767C16.1425 27.8434 16.1008 28.1351 15.8508 28.5517C15.6842 28.8851 15.6008 29.1351 15.6008 29.3017C15.5175 29.6351 15.5175 29.9684 15.6008 30.3017C15.7675 30.5517 15.8508 30.8434 15.8508 31.1767C15.7675 31.4267 15.6425 31.6767 15.4758 31.9267C15.3925 32.1767 15.3508 32.3851 15.3508 32.5517C15.1842 33.4684 15.1842 34.3434 15.3508 35.1767C15.5175 36.0101 15.6008 36.8434 15.6008 37.6767C15.6008 37.9267 15.5592 38.1767 15.4758 38.4267C15.3925 38.6767 15.3508 38.9267 15.3508 39.1767C15.3508 39.5101 15.3925 39.8434 15.4758 40.1767C15.6425 40.5101 15.7675 40.8434 15.8508 41.1767C15.9342 41.7601 15.9758 42.4267 15.9758 43.1767C15.9758 43.9267 16.2258 44.5101 16.7258 44.9267C16.5592 45.0934 16.4758 45.3434 16.4758 45.6767C16.4758 45.9267 16.3925 46.1351 16.2258 46.3017C16.3925 46.9684 16.6008 47.5517 16.8508 48.0517C17.1008 48.4684 17.1425 49.0517 16.9758 49.8017C17.5592 50.3017 17.7675 50.6351 17.6008 50.8017C17.4342 50.9684 17.3925 51.0934 17.4758 51.1767C17.6425 51.5101 17.9758 51.8017 18.4758 52.0517C19.0592 52.3017 19.6842 52.5101 20.3508 52.6767C21.1008 52.7601 21.8092 52.8851 22.4758 53.0517C23.1425 53.1351 23.6425 53.2184 23.9758 53.3017C24.3925 53.4684 24.7258 53.6351 24.9758 53.8017C25.3092 53.9684 25.6842 54.1351 26.1008 54.3017C26.5175 54.3851 26.8925 54.4267 27.2258 54.4267C27.5592 54.3434 27.9342 54.3851 28.3508 54.5517C29.2675 54.7184 30.1008 54.9684 30.8508 55.3017C31.6842 55.5517 32.5592 55.7601 33.4758 55.9267C33.7258 56.0101 33.9758 56.0101 34.2258 55.9267C34.5592 55.8434 34.8508 55.8434 35.1008 55.9267C36.3508 56.3434 37.2675 56.5101 37.8508 56.4267C38.5175 56.3434 39.1425 56.3851 39.7258 56.5517C40.1425 56.6351 40.4758 56.7601 40.7258 56.9267C40.9758 57.0101 41.2675 57.1351 41.6008 57.3017C42.6008 57.6351 43.8508 58.0101 45.3508 58.4267C46.9342 58.8434 48.0175 59.4684 48.6008 60.3017C49.2675 60.3851 49.8092 60.5934 50.2258 60.9267C50.6425 61.2601 51.1842 61.5101 51.8508 61.6767C52.1008 62.2601 52.3925 62.7184 52.7258 63.0517C53.1425 63.3851 53.5592 63.8017 53.9758 64.3017C54.6425 65.6351 55.0592 66.6767 55.2258 67.4267C55.3925 68.1767 55.5175 68.9684 55.6008 69.8017C55.7675 70.8851 55.7675 71.5517 55.6008 71.8017C55.5175 71.9684 55.4342 72.1767 55.3508 72.4267C55.2675 72.7601 55.2675 73.0934 55.3508 73.4267C55.4342 73.7601 55.4342 74.1351 55.3508 74.5517C55.3508 74.8017 55.2675 75.3017 55.1008 76.0517C54.9342 76.7184 54.7675 77.4684 54.6008 78.3017C54.4342 79.0517 54.2258 79.8017 53.9758 80.5517C53.7258 81.2184 53.5592 81.6767 53.4758 81.9267C53.0592 82.3434 52.8925 82.6767 52.9758 82.9267C53.0592 83.1767 53.0175 83.3851 52.8508 83.5517C52.1842 84.3851 51.7258 85.0517 51.4758 85.5517C51.2258 85.9684 50.8925 86.2601 50.4758 86.4267C50.5592 86.7601 50.5175 87.0101 50.3508 87.1767C50.1842 87.2601 50.1425 87.4684 50.2258 87.8017C49.4758 88.5517 48.8508 89.0101 48.3508 89.1767C47.9342 89.3434 47.6425 89.5101 47.4758 89.6767L46.3508 90.5517C45.1008 90.6351 44.2675 90.8017 43.8508 91.0517C43.4342 91.2184 43.0175 91.3851 42.6008 91.5517C41.4342 91.8017 40.2258 91.9684 38.9758 92.0517C37.8092 92.0517 36.7675 92.3434 35.8508 92.9267C35.3508 92.5934 34.7675 92.5517 34.1008 92.8017C33.4342 93.0517 32.7675 93.0934 32.1008 92.9267C31.8508 93.5934 31.8925 94.3434 32.2258 95.1767C32.5592 96.0101 32.6842 96.6351 32.6008 97.0517C33.0175 98.0517 33.1842 98.7184 33.1008 99.0517C33.0175 99.3851 33.0592 99.7601 33.2258 100.177C33.4758 100.593 33.4758 101.468 33.2258 102.802C33.0592 104.052 32.8508 104.885 32.6008 105.302C32.1008 105.885 31.3925 106.177 30.4758 106.177C29.5592 106.177 28.8508 105.885 28.3508 105.302C28.3508 104.718 28.3092 104.135 28.2258 103.552C28.1425 102.885 28.2675 102.302 28.6008 101.802C28.3508 101.468 28.1842 101.218 28.1008 101.052C28.1008 100.802 28.1008 100.593 28.1008 100.427C28.1842 100.26 28.2258 100.093 28.2258 99.9267C28.3092 99.7601 28.3508 99.5101 28.3508 99.1767C28.3508 98.7601 28.2675 98.4267 28.1008 98.1767C28.0175 97.8434 27.9342 97.4684 27.8508 97.0517C27.7675 96.3851 27.7258 95.7601 27.7258 95.1767C27.7258 94.5101 27.6425 93.8434 27.4758 93.1767C27.2258 93.2601 26.8508 93.2601 26.3508 93.1767C25.9342 93.0934 25.6842 93.1767 25.6008 93.4267C24.8508 93.0934 24.2258 92.7601 23.7258 92.4267C23.2258 92.0934 22.5175 91.9267 21.6008 91.9267C21.1842 91.4267 20.4342 91.0101 19.3508 90.6767C18.2675 90.2601 17.3925 89.9267 16.7258 89.6767C16.3092 89.5101 15.8925 89.3017 15.4758 89.0517C15.1425 88.8017 14.7675 88.5934 14.3508 88.4267C13.9342 88.2601 13.5175 88.1351 13.1008 88.0517C12.6842 87.9684 12.2675 87.8017 11.8508 87.5517C11.5175 87.3851 11.2258 87.1351 10.9758 86.8017C10.7258 86.4684 10.3925 86.3434 9.97583 86.4267C9.80916 86.0101 9.55916 85.7601 9.22583 85.6767C8.97583 85.5101 8.68416 85.3434 8.35083 85.1767C7.93416 85.7601 7.72583 86.5934 7.72583 87.6767C7.80916 88.7601 7.93416 89.6351 8.10083 90.3017C8.18416 90.7184 8.3925 91.0517 8.72583 91.3017C9.05916 91.4684 9.22583 91.7601 9.22583 92.1767C8.8925 93.0934 8.5175 93.6351 8.10083 93.8017C7.7675 93.8851 7.55916 94.2184 7.47583 94.8017C7.05916 94.6351 6.60083 94.5517 6.10083 94.5517C5.68416 94.4684 5.2675 94.3851 4.85083 94.3017C4.68416 93.7184 4.43416 93.1767 4.10083 92.6767C3.7675 92.1767 3.55916 91.6351 3.47583 91.0517C3.30916 90.2184 3.30916 89.4267 3.47583 88.6767C3.72583 87.9267 3.80916 87.1767 3.72583 86.4267C3.6425 86.1767 3.55916 85.9684 3.47583 85.8017C3.47583 85.5517 3.30916 85.3434 2.97583 85.1767C3.30916 84.2601 3.2675 83.6351 2.85083 83.3017C2.5175 82.9684 2.2675 82.5101 2.10083 81.9267C1.93416 81.6767 1.85083 81.3851 1.85083 81.0517C1.93416 80.7184 1.93416 80.3851 1.85083 80.0517C1.85083 79.9684 1.7675 79.7601 1.60083 79.4267C1.5175 79.0934 1.43416 78.7601 1.35083 78.4267C1.2675 78.0934 1.18416 77.8017 1.10083 77.5517C1.10083 77.2184 1.18416 77.0517 1.35083 77.0517C1.2675 76.8851 1.1425 76.6767 0.97583 76.4267C0.892497 76.0934 0.85083 75.8434 0.85083 75.6767C0.85083 75.4267 0.892497 74.9684 0.97583 74.3017C1.1425 73.5517 1.30916 72.7601 1.47583 71.9267C1.6425 71.0934 1.85083 70.3434 2.10083 69.6767C2.35083 69.0101 2.55916 68.5934 2.72583 68.4267C2.97583 68.2601 3.1425 68.2184 3.22583 68.3017C3.30916 68.3851 3.55916 68.2184 3.97583 67.8017C4.3925 67.6351 4.7675 67.6767 5.10083 67.9267C5.43416 68.1767 5.80916 68.2184 6.22583 68.0517C6.55916 68.4684 6.7675 69.1767 6.85083 70.1767C6.93416 71.0934 7.05916 71.8434 7.22583 72.4267C7.05916 72.8434 7.1425 73.0517 7.47583 73.0517C7.80916 73.0517 8.0175 73.2184 8.10083 73.5517C8.18416 73.8851 8.2675 74.3017 8.35083 74.8017C8.43416 75.2184 8.68416 75.5101 9.10083 75.6767C9.0175 76.0934 9.0175 76.5517 9.10083 77.0517C9.18416 77.5517 9.3925 77.8851 9.72583 78.0517C9.6425 78.7184 9.7675 79.2601 10.1008 79.6767C10.4342 80.0934 10.6842 80.4684 10.8508 80.8017C11.2675 81.6351 11.8508 82.3017 12.6008 82.8017C13.3508 83.3017 14.0175 83.8851 14.6008 84.5517C15.4342 84.7184 16.1425 85.0517 16.7258 85.5517C17.3092 85.9684 17.9342 86.3851 18.6008 86.8017C19.6842 86.8017 20.5175 87.1351 21.1008 87.8017C21.7675 87.6351 22.6425 87.8017 23.7258 88.3017C24.8925 88.8017 25.5175 89.1767 25.6008 89.4267C26.0175 89.2601 26.4758 89.2184 26.9758 89.3017C27.5592 89.3851 28.1008 89.4267 28.6008 89.4267C29.5175 89.2601 30.1425 89.2184 30.4758 89.3017C30.8092 89.3851 31.1842 89.3434 31.6008 89.1767C31.7675 89.0934 32.1008 89.0934 32.6008 89.1767C33.1842 89.1767 33.7675 89.1767 34.3508 89.1767C34.9342 89.1767 35.4342 89.1351 35.8508 89.0517C36.2675 88.8851 36.4758 88.6767 36.4758 88.4267C36.6425 88.5934 36.9342 88.6351 37.3508 88.5517C37.8508 88.4684 38.1842 88.3851 38.3508 88.3017C39.3508 87.8851 39.9342 87.6767 40.1008 87.6767C40.2675 87.6767 40.4342 87.6767 40.6008 87.6767C40.7675 87.6767 40.9342 87.5934 41.1008 87.4267C41.3508 87.2601 41.6842 86.9267 42.1008 86.4267C42.2675 85.5101 42.5175 84.8851 42.8508 84.5517C43.1842 84.2184 43.3092 83.7601 43.2258 83.1767C42.8925 82.3434 42.7675 81.8851 42.8508 81.8017C43.0175 81.6351 43.0592 81.4684 42.9758 81.3017C42.9758 80.1351 42.8508 78.9267 42.6008 77.6767C42.3508 76.4267 42.1842 75.2184 42.1008 74.0517C42.1008 73.7184 42.1008 73.4267 42.1008 73.1767C42.1842 72.8434 42.1842 72.5101 42.1008 72.1767C41.6842 71.1767 41.4758 70.4684 41.4758 70.0517C41.4758 69.5517 41.3925 69.0934 41.2258 68.6767C40.5592 67.6767 40.1425 66.8434 39.9758 66.1767C39.8925 65.4267 39.6008 65.0101 39.1008 64.9267C39.1842 64.0934 39.0175 63.4684 38.6008 63.0517C38.2675 62.6351 38.1008 62.0517 38.1008 61.3017C37.3508 60.8851 36.3092 60.4684 34.9758 60.0517C33.6425 59.6351 32.5175 59.3434 31.6008 59.1767C31.1842 59.0934 30.7258 59.0934 30.2258 59.1767C29.8092 59.2601 29.3508 59.2601 28.8508 59.1767C28.1842 59.0101 27.6425 58.8017 27.2258 58.5517C26.8925 58.2184 26.4342 57.9684 25.8508 57.8017C25.2675 57.6351 24.6842 57.5517 24.1008 57.5517C23.6008 57.5517 23.1008 57.4684 22.6008 57.3017C22.1842 57.1351 21.8508 56.9684 21.6008 56.8017C21.3508 56.6351 21.0592 56.4684 20.7258 56.3017C20.3925 56.2184 20.0592 56.2184 19.7258 56.3017C19.4758 56.3851 19.1842 56.3851 18.8508 56.3017C17.9342 55.9684 17.3092 55.8434 16.9758 55.9267C16.7258 56.0101 16.4758 56.0101 16.2258 55.9267C15.9758 55.8434 15.7258 55.7184 15.4758 55.5517C15.3092 55.3851 15.1008 55.2601 14.8508 55.1767C14.6008 55.0934 14.3092 55.0517 13.9758 55.0517C13.7258 54.9684 13.4758 54.8434 13.2258 54.6767C12.4758 54.4267 12.1008 54.2601 12.1008 54.1767C12.1842 54.0101 12.1842 53.8851 12.1008 53.8017C11.9342 53.6351 11.6425 53.5517 11.2258 53.5517C10.8925 53.4684 10.6425 53.3851 10.4758 53.3017C9.1425 52.1351 7.85083 50.9684 6.60083 49.8017C5.43416 48.5517 4.22583 47.3017 2.97583 46.0517C2.97583 45.9684 2.93416 45.7601 2.85083 45.4267C2.85083 45.0101 2.80916 44.6351 2.72583 44.3017C2.72583 43.8851 2.68416 43.5101 2.60083 43.1767C2.5175 42.7601 2.47583 42.5101 2.47583 42.4267C2.22583 41.5934 2.1425 41.1351 2.22583 41.0517C2.30916 40.8851 2.35083 40.7184 2.35083 40.5517C2.18416 39.5517 2.1425 38.9684 2.22583 38.8017C2.3925 38.6351 2.47583 38.4267 2.47583 38.1767C2.55916 37.7601 2.5175 37.4267 2.35083 37.1767C2.2675 36.9267 2.30916 36.5517 2.47583 36.0517C2.97583 35.2184 3.18416 34.5934 3.10083 34.1767C3.10083 33.6767 3.1425 33.2184 3.22583 32.8017C3.22583 32.7184 3.2675 32.4684 3.35083 32.0517C3.5175 31.5517 3.6425 31.0101 3.72583 30.4267C3.8925 29.8434 4.0175 29.3434 4.10083 28.9267C4.2675 28.4267 4.35083 28.1767 4.35083 28.1767C4.7675 27.4267 5.0175 27.0101 5.10083 26.9267C5.2675 26.8434 5.43416 26.7184 5.60083 26.5517C5.7675 26.3017 5.93416 26.0517 6.10083 25.8017C6.2675 25.4684 6.47583 25.1767 6.72583 24.9267C7.1425 24.4267 7.60083 23.9684 8.10083 23.5517C8.60083 23.1351 9.05916 22.6767 9.47583 22.1767C10.3092 21.8434 10.8508 21.6351 11.1008 21.5517C11.4342 21.3851 11.6842 21.0934 11.8508 20.6767C12.7675 20.3434 13.2675 20.2184 13.3508 20.3017C13.4342 20.3017 13.5592 20.3017 13.7258 20.3017C14.1425 19.8017 14.5175 19.5934 14.8508 19.6767C15.1842 19.6767 15.5175 19.6351 15.8508 19.5517C16.5175 19.3851 17.2258 19.1351 17.9758 18.8017C18.7258 18.4684 19.4758 18.4267 20.2258 18.6767C20.9758 18.3434 21.3925 18.1767 21.4758 18.1767C21.6425 18.0934 21.7675 18.0101 21.8508 17.9267C22.1842 17.9267 22.4758 17.9684 22.7258 18.0517C23.0592 18.1351 23.3092 18.1767 23.4758 18.1767C24.3092 17.7601 24.8092 17.5934 24.9758 17.6767C25.2258 17.6767 25.4342 17.5934 25.6008 17.4267C25.6008 16.0934 25.6425 14.7601 25.7258 13.4267C25.8925 12.0101 25.8508 10.6351 25.6008 9.30173C25.5175 8.13506 25.5592 7.42673 25.7258 7.17673C25.9758 6.84339 25.9342 6.38506 25.6008 5.80173C25.6008 5.05173 25.6425 4.30173 25.7258 3.55173C25.8092 2.80173 25.9758 2.17673 26.2258 1.67673C26.5592 1.17673 27.0175 0.843394 27.6008 0.676727C28.1842 0.510061 28.9758 0.676727 29.9758 1.17673ZM10.4758 28.1767C9.97583 28.5934 9.72583 28.9684 9.72583 29.3017C9.72583 29.6351 9.5175 29.8017 9.10083 29.8017C8.93416 30.4684 8.7675 30.9684 8.60083 31.3017C8.43416 31.6351 8.18416 32.0517 7.85083 32.5517C8.10083 33.4684 8.0175 34.3851 7.60083 35.3017C7.18416 36.1351 7.1425 37.0101 7.47583 37.9267C7.22583 38.0934 7.0175 38.6351 6.85083 39.5517C6.68416 40.3851 6.6425 40.9267 6.72583 41.1767C6.72583 41.5101 6.80916 41.8017 6.97583 42.0517C7.1425 42.2184 7.30916 42.4267 7.47583 42.6767C7.55916 43.6767 7.72583 44.3434 7.97583 44.6767C8.22583 44.9267 8.2675 45.2601 8.10083 45.6767C8.35083 45.8434 8.6425 46.0934 8.97583 46.4267C9.30916 46.7601 9.6425 47.0934 9.97583 47.4267C10.3925 47.7601 10.7258 48.0517 10.9758 48.3017C11.3092 48.5517 11.6008 48.6767 11.8508 48.6767C12.1842 48.3434 12.2675 48.0101 12.1008 47.6767C11.9342 47.3434 11.7675 46.9684 11.6008 46.5517C11.9342 45.6351 11.9758 44.4684 11.7258 43.0517C11.4758 41.6351 11.1425 40.4684 10.7258 39.5517C10.7258 37.8851 10.7258 36.5517 10.7258 35.5517C10.8092 34.5517 10.9342 33.5934 11.1008 32.6767C11.3508 31.7601 11.5175 30.8434 11.6008 29.9267C11.7675 29.0101 11.7675 28.0517 11.6008 27.0517C10.9342 27.2184 10.6008 27.4267 10.6008 27.6767C10.6008 27.8434 10.5592 28.0101 10.4758 28.1767ZM46.4758 74.5517C46.4758 75.9684 46.6008 77.4267 46.8508 78.9267C47.1008 80.4267 47.3092 81.8851 47.4758 83.3017C48.2258 82.5517 48.7675 82.0101 49.1008 81.6767C49.2675 80.4267 49.7258 79.4267 50.4758 78.6767C50.5592 77.5101 50.7675 76.3434 51.1008 75.1767C51.5175 73.9267 51.6842 72.7184 51.6008 71.5517C51.6008 70.8851 51.4342 70.2184 51.1008 69.5517C50.8508 68.8851 50.8092 68.2184 50.9758 67.5517C50.5592 66.9684 50.1008 66.4684 49.6008 66.0517C49.1008 65.6351 48.6842 65.1351 48.3508 64.5517C48.2675 64.5517 47.9758 64.4267 47.4758 64.1767C46.9758 63.9267 46.4342 63.6767 45.8508 63.4267C45.3508 63.0934 44.8508 62.8017 44.3508 62.5517C43.8508 62.2184 43.5592 62.0101 43.4758 61.9267C42.8092 62.7601 42.6425 63.5101 42.9758 64.1767C43.3092 64.7601 43.6425 65.4267 43.9758 66.1767C44.3092 67.0934 44.6425 67.7184 44.9758 68.0517C45.3092 68.3851 45.6008 68.9267 45.8508 69.6767C46.0175 70.0934 46.0592 70.5101 45.9758 70.9267C45.8925 71.3434 45.9342 71.7601 46.1008 72.1767C46.1008 72.3434 46.1842 72.5934 46.3508 72.9267C46.5175 73.1767 46.5592 73.3851 46.4758 73.5517V74.5517Z" fill="#0000FF"/>
<path d="M29.9758 1.17673C29.8092 2.01006 29.7675 2.84339 29.8508 3.67673C29.9342 4.42673 29.9758 5.21839 29.9758 6.05173C29.9758 6.30173 29.9342 6.55173 29.8508 6.80173C29.7675 7.05173 29.7258 7.26006 29.7258 7.42673C29.8092 7.84339 29.8925 8.21839 29.9758 8.55173C30.1425 8.80173 30.2258 9.13506 30.2258 9.55173C30.2258 10.0517 30.2675 10.5934 30.3508 11.1767C30.4342 11.6767 30.4758 12.1351 30.4758 12.5517C30.3925 13.2184 30.1842 13.9684 29.8508 14.8017C29.5175 15.6351 29.5592 16.3851 29.9758 17.0517C30.2258 17.4684 30.8925 17.6767 31.9758 17.6767C33.0592 17.6767 33.8092 17.5934 34.2258 17.4267C34.6425 17.9267 35.1842 18.2601 35.8508 18.4267C36.6008 18.5934 37.3092 18.6767 37.9758 18.6767C38.3092 19.0934 39.0175 19.5101 40.1008 19.9267C41.2675 20.2601 42.1008 20.5934 42.6008 20.9267C43.1842 21.7601 43.5592 22.1767 43.7258 22.1767C43.8925 22.1767 44.0592 22.2601 44.2258 22.4267C44.4758 22.5934 44.6842 22.8434 44.8508 23.1767C45.1008 23.5101 45.4342 23.7184 45.8508 23.8017C45.7675 24.1351 45.7675 24.3851 45.8508 24.5517C46.0175 24.6351 46.1842 24.8434 46.3508 25.1767C46.7675 25.3434 47.0175 25.6351 47.1008 26.0517C47.2675 26.3851 47.4758 26.7184 47.7258 27.0517C47.9758 27.3017 48.2675 27.5101 48.6008 27.6767C48.9342 27.8434 49.1842 28.0934 49.3508 28.4267C49.5175 26.6767 49.6425 24.9267 49.7258 23.1767C49.8092 21.4267 49.7675 19.6767 49.6008 17.9267C50.0175 17.4267 50.4342 17.0517 50.8508 16.8017C51.3508 16.4684 51.9342 16.3851 52.6008 16.5517C53.1842 16.9684 53.4758 17.3017 53.4758 17.5517C53.4758 17.7184 53.5592 17.7601 53.7258 17.6767C53.7258 18.1767 53.6842 18.8434 53.6008 19.6767C53.5175 20.5101 53.4342 21.3434 53.3508 22.1767C53.2675 23.0101 53.2258 23.8017 53.2258 24.5517C53.3092 25.3017 53.4758 25.8851 53.7258 26.3017C53.5592 27.4684 53.6008 28.3017 53.8508 28.8017C54.1008 29.2184 54.2258 29.7184 54.2258 30.3017C54.2258 30.9684 54.0592 31.5517 53.7258 32.0517C53.4758 32.5517 53.3092 33.1351 53.2258 33.8017C53.2258 34.0517 53.2675 34.3017 53.3508 34.5517C53.4342 34.8017 53.4758 35.0934 53.4758 35.4267C53.3092 36.6767 53.2675 37.5934 53.3508 38.1767C53.5175 38.6767 53.4758 39.1351 53.2258 39.5517C52.5592 39.8017 51.8925 40.0101 51.2258 40.1767C50.6425 40.2601 50.0175 40.2184 49.3508 40.0517C49.1008 39.8017 48.8925 39.5517 48.7258 39.3017C48.5592 38.9684 48.3508 38.6767 48.1008 38.4267C47.8508 38.0934 47.8925 37.8434 48.2258 37.6767C48.6425 37.4267 48.7675 37.0517 48.6008 36.5517C48.3508 35.0517 47.7675 33.7601 46.8508 32.6767C46.0175 31.5934 45.1425 30.4684 44.2258 29.3017L43.2258 27.9267C42.8925 27.5101 42.5175 27.1351 42.1008 26.8017C41.6842 26.3851 41.3925 25.9267 41.2258 25.4267C40.8092 25.4267 40.4758 25.2601 40.2258 24.9267C39.9758 24.5101 39.6842 24.2184 39.3508 24.0517C39.1008 23.9684 38.6425 23.8017 37.9758 23.5517C37.3092 23.3017 36.5592 23.0934 35.7258 22.9267C34.9758 22.6767 34.2258 22.4684 33.4758 22.3017C32.8092 22.0517 32.3508 21.9267 32.1008 21.9267C31.6008 21.8434 31.1008 21.8851 30.6008 22.0517C30.1842 22.1351 29.7675 22.1767 29.3508 22.1767C28.3508 21.8434 27.7258 21.7184 27.4758 21.8017C27.2258 21.8851 26.9758 21.9267 26.7258 21.9267C26.0592 21.9267 25.4758 21.8851 24.9758 21.8017C24.4758 21.7184 23.8925 21.9267 23.2258 22.4267C22.0592 22.2601 21.0175 22.3434 20.1008 22.6767C19.1842 22.9267 18.1425 23.1351 16.9758 23.3017C16.8925 23.5517 16.8925 23.8017 16.9758 24.0517C17.1425 24.3017 17.1425 24.5101 16.9758 24.6767C16.7258 25.1767 16.5175 25.6767 16.3508 26.1767C16.2675 26.6767 16.1425 27.1767 15.9758 27.6767C16.1425 27.8434 16.1008 28.1351 15.8508 28.5517C15.6842 28.8851 15.6008 29.1351 15.6008 29.3017C15.5175 29.6351 15.5175 29.9684 15.6008 30.3017C15.7675 30.5517 15.8508 30.8434 15.8508 31.1767C15.7675 31.4267 15.6425 31.6767 15.4758 31.9267C15.3925 32.1767 15.3508 32.3851 15.3508 32.5517C15.1842 33.4684 15.1842 34.3434 15.3508 35.1767C15.5175 36.0101 15.6008 36.8434 15.6008 37.6767C15.6008 37.9267 15.5592 38.1767 15.4758 38.4267C15.3925 38.6767 15.3508 38.9267 15.3508 39.1767C15.3508 39.5101 15.3925 39.8434 15.4758 40.1767C15.6425 40.5101 15.7675 40.8434 15.8508 41.1767C15.9342 41.7601 15.9758 42.4267 15.9758 43.1767C15.9758 43.9267 16.2258 44.5101 16.7258 44.9267C16.5592 45.0934 16.4758 45.3434 16.4758 45.6767C16.4758 45.9267 16.3925 46.1351 16.2258 46.3017C16.3925 46.9684 16.6008 47.5517 16.8508 48.0517C17.1008 48.4684 17.1425 49.0517 16.9758 49.8017C17.5592 50.3017 17.7675 50.6351 17.6008 50.8017C17.4342 50.9684 17.3925 51.0934 17.4758 51.1767C17.6425 51.5101 17.9758 51.8017 18.4758 52.0517C19.0592 52.3017 19.6842 52.5101 20.3508 52.6767C21.1008 52.7601 21.8092 52.8851 22.4758 53.0517C23.1425 53.1351 23.6425 53.2184 23.9758 53.3017C24.3925 53.4684 24.7258 53.6351 24.9758 53.8017C25.3092 53.9684 25.6842 54.1351 26.1008 54.3017C26.5175 54.3851 26.8925 54.4267 27.2258 54.4267C27.5592 54.3434 27.9342 54.3851 28.3508 54.5517C29.2675 54.7184 30.1008 54.9684 30.8508 55.3017C31.6842 55.5517 32.5592 55.7601 33.4758 55.9267C33.7258 56.0101 33.9758 56.0101 34.2258 55.9267C34.5592 55.8434 34.8508 55.8434 35.1008 55.9267C36.3508 56.3434 37.2675 56.5101 37.8508 56.4267C38.5175 56.3434 39.1425 56.3851 39.7258 56.5517C40.1425 56.6351 40.4758 56.7601 40.7258 56.9267C40.9758 57.0101 41.2675 57.1351 41.6008 57.3017C42.6008 57.6351 43.8508 58.0101 45.3508 58.4267C46.9342 58.8434 48.0175 59.4684 48.6008 60.3017C49.2675 60.3851 49.8092 60.5934 50.2258 60.9267C50.6425 61.2601 51.1842 61.5101 51.8508 61.6767C52.1008 62.2601 52.3925 62.7184 52.7258 63.0517C53.1425 63.3851 53.5592 63.8017 53.9758 64.3017C54.6425 65.6351 55.0592 66.6767 55.2258 67.4267C55.3925 68.1767 55.5175 68.9684 55.6008 69.8017C55.7675 70.8851 55.7675 71.5517 55.6008 71.8017C55.5175 71.9684 55.4342 72.1767 55.3508 72.4267C55.2675 72.7601 55.2675 73.0934 55.3508 73.4267C55.4342 73.7601 55.4342 74.1351 55.3508 74.5517C55.3508 74.8017 55.2675 75.3017 55.1008 76.0517C54.9342 76.7184 54.7675 77.4684 54.6008 78.3017C54.4342 79.0517 54.2258 79.8017 53.9758 80.5517C53.7258 81.2184 53.5592 81.6767 53.4758 81.9267C53.0592 82.3434 52.8925 82.6767 52.9758 82.9267C53.0592 83.1767 53.0175 83.3851 52.8508 83.5517C52.1842 84.3851 51.7258 85.0517 51.4758 85.5517C51.2258 85.9684 50.8925 86.2601 50.4758 86.4267C50.5592 86.7601 50.5175 87.0101 50.3508 87.1767C50.1842 87.2601 50.1425 87.4684 50.2258 87.8017C49.4758 88.5517 48.8508 89.0101 48.3508 89.1767C47.9342 89.3434 47.6425 89.5101 47.4758 89.6767L46.3508 90.5517C45.1008 90.6351 44.2675 90.8017 43.8508 91.0517C43.4342 91.2184 43.0175 91.3851 42.6008 91.5517C41.4342 91.8017 40.2258 91.9684 38.9758 92.0517C37.8092 92.0517 36.7675 92.3434 35.8508 92.9267C35.3508 92.5934 34.7675 92.5517 34.1008 92.8017C33.4342 93.0517 32.7675 93.0934 32.1008 92.9267C31.8508 93.5934 31.8925 94.3434 32.2258 95.1767C32.5592 96.0101 32.6842 96.6351 32.6008 97.0517C33.0175 98.0517 33.1842 98.7184 33.1008 99.0517C33.0175 99.3851 33.0592 99.7601 33.2258 100.177C33.4758 100.593 33.4758 101.468 33.2258 102.802C33.0592 104.052 32.8508 104.885 32.6008 105.302C32.1008 105.885 31.3925 106.177 30.4758 106.177C29.5592 106.177 28.8508 105.885 28.3508 105.302C28.3508 104.718 28.3092 104.135 28.2258 103.552C28.1425 102.885 28.2675 102.302 28.6008 101.802C28.3508 101.468 28.1842 101.218 28.1008 101.052C28.1008 100.802 28.1008 100.593 28.1008 100.427C28.1842 100.26 28.2258 100.093 28.2258 99.9267C28.3092 99.7601 28.3508 99.5101 28.3508 99.1767C28.3508 98.7601 28.2675 98.4267 28.1008 98.1767C28.0175 97.8434 27.9342 97.4684 27.8508 97.0517C27.7675 96.3851 27.7258 95.7601 27.7258 95.1767C27.7258 94.5101 27.6425 93.8434 27.4758 93.1767C27.2258 93.2601 26.8508 93.2601 26.3508 93.1767C25.9342 93.0934 25.6842 93.1767 25.6008 93.4267C24.8508 93.0934 24.2258 92.7601 23.7258 92.4267C23.2258 92.0934 22.5175 91.9267 21.6008 91.9267C21.1842 91.4267 20.4342 91.0101 19.3508 90.6767C18.2675 90.2601 17.3925 89.9267 16.7258 89.6767C16.3092 89.5101 15.8925 89.3017 15.4758 89.0517C15.1425 88.8017 14.7675 88.5934 14.3508 88.4267C13.9342 88.2601 13.5175 88.1351 13.1008 88.0517C12.6842 87.9684 12.2675 87.8017 11.8508 87.5517C11.5175 87.3851 11.2258 87.1351 10.9758 86.8017C10.7258 86.4684 10.3925 86.3434 9.97583 86.4267C9.80916 86.0101 9.55916 85.7601 9.22583 85.6767C8.97583 85.5101 8.68416 85.3434 8.35083 85.1767C7.93416 85.7601 7.72583 86.5934 7.72583 87.6767C7.80916 88.7601 7.93416 89.6351 8.10083 90.3017C8.18416 90.7184 8.3925 91.0517 8.72583 91.3017C9.05916 91.4684 9.22583 91.7601 9.22583 92.1767C8.8925 93.0934 8.5175 93.6351 8.10083 93.8017C7.7675 93.8851 7.55916 94.2184 7.47583 94.8017C7.05916 94.6351 6.60083 94.5517 6.10083 94.5517C5.68416 94.4684 5.2675 94.3851 4.85083 94.3017C4.68416 93.7184 4.43416 93.1767 4.10083 92.6767C3.7675 92.1767 3.55916 91.6351 3.47583 91.0517C3.30916 90.2184 3.30916 89.4267 3.47583 88.6767C3.72583 87.9267 3.80916 87.1767 3.72583 86.4267C3.6425 86.1767 3.55916 85.9684 3.47583 85.8017C3.47583 85.5517 3.30916 85.3434 2.97583 85.1767C3.30916 84.2601 3.2675 83.6351 2.85083 83.3017C2.5175 82.9684 2.2675 82.5101 2.10083 81.9267C1.93416 81.6767 1.85083 81.3851 1.85083 81.0517C1.93416 80.7184 1.93416 80.3851 1.85083 80.0517C1.85083 79.9684 1.7675 79.7601 1.60083 79.4267C1.5175 79.0934 1.43416 78.7601 1.35083 78.4267C1.2675 78.0934 1.18416 77.8017 1.10083 77.5517C1.10083 77.2184 1.18416 77.0517 1.35083 77.0517C1.2675 76.8851 1.1425 76.6767 0.97583 76.4267C0.892497 76.0934 0.85083 75.8434 0.85083 75.6767C0.85083 75.4267 0.892497 74.9684 0.97583 74.3017C1.1425 73.5517 1.30916 72.7601 1.47583 71.9267C1.6425 71.0934 1.85083 70.3434 2.10083 69.6767C2.35083 69.0101 2.55916 68.5934 2.72583 68.4267C2.97583 68.2601 3.1425 68.2184 3.22583 68.3017C3.30916 68.3851 3.55916 68.2184 3.97583 67.8017C4.3925 67.6351 4.7675 67.6767 5.10083 67.9267C5.43416 68.1767 5.80916 68.2184 6.22583 68.0517C6.55916 68.4684 6.7675 69.1767 6.85083 70.1767C6.93416 71.0934 7.05916 71.8434 7.22583 72.4267C7.05916 72.8434 7.1425 73.0517 7.47583 73.0517C7.80916 73.0517 8.0175 73.2184 8.10083 73.5517C8.18416 73.8851 8.2675 74.3017 8.35083 74.8017C8.43416 75.2184 8.68416 75.5101 9.10083 75.6767C9.0175 76.0934 9.0175 76.5517 9.10083 77.0517C9.18416 77.5517 9.3925 77.8851 9.72583 78.0517C9.6425 78.7184 9.7675 79.2601 10.1008 79.6767C10.4342 80.0934 10.6842 80.4684 10.8508 80.8017C11.2675 81.6351 11.8508 82.3017 12.6008 82.8017C13.3508 83.3017 14.0175 83.8851 14.6008 84.5517C15.4342 84.7184 16.1425 85.0517 16.7258 85.5517C17.3092 85.9684 17.9342 86.3851 18.6008 86.8017C19.6842 86.8017 20.5175 87.1351 21.1008 87.8017C21.7675 87.6351 22.6425 87.8017 23.7258 88.3017C24.8925 88.8017 25.5175 89.1767 25.6008 89.4267C26.0175 89.2601 26.4758 89.2184 26.9758 89.3017C27.5592 89.3851 28.1008 89.4267 28.6008 89.4267C29.5175 89.2601 30.1425 89.2184 30.4758 89.3017C30.8092 89.3851 31.1842 89.3434 31.6008 89.1767C31.7675 89.0934 32.1008 89.0934 32.6008 89.1767C33.1842 89.1767 33.7675 89.1767 34.3508 89.1767C34.9342 89.1767 35.4342 89.1351 35.8508 89.0517C36.2675 88.8851 36.4758 88.6767 36.4758 88.4267C36.6425 88.5934 36.9342 88.6351 37.3508 88.5517C37.8508 88.4684 38.1842 88.3851 38.3508 88.3017C39.3508 87.8851 39.9342 87.6767 40.1008 87.6767C40.2675 87.6767 40.4342 87.6767 40.6008 87.6767C40.7675 87.6767 40.9342 87.5934 41.1008 87.4267C41.3508 87.2601 41.6842 86.9267 42.1008 86.4267C42.2675 85.5101 42.5175 84.8851 42.8508 84.5517C43.1842 84.2184 43.3092 83.7601 43.2258 83.1767C42.8925 82.3434 42.7675 81.8851 42.8508 81.8017C43.0175 81.6351 43.0592 81.4684 42.9758 81.3017C42.9758 80.1351 42.8508 78.9267 42.6008 77.6767C42.3508 76.4267 42.1842 75.2184 42.1008 74.0517C42.1008 73.7184 42.1008 73.4267 42.1008 73.1767C42.1842 72.8434 42.1842 72.5101 42.1008 72.1767C41.6842 71.1767 41.4758 70.4684 41.4758 70.0517C41.4758 69.5517 41.3925 69.0934 41.2258 68.6767C40.5592 67.6767 40.1425 66.8434 39.9758 66.1767C39.8925 65.4267 39.6008 65.0101 39.1008 64.9267C39.1842 64.0934 39.0175 63.4684 38.6008 63.0517C38.2675 62.6351 38.1008 62.0517 38.1008 61.3017C37.3508 60.8851 36.3092 60.4684 34.9758 60.0517C33.6425 59.6351 32.5175 59.3434 31.6008 59.1767C31.1842 59.0934 30.7258 59.0934 30.2258 59.1767C29.8092 59.2601 29.3508 59.2601 28.8508 59.1767C28.1842 59.0101 27.6425 58.8017 27.2258 58.5517C26.8925 58.2184 26.4342 57.9684 25.8508 57.8017C25.2675 57.6351 24.6842 57.5517 24.1008 57.5517C23.6008 57.5517 23.1008 57.4684 22.6008 57.3017C22.1842 57.1351 21.8508 56.9684 21.6008 56.8017C21.3508 56.6351 21.0592 56.4684 20.7258 56.3017C20.3925 56.2184 20.0592 56.2184 19.7258 56.3017C19.4758 56.3851 19.1842 56.3851 18.8508 56.3017C17.9342 55.9684 17.3092 55.8434 16.9758 55.9267C16.7258 56.0101 16.4758 56.0101 16.2258 55.9267C15.9758 55.8434 15.7258 55.7184 15.4758 55.5517C15.3092 55.3851 15.1008 55.2601 14.8508 55.1767C14.6008 55.0934 14.3092 55.0517 13.9758 55.0517C13.7258 54.9684 13.4758 54.8434 13.2258 54.6767C12.4758 54.4267 12.1008 54.2601 12.1008 54.1767C12.1842 54.0101 12.1842 53.8851 12.1008 53.8017C11.9342 53.6351 11.6425 53.5517 11.2258 53.5517C10.8925 53.4684 10.6425 53.3851 10.4758 53.3017C9.1425 52.1351 7.85083 50.9684 6.60083 49.8017C5.43416 48.5517 4.22583 47.3017 2.97583 46.0517C2.97583 45.9684 2.93416 45.7601 2.85083 45.4267C2.85083 45.0101 2.80916 44.6351 2.72583 44.3017C2.72583 43.8851 2.68416 43.5101 2.60083 43.1767C2.5175 42.7601 2.47583 42.5101 2.47583 42.4267C2.22583 41.5934 2.1425 41.1351 2.22583 41.0517C2.30916 40.8851 2.35083 40.7184 2.35083 40.5517C2.18416 39.5517 2.1425 38.9684 2.22583 38.8017C2.3925 38.6351 2.47583 38.4267 2.47583 38.1767C2.55916 37.7601 2.5175 37.4267 2.35083 37.1767C2.2675 36.9267 2.30916 36.5517 2.47583 36.0517C2.97583 35.2184 3.18416 34.5934 3.10083 34.1767C3.10083 33.6767 3.1425 33.2184 3.22583 32.8017C3.22583 32.7184 3.2675 32.4684 3.35083 32.0517C3.5175 31.5517 3.6425 31.0101 3.72583 30.4267C3.8925 29.8434 4.0175 29.3434 4.10083 28.9267C4.2675 28.4267 4.35083 28.1767 4.35083 28.1767C4.7675 27.4267 5.0175 27.0101 5.10083 26.9267C5.2675 26.8434 5.43416 26.7184 5.60083 26.5517C5.7675 26.3017 5.93416 26.0517 6.10083 25.8017C6.2675 25.4684 6.47583 25.1767 6.72583 24.9267C7.1425 24.4267 7.60083 23.9684 8.10083 23.5517C8.60083 23.1351 9.05916 22.6767 9.47583 22.1767C10.3092 21.8434 10.8508 21.6351 11.1008 21.5517C11.4342 21.3851 11.6842 21.0934 11.8508 20.6767C12.7675 20.3434 13.2675 20.2184 13.3508 20.3017C13.4342 20.3017 13.5592 20.3017 13.7258 20.3017C14.1425 19.8017 14.5175 19.5934 14.8508 19.6767C15.1842 19.6767 15.5175 19.6351 15.8508 19.5517C16.5175 19.3851 17.2258 19.1351 17.9758 18.8017C18.7258 18.4684 19.4758 18.4267 20.2258 18.6767C20.9758 18.3434 21.3925 18.1767 21.4758 18.1767C21.6425 18.0934 21.7675 18.0101 21.8508 17.9267C22.1842 17.9267 22.4758 17.9684 22.7258 18.0517C23.0592 18.1351 23.3092 18.1767 23.4758 18.1767C24.3092 17.7601 24.8092 17.5934 24.9758 17.6767C25.2258 17.6767 25.4342 17.5934 25.6008 17.4267C25.6008 16.0934 25.6425 14.7601 25.7258 13.4267C25.8925 12.0101 25.8508 10.6351 25.6008 9.30173C25.5175 8.13506 25.5592 7.42673 25.7258 7.17673C25.9758 6.84339 25.9342 6.38506 25.6008 5.80173C25.6008 5.05173 25.6425 4.30173 25.7258 3.55173C25.8092 2.80173 25.9758 2.17673 26.2258 1.67673C26.5592 1.17673 27.0175 0.843394 27.6008 0.676727C28.1842 0.510061 28.9758 0.676727 29.9758 1.17673ZM10.4758 28.1767C9.97583 28.5934 9.72583 28.9684 9.72583 29.3017C9.72583 29.6351 9.5175 29.8017 9.10083 29.8017C8.93416 30.4684 8.7675 30.9684 8.60083 31.3017C8.43416 31.6351 8.18416 32.0517 7.85083 32.5517C8.10083 33.4684 8.0175 34.3851 7.60083 35.3017C7.18416 36.1351 7.1425 37.0101 7.47583 37.9267C7.22583 38.0934 7.0175 38.6351 6.85083 39.5517C6.68416 40.3851 6.6425 40.9267 6.72583 41.1767C6.72583 41.5101 6.80916 41.8017 6.97583 42.0517C7.1425 42.2184 7.30916 42.4267 7.47583 42.6767C7.55916 43.6767 7.72583 44.3434 7.97583 44.6767C8.22583 44.9267 8.2675 45.2601 8.10083 45.6767C8.35083 45.8434 8.6425 46.0934 8.97583 46.4267C9.30916 46.7601 9.6425 47.0934 9.97583 47.4267C10.3925 47.7601 10.7258 48.0517 10.9758 48.3017C11.3092 48.5517 11.6008 48.6767 11.8508 48.6767C12.1842 48.3434 12.2675 48.0101 12.1008 47.6767C11.9342 47.3434 11.7675 46.9684 11.6008 46.5517C11.9342 45.6351 11.9758 44.4684 11.7258 43.0517C11.4758 41.6351 11.1425 40.4684 10.7258 39.5517C10.7258 37.8851 10.7258 36.5517 10.7258 35.5517C10.8092 34.5517 10.9342 33.5934 11.1008 32.6767C11.3508 31.7601 11.5175 30.8434 11.6008 29.9267C11.7675 29.0101 11.7675 28.0517 11.6008 27.0517C10.9342 27.2184 10.6008 27.4267 10.6008 27.6767C10.6008 27.8434 10.5592 28.0101 10.4758 28.1767ZM46.4758 74.5517C46.4758 75.9684 46.6008 77.4267 46.8508 78.9267C47.1008 80.4267 47.3092 81.8851 47.4758 83.3017C48.2258 82.5517 48.7675 82.0101 49.1008 81.6767C49.2675 80.4267 49.7258 79.4267 50.4758 78.6767C50.5592 77.5101 50.7675 76.3434 51.1008 75.1767C51.5175 73.9267 51.6842 72.7184 51.6008 71.5517C51.6008 70.8851 51.4342 70.2184 51.1008 69.5517C50.8508 68.8851 50.8092 68.2184 50.9758 67.5517C50.5592 66.9684 50.1008 66.4684 49.6008 66.0517C49.1008 65.6351 48.6842 65.1351 48.3508 64.5517C48.2675 64.5517 47.9758 64.4267 47.4758 64.1767C46.9758 63.9267 46.4342 63.6767 45.8508 63.4267C45.3508 63.0934 44.8508 62.8017 44.3508 62.5517C43.8508 62.2184 43.5592 62.0101 43.4758 61.9267C42.8092 62.7601 42.6425 63.5101 42.9758 64.1767C43.3092 64.7601 43.6425 65.4267 43.9758 66.1767C44.3092 67.0934 44.6425 67.7184 44.9758 68.0517C45.3092 68.3851 45.6008 68.9267 45.8508 69.6767C46.0175 70.0934 46.0592 70.5101 45.9758 70.9267C45.8925 71.3434 45.9342 71.7601 46.1008 72.1767C46.1008 72.3434 46.1842 72.5934 46.3508 72.9267C46.5175 73.1767 46.5592 73.3851 46.4758 73.5517V74.5517Z" fill="#0000FF"/>
</svg>
