<svg width="56" height="106" viewBox="0 0 56 106" fill="none" xmlns="http://www.w3.org/2000/svg">
<path d="M29.8225 0.827271C29.6558 1.6606 29.6142 2.49394 29.6975 3.32727C29.7808 4.07727 29.8225 4.86894 29.8225 5.70227C29.8225 5.95227 29.7808 6.20227 29.6975 6.45227C29.6142 6.70227 29.5725 6.9106 29.5725 7.07727C29.6558 7.49394 29.7392 7.86894 29.8225 8.20227C29.9892 8.45227 30.0725 8.7856 30.0725 9.20227C30.0725 9.70227 30.1142 10.2439 30.1975 10.8273C30.2808 11.3273 30.3225 11.7856 30.3225 12.2023C30.2392 12.8689 30.0308 13.6189 29.6975 14.4523C29.3642 15.2856 29.4058 16.0356 29.8225 16.7023C30.0725 17.1189 30.7392 17.3273 31.8225 17.3273C32.9058 17.3273 33.6558 17.2439 34.0725 17.0773C34.4892 17.5773 35.0308 17.9106 35.6975 18.0773C36.4475 18.2439 37.1558 18.3273 37.8225 18.3273C38.1558 18.7439 38.8642 19.1606 39.9475 19.5773C41.1142 19.9106 41.9475 20.2439 42.4475 20.5773C43.0308 21.4106 43.4058 21.8273 43.5725 21.8273C43.7392 21.8273 43.9058 21.9106 44.0725 22.0773C44.3225 22.2439 44.5308 22.4939 44.6975 22.8273C44.9475 23.1606 45.2808 23.3689 45.6975 23.4523C45.6142 23.7856 45.6142 24.0356 45.6975 24.2023C45.8642 24.2856 46.0308 24.4939 46.1975 24.8273C46.6142 24.9939 46.8642 25.2856 46.9475 25.7023C47.1142 26.0356 47.3225 26.3689 47.5725 26.7023C47.8225 26.9523 48.1142 27.1606 48.4475 27.3273C48.7808 27.4939 49.0308 27.7439 49.1975 28.0773C49.3642 26.3273 49.4892 24.5773 49.5725 22.8273C49.6558 21.0773 49.6142 19.3273 49.4475 17.5773C49.8642 17.0773 50.2808 16.7023 50.6975 16.4523C51.1975 16.1189 51.7808 16.0356 52.4475 16.2023C53.0308 16.6189 53.3225 16.9523 53.3225 17.2023C53.3225 17.3689 53.4058 17.4106 53.5725 17.3273C53.5725 17.8273 53.5308 18.4939 53.4475 19.3273C53.3642 20.1606 53.2808 20.9939 53.1975 21.8273C53.1142 22.6606 53.0725 23.4523 53.0725 24.2023C53.1558 24.9523 53.3225 25.5356 53.5725 25.9523C53.4058 27.1189 53.4475 27.9523 53.6975 28.4523C53.9475 28.8689 54.0725 29.3689 54.0725 29.9523C54.0725 30.6189 53.9058 31.2023 53.5725 31.7023C53.3225 32.2023 53.1558 32.7856 53.0725 33.4523C53.0725 33.7023 53.1142 33.9523 53.1975 34.2023C53.2808 34.4523 53.3225 34.7439 53.3225 35.0773C53.1558 36.3273 53.1142 37.2439 53.1975 37.8273C53.3642 38.3273 53.3225 38.7856 53.0725 39.2023C52.4058 39.4523 51.7392 39.6606 51.0725 39.8273C50.4892 39.9106 49.8642 39.8689 49.1975 39.7023C48.9475 39.4523 48.7392 39.2023 48.5725 38.9523C48.4058 38.6189 48.1975 38.3273 47.9475 38.0773C47.6975 37.7439 47.7392 37.4939 48.0725 37.3273C48.4892 37.0773 48.6142 36.7023 48.4475 36.2023C48.1975 34.7023 47.6142 33.4106 46.6975 32.3273C45.8642 31.2439 44.9892 30.1189 44.0725 28.9523L43.0725 27.5773C42.7392 27.1606 42.3642 26.7856 41.9475 26.4523C41.5308 26.0356 41.2392 25.5773 41.0725 25.0773C40.6558 25.0773 40.3225 24.9106 40.0725 24.5773C39.8225 24.1606 39.5308 23.8689 39.1975 23.7023C38.9475 23.6189 38.4892 23.4523 37.8225 23.2023C37.1558 22.9523 36.4058 22.7439 35.5725 22.5773C34.8225 22.3273 34.0725 22.1189 33.3225 21.9523C32.6558 21.7023 32.1975 21.5773 31.9475 21.5773C31.4475 21.4939 30.9475 21.5356 30.4475 21.7023C30.0308 21.7856 29.6142 21.8273 29.1975 21.8273C28.1975 21.4939 27.5725 21.3689 27.3225 21.4523C27.0725 21.5356 26.8225 21.5773 26.5725 21.5773C25.9058 21.5773 25.3225 21.5356 24.8225 21.4523C24.3225 21.3689 23.7392 21.5773 23.0725 22.0773C21.9058 21.9106 20.8642 21.9939 19.9475 22.3273C19.0308 22.5773 17.9892 22.7856 16.8225 22.9523C16.7392 23.2023 16.7392 23.4523 16.8225 23.7023C16.9892 23.9523 16.9892 24.1606 16.8225 24.3273C16.5725 24.8273 16.3642 25.3273 16.1975 25.8273C16.1142 26.3273 15.9892 26.8273 15.8225 27.3273C15.9892 27.4939 15.9475 27.7856 15.6975 28.2023C15.5308 28.5356 15.4475 28.7856 15.4475 28.9523C15.3642 29.2856 15.3642 29.6189 15.4475 29.9523C15.6142 30.2023 15.6975 30.4939 15.6975 30.8273C15.6142 31.0773 15.4892 31.3273 15.3225 31.5773C15.2392 31.8273 15.1975 32.0356 15.1975 32.2023C15.0308 33.1189 15.0308 33.9939 15.1975 34.8273C15.3642 35.6606 15.4475 36.4939 15.4475 37.3273C15.4475 37.5773 15.4058 37.8273 15.3225 38.0773C15.2392 38.3273 15.1975 38.5773 15.1975 38.8273C15.1975 39.1606 15.2392 39.4939 15.3225 39.8273C15.4892 40.1606 15.6142 40.4939 15.6975 40.8273C15.7808 41.4106 15.8225 42.0773 15.8225 42.8273C15.8225 43.5773 16.0725 44.1606 16.5725 44.5773C16.4058 44.7439 16.3225 44.9939 16.3225 45.3273C16.3225 45.5773 16.2392 45.7856 16.0725 45.9523C16.2392 46.6189 16.4475 47.2023 16.6975 47.7023C16.9475 48.1189 16.9892 48.7023 16.8225 49.4523C17.4058 49.9523 17.6142 50.2856 17.4475 50.4523C17.2808 50.6189 17.2392 50.7439 17.3225 50.8273C17.4892 51.1606 17.8225 51.4523 18.3225 51.7023C18.9058 51.9523 19.5308 52.1606 20.1975 52.3273C20.9475 52.4106 21.6558 52.5356 22.3225 52.7023C22.9892 52.7856 23.4892 52.8689 23.8225 52.9523C24.2392 53.1189 24.5725 53.2856 24.8225 53.4523C25.1558 53.6189 25.5308 53.7856 25.9475 53.9523C26.3642 54.0356 26.7392 54.0773 27.0725 54.0773C27.4058 53.9939 27.7808 54.0356 28.1975 54.2023C29.1142 54.3689 29.9475 54.6189 30.6975 54.9523C31.5308 55.2023 32.4058 55.4106 33.3225 55.5773C33.5725 55.6606 33.8225 55.6606 34.0725 55.5773C34.4058 55.4939 34.6975 55.4939 34.9475 55.5773C36.1975 55.9939 37.1142 56.1606 37.6975 56.0773C38.3642 55.9939 38.9892 56.0356 39.5725 56.2023C39.9892 56.2856 40.3225 56.4106 40.5725 56.5773C40.8225 56.6606 41.1142 56.7856 41.4475 56.9523C42.4475 57.2856 43.6975 57.6606 45.1975 58.0773C46.7808 58.4939 47.8642 59.1189 48.4475 59.9523C49.1142 60.0356 49.6558 60.2439 50.0725 60.5773C50.4892 60.9106 51.0308 61.1606 51.6975 61.3273C51.9475 61.9106 52.2392 62.3689 52.5725 62.7023C52.9892 63.0356 53.4058 63.4523 53.8225 63.9523C54.4892 65.2856 54.9058 66.3273 55.0725 67.0773C55.2392 67.8273 55.3642 68.6189 55.4475 69.4523C55.6142 70.5356 55.6142 71.2023 55.4475 71.4523C55.3642 71.6189 55.2808 71.8273 55.1975 72.0773C55.1142 72.4106 55.1142 72.7439 55.1975 73.0773C55.2808 73.4106 55.2808 73.7856 55.1975 74.2023C55.1975 74.4523 55.1142 74.9523 54.9475 75.7023C54.7808 76.3689 54.6142 77.1189 54.4475 77.9523C54.2808 78.7023 54.0725 79.4523 53.8225 80.2023C53.5725 80.8689 53.4058 81.3273 53.3225 81.5773C52.9058 81.9939 52.7392 82.3273 52.8225 82.5773C52.9058 82.8273 52.8642 83.0356 52.6975 83.2023C52.0308 84.0356 51.5725 84.7023 51.3225 85.2023C51.0725 85.6189 50.7392 85.9106 50.3225 86.0773C50.4058 86.4106 50.3642 86.6606 50.1975 86.8273C50.0308 86.9106 49.9892 87.1189 50.0725 87.4523C49.3225 88.2023 48.6975 88.6606 48.1975 88.8273C47.7808 88.9939 47.4892 89.1606 47.3225 89.3273L46.1975 90.2023C44.9475 90.2856 44.1142 90.4523 43.6975 90.7023C43.2808 90.8689 42.8642 91.0356 42.4475 91.2023C41.2808 91.4523 40.0725 91.6189 38.8225 91.7023C37.6558 91.7023 36.6142 91.9939 35.6975 92.5773C35.1975 92.2439 34.6142 92.2023 33.9475 92.4523C33.2808 92.7023 32.6142 92.7439 31.9475 92.5773C31.6975 93.2439 31.7392 93.9939 32.0725 94.8273C32.4058 95.6606 32.5308 96.2856 32.4475 96.7023C32.8642 97.7023 33.0308 98.3689 32.9475 98.7023C32.8642 99.0356 32.9058 99.4106 33.0725 99.8273C33.3225 100.244 33.3225 101.119 33.0725 102.452C32.9058 103.702 32.6975 104.536 32.4475 104.952C31.9475 105.536 31.2392 105.827 30.3225 105.827C29.4058 105.827 28.6975 105.536 28.1975 104.952C28.1975 104.369 28.1558 103.786 28.0725 103.202C27.9892 102.536 28.1142 101.952 28.4475 101.452C28.1975 101.119 28.0308 100.869 27.9475 100.702C27.9475 100.452 27.9475 100.244 27.9475 100.077C28.0308 99.9106 28.0725 99.7439 28.0725 99.5773C28.1558 99.4106 28.1975 99.1606 28.1975 98.8273C28.1975 98.4106 28.1142 98.0773 27.9475 97.8273C27.8642 97.4939 27.7808 97.1189 27.6975 96.7023C27.6142 96.0356 27.5725 95.4106 27.5725 94.8273C27.5725 94.1606 27.4892 93.4939 27.3225 92.8273C27.0725 92.9106 26.6975 92.9106 26.1975 92.8273C25.7808 92.7439 25.5308 92.8273 25.4475 93.0773C24.6975 92.7439 24.0725 92.4106 23.5725 92.0773C23.0725 91.7439 22.3642 91.5773 21.4475 91.5773C21.0308 91.0773 20.2808 90.6606 19.1975 90.3273C18.1142 89.9106 17.2392 89.5773 16.5725 89.3273C16.1558 89.1606 15.7392 88.9523 15.3225 88.7023C14.9892 88.4523 14.6142 88.2439 14.1975 88.0773C13.7808 87.9106 13.3642 87.7856 12.9475 87.7023C12.5308 87.6189 12.1142 87.4523 11.6975 87.2023C11.3642 87.0356 11.0725 86.7856 10.8225 86.4523C10.5725 86.1189 10.2392 85.9939 9.82251 86.0773C9.65584 85.6606 9.40584 85.4106 9.07251 85.3273C8.82251 85.1606 8.53084 84.9939 8.19751 84.8273C7.78084 85.4106 7.57251 86.2439 7.57251 87.3273C7.65584 88.4106 7.78084 89.2856 7.94751 89.9523C8.03084 90.3689 8.23918 90.7023 8.57251 90.9523C8.90584 91.1189 9.07251 91.4106 9.07251 91.8273C8.73918 92.7439 8.36418 93.2856 7.94751 93.4523C7.61418 93.5356 7.40584 93.8689 7.32251 94.4523C6.90584 94.2856 6.44751 94.2023 5.94751 94.2023C5.53084 94.1189 5.11418 94.0356 4.69751 93.9523C4.53084 93.3689 4.28084 92.8273 3.94751 92.3273C3.61418 91.8273 3.40584 91.2856 3.32251 90.7023C3.15584 89.8689 3.15584 89.0773 3.32251 88.3273C3.57251 87.5773 3.65584 86.8273 3.57251 86.0773C3.48918 85.8273 3.40584 85.6189 3.32251 85.4523C3.32251 85.2023 3.15584 84.9939 2.82251 84.8273C3.15584 83.9106 3.11418 83.2856 2.69751 82.9523C2.36418 82.6189 2.11418 82.1606 1.94751 81.5773C1.78084 81.3273 1.69751 81.0356 1.69751 80.7023C1.78084 80.3689 1.78084 80.0356 1.69751 79.7023C1.69751 79.6189 1.61418 79.4106 1.44751 79.0773C1.36418 78.7439 1.28084 78.4106 1.19751 78.0773C1.11418 77.7439 1.03084 77.4523 0.94751 77.2023C0.94751 76.8689 1.03084 76.7023 1.19751 76.7023C1.11418 76.5356 0.989176 76.3273 0.82251 76.0773C0.739176 75.7439 0.69751 75.4939 0.69751 75.3273C0.69751 75.0773 0.739176 74.6189 0.82251 73.9523C0.989176 73.2023 1.15584 72.4106 1.32251 71.5773C1.48918 70.7439 1.69751 69.9939 1.94751 69.3273C2.19751 68.6606 2.40584 68.2439 2.57251 68.0773C2.82251 67.9106 2.98918 67.8689 3.07251 67.9523C3.15584 68.0356 3.40584 67.8689 3.82251 67.4523C4.23918 67.2856 4.61418 67.3273 4.94751 67.5773C5.28084 67.8273 5.65584 67.8689 6.07251 67.7023C6.40584 68.1189 6.61418 68.8273 6.69751 69.8273C6.78084 70.7439 6.90584 71.4939 7.07251 72.0773C6.90584 72.4939 6.98918 72.7023 7.32251 72.7023C7.65584 72.7023 7.86418 72.8689 7.94751 73.2023C8.03084 73.5356 8.11418 73.9523 8.19751 74.4523C8.28084 74.8689 8.53084 75.1606 8.94751 75.3273C8.86418 75.7439 8.86418 76.2023 8.94751 76.7023C9.03084 77.2023 9.23918 77.5356 9.57251 77.7023C9.48918 78.3689 9.61418 78.9106 9.94751 79.3273C10.2808 79.7439 10.5308 80.1189 10.6975 80.4523C11.1142 81.2856 11.6975 81.9523 12.4475 82.4523C13.1975 82.9523 13.8642 83.5356 14.4475 84.2023C15.2808 84.3689 15.9892 84.7023 16.5725 85.2023C17.1558 85.6189 17.7808 86.0356 18.4475 86.4523C19.5308 86.4523 20.3642 86.7856 20.9475 87.4523C21.6142 87.2856 22.4892 87.4523 23.5725 87.9523C24.7392 88.4523 25.3642 88.8273 25.4475 89.0773C25.8642 88.9106 26.3225 88.8689 26.8225 88.9523C27.4058 89.0356 27.9475 89.0773 28.4475 89.0773C29.3642 88.9106 29.9892 88.8689 30.3225 88.9523C30.6558 89.0356 31.0308 88.9939 31.4475 88.8273C31.6142 88.7439 31.9475 88.7439 32.4475 88.8273C33.0308 88.8273 33.6142 88.8273 34.1975 88.8273C34.7808 88.8273 35.2808 88.7856 35.6975 88.7023C36.1142 88.5356 36.3225 88.3273 36.3225 88.0773C36.4892 88.2439 36.7808 88.2856 37.1975 88.2023C37.6975 88.1189 38.0308 88.0356 38.1975 87.9523C39.1975 87.5356 39.7808 87.3273 39.9475 87.3273C40.1142 87.3273 40.2808 87.3273 40.4475 87.3273C40.6142 87.3273 40.7808 87.2439 40.9475 87.0773C41.1975 86.9106 41.5308 86.5773 41.9475 86.0773C42.1142 85.1606 42.3642 84.5356 42.6975 84.2023C43.0308 83.8689 43.1558 83.4106 43.0725 82.8273C42.7392 81.9939 42.6142 81.5356 42.6975 81.4523C42.8642 81.2856 42.9058 81.1189 42.8225 80.9523C42.8225 79.7856 42.6975 78.5773 42.4475 77.3273C42.1975 76.0773 42.0308 74.8689 41.9475 73.7023C41.9475 73.3689 41.9475 73.0773 41.9475 72.8273C42.0308 72.4939 42.0308 72.1606 41.9475 71.8273C41.5308 70.8273 41.3225 70.1189 41.3225 69.7023C41.3225 69.2023 41.2392 68.7439 41.0725 68.3273C40.4058 67.3273 39.9892 66.4939 39.8225 65.8273C39.7392 65.0773 39.4475 64.6606 38.9475 64.5773C39.0308 63.7439 38.8642 63.1189 38.4475 62.7023C38.1142 62.2856 37.9475 61.7023 37.9475 60.9523C37.1975 60.5356 36.1558 60.1189 34.8225 59.7023C33.4892 59.2856 32.3642 58.9939 31.4475 58.8273C31.0308 58.7439 30.5725 58.7439 30.0725 58.8273C29.6558 58.9106 29.1975 58.9106 28.6975 58.8273C28.0308 58.6606 27.4892 58.4523 27.0725 58.2023C26.7392 57.8689 26.2808 57.6189 25.6975 57.4523C25.1142 57.2856 24.5308 57.2023 23.9475 57.2023C23.4475 57.2023 22.9475 57.1189 22.4475 56.9523C22.0308 56.7856 21.6975 56.6189 21.4475 56.4523C21.1975 56.2856 20.9058 56.1189 20.5725 55.9523C20.2392 55.8689 19.9058 55.8689 19.5725 55.9523C19.3225 56.0356 19.0308 56.0356 18.6975 55.9523C17.7808 55.6189 17.1558 55.4939 16.8225 55.5773C16.5725 55.6606 16.3225 55.6606 16.0725 55.5773C15.8225 55.4939 15.5725 55.3689 15.3225 55.2023C15.1558 55.0356 14.9475 54.9106 14.6975 54.8273C14.4475 54.7439 14.1558 54.7023 13.8225 54.7023C13.5725 54.6189 13.3225 54.4939 13.0725 54.3273C12.3225 54.0773 11.9475 53.9106 11.9475 53.8273C12.0308 53.6606 12.0308 53.5356 11.9475 53.4523C11.7808 53.2856 11.4892 53.2023 11.0725 53.2023C10.7392 53.1189 10.4892 53.0356 10.3225 52.9523C8.98918 51.7856 7.69751 50.6189 6.44751 49.4523C5.28084 48.2023 4.07251 46.9523 2.82251 45.7023C2.82251 45.6189 2.78084 45.4106 2.69751 45.0773C2.69751 44.6606 2.65584 44.2856 2.57251 43.9523C2.57251 43.5356 2.53084 43.1606 2.44751 42.8273C2.36418 42.4106 2.32251 42.1606 2.32251 42.0773C2.07251 41.2439 1.98918 40.7856 2.07251 40.7023C2.15584 40.5356 2.19751 40.3689 2.19751 40.2023C2.03084 39.2023 1.98918 38.6189 2.07251 38.4523C2.23918 38.2856 2.32251 38.0773 2.32251 37.8273C2.40584 37.4106 2.36418 37.0773 2.19751 36.8273C2.11418 36.5773 2.15584 36.2023 2.32251 35.7023C2.82251 34.8689 3.03084 34.2439 2.94751 33.8273C2.94751 33.3273 2.98918 32.8689 3.07251 32.4523C3.07251 32.3689 3.11418 32.1189 3.19751 31.7023C3.36418 31.2023 3.48918 30.6606 3.57251 30.0773C3.73918 29.4939 3.86418 28.9939 3.94751 28.5773C4.11418 28.0773 4.19751 27.8273 4.19751 27.8273C4.61418 27.0773 4.86418 26.6606 4.94751 26.5773C5.11418 26.4939 5.28084 26.3689 5.44751 26.2023C5.61418 25.9523 5.78084 25.7023 5.94751 25.4523C6.11418 25.1189 6.32251 24.8273 6.57251 24.5773C6.98918 24.0773 7.44751 23.6189 7.94751 23.2023C8.44751 22.7856 8.90584 22.3273 9.32251 21.8273C10.1558 21.4939 10.6975 21.2856 10.9475 21.2023C11.2808 21.0356 11.5308 20.7439 11.6975 20.3273C12.6142 19.9939 13.1142 19.8689 13.1975 19.9523C13.2808 19.9523 13.4058 19.9523 13.5725 19.9523C13.9892 19.4523 14.3642 19.2439 14.6975 19.3273C15.0308 19.3273 15.3642 19.2856 15.6975 19.2023C16.3642 19.0356 17.0725 18.7856 17.8225 18.4523C18.5725 18.1189 19.3225 18.0773 20.0725 18.3273C20.8225 17.9939 21.2392 17.8273 21.3225 17.8273C21.4892 17.7439 21.6142 17.6606 21.6975 17.5773C22.0308 17.5773 22.3225 17.6189 22.5725 17.7023C22.9058 17.7856 23.1558 17.8273 23.3225 17.8273C24.1558 17.4106 24.6558 17.2439 24.8225 17.3273C25.0725 17.3273 25.2808 17.2439 25.4475 17.0773C25.4475 15.7439 25.4892 14.4106 25.5725 13.0773C25.7392 11.6606 25.6975 10.2856 25.4475 8.95227C25.3642 7.7856 25.4058 7.07727 25.5725 6.82727C25.8225 6.49394 25.7808 6.0356 25.4475 5.45227C25.4475 4.70227 25.4892 3.95227 25.5725 3.20227C25.6558 2.45227 25.8225 1.82727 26.0725 1.32727C26.4058 0.827271 26.8642 0.493937 27.4475 0.327271C28.0308 0.160604 28.8225 0.327271 29.8225 0.827271ZM10.3225 27.8273C9.82251 28.2439 9.57251 28.6189 9.57251 28.9523C9.57251 29.2856 9.36418 29.4523 8.94751 29.4523C8.78084 30.1189 8.61418 30.6189 8.44751 30.9523C8.28084 31.2856 8.03084 31.7023 7.69751 32.2023C7.94751 33.1189 7.86418 34.0356 7.44751 34.9523C7.03084 35.7856 6.98918 36.6606 7.32251 37.5773C7.07251 37.7439 6.86418 38.2856 6.69751 39.2023C6.53084 40.0356 6.48918 40.5773 6.57251 40.8273C6.57251 41.1606 6.65584 41.4523 6.82251 41.7023C6.98918 41.8689 7.15584 42.0773 7.32251 42.3273C7.40584 43.3273 7.57251 43.9939 7.82251 44.3273C8.07251 44.5773 8.11418 44.9106 7.94751 45.3273C8.19751 45.4939 8.48918 45.7439 8.82251 46.0773C9.15584 46.4106 9.48918 46.7439 9.82251 47.0773C10.2392 47.4106 10.5725 47.7023 10.8225 47.9523C11.1558 48.2023 11.4475 48.3273 11.6975 48.3273C12.0308 47.9939 12.1142 47.6606 11.9475 47.3273C11.7808 46.9939 11.6142 46.6189 11.4475 46.2023C11.7808 45.2856 11.8225 44.1189 11.5725 42.7023C11.3225 41.2856 10.9892 40.1189 10.5725 39.2023C10.5725 37.5356 10.5725 36.2023 10.5725 35.2023C10.6558 34.2023 10.7808 33.2439 10.9475 32.3273C11.1975 31.4106 11.3642 30.4939 11.4475 29.5773C11.6142 28.6606 11.6142 27.7023 11.4475 26.7023C10.7808 26.8689 10.4475 27.0773 10.4475 27.3273C10.4475 27.4939 10.4058 27.6606 10.3225 27.8273ZM46.3225 74.2023C46.3225 75.6189 46.4475 77.0773 46.6975 78.5773C46.9475 80.0773 47.1558 81.5356 47.3225 82.9523C48.0725 82.2023 48.6142 81.6606 48.9475 81.3273C49.1142 80.0773 49.5725 79.0773 50.3225 78.3273C50.4058 77.1606 50.6142 75.9939 50.9475 74.8273C51.3642 73.5773 51.5308 72.3689 51.4475 71.2023C51.4475 70.5356 51.2808 69.8689 50.9475 69.2023C50.6975 68.5356 50.6558 67.8689 50.8225 67.2023C50.4058 66.6189 49.9475 66.1189 49.4475 65.7023C48.9475 65.2856 48.5308 64.7856 48.1975 64.2023C48.1142 64.2023 47.8225 64.0773 47.3225 63.8273C46.8225 63.5773 46.2808 63.3273 45.6975 63.0773C45.1975 62.7439 44.6975 62.4523 44.1975 62.2023C43.6975 61.8689 43.4058 61.6606 43.3225 61.5773C42.6558 62.4106 42.4892 63.1606 42.8225 63.8273C43.1558 64.4106 43.4892 65.0773 43.8225 65.8273C44.1558 66.7439 44.4892 67.3689 44.8225 67.7023C45.1558 68.0356 45.4475 68.5773 45.6975 69.3273C45.8642 69.7439 45.9058 70.1606 45.8225 70.5773C45.7392 70.9939 45.7808 71.4106 45.9475 71.8273C45.9475 71.9939 46.0308 72.2439 46.1975 72.5773C46.3642 72.8273 46.4058 73.0356 46.3225 73.2023V74.2023Z" fill="#FF0000"/>
<path d="M29.8225 0.827271C29.6558 1.6606 29.6142 2.49394 29.6975 3.32727C29.7808 4.07727 29.8225 4.86894 29.8225 5.70227C29.8225 5.95227 29.7808 6.20227 29.6975 6.45227C29.6142 6.70227 29.5725 6.9106 29.5725 7.07727C29.6558 7.49394 29.7392 7.86894 29.8225 8.20227C29.9892 8.45227 30.0725 8.7856 30.0725 9.20227C30.0725 9.70227 30.1142 10.2439 30.1975 10.8273C30.2808 11.3273 30.3225 11.7856 30.3225 12.2023C30.2392 12.8689 30.0308 13.6189 29.6975 14.4523C29.3642 15.2856 29.4058 16.0356 29.8225 16.7023C30.0725 17.1189 30.7392 17.3273 31.8225 17.3273C32.9058 17.3273 33.6558 17.2439 34.0725 17.0773C34.4892 17.5773 35.0308 17.9106 35.6975 18.0773C36.4475 18.2439 37.1558 18.3273 37.8225 18.3273C38.1558 18.7439 38.8642 19.1606 39.9475 19.5773C41.1142 19.9106 41.9475 20.2439 42.4475 20.5773C43.0308 21.4106 43.4058 21.8273 43.5725 21.8273C43.7392 21.8273 43.9058 21.9106 44.0725 22.0773C44.3225 22.2439 44.5308 22.4939 44.6975 22.8273C44.9475 23.1606 45.2808 23.3689 45.6975 23.4523C45.6142 23.7856 45.6142 24.0356 45.6975 24.2023C45.8642 24.2856 46.0308 24.4939 46.1975 24.8273C46.6142 24.9939 46.8642 25.2856 46.9475 25.7023C47.1142 26.0356 47.3225 26.3689 47.5725 26.7023C47.8225 26.9523 48.1142 27.1606 48.4475 27.3273C48.7808 27.4939 49.0308 27.7439 49.1975 28.0773C49.3642 26.3273 49.4892 24.5773 49.5725 22.8273C49.6558 21.0773 49.6142 19.3273 49.4475 17.5773C49.8642 17.0773 50.2808 16.7023 50.6975 16.4523C51.1975 16.1189 51.7808 16.0356 52.4475 16.2023C53.0308 16.6189 53.3225 16.9523 53.3225 17.2023C53.3225 17.3689 53.4058 17.4106 53.5725 17.3273C53.5725 17.8273 53.5308 18.4939 53.4475 19.3273C53.3642 20.1606 53.2808 20.9939 53.1975 21.8273C53.1142 22.6606 53.0725 23.4523 53.0725 24.2023C53.1558 24.9523 53.3225 25.5356 53.5725 25.9523C53.4058 27.1189 53.4475 27.9523 53.6975 28.4523C53.9475 28.8689 54.0725 29.3689 54.0725 29.9523C54.0725 30.6189 53.9058 31.2023 53.5725 31.7023C53.3225 32.2023 53.1558 32.7856 53.0725 33.4523C53.0725 33.7023 53.1142 33.9523 53.1975 34.2023C53.2808 34.4523 53.3225 34.7439 53.3225 35.0773C53.1558 36.3273 53.1142 37.2439 53.1975 37.8273C53.3642 38.3273 53.3225 38.7856 53.0725 39.2023C52.4058 39.4523 51.7392 39.6606 51.0725 39.8273C50.4892 39.9106 49.8642 39.8689 49.1975 39.7023C48.9475 39.4523 48.7392 39.2023 48.5725 38.9523C48.4058 38.6189 48.1975 38.3273 47.9475 38.0773C47.6975 37.7439 47.7392 37.4939 48.0725 37.3273C48.4892 37.0773 48.6142 36.7023 48.4475 36.2023C48.1975 34.7023 47.6142 33.4106 46.6975 32.3273C45.8642 31.2439 44.9892 30.1189 44.0725 28.9523L43.0725 27.5773C42.7392 27.1606 42.3642 26.7856 41.9475 26.4523C41.5308 26.0356 41.2392 25.5773 41.0725 25.0773C40.6558 25.0773 40.3225 24.9106 40.0725 24.5773C39.8225 24.1606 39.5308 23.8689 39.1975 23.7023C38.9475 23.6189 38.4892 23.4523 37.8225 23.2023C37.1558 22.9523 36.4058 22.7439 35.5725 22.5773C34.8225 22.3273 34.0725 22.1189 33.3225 21.9523C32.6558 21.7023 32.1975 21.5773 31.9475 21.5773C31.4475 21.4939 30.9475 21.5356 30.4475 21.7023C30.0308 21.7856 29.6142 21.8273 29.1975 21.8273C28.1975 21.4939 27.5725 21.3689 27.3225 21.4523C27.0725 21.5356 26.8225 21.5773 26.5725 21.5773C25.9058 21.5773 25.3225 21.5356 24.8225 21.4523C24.3225 21.3689 23.7392 21.5773 23.0725 22.0773C21.9058 21.9106 20.8642 21.9939 19.9475 22.3273C19.0308 22.5773 17.9892 22.7856 16.8225 22.9523C16.7392 23.2023 16.7392 23.4523 16.8225 23.7023C16.9892 23.9523 16.9892 24.1606 16.8225 24.3273C16.5725 24.8273 16.3642 25.3273 16.1975 25.8273C16.1142 26.3273 15.9892 26.8273 15.8225 27.3273C15.9892 27.4939 15.9475 27.7856 15.6975 28.2023C15.5308 28.5356 15.4475 28.7856 15.4475 28.9523C15.3642 29.2856 15.3642 29.6189 15.4475 29.9523C15.6142 30.2023 15.6975 30.4939 15.6975 30.8273C15.6142 31.0773 15.4892 31.3273 15.3225 31.5773C15.2392 31.8273 15.1975 32.0356 15.1975 32.2023C15.0308 33.1189 15.0308 33.9939 15.1975 34.8273C15.3642 35.6606 15.4475 36.4939 15.4475 37.3273C15.4475 37.5773 15.4058 37.8273 15.3225 38.0773C15.2392 38.3273 15.1975 38.5773 15.1975 38.8273C15.1975 39.1606 15.2392 39.4939 15.3225 39.8273C15.4892 40.1606 15.6142 40.4939 15.6975 40.8273C15.7808 41.4106 15.8225 42.0773 15.8225 42.8273C15.8225 43.5773 16.0725 44.1606 16.5725 44.5773C16.4058 44.7439 16.3225 44.9939 16.3225 45.3273C16.3225 45.5773 16.2392 45.7856 16.0725 45.9523C16.2392 46.6189 16.4475 47.2023 16.6975 47.7023C16.9475 48.1189 16.9892 48.7023 16.8225 49.4523C17.4058 49.9523 17.6142 50.2856 17.4475 50.4523C17.2808 50.6189 17.2392 50.7439 17.3225 50.8273C17.4892 51.1606 17.8225 51.4523 18.3225 51.7023C18.9058 51.9523 19.5308 52.1606 20.1975 52.3273C20.9475 52.4106 21.6558 52.5356 22.3225 52.7023C22.9892 52.7856 23.4892 52.8689 23.8225 52.9523C24.2392 53.1189 24.5725 53.2856 24.8225 53.4523C25.1558 53.6189 25.5308 53.7856 25.9475 53.9523C26.3642 54.0356 26.7392 54.0773 27.0725 54.0773C27.4058 53.9939 27.7808 54.0356 28.1975 54.2023C29.1142 54.3689 29.9475 54.6189 30.6975 54.9523C31.5308 55.2023 32.4058 55.4106 33.3225 55.5773C33.5725 55.6606 33.8225 55.6606 34.0725 55.5773C34.4058 55.4939 34.6975 55.4939 34.9475 55.5773C36.1975 55.9939 37.1142 56.1606 37.6975 56.0773C38.3642 55.9939 38.9892 56.0356 39.5725 56.2023C39.9892 56.2856 40.3225 56.4106 40.5725 56.5773C40.8225 56.6606 41.1142 56.7856 41.4475 56.9523C42.4475 57.2856 43.6975 57.6606 45.1975 58.0773C46.7808 58.4939 47.8642 59.1189 48.4475 59.9523C49.1142 60.0356 49.6558 60.2439 50.0725 60.5773C50.4892 60.9106 51.0308 61.1606 51.6975 61.3273C51.9475 61.9106 52.2392 62.3689 52.5725 62.7023C52.9892 63.0356 53.4058 63.4523 53.8225 63.9523C54.4892 65.2856 54.9058 66.3273 55.0725 67.0773C55.2392 67.8273 55.3642 68.6189 55.4475 69.4523C55.6142 70.5356 55.6142 71.2023 55.4475 71.4523C55.3642 71.6189 55.2808 71.8273 55.1975 72.0773C55.1142 72.4106 55.1142 72.7439 55.1975 73.0773C55.2808 73.4106 55.2808 73.7856 55.1975 74.2023C55.1975 74.4523 55.1142 74.9523 54.9475 75.7023C54.7808 76.3689 54.6142 77.1189 54.4475 77.9523C54.2808 78.7023 54.0725 79.4523 53.8225 80.2023C53.5725 80.8689 53.4058 81.3273 53.3225 81.5773C52.9058 81.9939 52.7392 82.3273 52.8225 82.5773C52.9058 82.8273 52.8642 83.0356 52.6975 83.2023C52.0308 84.0356 51.5725 84.7023 51.3225 85.2023C51.0725 85.6189 50.7392 85.9106 50.3225 86.0773C50.4058 86.4106 50.3642 86.6606 50.1975 86.8273C50.0308 86.9106 49.9892 87.1189 50.0725 87.4523C49.3225 88.2023 48.6975 88.6606 48.1975 88.8273C47.7808 88.9939 47.4892 89.1606 47.3225 89.3273L46.1975 90.2023C44.9475 90.2856 44.1142 90.4523 43.6975 90.7023C43.2808 90.8689 42.8642 91.0356 42.4475 91.2023C41.2808 91.4523 40.0725 91.6189 38.8225 91.7023C37.6558 91.7023 36.6142 91.9939 35.6975 92.5773C35.1975 92.2439 34.6142 92.2023 33.9475 92.4523C33.2808 92.7023 32.6142 92.7439 31.9475 92.5773C31.6975 93.2439 31.7392 93.9939 32.0725 94.8273C32.4058 95.6606 32.5308 96.2856 32.4475 96.7023C32.8642 97.7023 33.0308 98.3689 32.9475 98.7023C32.8642 99.0356 32.9058 99.4106 33.0725 99.8273C33.3225 100.244 33.3225 101.119 33.0725 102.452C32.9058 103.702 32.6975 104.536 32.4475 104.952C31.9475 105.536 31.2392 105.827 30.3225 105.827C29.4058 105.827 28.6975 105.536 28.1975 104.952C28.1975 104.369 28.1558 103.786 28.0725 103.202C27.9892 102.536 28.1142 101.952 28.4475 101.452C28.1975 101.119 28.0308 100.869 27.9475 100.702C27.9475 100.452 27.9475 100.244 27.9475 100.077C28.0308 99.9106 28.0725 99.7439 28.0725 99.5773C28.1558 99.4106 28.1975 99.1606 28.1975 98.8273C28.1975 98.4106 28.1142 98.0773 27.9475 97.8273C27.8642 97.4939 27.7808 97.1189 27.6975 96.7023C27.6142 96.0356 27.5725 95.4106 27.5725 94.8273C27.5725 94.1606 27.4892 93.4939 27.3225 92.8273C27.0725 92.9106 26.6975 92.9106 26.1975 92.8273C25.7808 92.7439 25.5308 92.8273 25.4475 93.0773C24.6975 92.7439 24.0725 92.4106 23.5725 92.0773C23.0725 91.7439 22.3642 91.5773 21.4475 91.5773C21.0308 91.0773 20.2808 90.6606 19.1975 90.3273C18.1142 89.9106 17.2392 89.5773 16.5725 89.3273C16.1558 89.1606 15.7392 88.9523 15.3225 88.7023C14.9892 88.4523 14.6142 88.2439 14.1975 88.0773C13.7808 87.9106 13.3642 87.7856 12.9475 87.7023C12.5308 87.6189 12.1142 87.4523 11.6975 87.2023C11.3642 87.0356 11.0725 86.7856 10.8225 86.4523C10.5725 86.1189 10.2392 85.9939 9.82251 86.0773C9.65584 85.6606 9.40584 85.4106 9.07251 85.3273C8.82251 85.1606 8.53084 84.9939 8.19751 84.8273C7.78084 85.4106 7.57251 86.2439 7.57251 87.3273C7.65584 88.4106 7.78084 89.2856 7.94751 89.9523C8.03084 90.3689 8.23918 90.7023 8.57251 90.9523C8.90584 91.1189 9.07251 91.4106 9.07251 91.8273C8.73918 92.7439 8.36418 93.2856 7.94751 93.4523C7.61418 93.5356 7.40584 93.8689 7.32251 94.4523C6.90584 94.2856 6.44751 94.2023 5.94751 94.2023C5.53084 94.1189 5.11418 94.0356 4.69751 93.9523C4.53084 93.3689 4.28084 92.8273 3.94751 92.3273C3.61418 91.8273 3.40584 91.2856 3.32251 90.7023C3.15584 89.8689 3.15584 89.0773 3.32251 88.3273C3.57251 87.5773 3.65584 86.8273 3.57251 86.0773C3.48918 85.8273 3.40584 85.6189 3.32251 85.4523C3.32251 85.2023 3.15584 84.9939 2.82251 84.8273C3.15584 83.9106 3.11418 83.2856 2.69751 82.9523C2.36418 82.6189 2.11418 82.1606 1.94751 81.5773C1.78084 81.3273 1.69751 81.0356 1.69751 80.7023C1.78084 80.3689 1.78084 80.0356 1.69751 79.7023C1.69751 79.6189 1.61418 79.4106 1.44751 79.0773C1.36418 78.7439 1.28084 78.4106 1.19751 78.0773C1.11418 77.7439 1.03084 77.4523 0.94751 77.2023C0.94751 76.8689 1.03084 76.7023 1.19751 76.7023C1.11418 76.5356 0.989176 76.3273 0.82251 76.0773C0.739176 75.7439 0.69751 75.4939 0.69751 75.3273C0.69751 75.0773 0.739176 74.6189 0.82251 73.9523C0.989176 73.2023 1.15584 72.4106 1.32251 71.5773C1.48918 70.7439 1.69751 69.9939 1.94751 69.3273C2.19751 68.6606 2.40584 68.2439 2.57251 68.0773C2.82251 67.9106 2.98918 67.8689 3.07251 67.9523C3.15584 68.0356 3.40584 67.8689 3.82251 67.4523C4.23918 67.2856 4.61418 67.3273 4.94751 67.5773C5.28084 67.8273 5.65584 67.8689 6.07251 67.7023C6.40584 68.1189 6.61418 68.8273 6.69751 69.8273C6.78084 70.7439 6.90584 71.4939 7.07251 72.0773C6.90584 72.4939 6.98918 72.7023 7.32251 72.7023C7.65584 72.7023 7.86418 72.8689 7.94751 73.2023C8.03084 73.5356 8.11418 73.9523 8.19751 74.4523C8.28084 74.8689 8.53084 75.1606 8.94751 75.3273C8.86418 75.7439 8.86418 76.2023 8.94751 76.7023C9.03084 77.2023 9.23918 77.5356 9.57251 77.7023C9.48918 78.3689 9.61418 78.9106 9.94751 79.3273C10.2808 79.7439 10.5308 80.1189 10.6975 80.4523C11.1142 81.2856 11.6975 81.9523 12.4475 82.4523C13.1975 82.9523 13.8642 83.5356 14.4475 84.2023C15.2808 84.3689 15.9892 84.7023 16.5725 85.2023C17.1558 85.6189 17.7808 86.0356 18.4475 86.4523C19.5308 86.4523 20.3642 86.7856 20.9475 87.4523C21.6142 87.2856 22.4892 87.4523 23.5725 87.9523C24.7392 88.4523 25.3642 88.8273 25.4475 89.0773C25.8642 88.9106 26.3225 88.8689 26.8225 88.9523C27.4058 89.0356 27.9475 89.0773 28.4475 89.0773C29.3642 88.9106 29.9892 88.8689 30.3225 88.9523C30.6558 89.0356 31.0308 88.9939 31.4475 88.8273C31.6142 88.7439 31.9475 88.7439 32.4475 88.8273C33.0308 88.8273 33.6142 88.8273 34.1975 88.8273C34.7808 88.8273 35.2808 88.7856 35.6975 88.7023C36.1142 88.5356 36.3225 88.3273 36.3225 88.0773C36.4892 88.2439 36.7808 88.2856 37.1975 88.2023C37.6975 88.1189 38.0308 88.0356 38.1975 87.9523C39.1975 87.5356 39.7808 87.3273 39.9475 87.3273C40.1142 87.3273 40.2808 87.3273 40.4475 87.3273C40.6142 87.3273 40.7808 87.2439 40.9475 87.0773C41.1975 86.9106 41.5308 86.5773 41.9475 86.0773C42.1142 85.1606 42.3642 84.5356 42.6975 84.2023C43.0308 83.8689 43.1558 83.4106 43.0725 82.8273C42.7392 81.9939 42.6142 81.5356 42.6975 81.4523C42.8642 81.2856 42.9058 81.1189 42.8225 80.9523C42.8225 79.7856 42.6975 78.5773 42.4475 77.3273C42.1975 76.0773 42.0308 74.8689 41.9475 73.7023C41.9475 73.3689 41.9475 73.0773 41.9475 72.8273C42.0308 72.4939 42.0308 72.1606 41.9475 71.8273C41.5308 70.8273 41.3225 70.1189 41.3225 69.7023C41.3225 69.2023 41.2392 68.7439 41.0725 68.3273C40.4058 67.3273 39.9892 66.4939 39.8225 65.8273C39.7392 65.0773 39.4475 64.6606 38.9475 64.5773C39.0308 63.7439 38.8642 63.1189 38.4475 62.7023C38.1142 62.2856 37.9475 61.7023 37.9475 60.9523C37.1975 60.5356 36.1558 60.1189 34.8225 59.7023C33.4892 59.2856 32.3642 58.9939 31.4475 58.8273C31.0308 58.7439 30.5725 58.7439 30.0725 58.8273C29.6558 58.9106 29.1975 58.9106 28.6975 58.8273C28.0308 58.6606 27.4892 58.4523 27.0725 58.2023C26.7392 57.8689 26.2808 57.6189 25.6975 57.4523C25.1142 57.2856 24.5308 57.2023 23.9475 57.2023C23.4475 57.2023 22.9475 57.1189 22.4475 56.9523C22.0308 56.7856 21.6975 56.6189 21.4475 56.4523C21.1975 56.2856 20.9058 56.1189 20.5725 55.9523C20.2392 55.8689 19.9058 55.8689 19.5725 55.9523C19.3225 56.0356 19.0308 56.0356 18.6975 55.9523C17.7808 55.6189 17.1558 55.4939 16.8225 55.5773C16.5725 55.6606 16.3225 55.6606 16.0725 55.5773C15.8225 55.4939 15.5725 55.3689 15.3225 55.2023C15.1558 55.0356 14.9475 54.9106 14.6975 54.8273C14.4475 54.7439 14.1558 54.7023 13.8225 54.7023C13.5725 54.6189 13.3225 54.4939 13.0725 54.3273C12.3225 54.0773 11.9475 53.9106 11.9475 53.8273C12.0308 53.6606 12.0308 53.5356 11.9475 53.4523C11.7808 53.2856 11.4892 53.2023 11.0725 53.2023C10.7392 53.1189 10.4892 53.0356 10.3225 52.9523C8.98918 51.7856 7.69751 50.6189 6.44751 49.4523C5.28084 48.2023 4.07251 46.9523 2.82251 45.7023C2.82251 45.6189 2.78084 45.4106 2.69751 45.0773C2.69751 44.6606 2.65584 44.2856 2.57251 43.9523C2.57251 43.5356 2.53084 43.1606 2.44751 42.8273C2.36418 42.4106 2.32251 42.1606 2.32251 42.0773C2.07251 41.2439 1.98918 40.7856 2.07251 40.7023C2.15584 40.5356 2.19751 40.3689 2.19751 40.2023C2.03084 39.2023 1.98918 38.6189 2.07251 38.4523C2.23918 38.2856 2.32251 38.0773 2.32251 37.8273C2.40584 37.4106 2.36418 37.0773 2.19751 36.8273C2.11418 36.5773 2.15584 36.2023 2.32251 35.7023C2.82251 34.8689 3.03084 34.2439 2.94751 33.8273C2.94751 33.3273 2.98918 32.8689 3.07251 32.4523C3.07251 32.3689 3.11418 32.1189 3.19751 31.7023C3.36418 31.2023 3.48918 30.6606 3.57251 30.0773C3.73918 29.4939 3.86418 28.9939 3.94751 28.5773C4.11418 28.0773 4.19751 27.8273 4.19751 27.8273C4.61418 27.0773 4.86418 26.6606 4.94751 26.5773C5.11418 26.4939 5.28084 26.3689 5.44751 26.2023C5.61418 25.9523 5.78084 25.7023 5.94751 25.4523C6.11418 25.1189 6.32251 24.8273 6.57251 24.5773C6.98918 24.0773 7.44751 23.6189 7.94751 23.2023C8.44751 22.7856 8.90584 22.3273 9.32251 21.8273C10.1558 21.4939 10.6975 21.2856 10.9475 21.2023C11.2808 21.0356 11.5308 20.7439 11.6975 20.3273C12.6142 19.9939 13.1142 19.8689 13.1975 19.9523C13.2808 19.9523 13.4058 19.9523 13.5725 19.9523C13.9892 19.4523 14.3642 19.2439 14.6975 19.3273C15.0308 19.3273 15.3642 19.2856 15.6975 19.2023C16.3642 19.0356 17.0725 18.7856 17.8225 18.4523C18.5725 18.1189 19.3225 18.0773 20.0725 18.3273C20.8225 17.9939 21.2392 17.8273 21.3225 17.8273C21.4892 17.7439 21.6142 17.6606 21.6975 17.5773C22.0308 17.5773 22.3225 17.6189 22.5725 17.7023C22.9058 17.7856 23.1558 17.8273 23.3225 17.8273C24.1558 17.4106 24.6558 17.2439 24.8225 17.3273C25.0725 17.3273 25.2808 17.2439 25.4475 17.0773C25.4475 15.7439 25.4892 14.4106 25.5725 13.0773C25.7392 11.6606 25.6975 10.2856 25.4475 8.95227C25.3642 7.7856 25.4058 7.07727 25.5725 6.82727C25.8225 6.49394 25.7808 6.0356 25.4475 5.45227C25.4475 4.70227 25.4892 3.95227 25.5725 3.20227C25.6558 2.45227 25.8225 1.82727 26.0725 1.32727C26.4058 0.827271 26.8642 0.493937 27.4475 0.327271C28.0308 0.160604 28.8225 0.327271 29.8225 0.827271ZM10.3225 27.8273C9.82251 28.2439 9.57251 28.6189 9.57251 28.9523C9.57251 29.2856 9.36418 29.4523 8.94751 29.4523C8.78084 30.1189 8.61418 30.6189 8.44751 30.9523C8.28084 31.2856 8.03084 31.7023 7.69751 32.2023C7.94751 33.1189 7.86418 34.0356 7.44751 34.9523C7.03084 35.7856 6.98918 36.6606 7.32251 37.5773C7.07251 37.7439 6.86418 38.2856 6.69751 39.2023C6.53084 40.0356 6.48918 40.5773 6.57251 40.8273C6.57251 41.1606 6.65584 41.4523 6.82251 41.7023C6.98918 41.8689 7.15584 42.0773 7.32251 42.3273C7.40584 43.3273 7.57251 43.9939 7.82251 44.3273C8.07251 44.5773 8.11418 44.9106 7.94751 45.3273C8.19751 45.4939 8.48918 45.7439 8.82251 46.0773C9.15584 46.4106 9.48918 46.7439 9.82251 47.0773C10.2392 47.4106 10.5725 47.7023 10.8225 47.9523C11.1558 48.2023 11.4475 48.3273 11.6975 48.3273C12.0308 47.9939 12.1142 47.6606 11.9475 47.3273C11.7808 46.9939 11.6142 46.6189 11.4475 46.2023C11.7808 45.2856 11.8225 44.1189 11.5725 42.7023C11.3225 41.2856 10.9892 40.1189 10.5725 39.2023C10.5725 37.5356 10.5725 36.2023 10.5725 35.2023C10.6558 34.2023 10.7808 33.2439 10.9475 32.3273C11.1975 31.4106 11.3642 30.4939 11.4475 29.5773C11.6142 28.6606 11.6142 27.7023 11.4475 26.7023C10.7808 26.8689 10.4475 27.0773 10.4475 27.3273C10.4475 27.4939 10.4058 27.6606 10.3225 27.8273ZM46.3225 74.2023C46.3225 75.6189 46.4475 77.0773 46.6975 78.5773C46.9475 80.0773 47.1558 81.5356 47.3225 82.9523C48.0725 82.2023 48.6142 81.6606 48.9475 81.3273C49.1142 80.0773 49.5725 79.0773 50.3225 78.3273C50.4058 77.1606 50.6142 75.9939 50.9475 74.8273C51.3642 73.5773 51.5308 72.3689 51.4475 71.2023C51.4475 70.5356 51.2808 69.8689 50.9475 69.2023C50.6975 68.5356 50.6558 67.8689 50.8225 67.2023C50.4058 66.6189 49.9475 66.1189 49.4475 65.7023C48.9475 65.2856 48.5308 64.7856 48.1975 64.2023C48.1142 64.2023 47.8225 64.0773 47.3225 63.8273C46.8225 63.5773 46.2808 63.3273 45.6975 63.0773C45.1975 62.7439 44.6975 62.4523 44.1975 62.2023C43.6975 61.8689 43.4058 61.6606 43.3225 61.5773C42.6558 62.4106 42.4892 63.1606 42.8225 63.8273C43.1558 64.4106 43.4892 65.0773 43.8225 65.8273C44.1558 66.7439 44.4892 67.3689 44.8225 67.7023C45.1558 68.0356 45.4475 68.5773 45.6975 69.3273C45.8642 69.7439 45.9058 70.1606 45.8225 70.5773C45.7392 70.9939 45.7808 71.4106 45.9475 71.8273C45.9475 71.9939 46.0308 72.2439 46.1975 72.5773C46.3642 72.8273 46.4058 73.0356 46.3225 73.2023V74.2023Z" fill="#FF0000"/>
<path d="M29.8225 0.827271C29.6558 1.6606 29.6142 2.49394 29.6975 3.32727C29.7808 4.07727 29.8225 4.86894 29.8225 5.70227C29.8225 5.95227 29.7808 6.20227 29.6975 6.45227C29.6142 6.70227 29.5725 6.9106 29.5725 7.07727C29.6558 7.49394 29.7392 7.86894 29.8225 8.20227C29.9892 8.45227 30.0725 8.7856 30.0725 9.20227C30.0725 9.70227 30.1142 10.2439 30.1975 10.8273C30.2808 11.3273 30.3225 11.7856 30.3225 12.2023C30.2392 12.8689 30.0308 13.6189 29.6975 14.4523C29.3642 15.2856 29.4058 16.0356 29.8225 16.7023C30.0725 17.1189 30.7392 17.3273 31.8225 17.3273C32.9058 17.3273 33.6558 17.2439 34.0725 17.0773C34.4892 17.5773 35.0308 17.9106 35.6975 18.0773C36.4475 18.2439 37.1558 18.3273 37.8225 18.3273C38.1558 18.7439 38.8642 19.1606 39.9475 19.5773C41.1142 19.9106 41.9475 20.2439 42.4475 20.5773C43.0308 21.4106 43.4058 21.8273 43.5725 21.8273C43.7392 21.8273 43.9058 21.9106 44.0725 22.0773C44.3225 22.2439 44.5308 22.4939 44.6975 22.8273C44.9475 23.1606 45.2808 23.3689 45.6975 23.4523C45.6142 23.7856 45.6142 24.0356 45.6975 24.2023C45.8642 24.2856 46.0308 24.4939 46.1975 24.8273C46.6142 24.9939 46.8642 25.2856 46.9475 25.7023C47.1142 26.0356 47.3225 26.3689 47.5725 26.7023C47.8225 26.9523 48.1142 27.1606 48.4475 27.3273C48.7808 27.4939 49.0308 27.7439 49.1975 28.0773C49.3642 26.3273 49.4892 24.5773 49.5725 22.8273C49.6558 21.0773 49.6142 19.3273 49.4475 17.5773C49.8642 17.0773 50.2808 16.7023 50.6975 16.4523C51.1975 16.1189 51.7808 16.0356 52.4475 16.2023C53.0308 16.6189 53.3225 16.9523 53.3225 17.2023C53.3225 17.3689 53.4058 17.4106 53.5725 17.3273C53.5725 17.8273 53.5308 18.4939 53.4475 19.3273C53.3642 20.1606 53.2808 20.9939 53.1975 21.8273C53.1142 22.6606 53.0725 23.4523 53.0725 24.2023C53.1558 24.9523 53.3225 25.5356 53.5725 25.9523C53.4058 27.1189 53.4475 27.9523 53.6975 28.4523C53.9475 28.8689 54.0725 29.3689 54.0725 29.9523C54.0725 30.6189 53.9058 31.2023 53.5725 31.7023C53.3225 32.2023 53.1558 32.7856 53.0725 33.4523C53.0725 33.7023 53.1142 33.9523 53.1975 34.2023C53.2808 34.4523 53.3225 34.7439 53.3225 35.0773C53.1558 36.3273 53.1142 37.2439 53.1975 37.8273C53.3642 38.3273 53.3225 38.7856 53.0725 39.2023C52.4058 39.4523 51.7392 39.6606 51.0725 39.8273C50.4892 39.9106 49.8642 39.8689 49.1975 39.7023C48.9475 39.4523 48.7392 39.2023 48.5725 38.9523C48.4058 38.6189 48.1975 38.3273 47.9475 38.0773C47.6975 37.7439 47.7392 37.4939 48.0725 37.3273C48.4892 37.0773 48.6142 36.7023 48.4475 36.2023C48.1975 34.7023 47.6142 33.4106 46.6975 32.3273C45.8642 31.2439 44.9892 30.1189 44.0725 28.9523L43.0725 27.5773C42.7392 27.1606 42.3642 26.7856 41.9475 26.4523C41.5308 26.0356 41.2392 25.5773 41.0725 25.0773C40.6558 25.0773 40.3225 24.9106 40.0725 24.5773C39.8225 24.1606 39.5308 23.8689 39.1975 23.7023C38.9475 23.6189 38.4892 23.4523 37.8225 23.2023C37.1558 22.9523 36.4058 22.7439 35.5725 22.5773C34.8225 22.3273 34.0725 22.1189 33.3225 21.9523C32.6558 21.7023 32.1975 21.5773 31.9475 21.5773C31.4475 21.4939 30.9475 21.5356 30.4475 21.7023C30.0308 21.7856 29.6142 21.8273 29.1975 21.8273C28.1975 21.4939 27.5725 21.3689 27.3225 21.4523C27.0725 21.5356 26.8225 21.5773 26.5725 21.5773C25.9058 21.5773 25.3225 21.5356 24.8225 21.4523C24.3225 21.3689 23.7392 21.5773 23.0725 22.0773C21.9058 21.9106 20.8642 21.9939 19.9475 22.3273C19.0308 22.5773 17.9892 22.7856 16.8225 22.9523C16.7392 23.2023 16.7392 23.4523 16.8225 23.7023C16.9892 23.9523 16.9892 24.1606 16.8225 24.3273C16.5725 24.8273 16.3642 25.3273 16.1975 25.8273C16.1142 26.3273 15.9892 26.8273 15.8225 27.3273C15.9892 27.4939 15.9475 27.7856 15.6975 28.2023C15.5308 28.5356 15.4475 28.7856 15.4475 28.9523C15.3642 29.2856 15.3642 29.6189 15.4475 29.9523C15.6142 30.2023 15.6975 30.4939 15.6975 30.8273C15.6142 31.0773 15.4892 31.3273 15.3225 31.5773C15.2392 31.8273 15.1975 32.0356 15.1975 32.2023C15.0308 33.1189 15.0308 33.9939 15.1975 34.8273C15.3642 35.6606 15.4475 36.4939 15.4475 37.3273C15.4475 37.5773 15.4058 37.8273 15.3225 38.0773C15.2392 38.3273 15.1975 38.5773 15.1975 38.8273C15.1975 39.1606 15.2392 39.4939 15.3225 39.8273C15.4892 40.1606 15.6142 40.4939 15.6975 40.8273C15.7808 41.4106 15.8225 42.0773 15.8225 42.8273C15.8225 43.5773 16.0725 44.1606 16.5725 44.5773C16.4058 44.7439 16.3225 44.9939 16.3225 45.3273C16.3225 45.5773 16.2392 45.7856 16.0725 45.9523C16.2392 46.6189 16.4475 47.2023 16.6975 47.7023C16.9475 48.1189 16.9892 48.7023 16.8225 49.4523C17.4058 49.9523 17.6142 50.2856 17.4475 50.4523C17.2808 50.6189 17.2392 50.7439 17.3225 50.8273C17.4892 51.1606 17.8225 51.4523 18.3225 51.7023C18.9058 51.9523 19.5308 52.1606 20.1975 52.3273C20.9475 52.4106 21.6558 52.5356 22.3225 52.7023C22.9892 52.7856 23.4892 52.8689 23.8225 52.9523C24.2392 53.1189 24.5725 53.2856 24.8225 53.4523C25.1558 53.6189 25.5308 53.7856 25.9475 53.9523C26.3642 54.0356 26.7392 54.0773 27.0725 54.0773C27.4058 53.9939 27.7808 54.0356 28.1975 54.2023C29.1142 54.3689 29.9475 54.6189 30.6975 54.9523C31.5308 55.2023 32.4058 55.4106 33.3225 55.5773C33.5725 55.6606 33.8225 55.6606 34.0725 55.5773C34.4058 55.4939 34.6975 55.4939 34.9475 55.5773C36.1975 55.9939 37.1142 56.1606 37.6975 56.0773C38.3642 55.9939 38.9892 56.0356 39.5725 56.2023C39.9892 56.2856 40.3225 56.4106 40.5725 56.5773C40.8225 56.6606 41.1142 56.7856 41.4475 56.9523C42.4475 57.2856 43.6975 57.6606 45.1975 58.0773C46.7808 58.4939 47.8642 59.1189 48.4475 59.9523C49.1142 60.0356 49.6558 60.2439 50.0725 60.5773C50.4892 60.9106 51.0308 61.1606 51.6975 61.3273C51.9475 61.9106 52.2392 62.3689 52.5725 62.7023C52.9892 63.0356 53.4058 63.4523 53.8225 63.9523C54.4892 65.2856 54.9058 66.3273 55.0725 67.0773C55.2392 67.8273 55.3642 68.6189 55.4475 69.4523C55.6142 70.5356 55.6142 71.2023 55.4475 71.4523C55.3642 71.6189 55.2808 71.8273 55.1975 72.0773C55.1142 72.4106 55.1142 72.7439 55.1975 73.0773C55.2808 73.4106 55.2808 73.7856 55.1975 74.2023C55.1975 74.4523 55.1142 74.9523 54.9475 75.7023C54.7808 76.3689 54.6142 77.1189 54.4475 77.9523C54.2808 78.7023 54.0725 79.4523 53.8225 80.2023C53.5725 80.8689 53.4058 81.3273 53.3225 81.5773C52.9058 81.9939 52.7392 82.3273 52.8225 82.5773C52.9058 82.8273 52.8642 83.0356 52.6975 83.2023C52.0308 84.0356 51.5725 84.7023 51.3225 85.2023C51.0725 85.6189 50.7392 85.9106 50.3225 86.0773C50.4058 86.4106 50.3642 86.6606 50.1975 86.8273C50.0308 86.9106 49.9892 87.1189 50.0725 87.4523C49.3225 88.2023 48.6975 88.6606 48.1975 88.8273C47.7808 88.9939 47.4892 89.1606 47.3225 89.3273L46.1975 90.2023C44.9475 90.2856 44.1142 90.4523 43.6975 90.7023C43.2808 90.8689 42.8642 91.0356 42.4475 91.2023C41.2808 91.4523 40.0725 91.6189 38.8225 91.7023C37.6558 91.7023 36.6142 91.9939 35.6975 92.5773C35.1975 92.2439 34.6142 92.2023 33.9475 92.4523C33.2808 92.7023 32.6142 92.7439 31.9475 92.5773C31.6975 93.2439 31.7392 93.9939 32.0725 94.8273C32.4058 95.6606 32.5308 96.2856 32.4475 96.7023C32.8642 97.7023 33.0308 98.3689 32.9475 98.7023C32.8642 99.0356 32.9058 99.4106 33.0725 99.8273C33.3225 100.244 33.3225 101.119 33.0725 102.452C32.9058 103.702 32.6975 104.536 32.4475 104.952C31.9475 105.536 31.2392 105.827 30.3225 105.827C29.4058 105.827 28.6975 105.536 28.1975 104.952C28.1975 104.369 28.1558 103.786 28.0725 103.202C27.9892 102.536 28.1142 101.952 28.4475 101.452C28.1975 101.119 28.0308 100.869 27.9475 100.702C27.9475 100.452 27.9475 100.244 27.9475 100.077C28.0308 99.9106 28.0725 99.7439 28.0725 99.5773C28.1558 99.4106 28.1975 99.1606 28.1975 98.8273C28.1975 98.4106 28.1142 98.0773 27.9475 97.8273C27.8642 97.4939 27.7808 97.1189 27.6975 96.7023C27.6142 96.0356 27.5725 95.4106 27.5725 94.8273C27.5725 94.1606 27.4892 93.4939 27.3225 92.8273C27.0725 92.9106 26.6975 92.9106 26.1975 92.8273C25.7808 92.7439 25.5308 92.8273 25.4475 93.0773C24.6975 92.7439 24.0725 92.4106 23.5725 92.0773C23.0725 91.7439 22.3642 91.5773 21.4475 91.5773C21.0308 91.0773 20.2808 90.6606 19.1975 90.3273C18.1142 89.9106 17.2392 89.5773 16.5725 89.3273C16.1558 89.1606 15.7392 88.9523 15.3225 88.7023C14.9892 88.4523 14.6142 88.2439 14.1975 88.0773C13.7808 87.9106 13.3642 87.7856 12.9475 87.7023C12.5308 87.6189 12.1142 87.4523 11.6975 87.2023C11.3642 87.0356 11.0725 86.7856 10.8225 86.4523C10.5725 86.1189 10.2392 85.9939 9.82251 86.0773C9.65584 85.6606 9.40584 85.4106 9.07251 85.3273C8.82251 85.1606 8.53084 84.9939 8.19751 84.8273C7.78084 85.4106 7.57251 86.2439 7.57251 87.3273C7.65584 88.4106 7.78084 89.2856 7.94751 89.9523C8.03084 90.3689 8.23918 90.7023 8.57251 90.9523C8.90584 91.1189 9.07251 91.4106 9.07251 91.8273C8.73918 92.7439 8.36418 93.2856 7.94751 93.4523C7.61418 93.5356 7.40584 93.8689 7.32251 94.4523C6.90584 94.2856 6.44751 94.2023 5.94751 94.2023C5.53084 94.1189 5.11418 94.0356 4.69751 93.9523C4.53084 93.3689 4.28084 92.8273 3.94751 92.3273C3.61418 91.8273 3.40584 91.2856 3.32251 90.7023C3.15584 89.8689 3.15584 89.0773 3.32251 88.3273C3.57251 87.5773 3.65584 86.8273 3.57251 86.0773C3.48918 85.8273 3.40584 85.6189 3.32251 85.4523C3.32251 85.2023 3.15584 84.9939 2.82251 84.8273C3.15584 83.9106 3.11418 83.2856 2.69751 82.9523C2.36418 82.6189 2.11418 82.1606 1.94751 81.5773C1.78084 81.3273 1.69751 81.0356 1.69751 80.7023C1.78084 80.3689 1.78084 80.0356 1.69751 79.7023C1.69751 79.6189 1.61418 79.4106 1.44751 79.0773C1.36418 78.7439 1.28084 78.4106 1.19751 78.0773C1.11418 77.7439 1.03084 77.4523 0.94751 77.2023C0.94751 76.8689 1.03084 76.7023 1.19751 76.7023C1.11418 76.5356 0.989176 76.3273 0.82251 76.0773C0.739176 75.7439 0.69751 75.4939 0.69751 75.3273C0.69751 75.0773 0.739176 74.6189 0.82251 73.9523C0.989176 73.2023 1.15584 72.4106 1.32251 71.5773C1.48918 70.7439 1.69751 69.9939 1.94751 69.3273C2.19751 68.6606 2.40584 68.2439 2.57251 68.0773C2.82251 67.9106 2.98918 67.8689 3.07251 67.9523C3.15584 68.0356 3.40584 67.8689 3.82251 67.4523C4.23918 67.2856 4.61418 67.3273 4.94751 67.5773C5.28084 67.8273 5.65584 67.8689 6.07251 67.7023C6.40584 68.1189 6.61418 68.8273 6.69751 69.8273C6.78084 70.7439 6.90584 71.4939 7.07251 72.0773C6.90584 72.4939 6.98918 72.7023 7.32251 72.7023C7.65584 72.7023 7.86418 72.8689 7.94751 73.2023C8.03084 73.5356 8.11418 73.9523 8.19751 74.4523C8.28084 74.8689 8.53084 75.1606 8.94751 75.3273C8.86418 75.7439 8.86418 76.2023 8.94751 76.7023C9.03084 77.2023 9.23918 77.5356 9.57251 77.7023C9.48918 78.3689 9.61418 78.9106 9.94751 79.3273C10.2808 79.7439 10.5308 80.1189 10.6975 80.4523C11.1142 81.2856 11.6975 81.9523 12.4475 82.4523C13.1975 82.9523 13.8642 83.5356 14.4475 84.2023C15.2808 84.3689 15.9892 84.7023 16.5725 85.2023C17.1558 85.6189 17.7808 86.0356 18.4475 86.4523C19.5308 86.4523 20.3642 86.7856 20.9475 87.4523C21.6142 87.2856 22.4892 87.4523 23.5725 87.9523C24.7392 88.4523 25.3642 88.8273 25.4475 89.0773C25.8642 88.9106 26.3225 88.8689 26.8225 88.9523C27.4058 89.0356 27.9475 89.0773 28.4475 89.0773C29.3642 88.9106 29.9892 88.8689 30.3225 88.9523C30.6558 89.0356 31.0308 88.9939 31.4475 88.8273C31.6142 88.7439 31.9475 88.7439 32.4475 88.8273C33.0308 88.8273 33.6142 88.8273 34.1975 88.8273C34.7808 88.8273 35.2808 88.7856 35.6975 88.7023C36.1142 88.5356 36.3225 88.3273 36.3225 88.0773C36.4892 88.2439 36.7808 88.2856 37.1975 88.2023C37.6975 88.1189 38.0308 88.0356 38.1975 87.9523C39.1975 87.5356 39.7808 87.3273 39.9475 87.3273C40.1142 87.3273 40.2808 87.3273 40.4475 87.3273C40.6142 87.3273 40.7808 87.2439 40.9475 87.0773C41.1975 86.9106 41.5308 86.5773 41.9475 86.0773C42.1142 85.1606 42.3642 84.5356 42.6975 84.2023C43.0308 83.8689 43.1558 83.4106 43.0725 82.8273C42.7392 81.9939 42.6142 81.5356 42.6975 81.4523C42.8642 81.2856 42.9058 81.1189 42.8225 80.9523C42.8225 79.7856 42.6975 78.5773 42.4475 77.3273C42.1975 76.0773 42.0308 74.8689 41.9475 73.7023C41.9475 73.3689 41.9475 73.0773 41.9475 72.8273C42.0308 72.4939 42.0308 72.1606 41.9475 71.8273C41.5308 70.8273 41.3225 70.1189 41.3225 69.7023C41.3225 69.2023 41.2392 68.7439 41.0725 68.3273C40.4058 67.3273 39.9892 66.4939 39.8225 65.8273C39.7392 65.0773 39.4475 64.6606 38.9475 64.5773C39.0308 63.7439 38.8642 63.1189 38.4475 62.7023C38.1142 62.2856 37.9475 61.7023 37.9475 60.9523C37.1975 60.5356 36.1558 60.1189 34.8225 59.7023C33.4892 59.2856 32.3642 58.9939 31.4475 58.8273C31.0308 58.7439 30.5725 58.7439 30.0725 58.8273C29.6558 58.9106 29.1975 58.9106 28.6975 58.8273C28.0308 58.6606 27.4892 58.4523 27.0725 58.2023C26.7392 57.8689 26.2808 57.6189 25.6975 57.4523C25.1142 57.2856 24.5308 57.2023 23.9475 57.2023C23.4475 57.2023 22.9475 57.1189 22.4475 56.9523C22.0308 56.7856 21.6975 56.6189 21.4475 56.4523C21.1975 56.2856 20.9058 56.1189 20.5725 55.9523C20.2392 55.8689 19.9058 55.8689 19.5725 55.9523C19.3225 56.0356 19.0308 56.0356 18.6975 55.9523C17.7808 55.6189 17.1558 55.4939 16.8225 55.5773C16.5725 55.6606 16.3225 55.6606 16.0725 55.5773C15.8225 55.4939 15.5725 55.3689 15.3225 55.2023C15.1558 55.0356 14.9475 54.9106 14.6975 54.8273C14.4475 54.7439 14.1558 54.7023 13.8225 54.7023C13.5725 54.6189 13.3225 54.4939 13.0725 54.3273C12.3225 54.0773 11.9475 53.9106 11.9475 53.8273C12.0308 53.6606 12.0308 53.5356 11.9475 53.4523C11.7808 53.2856 11.4892 53.2023 11.0725 53.2023C10.7392 53.1189 10.4892 53.0356 10.3225 52.9523C8.98918 51.7856 7.69751 50.6189 6.44751 49.4523C5.28084 48.2023 4.07251 46.9523 2.82251 45.7023C2.82251 45.6189 2.78084 45.4106 2.69751 45.0773C2.69751 44.6606 2.65584 44.2856 2.57251 43.9523C2.57251 43.5356 2.53084 43.1606 2.44751 42.8273C2.36418 42.4106 2.32251 42.1606 2.32251 42.0773C2.07251 41.2439 1.98918 40.7856 2.07251 40.7023C2.15584 40.5356 2.19751 40.3689 2.19751 40.2023C2.03084 39.2023 1.98918 38.6189 2.07251 38.4523C2.23918 38.2856 2.32251 38.0773 2.32251 37.8273C2.40584 37.4106 2.36418 37.0773 2.19751 36.8273C2.11418 36.5773 2.15584 36.2023 2.32251 35.7023C2.82251 34.8689 3.03084 34.2439 2.94751 33.8273C2.94751 33.3273 2.98918 32.8689 3.07251 32.4523C3.07251 32.3689 3.11418 32.1189 3.19751 31.7023C3.36418 31.2023 3.48918 30.6606 3.57251 30.0773C3.73918 29.4939 3.86418 28.9939 3.94751 28.5773C4.11418 28.0773 4.19751 27.8273 4.19751 27.8273C4.61418 27.0773 4.86418 26.6606 4.94751 26.5773C5.11418 26.4939 5.28084 26.3689 5.44751 26.2023C5.61418 25.9523 5.78084 25.7023 5.94751 25.4523C6.11418 25.1189 6.32251 24.8273 6.57251 24.5773C6.98918 24.0773 7.44751 23.6189 7.94751 23.2023C8.44751 22.7856 8.90584 22.3273 9.32251 21.8273C10.1558 21.4939 10.6975 21.2856 10.9475 21.2023C11.2808 21.0356 11.5308 20.7439 11.6975 20.3273C12.6142 19.9939 13.1142 19.8689 13.1975 19.9523C13.2808 19.9523 13.4058 19.9523 13.5725 19.9523C13.9892 19.4523 14.3642 19.2439 14.6975 19.3273C15.0308 19.3273 15.3642 19.2856 15.6975 19.2023C16.3642 19.0356 17.0725 18.7856 17.8225 18.4523C18.5725 18.1189 19.3225 18.0773 20.0725 18.3273C20.8225 17.9939 21.2392 17.8273 21.3225 17.8273C21.4892 17.7439 21.6142 17.6606 21.6975 17.5773C22.0308 17.5773 22.3225 17.6189 22.5725 17.7023C22.9058 17.7856 23.1558 17.8273 23.3225 17.8273C24.1558 17.4106 24.6558 17.2439 24.8225 17.3273C25.0725 17.3273 25.2808 17.2439 25.4475 17.0773C25.4475 15.7439 25.4892 14.4106 25.5725 13.0773C25.7392 11.6606 25.6975 10.2856 25.4475 8.95227C25.3642 7.7856 25.4058 7.07727 25.5725 6.82727C25.8225 6.49394 25.7808 6.0356 25.4475 5.45227C25.4475 4.70227 25.4892 3.95227 25.5725 3.20227C25.6558 2.45227 25.8225 1.82727 26.0725 1.32727C26.4058 0.827271 26.8642 0.493937 27.4475 0.327271C28.0308 0.160604 28.8225 0.327271 29.8225 0.827271ZM10.3225 27.8273C9.82251 28.2439 9.57251 28.6189 9.57251 28.9523C9.57251 29.2856 9.36418 29.4523 8.94751 29.4523C8.78084 30.1189 8.61418 30.6189 8.44751 30.9523C8.28084 31.2856 8.03084 31.7023 7.69751 32.2023C7.94751 33.1189 7.86418 34.0356 7.44751 34.9523C7.03084 35.7856 6.98918 36.6606 7.32251 37.5773C7.07251 37.7439 6.86418 38.2856 6.69751 39.2023C6.53084 40.0356 6.48918 40.5773 6.57251 40.8273C6.57251 41.1606 6.65584 41.4523 6.82251 41.7023C6.98918 41.8689 7.15584 42.0773 7.32251 42.3273C7.40584 43.3273 7.57251 43.9939 7.82251 44.3273C8.07251 44.5773 8.11418 44.9106 7.94751 45.3273C8.19751 45.4939 8.48918 45.7439 8.82251 46.0773C9.15584 46.4106 9.48918 46.7439 9.82251 47.0773C10.2392 47.4106 10.5725 47.7023 10.8225 47.9523C11.1558 48.2023 11.4475 48.3273 11.6975 48.3273C12.0308 47.9939 12.1142 47.6606 11.9475 47.3273C11.7808 46.9939 11.6142 46.6189 11.4475 46.2023C11.7808 45.2856 11.8225 44.1189 11.5725 42.7023C11.3225 41.2856 10.9892 40.1189 10.5725 39.2023C10.5725 37.5356 10.5725 36.2023 10.5725 35.2023C10.6558 34.2023 10.7808 33.2439 10.9475 32.3273C11.1975 31.4106 11.3642 30.4939 11.4475 29.5773C11.6142 28.6606 11.6142 27.7023 11.4475 26.7023C10.7808 26.8689 10.4475 27.0773 10.4475 27.3273C10.4475 27.4939 10.4058 27.6606 10.3225 27.8273ZM46.3225 74.2023C46.3225 75.6189 46.4475 77.0773 46.6975 78.5773C46.9475 80.0773 47.1558 81.5356 47.3225 82.9523C48.0725 82.2023 48.6142 81.6606 48.9475 81.3273C49.1142 80.0773 49.5725 79.0773 50.3225 78.3273C50.4058 77.1606 50.6142 75.9939 50.9475 74.8273C51.3642 73.5773 51.5308 72.3689 51.4475 71.2023C51.4475 70.5356 51.2808 69.8689 50.9475 69.2023C50.6975 68.5356 50.6558 67.8689 50.8225 67.2023C50.4058 66.6189 49.9475 66.1189 49.4475 65.7023C48.9475 65.2856 48.5308 64.7856 48.1975 64.2023C48.1142 64.2023 47.8225 64.0773 47.3225 63.8273C46.8225 63.5773 46.2808 63.3273 45.6975 63.0773C45.1975 62.7439 44.6975 62.4523 44.1975 62.2023C43.6975 61.8689 43.4058 61.6606 43.3225 61.5773C42.6558 62.4106 42.4892 63.1606 42.8225 63.8273C43.1558 64.4106 43.4892 65.0773 43.8225 65.8273C44.1558 66.7439 44.4892 67.3689 44.8225 67.7023C45.1558 68.0356 45.4475 68.5773 45.6975 69.3273C45.8642 69.7439 45.9058 70.1606 45.8225 70.5773C45.7392 70.9939 45.7808 71.4106 45.9475 71.8273C45.9475 71.9939 46.0308 72.2439 46.1975 72.5773C46.3642 72.8273 46.4058 73.0356 46.3225 73.2023V74.2023Z" fill="#FF0000"/>
<path d="M29.8225 0.827271C29.6558 1.6606 29.6142 2.49394 29.6975 3.32727C29.7808 4.07727 29.8225 4.86894 29.8225 5.70227C29.8225 5.95227 29.7808 6.20227 29.6975 6.45227C29.6142 6.70227 29.5725 6.9106 29.5725 7.07727C29.6558 7.49394 29.7392 7.86894 29.8225 8.20227C29.9892 8.45227 30.0725 8.7856 30.0725 9.20227C30.0725 9.70227 30.1142 10.2439 30.1975 10.8273C30.2808 11.3273 30.3225 11.7856 30.3225 12.2023C30.2392 12.8689 30.0308 13.6189 29.6975 14.4523C29.3642 15.2856 29.4058 16.0356 29.8225 16.7023C30.0725 17.1189 30.7392 17.3273 31.8225 17.3273C32.9058 17.3273 33.6558 17.2439 34.0725 17.0773C34.4892 17.5773 35.0308 17.9106 35.6975 18.0773C36.4475 18.2439 37.1558 18.3273 37.8225 18.3273C38.1558 18.7439 38.8642 19.1606 39.9475 19.5773C41.1142 19.9106 41.9475 20.2439 42.4475 20.5773C43.0308 21.4106 43.4058 21.8273 43.5725 21.8273C43.7392 21.8273 43.9058 21.9106 44.0725 22.0773C44.3225 22.2439 44.5308 22.4939 44.6975 22.8273C44.9475 23.1606 45.2808 23.3689 45.6975 23.4523C45.6142 23.7856 45.6142 24.0356 45.6975 24.2023C45.8642 24.2856 46.0308 24.4939 46.1975 24.8273C46.6142 24.9939 46.8642 25.2856 46.9475 25.7023C47.1142 26.0356 47.3225 26.3689 47.5725 26.7023C47.8225 26.9523 48.1142 27.1606 48.4475 27.3273C48.7808 27.4939 49.0308 27.7439 49.1975 28.0773C49.3642 26.3273 49.4892 24.5773 49.5725 22.8273C49.6558 21.0773 49.6142 19.3273 49.4475 17.5773C49.8642 17.0773 50.2808 16.7023 50.6975 16.4523C51.1975 16.1189 51.7808 16.0356 52.4475 16.2023C53.0308 16.6189 53.3225 16.9523 53.3225 17.2023C53.3225 17.3689 53.4058 17.4106 53.5725 17.3273C53.5725 17.8273 53.5308 18.4939 53.4475 19.3273C53.3642 20.1606 53.2808 20.9939 53.1975 21.8273C53.1142 22.6606 53.0725 23.4523 53.0725 24.2023C53.1558 24.9523 53.3225 25.5356 53.5725 25.9523C53.4058 27.1189 53.4475 27.9523 53.6975 28.4523C53.9475 28.8689 54.0725 29.3689 54.0725 29.9523C54.0725 30.6189 53.9058 31.2023 53.5725 31.7023C53.3225 32.2023 53.1558 32.7856 53.0725 33.4523C53.0725 33.7023 53.1142 33.9523 53.1975 34.2023C53.2808 34.4523 53.3225 34.7439 53.3225 35.0773C53.1558 36.3273 53.1142 37.2439 53.1975 37.8273C53.3642 38.3273 53.3225 38.7856 53.0725 39.2023C52.4058 39.4523 51.7392 39.6606 51.0725 39.8273C50.4892 39.9106 49.8642 39.8689 49.1975 39.7023C48.9475 39.4523 48.7392 39.2023 48.5725 38.9523C48.4058 38.6189 48.1975 38.3273 47.9475 38.0773C47.6975 37.7439 47.7392 37.4939 48.0725 37.3273C48.4892 37.0773 48.6142 36.7023 48.4475 36.2023C48.1975 34.7023 47.6142 33.4106 46.6975 32.3273C45.8642 31.2439 44.9892 30.1189 44.0725 28.9523L43.0725 27.5773C42.7392 27.1606 42.3642 26.7856 41.9475 26.4523C41.5308 26.0356 41.2392 25.5773 41.0725 25.0773C40.6558 25.0773 40.3225 24.9106 40.0725 24.5773C39.8225 24.1606 39.5308 23.8689 39.1975 23.7023C38.9475 23.6189 38.4892 23.4523 37.8225 23.2023C37.1558 22.9523 36.4058 22.7439 35.5725 22.5773C34.8225 22.3273 34.0725 22.1189 33.3225 21.9523C32.6558 21.7023 32.1975 21.5773 31.9475 21.5773C31.4475 21.4939 30.9475 21.5356 30.4475 21.7023C30.0308 21.7856 29.6142 21.8273 29.1975 21.8273C28.1975 21.4939 27.5725 21.3689 27.3225 21.4523C27.0725 21.5356 26.8225 21.5773 26.5725 21.5773C25.9058 21.5773 25.3225 21.5356 24.8225 21.4523C24.3225 21.3689 23.7392 21.5773 23.0725 22.0773C21.9058 21.9106 20.8642 21.9939 19.9475 22.3273C19.0308 22.5773 17.9892 22.7856 16.8225 22.9523C16.7392 23.2023 16.7392 23.4523 16.8225 23.7023C16.9892 23.9523 16.9892 24.1606 16.8225 24.3273C16.5725 24.8273 16.3642 25.3273 16.1975 25.8273C16.1142 26.3273 15.9892 26.8273 15.8225 27.3273C15.9892 27.4939 15.9475 27.7856 15.6975 28.2023C15.5308 28.5356 15.4475 28.7856 15.4475 28.9523C15.3642 29.2856 15.3642 29.6189 15.4475 29.9523C15.6142 30.2023 15.6975 30.4939 15.6975 30.8273C15.6142 31.0773 15.4892 31.3273 15.3225 31.5773C15.2392 31.8273 15.1975 32.0356 15.1975 32.2023C15.0308 33.1189 15.0308 33.9939 15.1975 34.8273C15.3642 35.6606 15.4475 36.4939 15.4475 37.3273C15.4475 37.5773 15.4058 37.8273 15.3225 38.0773C15.2392 38.3273 15.1975 38.5773 15.1975 38.8273C15.1975 39.1606 15.2392 39.4939 15.3225 39.8273C15.4892 40.1606 15.6142 40.4939 15.6975 40.8273C15.7808 41.4106 15.8225 42.0773 15.8225 42.8273C15.8225 43.5773 16.0725 44.1606 16.5725 44.5773C16.4058 44.7439 16.3225 44.9939 16.3225 45.3273C16.3225 45.5773 16.2392 45.7856 16.0725 45.9523C16.2392 46.6189 16.4475 47.2023 16.6975 47.7023C16.9475 48.1189 16.9892 48.7023 16.8225 49.4523C17.4058 49.9523 17.6142 50.2856 17.4475 50.4523C17.2808 50.6189 17.2392 50.7439 17.3225 50.8273C17.4892 51.1606 17.8225 51.4523 18.3225 51.7023C18.9058 51.9523 19.5308 52.1606 20.1975 52.3273C20.9475 52.4106 21.6558 52.5356 22.3225 52.7023C22.9892 52.7856 23.4892 52.8689 23.8225 52.9523C24.2392 53.1189 24.5725 53.2856 24.8225 53.4523C25.1558 53.6189 25.5308 53.7856 25.9475 53.9523C26.3642 54.0356 26.7392 54.0773 27.0725 54.0773C27.4058 53.9939 27.7808 54.0356 28.1975 54.2023C29.1142 54.3689 29.9475 54.6189 30.6975 54.9523C31.5308 55.2023 32.4058 55.4106 33.3225 55.5773C33.5725 55.6606 33.8225 55.6606 34.0725 55.5773C34.4058 55.4939 34.6975 55.4939 34.9475 55.5773C36.1975 55.9939 37.1142 56.1606 37.6975 56.0773C38.3642 55.9939 38.9892 56.0356 39.5725 56.2023C39.9892 56.2856 40.3225 56.4106 40.5725 56.5773C40.8225 56.6606 41.1142 56.7856 41.4475 56.9523C42.4475 57.2856 43.6975 57.6606 45.1975 58.0773C46.7808 58.4939 47.8642 59.1189 48.4475 59.9523C49.1142 60.0356 49.6558 60.2439 50.0725 60.5773C50.4892 60.9106 51.0308 61.1606 51.6975 61.3273C51.9475 61.9106 52.2392 62.3689 52.5725 62.7023C52.9892 63.0356 53.4058 63.4523 53.8225 63.9523C54.4892 65.2856 54.9058 66.3273 55.0725 67.0773C55.2392 67.8273 55.3642 68.6189 55.4475 69.4523C55.6142 70.5356 55.6142 71.2023 55.4475 71.4523C55.3642 71.6189 55.2808 71.8273 55.1975 72.0773C55.1142 72.4106 55.1142 72.7439 55.1975 73.0773C55.2808 73.4106 55.2808 73.7856 55.1975 74.2023C55.1975 74.4523 55.1142 74.9523 54.9475 75.7023C54.7808 76.3689 54.6142 77.1189 54.4475 77.9523C54.2808 78.7023 54.0725 79.4523 53.8225 80.2023C53.5725 80.8689 53.4058 81.3273 53.3225 81.5773C52.9058 81.9939 52.7392 82.3273 52.8225 82.5773C52.9058 82.8273 52.8642 83.0356 52.6975 83.2023C52.0308 84.0356 51.5725 84.7023 51.3225 85.2023C51.0725 85.6189 50.7392 85.9106 50.3225 86.0773C50.4058 86.4106 50.3642 86.6606 50.1975 86.8273C50.0308 86.9106 49.9892 87.1189 50.0725 87.4523C49.3225 88.2023 48.6975 88.6606 48.1975 88.8273C47.7808 88.9939 47.4892 89.1606 47.3225 89.3273L46.1975 90.2023C44.9475 90.2856 44.1142 90.4523 43.6975 90.7023C43.2808 90.8689 42.8642 91.0356 42.4475 91.2023C41.2808 91.4523 40.0725 91.6189 38.8225 91.7023C37.6558 91.7023 36.6142 91.9939 35.6975 92.5773C35.1975 92.2439 34.6142 92.2023 33.9475 92.4523C33.2808 92.7023 32.6142 92.7439 31.9475 92.5773C31.6975 93.2439 31.7392 93.9939 32.0725 94.8273C32.4058 95.6606 32.5308 96.2856 32.4475 96.7023C32.8642 97.7023 33.0308 98.3689 32.9475 98.7023C32.8642 99.0356 32.9058 99.4106 33.0725 99.8273C33.3225 100.244 33.3225 101.119 33.0725 102.452C32.9058 103.702 32.6975 104.536 32.4475 104.952C31.9475 105.536 31.2392 105.827 30.3225 105.827C29.4058 105.827 28.6975 105.536 28.1975 104.952C28.1975 104.369 28.1558 103.786 28.0725 103.202C27.9892 102.536 28.1142 101.952 28.4475 101.452C28.1975 101.119 28.0308 100.869 27.9475 100.702C27.9475 100.452 27.9475 100.244 27.9475 100.077C28.0308 99.9106 28.0725 99.7439 28.0725 99.5773C28.1558 99.4106 28.1975 99.1606 28.1975 98.8273C28.1975 98.4106 28.1142 98.0773 27.9475 97.8273C27.8642 97.4939 27.7808 97.1189 27.6975 96.7023C27.6142 96.0356 27.5725 95.4106 27.5725 94.8273C27.5725 94.1606 27.4892 93.4939 27.3225 92.8273C27.0725 92.9106 26.6975 92.9106 26.1975 92.8273C25.7808 92.7439 25.5308 92.8273 25.4475 93.0773C24.6975 92.7439 24.0725 92.4106 23.5725 92.0773C23.0725 91.7439 22.3642 91.5773 21.4475 91.5773C21.0308 91.0773 20.2808 90.6606 19.1975 90.3273C18.1142 89.9106 17.2392 89.5773 16.5725 89.3273C16.1558 89.1606 15.7392 88.9523 15.3225 88.7023C14.9892 88.4523 14.6142 88.2439 14.1975 88.0773C13.7808 87.9106 13.3642 87.7856 12.9475 87.7023C12.5308 87.6189 12.1142 87.4523 11.6975 87.2023C11.3642 87.0356 11.0725 86.7856 10.8225 86.4523C10.5725 86.1189 10.2392 85.9939 9.82251 86.0773C9.65584 85.6606 9.40584 85.4106 9.07251 85.3273C8.82251 85.1606 8.53084 84.9939 8.19751 84.8273C7.78084 85.4106 7.57251 86.2439 7.57251 87.3273C7.65584 88.4106 7.78084 89.2856 7.94751 89.9523C8.03084 90.3689 8.23918 90.7023 8.57251 90.9523C8.90584 91.1189 9.07251 91.4106 9.07251 91.8273C8.73918 92.7439 8.36418 93.2856 7.94751 93.4523C7.61418 93.5356 7.40584 93.8689 7.32251 94.4523C6.90584 94.2856 6.44751 94.2023 5.94751 94.2023C5.53084 94.1189 5.11418 94.0356 4.69751 93.9523C4.53084 93.3689 4.28084 92.8273 3.94751 92.3273C3.61418 91.8273 3.40584 91.2856 3.32251 90.7023C3.15584 89.8689 3.15584 89.0773 3.32251 88.3273C3.57251 87.5773 3.65584 86.8273 3.57251 86.0773C3.48918 85.8273 3.40584 85.6189 3.32251 85.4523C3.32251 85.2023 3.15584 84.9939 2.82251 84.8273C3.15584 83.9106 3.11418 83.2856 2.69751 82.9523C2.36418 82.6189 2.11418 82.1606 1.94751 81.5773C1.78084 81.3273 1.69751 81.0356 1.69751 80.7023C1.78084 80.3689 1.78084 80.0356 1.69751 79.7023C1.69751 79.6189 1.61418 79.4106 1.44751 79.0773C1.36418 78.7439 1.28084 78.4106 1.19751 78.0773C1.11418 77.7439 1.03084 77.4523 0.94751 77.2023C0.94751 76.8689 1.03084 76.7023 1.19751 76.7023C1.11418 76.5356 0.989176 76.3273 0.82251 76.0773C0.739176 75.7439 0.69751 75.4939 0.69751 75.3273C0.69751 75.0773 0.739176 74.6189 0.82251 73.9523C0.989176 73.2023 1.15584 72.4106 1.32251 71.5773C1.48918 70.7439 1.69751 69.9939 1.94751 69.3273C2.19751 68.6606 2.40584 68.2439 2.57251 68.0773C2.82251 67.9106 2.98918 67.8689 3.07251 67.9523C3.15584 68.0356 3.40584 67.8689 3.82251 67.4523C4.23918 67.2856 4.61418 67.3273 4.94751 67.5773C5.28084 67.8273 5.65584 67.8689 6.07251 67.7023C6.40584 68.1189 6.61418 68.8273 6.69751 69.8273C6.78084 70.7439 6.90584 71.4939 7.07251 72.0773C6.90584 72.4939 6.98918 72.7023 7.32251 72.7023C7.65584 72.7023 7.86418 72.8689 7.94751 73.2023C8.03084 73.5356 8.11418 73.9523 8.19751 74.4523C8.28084 74.8689 8.53084 75.1606 8.94751 75.3273C8.86418 75.7439 8.86418 76.2023 8.94751 76.7023C9.03084 77.2023 9.23918 77.5356 9.57251 77.7023C9.48918 78.3689 9.61418 78.9106 9.94751 79.3273C10.2808 79.7439 10.5308 80.1189 10.6975 80.4523C11.1142 81.2856 11.6975 81.9523 12.4475 82.4523C13.1975 82.9523 13.8642 83.5356 14.4475 84.2023C15.2808 84.3689 15.9892 84.7023 16.5725 85.2023C17.1558 85.6189 17.7808 86.0356 18.4475 86.4523C19.5308 86.4523 20.3642 86.7856 20.9475 87.4523C21.6142 87.2856 22.4892 87.4523 23.5725 87.9523C24.7392 88.4523 25.3642 88.8273 25.4475 89.0773C25.8642 88.9106 26.3225 88.8689 26.8225 88.9523C27.4058 89.0356 27.9475 89.0773 28.4475 89.0773C29.3642 88.9106 29.9892 88.8689 30.3225 88.9523C30.6558 89.0356 31.0308 88.9939 31.4475 88.8273C31.6142 88.7439 31.9475 88.7439 32.4475 88.8273C33.0308 88.8273 33.6142 88.8273 34.1975 88.8273C34.7808 88.8273 35.2808 88.7856 35.6975 88.7023C36.1142 88.5356 36.3225 88.3273 36.3225 88.0773C36.4892 88.2439 36.7808 88.2856 37.1975 88.2023C37.6975 88.1189 38.0308 88.0356 38.1975 87.9523C39.1975 87.5356 39.7808 87.3273 39.9475 87.3273C40.1142 87.3273 40.2808 87.3273 40.4475 87.3273C40.6142 87.3273 40.7808 87.2439 40.9475 87.0773C41.1975 86.9106 41.5308 86.5773 41.9475 86.0773C42.1142 85.1606 42.3642 84.5356 42.6975 84.2023C43.0308 83.8689 43.1558 83.4106 43.0725 82.8273C42.7392 81.9939 42.6142 81.5356 42.6975 81.4523C42.8642 81.2856 42.9058 81.1189 42.8225 80.9523C42.8225 79.7856 42.6975 78.5773 42.4475 77.3273C42.1975 76.0773 42.0308 74.8689 41.9475 73.7023C41.9475 73.3689 41.9475 73.0773 41.9475 72.8273C42.0308 72.4939 42.0308 72.1606 41.9475 71.8273C41.5308 70.8273 41.3225 70.1189 41.3225 69.7023C41.3225 69.2023 41.2392 68.7439 41.0725 68.3273C40.4058 67.3273 39.9892 66.4939 39.8225 65.8273C39.7392 65.0773 39.4475 64.6606 38.9475 64.5773C39.0308 63.7439 38.8642 63.1189 38.4475 62.7023C38.1142 62.2856 37.9475 61.7023 37.9475 60.9523C37.1975 60.5356 36.1558 60.1189 34.8225 59.7023C33.4892 59.2856 32.3642 58.9939 31.4475 58.8273C31.0308 58.7439 30.5725 58.7439 30.0725 58.8273C29.6558 58.9106 29.1975 58.9106 28.6975 58.8273C28.0308 58.6606 27.4892 58.4523 27.0725 58.2023C26.7392 57.8689 26.2808 57.6189 25.6975 57.4523C25.1142 57.2856 24.5308 57.2023 23.9475 57.2023C23.4475 57.2023 22.9475 57.1189 22.4475 56.9523C22.0308 56.7856 21.6975 56.6189 21.4475 56.4523C21.1975 56.2856 20.9058 56.1189 20.5725 55.9523C20.2392 55.8689 19.9058 55.8689 19.5725 55.9523C19.3225 56.0356 19.0308 56.0356 18.6975 55.9523C17.7808 55.6189 17.1558 55.4939 16.8225 55.5773C16.5725 55.6606 16.3225 55.6606 16.0725 55.5773C15.8225 55.4939 15.5725 55.3689 15.3225 55.2023C15.1558 55.0356 14.9475 54.9106 14.6975 54.8273C14.4475 54.7439 14.1558 54.7023 13.8225 54.7023C13.5725 54.6189 13.3225 54.4939 13.0725 54.3273C12.3225 54.0773 11.9475 53.9106 11.9475 53.8273C12.0308 53.6606 12.0308 53.5356 11.9475 53.4523C11.7808 53.2856 11.4892 53.2023 11.0725 53.2023C10.7392 53.1189 10.4892 53.0356 10.3225 52.9523C8.98918 51.7856 7.69751 50.6189 6.44751 49.4523C5.28084 48.2023 4.07251 46.9523 2.82251 45.7023C2.82251 45.6189 2.78084 45.4106 2.69751 45.0773C2.69751 44.6606 2.65584 44.2856 2.57251 43.9523C2.57251 43.5356 2.53084 43.1606 2.44751 42.8273C2.36418 42.4106 2.32251 42.1606 2.32251 42.0773C2.07251 41.2439 1.98918 40.7856 2.07251 40.7023C2.15584 40.5356 2.19751 40.3689 2.19751 40.2023C2.03084 39.2023 1.98918 38.6189 2.07251 38.4523C2.23918 38.2856 2.32251 38.0773 2.32251 37.8273C2.40584 37.4106 2.36418 37.0773 2.19751 36.8273C2.11418 36.5773 2.15584 36.2023 2.32251 35.7023C2.82251 34.8689 3.03084 34.2439 2.94751 33.8273C2.94751 33.3273 2.98918 32.8689 3.07251 32.4523C3.07251 32.3689 3.11418 32.1189 3.19751 31.7023C3.36418 31.2023 3.48918 30.6606 3.57251 30.0773C3.73918 29.4939 3.86418 28.9939 3.94751 28.5773C4.11418 28.0773 4.19751 27.8273 4.19751 27.8273C4.61418 27.0773 4.86418 26.6606 4.94751 26.5773C5.11418 26.4939 5.28084 26.3689 5.44751 26.2023C5.61418 25.9523 5.78084 25.7023 5.94751 25.4523C6.11418 25.1189 6.32251 24.8273 6.57251 24.5773C6.98918 24.0773 7.44751 23.6189 7.94751 23.2023C8.44751 22.7856 8.90584 22.3273 9.32251 21.8273C10.1558 21.4939 10.6975 21.2856 10.9475 21.2023C11.2808 21.0356 11.5308 20.7439 11.6975 20.3273C12.6142 19.9939 13.1142 19.8689 13.1975 19.9523C13.2808 19.9523 13.4058 19.9523 13.5725 19.9523C13.9892 19.4523 14.3642 19.2439 14.6975 19.3273C15.0308 19.3273 15.3642 19.2856 15.6975 19.2023C16.3642 19.0356 17.0725 18.7856 17.8225 18.4523C18.5725 18.1189 19.3225 18.0773 20.0725 18.3273C20.8225 17.9939 21.2392 17.8273 21.3225 17.8273C21.4892 17.7439 21.6142 17.6606 21.6975 17.5773C22.0308 17.5773 22.3225 17.6189 22.5725 17.7023C22.9058 17.7856 23.1558 17.8273 23.3225 17.8273C24.1558 17.4106 24.6558 17.2439 24.8225 17.3273C25.0725 17.3273 25.2808 17.2439 25.4475 17.0773C25.4475 15.7439 25.4892 14.4106 25.5725 13.0773C25.7392 11.6606 25.6975 10.2856 25.4475 8.95227C25.3642 7.7856 25.4058 7.07727 25.5725 6.82727C25.8225 6.49394 25.7808 6.0356 25.4475 5.45227C25.4475 4.70227 25.4892 3.95227 25.5725 3.20227C25.6558 2.45227 25.8225 1.82727 26.0725 1.32727C26.4058 0.827271 26.8642 0.493937 27.4475 0.327271C28.0308 0.160604 28.8225 0.327271 29.8225 0.827271ZM10.3225 27.8273C9.82251 28.2439 9.57251 28.6189 9.57251 28.9523C9.57251 29.2856 9.36418 29.4523 8.94751 29.4523C8.78084 30.1189 8.61418 30.6189 8.44751 30.9523C8.28084 31.2856 8.03084 31.7023 7.69751 32.2023C7.94751 33.1189 7.86418 34.0356 7.44751 34.9523C7.03084 35.7856 6.98918 36.6606 7.32251 37.5773C7.07251 37.7439 6.86418 38.2856 6.69751 39.2023C6.53084 40.0356 6.48918 40.5773 6.57251 40.8273C6.57251 41.1606 6.65584 41.4523 6.82251 41.7023C6.98918 41.8689 7.15584 42.0773 7.32251 42.3273C7.40584 43.3273 7.57251 43.9939 7.82251 44.3273C8.07251 44.5773 8.11418 44.9106 7.94751 45.3273C8.19751 45.4939 8.48918 45.7439 8.82251 46.0773C9.15584 46.4106 9.48918 46.7439 9.82251 47.0773C10.2392 47.4106 10.5725 47.7023 10.8225 47.9523C11.1558 48.2023 11.4475 48.3273 11.6975 48.3273C12.0308 47.9939 12.1142 47.6606 11.9475 47.3273C11.7808 46.9939 11.6142 46.6189 11.4475 46.2023C11.7808 45.2856 11.8225 44.1189 11.5725 42.7023C11.3225 41.2856 10.9892 40.1189 10.5725 39.2023C10.5725 37.5356 10.5725 36.2023 10.5725 35.2023C10.6558 34.2023 10.7808 33.2439 10.9475 32.3273C11.1975 31.4106 11.3642 30.4939 11.4475 29.5773C11.6142 28.6606 11.6142 27.7023 11.4475 26.7023C10.7808 26.8689 10.4475 27.0773 10.4475 27.3273C10.4475 27.4939 10.4058 27.6606 10.3225 27.8273ZM46.3225 74.2023C46.3225 75.6189 46.4475 77.0773 46.6975 78.5773C46.9475 80.0773 47.1558 81.5356 47.3225 82.9523C48.0725 82.2023 48.6142 81.6606 48.9475 81.3273C49.1142 80.0773 49.5725 79.0773 50.3225 78.3273C50.4058 77.1606 50.6142 75.9939 50.9475 74.8273C51.3642 73.5773 51.5308 72.3689 51.4475 71.2023C51.4475 70.5356 51.2808 69.8689 50.9475 69.2023C50.6975 68.5356 50.6558 67.8689 50.8225 67.2023C50.4058 66.6189 49.9475 66.1189 49.4475 65.7023C48.9475 65.2856 48.5308 64.7856 48.1975 64.2023C48.1142 64.2023 47.8225 64.0773 47.3225 63.8273C46.8225 63.5773 46.2808 63.3273 45.6975 63.0773C45.1975 62.7439 44.6975 62.4523 44.1975 62.2023C43.6975 61.8689 43.4058 61.6606 43.3225 61.5773C42.6558 62.4106 42.4892 63.1606 42.8225 63.8273C43.1558 64.4106 43.4892 65.0773 43.8225 65.8273C44.1558 66.7439 44.4892 67.3689 44.8225 67.7023C45.1558 68.0356 45.4475 68.5773 45.6975 69.3273C45.8642 69.7439 45.9058 70.1606 45.8225 70.5773C45.7392 70.9939 45.7808 71.4106 45.9475 71.8273C45.9475 71.9939 46.0308 72.2439 46.1975 72.5773C46.3642 72.8273 46.4058 73.0356 46.3225 73.2023V74.2023Z" fill="#00FFFF"/>
</svg>
