<svg width="56" height="107" viewBox="0 0 56 107" fill="none" xmlns="http://www.w3.org/2000/svg">
<path d="M29.9114 1.73766C29.7447 2.57099 29.703 3.40432 29.7864 4.23766C29.8697 4.98766 29.9114 5.77932 29.9114 6.61266C29.9114 6.86266 29.8697 7.11266 29.7864 7.36266C29.703 7.61266 29.6614 7.82099 29.6614 7.98766C29.7447 8.40432 29.828 8.77932 29.9114 9.11266C30.078 9.36266 30.1614 9.69599 30.1614 10.1127C30.1614 10.6127 30.203 11.1543 30.2864 11.7377C30.3697 12.2377 30.4114 12.696 30.4114 13.1127C30.328 13.7793 30.1197 14.5293 29.7864 15.3627C29.453 16.196 29.4947 16.946 29.9114 17.6127C30.1614 18.0293 30.828 18.2377 31.9114 18.2377C32.9947 18.2377 33.7447 18.1543 34.1614 17.9877C34.578 18.4877 35.1197 18.821 35.7864 18.9877C36.5364 19.1543 37.2447 19.2377 37.9114 19.2377C38.2447 19.6543 38.953 20.071 40.0364 20.4877C41.203 20.821 42.0364 21.1543 42.5364 21.4877C43.1197 22.321 43.4947 22.7377 43.6614 22.7377C43.828 22.7377 43.9947 22.821 44.1614 22.9877C44.4114 23.1543 44.6197 23.4043 44.7864 23.7377C45.0364 24.071 45.3697 24.2793 45.7864 24.3627C45.703 24.696 45.703 24.946 45.7864 25.1127C45.953 25.196 46.1197 25.4043 46.2864 25.7377C46.703 25.9043 46.953 26.196 47.0364 26.6127C47.203 26.946 47.4114 27.2793 47.6614 27.6127C47.9114 27.8627 48.203 28.071 48.5364 28.2377C48.8697 28.4043 49.1197 28.6543 49.2864 28.9877C49.453 27.2377 49.578 25.4877 49.6614 23.7377C49.7447 21.9877 49.703 20.2377 49.5364 18.4877C49.953 17.9877 50.3697 17.6127 50.7864 17.3627C51.2864 17.0293 51.8697 16.946 52.5364 17.1127C53.1197 17.5293 53.4114 17.8627 53.4114 18.1127C53.4114 18.2793 53.4947 18.321 53.6614 18.2377C53.6614 18.7377 53.6197 19.4043 53.5364 20.2377C53.453 21.071 53.3697 21.9043 53.2864 22.7377C53.203 23.571 53.1614 24.3627 53.1614 25.1127C53.2447 25.8627 53.4114 26.446 53.6614 26.8627C53.4947 28.0293 53.5364 28.8627 53.7864 29.3627C54.0364 29.7793 54.1614 30.2793 54.1614 30.8627C54.1614 31.5293 53.9947 32.1127 53.6614 32.6127C53.4114 33.1127 53.2447 33.696 53.1614 34.3627C53.1614 34.6127 53.203 34.8627 53.2864 35.1127C53.3697 35.3627 53.4114 35.6543 53.4114 35.9877C53.2447 37.2377 53.203 38.1543 53.2864 38.7377C53.453 39.2377 53.4114 39.696 53.1614 40.1127C52.4947 40.3627 51.828 40.571 51.1614 40.7377C50.578 40.821 49.953 40.7793 49.2864 40.6127C49.0364 40.3627 48.828 40.1127 48.6614 39.8627C48.4947 39.5293 48.2864 39.2377 48.0364 38.9877C47.7864 38.6543 47.828 38.4043 48.1614 38.2377C48.578 37.9877 48.703 37.6127 48.5364 37.1127C48.2864 35.6127 47.703 34.321 46.7864 33.2377C45.953 32.1543 45.078 31.0293 44.1614 29.8627L43.1614 28.4877C42.828 28.071 42.453 27.696 42.0364 27.3627C41.6197 26.946 41.328 26.4877 41.1614 25.9877C40.7447 25.9877 40.4114 25.821 40.1614 25.4877C39.9114 25.071 39.6197 24.7793 39.2864 24.6127C39.0364 24.5293 38.578 24.3627 37.9114 24.1127C37.2447 23.8627 36.4947 23.6543 35.6614 23.4877C34.9114 23.2377 34.1614 23.0293 33.4114 22.8627C32.7447 22.6127 32.2864 22.4877 32.0364 22.4877C31.5364 22.4043 31.0364 22.446 30.5364 22.6127C30.1197 22.696 29.703 22.7377 29.2864 22.7377C28.2864 22.4043 27.6614 22.2793 27.4114 22.3627C27.1614 22.446 26.9114 22.4877 26.6614 22.4877C25.9947 22.4877 25.4114 22.446 24.9114 22.3627C24.4114 22.2793 23.828 22.4877 23.1614 22.9877C21.9947 22.821 20.953 22.9043 20.0364 23.2377C19.1197 23.4877 18.078 23.696 16.9114 23.8627C16.828 24.1127 16.828 24.3627 16.9114 24.6127C17.078 24.8627 17.078 25.071 16.9114 25.2377C16.6614 25.7377 16.453 26.2377 16.2864 26.7377C16.203 27.2377 16.078 27.7377 15.9114 28.2377C16.078 28.4043 16.0364 28.696 15.7864 29.1127C15.6197 29.446 15.5364 29.696 15.5364 29.8627C15.453 30.196 15.453 30.5293 15.5364 30.8627C15.703 31.1127 15.7864 31.4043 15.7864 31.7377C15.703 31.9877 15.578 32.2377 15.4114 32.4877C15.328 32.7377 15.2864 32.946 15.2864 33.1127C15.1197 34.0293 15.1197 34.9043 15.2864 35.7377C15.453 36.571 15.5364 37.4043 15.5364 38.2377C15.5364 38.4877 15.4947 38.7377 15.4114 38.9877C15.328 39.2377 15.2864 39.4877 15.2864 39.7377C15.2864 40.071 15.328 40.4043 15.4114 40.7377C15.578 41.071 15.703 41.4043 15.7864 41.7377C15.8697 42.321 15.9114 42.9877 15.9114 43.7377C15.9114 44.4877 16.1614 45.071 16.6614 45.4877C16.4947 45.6543 16.4114 45.9043 16.4114 46.2377C16.4114 46.4877 16.328 46.696 16.1614 46.8627C16.328 47.5293 16.5364 48.1127 16.7864 48.6127C17.0364 49.0293 17.078 49.6127 16.9114 50.3627C17.4947 50.8627 17.703 51.196 17.5364 51.3627C17.3697 51.5293 17.328 51.6543 17.4114 51.7377C17.578 52.071 17.9114 52.3627 18.4114 52.6127C18.9947 52.8627 19.6197 53.071 20.2864 53.2377C21.0364 53.321 21.7447 53.446 22.4114 53.6127C23.078 53.696 23.578 53.7793 23.9114 53.8627C24.328 54.0293 24.6614 54.196 24.9114 54.3627C25.2447 54.5293 25.6197 54.696 26.0364 54.8627C26.453 54.946 26.828 54.9877 27.1614 54.9877C27.4947 54.9043 27.8697 54.946 28.2864 55.1127C29.203 55.2793 30.0364 55.5293 30.7864 55.8627C31.6197 56.1127 32.4947 56.321 33.4114 56.4877C33.6614 56.571 33.9114 56.571 34.1614 56.4877C34.4947 56.4043 34.7864 56.4043 35.0364 56.4877C36.2864 56.9043 37.203 57.071 37.7864 56.9877C38.453 56.9043 39.078 56.946 39.6614 57.1127C40.078 57.196 40.4114 57.321 40.6614 57.4877C40.9114 57.571 41.203 57.696 41.5364 57.8627C42.5364 58.196 43.7864 58.571 45.2864 58.9877C46.8697 59.4043 47.953 60.0293 48.5364 60.8627C49.203 60.946 49.7447 61.1543 50.1614 61.4877C50.578 61.821 51.1197 62.071 51.7864 62.2377C52.0364 62.821 52.328 63.2793 52.6614 63.6127C53.078 63.946 53.4947 64.3627 53.9114 64.8627C54.578 66.196 54.9947 67.2377 55.1614 67.9877C55.328 68.7377 55.453 69.5293 55.5364 70.3627C55.703 71.446 55.703 72.1127 55.5364 72.3627C55.453 72.5293 55.3697 72.7377 55.2864 72.9877C55.203 73.321 55.203 73.6543 55.2864 73.9877C55.3697 74.321 55.3697 74.696 55.2864 75.1127C55.2864 75.3627 55.203 75.8627 55.0364 76.6127C54.8697 77.2793 54.703 78.0293 54.5364 78.8627C54.3697 79.6127 54.1614 80.3627 53.9114 81.1127C53.6614 81.7793 53.4947 82.2377 53.4114 82.4877C52.9947 82.9043 52.828 83.2377 52.9114 83.4877C52.9947 83.7377 52.953 83.946 52.7864 84.1127C52.1197 84.946 51.6614 85.6127 51.4114 86.1127C51.1614 86.5293 50.828 86.821 50.4114 86.9877C50.4947 87.321 50.453 87.571 50.2864 87.7377C50.1197 87.821 50.078 88.0293 50.1614 88.3627C49.4114 89.1127 48.7864 89.571 48.2864 89.7377C47.8697 89.9043 47.578 90.071 47.4114 90.2377L46.2864 91.1127C45.0364 91.196 44.203 91.3627 43.7864 91.6127C43.3697 91.7793 42.953 91.946 42.5364 92.1127C41.3697 92.3627 40.1614 92.5293 38.9114 92.6127C37.7447 92.6127 36.703 92.9043 35.7864 93.4877C35.2864 93.1543 34.703 93.1127 34.0364 93.3627C33.3697 93.6127 32.703 93.6543 32.0364 93.4877C31.7864 94.1543 31.828 94.9043 32.1614 95.7377C32.4947 96.571 32.6197 97.196 32.5364 97.6127C32.953 98.6127 33.1197 99.2793 33.0364 99.6127C32.953 99.946 32.9947 100.321 33.1614 100.738C33.4114 101.154 33.4114 102.029 33.1614 103.363C32.9947 104.613 32.7864 105.446 32.5364 105.863C32.0364 106.446 31.328 106.738 30.4114 106.738C29.4947 106.738 28.7864 106.446 28.2864 105.863C28.2864 105.279 28.2447 104.696 28.1614 104.113C28.078 103.446 28.203 102.863 28.5364 102.363C28.2864 102.029 28.1197 101.779 28.0364 101.613C28.0364 101.363 28.0364 101.154 28.0364 100.988C28.1197 100.821 28.1614 100.654 28.1614 100.488C28.2447 100.321 28.2864 100.071 28.2864 99.7377C28.2864 99.321 28.203 98.9877 28.0364 98.7377C27.953 98.4043 27.8697 98.0293 27.7864 97.6127C27.703 96.946 27.6614 96.321 27.6614 95.7377C27.6614 95.071 27.578 94.4043 27.4114 93.7377C27.1614 93.821 26.7864 93.821 26.2864 93.7377C25.8697 93.6543 25.6197 93.7377 25.5364 93.9877C24.7864 93.6543 24.1614 93.321 23.6614 92.9877C23.1614 92.6543 22.453 92.4877 21.5364 92.4877C21.1197 91.9877 20.3697 91.571 19.2864 91.2377C18.203 90.821 17.328 90.4877 16.6614 90.2377C16.2447 90.071 15.828 89.8627 15.4114 89.6127C15.078 89.3627 14.703 89.1543 14.2864 88.9877C13.8697 88.821 13.453 88.696 13.0364 88.6127C12.6197 88.5293 12.203 88.3627 11.7864 88.1127C11.453 87.946 11.1614 87.696 10.9114 87.3627C10.6614 87.0293 10.328 86.9043 9.91138 86.9877C9.74471 86.571 9.49471 86.321 9.16138 86.2377C8.91138 86.071 8.61971 85.9043 8.28638 85.7377C7.86971 86.321 7.66138 87.1543 7.66138 88.2377C7.74471 89.321 7.86971 90.196 8.03638 90.8627C8.11971 91.2793 8.32804 91.6127 8.66138 91.8627C8.99471 92.0293 9.16138 92.321 9.16138 92.7377C8.82804 93.6543 8.45304 94.196 8.03638 94.3627C7.70304 94.446 7.49471 94.7793 7.41138 95.3627C6.99471 95.196 6.53638 95.1127 6.03638 95.1127C5.61971 95.0293 5.20304 94.946 4.78638 94.8627C4.61971 94.2793 4.36971 93.7377 4.03638 93.2377C3.70304 92.7377 3.49471 92.196 3.41138 91.6127C3.24471 90.7793 3.24471 89.9877 3.41138 89.2377C3.66138 88.4877 3.74471 87.7377 3.66138 86.9877C3.57804 86.7377 3.49471 86.5293 3.41138 86.3627C3.41138 86.1127 3.24471 85.9043 2.91138 85.7377C3.24471 84.821 3.20304 84.196 2.78638 83.8627C2.45304 83.5293 2.20304 83.071 2.03638 82.4877C1.86971 82.2377 1.78638 81.946 1.78638 81.6127C1.86971 81.2793 1.86971 80.946 1.78638 80.6127C1.78638 80.5293 1.70304 80.321 1.53638 79.9877C1.45304 79.6543 1.36971 79.321 1.28638 78.9877C1.20304 78.6543 1.11971 78.3627 1.03638 78.1127C1.03638 77.7793 1.11971 77.6127 1.28638 77.6127C1.20304 77.446 1.07804 77.2377 0.911377 76.9877C0.828044 76.6543 0.786377 76.4043 0.786377 76.2377C0.786377 75.9877 0.828044 75.5293 0.911377 74.8627C1.07804 74.1127 1.24471 73.321 1.41138 72.4877C1.57804 71.6543 1.78638 70.9043 2.03638 70.2377C2.28638 69.571 2.49471 69.1543 2.66138 68.9877C2.91138 68.821 3.07804 68.7793 3.16138 68.8627C3.24471 68.946 3.49471 68.7793 3.91138 68.3627C4.32804 68.196 4.70304 68.2377 5.03638 68.4877C5.36971 68.7377 5.74471 68.7793 6.16138 68.6127C6.49471 69.0293 6.70304 69.7377 6.78638 70.7377C6.86971 71.6543 6.99471 72.4043 7.16138 72.9877C6.99471 73.4043 7.07804 73.6127 7.41138 73.6127C7.74471 73.6127 7.95304 73.7793 8.03638 74.1127C8.11971 74.446 8.20304 74.8627 8.28638 75.3627C8.36971 75.7793 8.61971 76.071 9.03638 76.2377C8.95304 76.6543 8.95304 77.1127 9.03638 77.6127C9.11971 78.1127 9.32804 78.446 9.66138 78.6127C9.57804 79.2793 9.70304 79.821 10.0364 80.2377C10.3697 80.6543 10.6197 81.0293 10.7864 81.3627C11.203 82.196 11.7864 82.8627 12.5364 83.3627C13.2864 83.8627 13.953 84.446 14.5364 85.1127C15.3697 85.2793 16.078 85.6127 16.6614 86.1127C17.2447 86.5293 17.8697 86.946 18.5364 87.3627C19.6197 87.3627 20.453 87.696 21.0364 88.3627C21.703 88.196 22.578 88.3627 23.6614 88.8627C24.828 89.3627 25.453 89.7377 25.5364 89.9877C25.953 89.821 26.4114 89.7793 26.9114 89.8627C27.4947 89.946 28.0364 89.9877 28.5364 89.9877C29.453 89.821 30.078 89.7793 30.4114 89.8627C30.7447 89.946 31.1197 89.9043 31.5364 89.7377C31.703 89.6543 32.0364 89.6543 32.5364 89.7377C33.1197 89.7377 33.703 89.7377 34.2864 89.7377C34.8697 89.7377 35.3697 89.696 35.7864 89.6127C36.203 89.446 36.4114 89.2377 36.4114 88.9877C36.578 89.1543 36.8697 89.196 37.2864 89.1127C37.7864 89.0293 38.1197 88.946 38.2864 88.8627C39.2864 88.446 39.8697 88.2377 40.0364 88.2377C40.203 88.2377 40.3697 88.2377 40.5364 88.2377C40.703 88.2377 40.8697 88.1543 41.0364 87.9877C41.2864 87.821 41.6197 87.4877 42.0364 86.9877C42.203 86.071 42.453 85.446 42.7864 85.1127C43.1197 84.7793 43.2447 84.321 43.1614 83.7377C42.828 82.9043 42.703 82.446 42.7864 82.3627C42.953 82.196 42.9947 82.0293 42.9114 81.8627C42.9114 80.696 42.7864 79.4877 42.5364 78.2377C42.2864 76.9877 42.1197 75.7793 42.0364 74.6127C42.0364 74.2793 42.0364 73.9877 42.0364 73.7377C42.1197 73.4043 42.1197 73.071 42.0364 72.7377C41.6197 71.7377 41.4114 71.0293 41.4114 70.6127C41.4114 70.1127 41.328 69.6543 41.1614 69.2377C40.4947 68.2377 40.078 67.4043 39.9114 66.7377C39.828 65.9877 39.5364 65.571 39.0364 65.4877C39.1197 64.6543 38.953 64.0293 38.5364 63.6127C38.203 63.196 38.0364 62.6127 38.0364 61.8627C37.2864 61.446 36.2447 61.0293 34.9114 60.6127C33.578 60.196 32.453 59.9043 31.5364 59.7377C31.1197 59.6543 30.6614 59.6543 30.1614 59.7377C29.7447 59.821 29.2864 59.821 28.7864 59.7377C28.1197 59.571 27.578 59.3627 27.1614 59.1127C26.828 58.7793 26.3697 58.5293 25.7864 58.3627C25.203 58.196 24.6197 58.1127 24.0364 58.1127C23.5364 58.1127 23.0364 58.0293 22.5364 57.8627C22.1197 57.696 21.7864 57.5293 21.5364 57.3627C21.2864 57.196 20.9947 57.0293 20.6614 56.8627C20.328 56.7793 19.9947 56.7793 19.6614 56.8627C19.4114 56.946 19.1197 56.946 18.7864 56.8627C17.8697 56.5293 17.2447 56.4043 16.9114 56.4877C16.6614 56.571 16.4114 56.571 16.1614 56.4877C15.9114 56.4043 15.6614 56.2793 15.4114 56.1127C15.2447 55.946 15.0364 55.821 14.7864 55.7377C14.5364 55.6543 14.2447 55.6127 13.9114 55.6127C13.6614 55.5293 13.4114 55.4043 13.1614 55.2377C12.4114 54.9877 12.0364 54.821 12.0364 54.7377C12.1197 54.571 12.1197 54.446 12.0364 54.3627C11.8697 54.196 11.578 54.1127 11.1614 54.1127C10.828 54.0293 10.578 53.946 10.4114 53.8627C9.07804 52.696 7.78638 51.5293 6.53638 50.3627C5.36971 49.1127 4.16138 47.8627 2.91138 46.6127C2.91138 46.5293 2.86971 46.321 2.78638 45.9877C2.78638 45.571 2.74471 45.196 2.66138 44.8627C2.66138 44.446 2.61971 44.071 2.53638 43.7377C2.45304 43.321 2.41138 43.071 2.41138 42.9877C2.16138 42.1543 2.07804 41.696 2.16138 41.6127C2.24471 41.446 2.28638 41.2793 2.28638 41.1127C2.11971 40.1127 2.07804 39.5293 2.16138 39.3627C2.32804 39.196 2.41138 38.9877 2.41138 38.7377C2.49471 38.321 2.45304 37.9877 2.28638 37.7377C2.20304 37.4877 2.24471 37.1127 2.41138 36.6127C2.91138 35.7793 3.11971 35.1543 3.03638 34.7377C3.03638 34.2377 3.07804 33.7793 3.16138 33.3627C3.16138 33.2793 3.20304 33.0293 3.28638 32.6127C3.45304 32.1127 3.57804 31.571 3.66138 30.9877C3.82804 30.4043 3.95304 29.9043 4.03638 29.4877C4.20304 28.9877 4.28638 28.7377 4.28638 28.7377C4.70304 27.9877 4.95304 27.571 5.03638 27.4877C5.20304 27.4043 5.36971 27.2793 5.53638 27.1127C5.70304 26.8627 5.86971 26.6127 6.03638 26.3627C6.20304 26.0293 6.41138 25.7377 6.66138 25.4877C7.07804 24.9877 7.53638 24.5293 8.03638 24.1127C8.53638 23.696 8.99471 23.2377 9.41138 22.7377C10.2447 22.4043 10.7864 22.196 11.0364 22.1127C11.3697 21.946 11.6197 21.6543 11.7864 21.2377C12.703 20.9043 13.203 20.7793 13.2864 20.8627C13.3697 20.8627 13.4947 20.8627 13.6614 20.8627C14.078 20.3627 14.453 20.1543 14.7864 20.2377C15.1197 20.2377 15.453 20.196 15.7864 20.1127C16.453 19.946 17.1614 19.696 17.9114 19.3627C18.6614 19.0293 19.4114 18.9877 20.1614 19.2377C20.9114 18.9043 21.328 18.7377 21.4114 18.7377C21.578 18.6543 21.703 18.571 21.7864 18.4877C22.1197 18.4877 22.4114 18.5293 22.6614 18.6127C22.9947 18.696 23.2447 18.7377 23.4114 18.7377C24.2447 18.321 24.7447 18.1543 24.9114 18.2377C25.1614 18.2377 25.3697 18.1543 25.5364 17.9877C25.5364 16.6543 25.578 15.321 25.6614 13.9877C25.828 12.571 25.7864 11.196 25.5364 9.86266C25.453 8.69599 25.4947 7.98766 25.6614 7.73766C25.9114 7.40432 25.8697 6.94599 25.5364 6.36266C25.5364 5.61266 25.578 4.86266 25.6614 4.11266C25.7447 3.36266 25.9114 2.73766 26.1614 2.23766C26.4947 1.73766 26.953 1.40432 27.5364 1.23766C28.1197 1.07099 28.9114 1.23766 29.9114 1.73766ZM10.4114 28.7377C9.91138 29.1543 9.66138 29.5293 9.66138 29.8627C9.66138 30.196 9.45304 30.3627 9.03638 30.3627C8.86971 31.0293 8.70304 31.5293 8.53638 31.8627C8.36971 32.196 8.11971 32.6127 7.78638 33.1127C8.03638 34.0293 7.95304 34.946 7.53638 35.8627C7.11971 36.696 7.07804 37.571 7.41138 38.4877C7.16138 38.6543 6.95304 39.196 6.78638 40.1127C6.61971 40.946 6.57804 41.4877 6.66138 41.7377C6.66138 42.071 6.74471 42.3627 6.91138 42.6127C7.07804 42.7793 7.24471 42.9877 7.41138 43.2377C7.49471 44.2377 7.66138 44.9043 7.91138 45.2377C8.16138 45.4877 8.20304 45.821 8.03638 46.2377C8.28638 46.4043 8.57804 46.6543 8.91138 46.9877C9.24471 47.321 9.57804 47.6543 9.91138 47.9877C10.328 48.321 10.6614 48.6127 10.9114 48.8627C11.2447 49.1127 11.5364 49.2377 11.7864 49.2377C12.1197 48.9043 12.203 48.571 12.0364 48.2377C11.8697 47.9043 11.703 47.5293 11.5364 47.1127C11.8697 46.196 11.9114 45.0293 11.6614 43.6127C11.4114 42.196 11.078 41.0293 10.6614 40.1127C10.6614 38.446 10.6614 37.1127 10.6614 36.1127C10.7447 35.1127 10.8697 34.1543 11.0364 33.2377C11.2864 32.321 11.453 31.4043 11.5364 30.4877C11.703 29.571 11.703 28.6127 11.5364 27.6127C10.8697 27.7793 10.5364 27.9877 10.5364 28.2377C10.5364 28.4043 10.4947 28.571 10.4114 28.7377ZM46.4114 75.1127C46.4114 76.5293 46.5364 77.9877 46.7864 79.4877C47.0364 80.9877 47.2447 82.446 47.4114 83.8627C48.1614 83.1127 48.703 82.571 49.0364 82.2377C49.203 80.9877 49.6614 79.9877 50.4114 79.2377C50.4947 78.071 50.703 76.9043 51.0364 75.7377C51.453 74.4877 51.6197 73.2793 51.5364 72.1127C51.5364 71.446 51.3697 70.7793 51.0364 70.1127C50.7864 69.446 50.7447 68.7793 50.9114 68.1127C50.4947 67.5293 50.0364 67.0293 49.5364 66.6127C49.0364 66.196 48.6197 65.696 48.2864 65.1127C48.203 65.1127 47.9114 64.9877 47.4114 64.7377C46.9114 64.4877 46.3697 64.2377 45.7864 63.9877C45.2864 63.6543 44.7864 63.3627 44.2864 63.1127C43.7864 62.7793 43.4947 62.571 43.4114 62.4877C42.7447 63.321 42.578 64.071 42.9114 64.7377C43.2447 65.321 43.578 65.9877 43.9114 66.7377C44.2447 67.6543 44.578 68.2793 44.9114 68.6127C45.2447 68.946 45.5364 69.4877 45.7864 70.2377C45.953 70.6543 45.9947 71.071 45.9114 71.4877C45.828 71.9043 45.8697 72.321 46.0364 72.7377C46.0364 72.9043 46.1197 73.1543 46.2864 73.4877C46.453 73.7377 46.4947 73.946 46.4114 74.1127V75.1127Z" fill="#FF0000"/>
<path d="M29.9114 1.73766C29.7447 2.57099 29.703 3.40432 29.7864 4.23766C29.8697 4.98766 29.9114 5.77932 29.9114 6.61266C29.9114 6.86266 29.8697 7.11266 29.7864 7.36266C29.703 7.61266 29.6614 7.82099 29.6614 7.98766C29.7447 8.40432 29.828 8.77932 29.9114 9.11266C30.078 9.36266 30.1614 9.69599 30.1614 10.1127C30.1614 10.6127 30.203 11.1543 30.2864 11.7377C30.3697 12.2377 30.4114 12.696 30.4114 13.1127C30.328 13.7793 30.1197 14.5293 29.7864 15.3627C29.453 16.196 29.4947 16.946 29.9114 17.6127C30.1614 18.0293 30.828 18.2377 31.9114 18.2377C32.9947 18.2377 33.7447 18.1543 34.1614 17.9877C34.578 18.4877 35.1197 18.821 35.7864 18.9877C36.5364 19.1543 37.2447 19.2377 37.9114 19.2377C38.2447 19.6543 38.953 20.071 40.0364 20.4877C41.203 20.821 42.0364 21.1543 42.5364 21.4877C43.1197 22.321 43.4947 22.7377 43.6614 22.7377C43.828 22.7377 43.9947 22.821 44.1614 22.9877C44.4114 23.1543 44.6197 23.4043 44.7864 23.7377C45.0364 24.071 45.3697 24.2793 45.7864 24.3627C45.703 24.696 45.703 24.946 45.7864 25.1127C45.953 25.196 46.1197 25.4043 46.2864 25.7377C46.703 25.9043 46.953 26.196 47.0364 26.6127C47.203 26.946 47.4114 27.2793 47.6614 27.6127C47.9114 27.8627 48.203 28.071 48.5364 28.2377C48.8697 28.4043 49.1197 28.6543 49.2864 28.9877C49.453 27.2377 49.578 25.4877 49.6614 23.7377C49.7447 21.9877 49.703 20.2377 49.5364 18.4877C49.953 17.9877 50.3697 17.6127 50.7864 17.3627C51.2864 17.0293 51.8697 16.946 52.5364 17.1127C53.1197 17.5293 53.4114 17.8627 53.4114 18.1127C53.4114 18.2793 53.4947 18.321 53.6614 18.2377C53.6614 18.7377 53.6197 19.4043 53.5364 20.2377C53.453 21.071 53.3697 21.9043 53.2864 22.7377C53.203 23.571 53.1614 24.3627 53.1614 25.1127C53.2447 25.8627 53.4114 26.446 53.6614 26.8627C53.4947 28.0293 53.5364 28.8627 53.7864 29.3627C54.0364 29.7793 54.1614 30.2793 54.1614 30.8627C54.1614 31.5293 53.9947 32.1127 53.6614 32.6127C53.4114 33.1127 53.2447 33.696 53.1614 34.3627C53.1614 34.6127 53.203 34.8627 53.2864 35.1127C53.3697 35.3627 53.4114 35.6543 53.4114 35.9877C53.2447 37.2377 53.203 38.1543 53.2864 38.7377C53.453 39.2377 53.4114 39.696 53.1614 40.1127C52.4947 40.3627 51.828 40.571 51.1614 40.7377C50.578 40.821 49.953 40.7793 49.2864 40.6127C49.0364 40.3627 48.828 40.1127 48.6614 39.8627C48.4947 39.5293 48.2864 39.2377 48.0364 38.9877C47.7864 38.6543 47.828 38.4043 48.1614 38.2377C48.578 37.9877 48.703 37.6127 48.5364 37.1127C48.2864 35.6127 47.703 34.321 46.7864 33.2377C45.953 32.1543 45.078 31.0293 44.1614 29.8627L43.1614 28.4877C42.828 28.071 42.453 27.696 42.0364 27.3627C41.6197 26.946 41.328 26.4877 41.1614 25.9877C40.7447 25.9877 40.4114 25.821 40.1614 25.4877C39.9114 25.071 39.6197 24.7793 39.2864 24.6127C39.0364 24.5293 38.578 24.3627 37.9114 24.1127C37.2447 23.8627 36.4947 23.6543 35.6614 23.4877C34.9114 23.2377 34.1614 23.0293 33.4114 22.8627C32.7447 22.6127 32.2864 22.4877 32.0364 22.4877C31.5364 22.4043 31.0364 22.446 30.5364 22.6127C30.1197 22.696 29.703 22.7377 29.2864 22.7377C28.2864 22.4043 27.6614 22.2793 27.4114 22.3627C27.1614 22.446 26.9114 22.4877 26.6614 22.4877C25.9947 22.4877 25.4114 22.446 24.9114 22.3627C24.4114 22.2793 23.828 22.4877 23.1614 22.9877C21.9947 22.821 20.953 22.9043 20.0364 23.2377C19.1197 23.4877 18.078 23.696 16.9114 23.8627C16.828 24.1127 16.828 24.3627 16.9114 24.6127C17.078 24.8627 17.078 25.071 16.9114 25.2377C16.6614 25.7377 16.453 26.2377 16.2864 26.7377C16.203 27.2377 16.078 27.7377 15.9114 28.2377C16.078 28.4043 16.0364 28.696 15.7864 29.1127C15.6197 29.446 15.5364 29.696 15.5364 29.8627C15.453 30.196 15.453 30.5293 15.5364 30.8627C15.703 31.1127 15.7864 31.4043 15.7864 31.7377C15.703 31.9877 15.578 32.2377 15.4114 32.4877C15.328 32.7377 15.2864 32.946 15.2864 33.1127C15.1197 34.0293 15.1197 34.9043 15.2864 35.7377C15.453 36.571 15.5364 37.4043 15.5364 38.2377C15.5364 38.4877 15.4947 38.7377 15.4114 38.9877C15.328 39.2377 15.2864 39.4877 15.2864 39.7377C15.2864 40.071 15.328 40.4043 15.4114 40.7377C15.578 41.071 15.703 41.4043 15.7864 41.7377C15.8697 42.321 15.9114 42.9877 15.9114 43.7377C15.9114 44.4877 16.1614 45.071 16.6614 45.4877C16.4947 45.6543 16.4114 45.9043 16.4114 46.2377C16.4114 46.4877 16.328 46.696 16.1614 46.8627C16.328 47.5293 16.5364 48.1127 16.7864 48.6127C17.0364 49.0293 17.078 49.6127 16.9114 50.3627C17.4947 50.8627 17.703 51.196 17.5364 51.3627C17.3697 51.5293 17.328 51.6543 17.4114 51.7377C17.578 52.071 17.9114 52.3627 18.4114 52.6127C18.9947 52.8627 19.6197 53.071 20.2864 53.2377C21.0364 53.321 21.7447 53.446 22.4114 53.6127C23.078 53.696 23.578 53.7793 23.9114 53.8627C24.328 54.0293 24.6614 54.196 24.9114 54.3627C25.2447 54.5293 25.6197 54.696 26.0364 54.8627C26.453 54.946 26.828 54.9877 27.1614 54.9877C27.4947 54.9043 27.8697 54.946 28.2864 55.1127C29.203 55.2793 30.0364 55.5293 30.7864 55.8627C31.6197 56.1127 32.4947 56.321 33.4114 56.4877C33.6614 56.571 33.9114 56.571 34.1614 56.4877C34.4947 56.4043 34.7864 56.4043 35.0364 56.4877C36.2864 56.9043 37.203 57.071 37.7864 56.9877C38.453 56.9043 39.078 56.946 39.6614 57.1127C40.078 57.196 40.4114 57.321 40.6614 57.4877C40.9114 57.571 41.203 57.696 41.5364 57.8627C42.5364 58.196 43.7864 58.571 45.2864 58.9877C46.8697 59.4043 47.953 60.0293 48.5364 60.8627C49.203 60.946 49.7447 61.1543 50.1614 61.4877C50.578 61.821 51.1197 62.071 51.7864 62.2377C52.0364 62.821 52.328 63.2793 52.6614 63.6127C53.078 63.946 53.4947 64.3627 53.9114 64.8627C54.578 66.196 54.9947 67.2377 55.1614 67.9877C55.328 68.7377 55.453 69.5293 55.5364 70.3627C55.703 71.446 55.703 72.1127 55.5364 72.3627C55.453 72.5293 55.3697 72.7377 55.2864 72.9877C55.203 73.321 55.203 73.6543 55.2864 73.9877C55.3697 74.321 55.3697 74.696 55.2864 75.1127C55.2864 75.3627 55.203 75.8627 55.0364 76.6127C54.8697 77.2793 54.703 78.0293 54.5364 78.8627C54.3697 79.6127 54.1614 80.3627 53.9114 81.1127C53.6614 81.7793 53.4947 82.2377 53.4114 82.4877C52.9947 82.9043 52.828 83.2377 52.9114 83.4877C52.9947 83.7377 52.953 83.946 52.7864 84.1127C52.1197 84.946 51.6614 85.6127 51.4114 86.1127C51.1614 86.5293 50.828 86.821 50.4114 86.9877C50.4947 87.321 50.453 87.571 50.2864 87.7377C50.1197 87.821 50.078 88.0293 50.1614 88.3627C49.4114 89.1127 48.7864 89.571 48.2864 89.7377C47.8697 89.9043 47.578 90.071 47.4114 90.2377L46.2864 91.1127C45.0364 91.196 44.203 91.3627 43.7864 91.6127C43.3697 91.7793 42.953 91.946 42.5364 92.1127C41.3697 92.3627 40.1614 92.5293 38.9114 92.6127C37.7447 92.6127 36.703 92.9043 35.7864 93.4877C35.2864 93.1543 34.703 93.1127 34.0364 93.3627C33.3697 93.6127 32.703 93.6543 32.0364 93.4877C31.7864 94.1543 31.828 94.9043 32.1614 95.7377C32.4947 96.571 32.6197 97.196 32.5364 97.6127C32.953 98.6127 33.1197 99.2793 33.0364 99.6127C32.953 99.946 32.9947 100.321 33.1614 100.738C33.4114 101.154 33.4114 102.029 33.1614 103.363C32.9947 104.613 32.7864 105.446 32.5364 105.863C32.0364 106.446 31.328 106.738 30.4114 106.738C29.4947 106.738 28.7864 106.446 28.2864 105.863C28.2864 105.279 28.2447 104.696 28.1614 104.113C28.078 103.446 28.203 102.863 28.5364 102.363C28.2864 102.029 28.1197 101.779 28.0364 101.613C28.0364 101.363 28.0364 101.154 28.0364 100.988C28.1197 100.821 28.1614 100.654 28.1614 100.488C28.2447 100.321 28.2864 100.071 28.2864 99.7377C28.2864 99.321 28.203 98.9877 28.0364 98.7377C27.953 98.4043 27.8697 98.0293 27.7864 97.6127C27.703 96.946 27.6614 96.321 27.6614 95.7377C27.6614 95.071 27.578 94.4043 27.4114 93.7377C27.1614 93.821 26.7864 93.821 26.2864 93.7377C25.8697 93.6543 25.6197 93.7377 25.5364 93.9877C24.7864 93.6543 24.1614 93.321 23.6614 92.9877C23.1614 92.6543 22.453 92.4877 21.5364 92.4877C21.1197 91.9877 20.3697 91.571 19.2864 91.2377C18.203 90.821 17.328 90.4877 16.6614 90.2377C16.2447 90.071 15.828 89.8627 15.4114 89.6127C15.078 89.3627 14.703 89.1543 14.2864 88.9877C13.8697 88.821 13.453 88.696 13.0364 88.6127C12.6197 88.5293 12.203 88.3627 11.7864 88.1127C11.453 87.946 11.1614 87.696 10.9114 87.3627C10.6614 87.0293 10.328 86.9043 9.91138 86.9877C9.74471 86.571 9.49471 86.321 9.16138 86.2377C8.91138 86.071 8.61971 85.9043 8.28638 85.7377C7.86971 86.321 7.66138 87.1543 7.66138 88.2377C7.74471 89.321 7.86971 90.196 8.03638 90.8627C8.11971 91.2793 8.32804 91.6127 8.66138 91.8627C8.99471 92.0293 9.16138 92.321 9.16138 92.7377C8.82804 93.6543 8.45304 94.196 8.03638 94.3627C7.70304 94.446 7.49471 94.7793 7.41138 95.3627C6.99471 95.196 6.53638 95.1127 6.03638 95.1127C5.61971 95.0293 5.20304 94.946 4.78638 94.8627C4.61971 94.2793 4.36971 93.7377 4.03638 93.2377C3.70304 92.7377 3.49471 92.196 3.41138 91.6127C3.24471 90.7793 3.24471 89.9877 3.41138 89.2377C3.66138 88.4877 3.74471 87.7377 3.66138 86.9877C3.57804 86.7377 3.49471 86.5293 3.41138 86.3627C3.41138 86.1127 3.24471 85.9043 2.91138 85.7377C3.24471 84.821 3.20304 84.196 2.78638 83.8627C2.45304 83.5293 2.20304 83.071 2.03638 82.4877C1.86971 82.2377 1.78638 81.946 1.78638 81.6127C1.86971 81.2793 1.86971 80.946 1.78638 80.6127C1.78638 80.5293 1.70304 80.321 1.53638 79.9877C1.45304 79.6543 1.36971 79.321 1.28638 78.9877C1.20304 78.6543 1.11971 78.3627 1.03638 78.1127C1.03638 77.7793 1.11971 77.6127 1.28638 77.6127C1.20304 77.446 1.07804 77.2377 0.911377 76.9877C0.828044 76.6543 0.786377 76.4043 0.786377 76.2377C0.786377 75.9877 0.828044 75.5293 0.911377 74.8627C1.07804 74.1127 1.24471 73.321 1.41138 72.4877C1.57804 71.6543 1.78638 70.9043 2.03638 70.2377C2.28638 69.571 2.49471 69.1543 2.66138 68.9877C2.91138 68.821 3.07804 68.7793 3.16138 68.8627C3.24471 68.946 3.49471 68.7793 3.91138 68.3627C4.32804 68.196 4.70304 68.2377 5.03638 68.4877C5.36971 68.7377 5.74471 68.7793 6.16138 68.6127C6.49471 69.0293 6.70304 69.7377 6.78638 70.7377C6.86971 71.6543 6.99471 72.4043 7.16138 72.9877C6.99471 73.4043 7.07804 73.6127 7.41138 73.6127C7.74471 73.6127 7.95304 73.7793 8.03638 74.1127C8.11971 74.446 8.20304 74.8627 8.28638 75.3627C8.36971 75.7793 8.61971 76.071 9.03638 76.2377C8.95304 76.6543 8.95304 77.1127 9.03638 77.6127C9.11971 78.1127 9.32804 78.446 9.66138 78.6127C9.57804 79.2793 9.70304 79.821 10.0364 80.2377C10.3697 80.6543 10.6197 81.0293 10.7864 81.3627C11.203 82.196 11.7864 82.8627 12.5364 83.3627C13.2864 83.8627 13.953 84.446 14.5364 85.1127C15.3697 85.2793 16.078 85.6127 16.6614 86.1127C17.2447 86.5293 17.8697 86.946 18.5364 87.3627C19.6197 87.3627 20.453 87.696 21.0364 88.3627C21.703 88.196 22.578 88.3627 23.6614 88.8627C24.828 89.3627 25.453 89.7377 25.5364 89.9877C25.953 89.821 26.4114 89.7793 26.9114 89.8627C27.4947 89.946 28.0364 89.9877 28.5364 89.9877C29.453 89.821 30.078 89.7793 30.4114 89.8627C30.7447 89.946 31.1197 89.9043 31.5364 89.7377C31.703 89.6543 32.0364 89.6543 32.5364 89.7377C33.1197 89.7377 33.703 89.7377 34.2864 89.7377C34.8697 89.7377 35.3697 89.696 35.7864 89.6127C36.203 89.446 36.4114 89.2377 36.4114 88.9877C36.578 89.1543 36.8697 89.196 37.2864 89.1127C37.7864 89.0293 38.1197 88.946 38.2864 88.8627C39.2864 88.446 39.8697 88.2377 40.0364 88.2377C40.203 88.2377 40.3697 88.2377 40.5364 88.2377C40.703 88.2377 40.8697 88.1543 41.0364 87.9877C41.2864 87.821 41.6197 87.4877 42.0364 86.9877C42.203 86.071 42.453 85.446 42.7864 85.1127C43.1197 84.7793 43.2447 84.321 43.1614 83.7377C42.828 82.9043 42.703 82.446 42.7864 82.3627C42.953 82.196 42.9947 82.0293 42.9114 81.8627C42.9114 80.696 42.7864 79.4877 42.5364 78.2377C42.2864 76.9877 42.1197 75.7793 42.0364 74.6127C42.0364 74.2793 42.0364 73.9877 42.0364 73.7377C42.1197 73.4043 42.1197 73.071 42.0364 72.7377C41.6197 71.7377 41.4114 71.0293 41.4114 70.6127C41.4114 70.1127 41.328 69.6543 41.1614 69.2377C40.4947 68.2377 40.078 67.4043 39.9114 66.7377C39.828 65.9877 39.5364 65.571 39.0364 65.4877C39.1197 64.6543 38.953 64.0293 38.5364 63.6127C38.203 63.196 38.0364 62.6127 38.0364 61.8627C37.2864 61.446 36.2447 61.0293 34.9114 60.6127C33.578 60.196 32.453 59.9043 31.5364 59.7377C31.1197 59.6543 30.6614 59.6543 30.1614 59.7377C29.7447 59.821 29.2864 59.821 28.7864 59.7377C28.1197 59.571 27.578 59.3627 27.1614 59.1127C26.828 58.7793 26.3697 58.5293 25.7864 58.3627C25.203 58.196 24.6197 58.1127 24.0364 58.1127C23.5364 58.1127 23.0364 58.0293 22.5364 57.8627C22.1197 57.696 21.7864 57.5293 21.5364 57.3627C21.2864 57.196 20.9947 57.0293 20.6614 56.8627C20.328 56.7793 19.9947 56.7793 19.6614 56.8627C19.4114 56.946 19.1197 56.946 18.7864 56.8627C17.8697 56.5293 17.2447 56.4043 16.9114 56.4877C16.6614 56.571 16.4114 56.571 16.1614 56.4877C15.9114 56.4043 15.6614 56.2793 15.4114 56.1127C15.2447 55.946 15.0364 55.821 14.7864 55.7377C14.5364 55.6543 14.2447 55.6127 13.9114 55.6127C13.6614 55.5293 13.4114 55.4043 13.1614 55.2377C12.4114 54.9877 12.0364 54.821 12.0364 54.7377C12.1197 54.571 12.1197 54.446 12.0364 54.3627C11.8697 54.196 11.578 54.1127 11.1614 54.1127C10.828 54.0293 10.578 53.946 10.4114 53.8627C9.07804 52.696 7.78638 51.5293 6.53638 50.3627C5.36971 49.1127 4.16138 47.8627 2.91138 46.6127C2.91138 46.5293 2.86971 46.321 2.78638 45.9877C2.78638 45.571 2.74471 45.196 2.66138 44.8627C2.66138 44.446 2.61971 44.071 2.53638 43.7377C2.45304 43.321 2.41138 43.071 2.41138 42.9877C2.16138 42.1543 2.07804 41.696 2.16138 41.6127C2.24471 41.446 2.28638 41.2793 2.28638 41.1127C2.11971 40.1127 2.07804 39.5293 2.16138 39.3627C2.32804 39.196 2.41138 38.9877 2.41138 38.7377C2.49471 38.321 2.45304 37.9877 2.28638 37.7377C2.20304 37.4877 2.24471 37.1127 2.41138 36.6127C2.91138 35.7793 3.11971 35.1543 3.03638 34.7377C3.03638 34.2377 3.07804 33.7793 3.16138 33.3627C3.16138 33.2793 3.20304 33.0293 3.28638 32.6127C3.45304 32.1127 3.57804 31.571 3.66138 30.9877C3.82804 30.4043 3.95304 29.9043 4.03638 29.4877C4.20304 28.9877 4.28638 28.7377 4.28638 28.7377C4.70304 27.9877 4.95304 27.571 5.03638 27.4877C5.20304 27.4043 5.36971 27.2793 5.53638 27.1127C5.70304 26.8627 5.86971 26.6127 6.03638 26.3627C6.20304 26.0293 6.41138 25.7377 6.66138 25.4877C7.07804 24.9877 7.53638 24.5293 8.03638 24.1127C8.53638 23.696 8.99471 23.2377 9.41138 22.7377C10.2447 22.4043 10.7864 22.196 11.0364 22.1127C11.3697 21.946 11.6197 21.6543 11.7864 21.2377C12.703 20.9043 13.203 20.7793 13.2864 20.8627C13.3697 20.8627 13.4947 20.8627 13.6614 20.8627C14.078 20.3627 14.453 20.1543 14.7864 20.2377C15.1197 20.2377 15.453 20.196 15.7864 20.1127C16.453 19.946 17.1614 19.696 17.9114 19.3627C18.6614 19.0293 19.4114 18.9877 20.1614 19.2377C20.9114 18.9043 21.328 18.7377 21.4114 18.7377C21.578 18.6543 21.703 18.571 21.7864 18.4877C22.1197 18.4877 22.4114 18.5293 22.6614 18.6127C22.9947 18.696 23.2447 18.7377 23.4114 18.7377C24.2447 18.321 24.7447 18.1543 24.9114 18.2377C25.1614 18.2377 25.3697 18.1543 25.5364 17.9877C25.5364 16.6543 25.578 15.321 25.6614 13.9877C25.828 12.571 25.7864 11.196 25.5364 9.86266C25.453 8.69599 25.4947 7.98766 25.6614 7.73766C25.9114 7.40432 25.8697 6.94599 25.5364 6.36266C25.5364 5.61266 25.578 4.86266 25.6614 4.11266C25.7447 3.36266 25.9114 2.73766 26.1614 2.23766C26.4947 1.73766 26.953 1.40432 27.5364 1.23766C28.1197 1.07099 28.9114 1.23766 29.9114 1.73766ZM10.4114 28.7377C9.91138 29.1543 9.66138 29.5293 9.66138 29.8627C9.66138 30.196 9.45304 30.3627 9.03638 30.3627C8.86971 31.0293 8.70304 31.5293 8.53638 31.8627C8.36971 32.196 8.11971 32.6127 7.78638 33.1127C8.03638 34.0293 7.95304 34.946 7.53638 35.8627C7.11971 36.696 7.07804 37.571 7.41138 38.4877C7.16138 38.6543 6.95304 39.196 6.78638 40.1127C6.61971 40.946 6.57804 41.4877 6.66138 41.7377C6.66138 42.071 6.74471 42.3627 6.91138 42.6127C7.07804 42.7793 7.24471 42.9877 7.41138 43.2377C7.49471 44.2377 7.66138 44.9043 7.91138 45.2377C8.16138 45.4877 8.20304 45.821 8.03638 46.2377C8.28638 46.4043 8.57804 46.6543 8.91138 46.9877C9.24471 47.321 9.57804 47.6543 9.91138 47.9877C10.328 48.321 10.6614 48.6127 10.9114 48.8627C11.2447 49.1127 11.5364 49.2377 11.7864 49.2377C12.1197 48.9043 12.203 48.571 12.0364 48.2377C11.8697 47.9043 11.703 47.5293 11.5364 47.1127C11.8697 46.196 11.9114 45.0293 11.6614 43.6127C11.4114 42.196 11.078 41.0293 10.6614 40.1127C10.6614 38.446 10.6614 37.1127 10.6614 36.1127C10.7447 35.1127 10.8697 34.1543 11.0364 33.2377C11.2864 32.321 11.453 31.4043 11.5364 30.4877C11.703 29.571 11.703 28.6127 11.5364 27.6127C10.8697 27.7793 10.5364 27.9877 10.5364 28.2377C10.5364 28.4043 10.4947 28.571 10.4114 28.7377ZM46.4114 75.1127C46.4114 76.5293 46.5364 77.9877 46.7864 79.4877C47.0364 80.9877 47.2447 82.446 47.4114 83.8627C48.1614 83.1127 48.703 82.571 49.0364 82.2377C49.203 80.9877 49.6614 79.9877 50.4114 79.2377C50.4947 78.071 50.703 76.9043 51.0364 75.7377C51.453 74.4877 51.6197 73.2793 51.5364 72.1127C51.5364 71.446 51.3697 70.7793 51.0364 70.1127C50.7864 69.446 50.7447 68.7793 50.9114 68.1127C50.4947 67.5293 50.0364 67.0293 49.5364 66.6127C49.0364 66.196 48.6197 65.696 48.2864 65.1127C48.203 65.1127 47.9114 64.9877 47.4114 64.7377C46.9114 64.4877 46.3697 64.2377 45.7864 63.9877C45.2864 63.6543 44.7864 63.3627 44.2864 63.1127C43.7864 62.7793 43.4947 62.571 43.4114 62.4877C42.7447 63.321 42.578 64.071 42.9114 64.7377C43.2447 65.321 43.578 65.9877 43.9114 66.7377C44.2447 67.6543 44.578 68.2793 44.9114 68.6127C45.2447 68.946 45.5364 69.4877 45.7864 70.2377C45.953 70.6543 45.9947 71.071 45.9114 71.4877C45.828 71.9043 45.8697 72.321 46.0364 72.7377C46.0364 72.9043 46.1197 73.1543 46.2864 73.4877C46.453 73.7377 46.4947 73.946 46.4114 74.1127V75.1127Z" fill="#FF0000"/>
<path d="M29.9114 1.73766C29.7447 2.57099 29.703 3.40432 29.7864 4.23766C29.8697 4.98766 29.9114 5.77932 29.9114 6.61266C29.9114 6.86266 29.8697 7.11266 29.7864 7.36266C29.703 7.61266 29.6614 7.82099 29.6614 7.98766C29.7447 8.40432 29.828 8.77932 29.9114 9.11266C30.078 9.36266 30.1614 9.69599 30.1614 10.1127C30.1614 10.6127 30.203 11.1543 30.2864 11.7377C30.3697 12.2377 30.4114 12.696 30.4114 13.1127C30.328 13.7793 30.1197 14.5293 29.7864 15.3627C29.453 16.196 29.4947 16.946 29.9114 17.6127C30.1614 18.0293 30.828 18.2377 31.9114 18.2377C32.9947 18.2377 33.7447 18.1543 34.1614 17.9877C34.578 18.4877 35.1197 18.821 35.7864 18.9877C36.5364 19.1543 37.2447 19.2377 37.9114 19.2377C38.2447 19.6543 38.953 20.071 40.0364 20.4877C41.203 20.821 42.0364 21.1543 42.5364 21.4877C43.1197 22.321 43.4947 22.7377 43.6614 22.7377C43.828 22.7377 43.9947 22.821 44.1614 22.9877C44.4114 23.1543 44.6197 23.4043 44.7864 23.7377C45.0364 24.071 45.3697 24.2793 45.7864 24.3627C45.703 24.696 45.703 24.946 45.7864 25.1127C45.953 25.196 46.1197 25.4043 46.2864 25.7377C46.703 25.9043 46.953 26.196 47.0364 26.6127C47.203 26.946 47.4114 27.2793 47.6614 27.6127C47.9114 27.8627 48.203 28.071 48.5364 28.2377C48.8697 28.4043 49.1197 28.6543 49.2864 28.9877C49.453 27.2377 49.578 25.4877 49.6614 23.7377C49.7447 21.9877 49.703 20.2377 49.5364 18.4877C49.953 17.9877 50.3697 17.6127 50.7864 17.3627C51.2864 17.0293 51.8697 16.946 52.5364 17.1127C53.1197 17.5293 53.4114 17.8627 53.4114 18.1127C53.4114 18.2793 53.4947 18.321 53.6614 18.2377C53.6614 18.7377 53.6197 19.4043 53.5364 20.2377C53.453 21.071 53.3697 21.9043 53.2864 22.7377C53.203 23.571 53.1614 24.3627 53.1614 25.1127C53.2447 25.8627 53.4114 26.446 53.6614 26.8627C53.4947 28.0293 53.5364 28.8627 53.7864 29.3627C54.0364 29.7793 54.1614 30.2793 54.1614 30.8627C54.1614 31.5293 53.9947 32.1127 53.6614 32.6127C53.4114 33.1127 53.2447 33.696 53.1614 34.3627C53.1614 34.6127 53.203 34.8627 53.2864 35.1127C53.3697 35.3627 53.4114 35.6543 53.4114 35.9877C53.2447 37.2377 53.203 38.1543 53.2864 38.7377C53.453 39.2377 53.4114 39.696 53.1614 40.1127C52.4947 40.3627 51.828 40.571 51.1614 40.7377C50.578 40.821 49.953 40.7793 49.2864 40.6127C49.0364 40.3627 48.828 40.1127 48.6614 39.8627C48.4947 39.5293 48.2864 39.2377 48.0364 38.9877C47.7864 38.6543 47.828 38.4043 48.1614 38.2377C48.578 37.9877 48.703 37.6127 48.5364 37.1127C48.2864 35.6127 47.703 34.321 46.7864 33.2377C45.953 32.1543 45.078 31.0293 44.1614 29.8627L43.1614 28.4877C42.828 28.071 42.453 27.696 42.0364 27.3627C41.6197 26.946 41.328 26.4877 41.1614 25.9877C40.7447 25.9877 40.4114 25.821 40.1614 25.4877C39.9114 25.071 39.6197 24.7793 39.2864 24.6127C39.0364 24.5293 38.578 24.3627 37.9114 24.1127C37.2447 23.8627 36.4947 23.6543 35.6614 23.4877C34.9114 23.2377 34.1614 23.0293 33.4114 22.8627C32.7447 22.6127 32.2864 22.4877 32.0364 22.4877C31.5364 22.4043 31.0364 22.446 30.5364 22.6127C30.1197 22.696 29.703 22.7377 29.2864 22.7377C28.2864 22.4043 27.6614 22.2793 27.4114 22.3627C27.1614 22.446 26.9114 22.4877 26.6614 22.4877C25.9947 22.4877 25.4114 22.446 24.9114 22.3627C24.4114 22.2793 23.828 22.4877 23.1614 22.9877C21.9947 22.821 20.953 22.9043 20.0364 23.2377C19.1197 23.4877 18.078 23.696 16.9114 23.8627C16.828 24.1127 16.828 24.3627 16.9114 24.6127C17.078 24.8627 17.078 25.071 16.9114 25.2377C16.6614 25.7377 16.453 26.2377 16.2864 26.7377C16.203 27.2377 16.078 27.7377 15.9114 28.2377C16.078 28.4043 16.0364 28.696 15.7864 29.1127C15.6197 29.446 15.5364 29.696 15.5364 29.8627C15.453 30.196 15.453 30.5293 15.5364 30.8627C15.703 31.1127 15.7864 31.4043 15.7864 31.7377C15.703 31.9877 15.578 32.2377 15.4114 32.4877C15.328 32.7377 15.2864 32.946 15.2864 33.1127C15.1197 34.0293 15.1197 34.9043 15.2864 35.7377C15.453 36.571 15.5364 37.4043 15.5364 38.2377C15.5364 38.4877 15.4947 38.7377 15.4114 38.9877C15.328 39.2377 15.2864 39.4877 15.2864 39.7377C15.2864 40.071 15.328 40.4043 15.4114 40.7377C15.578 41.071 15.703 41.4043 15.7864 41.7377C15.8697 42.321 15.9114 42.9877 15.9114 43.7377C15.9114 44.4877 16.1614 45.071 16.6614 45.4877C16.4947 45.6543 16.4114 45.9043 16.4114 46.2377C16.4114 46.4877 16.328 46.696 16.1614 46.8627C16.328 47.5293 16.5364 48.1127 16.7864 48.6127C17.0364 49.0293 17.078 49.6127 16.9114 50.3627C17.4947 50.8627 17.703 51.196 17.5364 51.3627C17.3697 51.5293 17.328 51.6543 17.4114 51.7377C17.578 52.071 17.9114 52.3627 18.4114 52.6127C18.9947 52.8627 19.6197 53.071 20.2864 53.2377C21.0364 53.321 21.7447 53.446 22.4114 53.6127C23.078 53.696 23.578 53.7793 23.9114 53.8627C24.328 54.0293 24.6614 54.196 24.9114 54.3627C25.2447 54.5293 25.6197 54.696 26.0364 54.8627C26.453 54.946 26.828 54.9877 27.1614 54.9877C27.4947 54.9043 27.8697 54.946 28.2864 55.1127C29.203 55.2793 30.0364 55.5293 30.7864 55.8627C31.6197 56.1127 32.4947 56.321 33.4114 56.4877C33.6614 56.571 33.9114 56.571 34.1614 56.4877C34.4947 56.4043 34.7864 56.4043 35.0364 56.4877C36.2864 56.9043 37.203 57.071 37.7864 56.9877C38.453 56.9043 39.078 56.946 39.6614 57.1127C40.078 57.196 40.4114 57.321 40.6614 57.4877C40.9114 57.571 41.203 57.696 41.5364 57.8627C42.5364 58.196 43.7864 58.571 45.2864 58.9877C46.8697 59.4043 47.953 60.0293 48.5364 60.8627C49.203 60.946 49.7447 61.1543 50.1614 61.4877C50.578 61.821 51.1197 62.071 51.7864 62.2377C52.0364 62.821 52.328 63.2793 52.6614 63.6127C53.078 63.946 53.4947 64.3627 53.9114 64.8627C54.578 66.196 54.9947 67.2377 55.1614 67.9877C55.328 68.7377 55.453 69.5293 55.5364 70.3627C55.703 71.446 55.703 72.1127 55.5364 72.3627C55.453 72.5293 55.3697 72.7377 55.2864 72.9877C55.203 73.321 55.203 73.6543 55.2864 73.9877C55.3697 74.321 55.3697 74.696 55.2864 75.1127C55.2864 75.3627 55.203 75.8627 55.0364 76.6127C54.8697 77.2793 54.703 78.0293 54.5364 78.8627C54.3697 79.6127 54.1614 80.3627 53.9114 81.1127C53.6614 81.7793 53.4947 82.2377 53.4114 82.4877C52.9947 82.9043 52.828 83.2377 52.9114 83.4877C52.9947 83.7377 52.953 83.946 52.7864 84.1127C52.1197 84.946 51.6614 85.6127 51.4114 86.1127C51.1614 86.5293 50.828 86.821 50.4114 86.9877C50.4947 87.321 50.453 87.571 50.2864 87.7377C50.1197 87.821 50.078 88.0293 50.1614 88.3627C49.4114 89.1127 48.7864 89.571 48.2864 89.7377C47.8697 89.9043 47.578 90.071 47.4114 90.2377L46.2864 91.1127C45.0364 91.196 44.203 91.3627 43.7864 91.6127C43.3697 91.7793 42.953 91.946 42.5364 92.1127C41.3697 92.3627 40.1614 92.5293 38.9114 92.6127C37.7447 92.6127 36.703 92.9043 35.7864 93.4877C35.2864 93.1543 34.703 93.1127 34.0364 93.3627C33.3697 93.6127 32.703 93.6543 32.0364 93.4877C31.7864 94.1543 31.828 94.9043 32.1614 95.7377C32.4947 96.571 32.6197 97.196 32.5364 97.6127C32.953 98.6127 33.1197 99.2793 33.0364 99.6127C32.953 99.946 32.9947 100.321 33.1614 100.738C33.4114 101.154 33.4114 102.029 33.1614 103.363C32.9947 104.613 32.7864 105.446 32.5364 105.863C32.0364 106.446 31.328 106.738 30.4114 106.738C29.4947 106.738 28.7864 106.446 28.2864 105.863C28.2864 105.279 28.2447 104.696 28.1614 104.113C28.078 103.446 28.203 102.863 28.5364 102.363C28.2864 102.029 28.1197 101.779 28.0364 101.613C28.0364 101.363 28.0364 101.154 28.0364 100.988C28.1197 100.821 28.1614 100.654 28.1614 100.488C28.2447 100.321 28.2864 100.071 28.2864 99.7377C28.2864 99.321 28.203 98.9877 28.0364 98.7377C27.953 98.4043 27.8697 98.0293 27.7864 97.6127C27.703 96.946 27.6614 96.321 27.6614 95.7377C27.6614 95.071 27.578 94.4043 27.4114 93.7377C27.1614 93.821 26.7864 93.821 26.2864 93.7377C25.8697 93.6543 25.6197 93.7377 25.5364 93.9877C24.7864 93.6543 24.1614 93.321 23.6614 92.9877C23.1614 92.6543 22.453 92.4877 21.5364 92.4877C21.1197 91.9877 20.3697 91.571 19.2864 91.2377C18.203 90.821 17.328 90.4877 16.6614 90.2377C16.2447 90.071 15.828 89.8627 15.4114 89.6127C15.078 89.3627 14.703 89.1543 14.2864 88.9877C13.8697 88.821 13.453 88.696 13.0364 88.6127C12.6197 88.5293 12.203 88.3627 11.7864 88.1127C11.453 87.946 11.1614 87.696 10.9114 87.3627C10.6614 87.0293 10.328 86.9043 9.91138 86.9877C9.74471 86.571 9.49471 86.321 9.16138 86.2377C8.91138 86.071 8.61971 85.9043 8.28638 85.7377C7.86971 86.321 7.66138 87.1543 7.66138 88.2377C7.74471 89.321 7.86971 90.196 8.03638 90.8627C8.11971 91.2793 8.32804 91.6127 8.66138 91.8627C8.99471 92.0293 9.16138 92.321 9.16138 92.7377C8.82804 93.6543 8.45304 94.196 8.03638 94.3627C7.70304 94.446 7.49471 94.7793 7.41138 95.3627C6.99471 95.196 6.53638 95.1127 6.03638 95.1127C5.61971 95.0293 5.20304 94.946 4.78638 94.8627C4.61971 94.2793 4.36971 93.7377 4.03638 93.2377C3.70304 92.7377 3.49471 92.196 3.41138 91.6127C3.24471 90.7793 3.24471 89.9877 3.41138 89.2377C3.66138 88.4877 3.74471 87.7377 3.66138 86.9877C3.57804 86.7377 3.49471 86.5293 3.41138 86.3627C3.41138 86.1127 3.24471 85.9043 2.91138 85.7377C3.24471 84.821 3.20304 84.196 2.78638 83.8627C2.45304 83.5293 2.20304 83.071 2.03638 82.4877C1.86971 82.2377 1.78638 81.946 1.78638 81.6127C1.86971 81.2793 1.86971 80.946 1.78638 80.6127C1.78638 80.5293 1.70304 80.321 1.53638 79.9877C1.45304 79.6543 1.36971 79.321 1.28638 78.9877C1.20304 78.6543 1.11971 78.3627 1.03638 78.1127C1.03638 77.7793 1.11971 77.6127 1.28638 77.6127C1.20304 77.446 1.07804 77.2377 0.911377 76.9877C0.828044 76.6543 0.786377 76.4043 0.786377 76.2377C0.786377 75.9877 0.828044 75.5293 0.911377 74.8627C1.07804 74.1127 1.24471 73.321 1.41138 72.4877C1.57804 71.6543 1.78638 70.9043 2.03638 70.2377C2.28638 69.571 2.49471 69.1543 2.66138 68.9877C2.91138 68.821 3.07804 68.7793 3.16138 68.8627C3.24471 68.946 3.49471 68.7793 3.91138 68.3627C4.32804 68.196 4.70304 68.2377 5.03638 68.4877C5.36971 68.7377 5.74471 68.7793 6.16138 68.6127C6.49471 69.0293 6.70304 69.7377 6.78638 70.7377C6.86971 71.6543 6.99471 72.4043 7.16138 72.9877C6.99471 73.4043 7.07804 73.6127 7.41138 73.6127C7.74471 73.6127 7.95304 73.7793 8.03638 74.1127C8.11971 74.446 8.20304 74.8627 8.28638 75.3627C8.36971 75.7793 8.61971 76.071 9.03638 76.2377C8.95304 76.6543 8.95304 77.1127 9.03638 77.6127C9.11971 78.1127 9.32804 78.446 9.66138 78.6127C9.57804 79.2793 9.70304 79.821 10.0364 80.2377C10.3697 80.6543 10.6197 81.0293 10.7864 81.3627C11.203 82.196 11.7864 82.8627 12.5364 83.3627C13.2864 83.8627 13.953 84.446 14.5364 85.1127C15.3697 85.2793 16.078 85.6127 16.6614 86.1127C17.2447 86.5293 17.8697 86.946 18.5364 87.3627C19.6197 87.3627 20.453 87.696 21.0364 88.3627C21.703 88.196 22.578 88.3627 23.6614 88.8627C24.828 89.3627 25.453 89.7377 25.5364 89.9877C25.953 89.821 26.4114 89.7793 26.9114 89.8627C27.4947 89.946 28.0364 89.9877 28.5364 89.9877C29.453 89.821 30.078 89.7793 30.4114 89.8627C30.7447 89.946 31.1197 89.9043 31.5364 89.7377C31.703 89.6543 32.0364 89.6543 32.5364 89.7377C33.1197 89.7377 33.703 89.7377 34.2864 89.7377C34.8697 89.7377 35.3697 89.696 35.7864 89.6127C36.203 89.446 36.4114 89.2377 36.4114 88.9877C36.578 89.1543 36.8697 89.196 37.2864 89.1127C37.7864 89.0293 38.1197 88.946 38.2864 88.8627C39.2864 88.446 39.8697 88.2377 40.0364 88.2377C40.203 88.2377 40.3697 88.2377 40.5364 88.2377C40.703 88.2377 40.8697 88.1543 41.0364 87.9877C41.2864 87.821 41.6197 87.4877 42.0364 86.9877C42.203 86.071 42.453 85.446 42.7864 85.1127C43.1197 84.7793 43.2447 84.321 43.1614 83.7377C42.828 82.9043 42.703 82.446 42.7864 82.3627C42.953 82.196 42.9947 82.0293 42.9114 81.8627C42.9114 80.696 42.7864 79.4877 42.5364 78.2377C42.2864 76.9877 42.1197 75.7793 42.0364 74.6127C42.0364 74.2793 42.0364 73.9877 42.0364 73.7377C42.1197 73.4043 42.1197 73.071 42.0364 72.7377C41.6197 71.7377 41.4114 71.0293 41.4114 70.6127C41.4114 70.1127 41.328 69.6543 41.1614 69.2377C40.4947 68.2377 40.078 67.4043 39.9114 66.7377C39.828 65.9877 39.5364 65.571 39.0364 65.4877C39.1197 64.6543 38.953 64.0293 38.5364 63.6127C38.203 63.196 38.0364 62.6127 38.0364 61.8627C37.2864 61.446 36.2447 61.0293 34.9114 60.6127C33.578 60.196 32.453 59.9043 31.5364 59.7377C31.1197 59.6543 30.6614 59.6543 30.1614 59.7377C29.7447 59.821 29.2864 59.821 28.7864 59.7377C28.1197 59.571 27.578 59.3627 27.1614 59.1127C26.828 58.7793 26.3697 58.5293 25.7864 58.3627C25.203 58.196 24.6197 58.1127 24.0364 58.1127C23.5364 58.1127 23.0364 58.0293 22.5364 57.8627C22.1197 57.696 21.7864 57.5293 21.5364 57.3627C21.2864 57.196 20.9947 57.0293 20.6614 56.8627C20.328 56.7793 19.9947 56.7793 19.6614 56.8627C19.4114 56.946 19.1197 56.946 18.7864 56.8627C17.8697 56.5293 17.2447 56.4043 16.9114 56.4877C16.6614 56.571 16.4114 56.571 16.1614 56.4877C15.9114 56.4043 15.6614 56.2793 15.4114 56.1127C15.2447 55.946 15.0364 55.821 14.7864 55.7377C14.5364 55.6543 14.2447 55.6127 13.9114 55.6127C13.6614 55.5293 13.4114 55.4043 13.1614 55.2377C12.4114 54.9877 12.0364 54.821 12.0364 54.7377C12.1197 54.571 12.1197 54.446 12.0364 54.3627C11.8697 54.196 11.578 54.1127 11.1614 54.1127C10.828 54.0293 10.578 53.946 10.4114 53.8627C9.07804 52.696 7.78638 51.5293 6.53638 50.3627C5.36971 49.1127 4.16138 47.8627 2.91138 46.6127C2.91138 46.5293 2.86971 46.321 2.78638 45.9877C2.78638 45.571 2.74471 45.196 2.66138 44.8627C2.66138 44.446 2.61971 44.071 2.53638 43.7377C2.45304 43.321 2.41138 43.071 2.41138 42.9877C2.16138 42.1543 2.07804 41.696 2.16138 41.6127C2.24471 41.446 2.28638 41.2793 2.28638 41.1127C2.11971 40.1127 2.07804 39.5293 2.16138 39.3627C2.32804 39.196 2.41138 38.9877 2.41138 38.7377C2.49471 38.321 2.45304 37.9877 2.28638 37.7377C2.20304 37.4877 2.24471 37.1127 2.41138 36.6127C2.91138 35.7793 3.11971 35.1543 3.03638 34.7377C3.03638 34.2377 3.07804 33.7793 3.16138 33.3627C3.16138 33.2793 3.20304 33.0293 3.28638 32.6127C3.45304 32.1127 3.57804 31.571 3.66138 30.9877C3.82804 30.4043 3.95304 29.9043 4.03638 29.4877C4.20304 28.9877 4.28638 28.7377 4.28638 28.7377C4.70304 27.9877 4.95304 27.571 5.03638 27.4877C5.20304 27.4043 5.36971 27.2793 5.53638 27.1127C5.70304 26.8627 5.86971 26.6127 6.03638 26.3627C6.20304 26.0293 6.41138 25.7377 6.66138 25.4877C7.07804 24.9877 7.53638 24.5293 8.03638 24.1127C8.53638 23.696 8.99471 23.2377 9.41138 22.7377C10.2447 22.4043 10.7864 22.196 11.0364 22.1127C11.3697 21.946 11.6197 21.6543 11.7864 21.2377C12.703 20.9043 13.203 20.7793 13.2864 20.8627C13.3697 20.8627 13.4947 20.8627 13.6614 20.8627C14.078 20.3627 14.453 20.1543 14.7864 20.2377C15.1197 20.2377 15.453 20.196 15.7864 20.1127C16.453 19.946 17.1614 19.696 17.9114 19.3627C18.6614 19.0293 19.4114 18.9877 20.1614 19.2377C20.9114 18.9043 21.328 18.7377 21.4114 18.7377C21.578 18.6543 21.703 18.571 21.7864 18.4877C22.1197 18.4877 22.4114 18.5293 22.6614 18.6127C22.9947 18.696 23.2447 18.7377 23.4114 18.7377C24.2447 18.321 24.7447 18.1543 24.9114 18.2377C25.1614 18.2377 25.3697 18.1543 25.5364 17.9877C25.5364 16.6543 25.578 15.321 25.6614 13.9877C25.828 12.571 25.7864 11.196 25.5364 9.86266C25.453 8.69599 25.4947 7.98766 25.6614 7.73766C25.9114 7.40432 25.8697 6.94599 25.5364 6.36266C25.5364 5.61266 25.578 4.86266 25.6614 4.11266C25.7447 3.36266 25.9114 2.73766 26.1614 2.23766C26.4947 1.73766 26.953 1.40432 27.5364 1.23766C28.1197 1.07099 28.9114 1.23766 29.9114 1.73766ZM10.4114 28.7377C9.91138 29.1543 9.66138 29.5293 9.66138 29.8627C9.66138 30.196 9.45304 30.3627 9.03638 30.3627C8.86971 31.0293 8.70304 31.5293 8.53638 31.8627C8.36971 32.196 8.11971 32.6127 7.78638 33.1127C8.03638 34.0293 7.95304 34.946 7.53638 35.8627C7.11971 36.696 7.07804 37.571 7.41138 38.4877C7.16138 38.6543 6.95304 39.196 6.78638 40.1127C6.61971 40.946 6.57804 41.4877 6.66138 41.7377C6.66138 42.071 6.74471 42.3627 6.91138 42.6127C7.07804 42.7793 7.24471 42.9877 7.41138 43.2377C7.49471 44.2377 7.66138 44.9043 7.91138 45.2377C8.16138 45.4877 8.20304 45.821 8.03638 46.2377C8.28638 46.4043 8.57804 46.6543 8.91138 46.9877C9.24471 47.321 9.57804 47.6543 9.91138 47.9877C10.328 48.321 10.6614 48.6127 10.9114 48.8627C11.2447 49.1127 11.5364 49.2377 11.7864 49.2377C12.1197 48.9043 12.203 48.571 12.0364 48.2377C11.8697 47.9043 11.703 47.5293 11.5364 47.1127C11.8697 46.196 11.9114 45.0293 11.6614 43.6127C11.4114 42.196 11.078 41.0293 10.6614 40.1127C10.6614 38.446 10.6614 37.1127 10.6614 36.1127C10.7447 35.1127 10.8697 34.1543 11.0364 33.2377C11.2864 32.321 11.453 31.4043 11.5364 30.4877C11.703 29.571 11.703 28.6127 11.5364 27.6127C10.8697 27.7793 10.5364 27.9877 10.5364 28.2377C10.5364 28.4043 10.4947 28.571 10.4114 28.7377ZM46.4114 75.1127C46.4114 76.5293 46.5364 77.9877 46.7864 79.4877C47.0364 80.9877 47.2447 82.446 47.4114 83.8627C48.1614 83.1127 48.703 82.571 49.0364 82.2377C49.203 80.9877 49.6614 79.9877 50.4114 79.2377C50.4947 78.071 50.703 76.9043 51.0364 75.7377C51.453 74.4877 51.6197 73.2793 51.5364 72.1127C51.5364 71.446 51.3697 70.7793 51.0364 70.1127C50.7864 69.446 50.7447 68.7793 50.9114 68.1127C50.4947 67.5293 50.0364 67.0293 49.5364 66.6127C49.0364 66.196 48.6197 65.696 48.2864 65.1127C48.203 65.1127 47.9114 64.9877 47.4114 64.7377C46.9114 64.4877 46.3697 64.2377 45.7864 63.9877C45.2864 63.6543 44.7864 63.3627 44.2864 63.1127C43.7864 62.7793 43.4947 62.571 43.4114 62.4877C42.7447 63.321 42.578 64.071 42.9114 64.7377C43.2447 65.321 43.578 65.9877 43.9114 66.7377C44.2447 67.6543 44.578 68.2793 44.9114 68.6127C45.2447 68.946 45.5364 69.4877 45.7864 70.2377C45.953 70.6543 45.9947 71.071 45.9114 71.4877C45.828 71.9043 45.8697 72.321 46.0364 72.7377C46.0364 72.9043 46.1197 73.1543 46.2864 73.4877C46.453 73.7377 46.4947 73.946 46.4114 74.1127V75.1127Z" fill="#FF0000"/>
<path d="M29.9114 1.73766C29.7447 2.57099 29.703 3.40432 29.7864 4.23766C29.8697 4.98766 29.9114 5.77932 29.9114 6.61266C29.9114 6.86266 29.8697 7.11266 29.7864 7.36266C29.703 7.61266 29.6614 7.82099 29.6614 7.98766C29.7447 8.40432 29.828 8.77932 29.9114 9.11266C30.078 9.36266 30.1614 9.69599 30.1614 10.1127C30.1614 10.6127 30.203 11.1543 30.2864 11.7377C30.3697 12.2377 30.4114 12.696 30.4114 13.1127C30.328 13.7793 30.1197 14.5293 29.7864 15.3627C29.453 16.196 29.4947 16.946 29.9114 17.6127C30.1614 18.0293 30.828 18.2377 31.9114 18.2377C32.9947 18.2377 33.7447 18.1543 34.1614 17.9877C34.578 18.4877 35.1197 18.821 35.7864 18.9877C36.5364 19.1543 37.2447 19.2377 37.9114 19.2377C38.2447 19.6543 38.953 20.071 40.0364 20.4877C41.203 20.821 42.0364 21.1543 42.5364 21.4877C43.1197 22.321 43.4947 22.7377 43.6614 22.7377C43.828 22.7377 43.9947 22.821 44.1614 22.9877C44.4114 23.1543 44.6197 23.4043 44.7864 23.7377C45.0364 24.071 45.3697 24.2793 45.7864 24.3627C45.703 24.696 45.703 24.946 45.7864 25.1127C45.953 25.196 46.1197 25.4043 46.2864 25.7377C46.703 25.9043 46.953 26.196 47.0364 26.6127C47.203 26.946 47.4114 27.2793 47.6614 27.6127C47.9114 27.8627 48.203 28.071 48.5364 28.2377C48.8697 28.4043 49.1197 28.6543 49.2864 28.9877C49.453 27.2377 49.578 25.4877 49.6614 23.7377C49.7447 21.9877 49.703 20.2377 49.5364 18.4877C49.953 17.9877 50.3697 17.6127 50.7864 17.3627C51.2864 17.0293 51.8697 16.946 52.5364 17.1127C53.1197 17.5293 53.4114 17.8627 53.4114 18.1127C53.4114 18.2793 53.4947 18.321 53.6614 18.2377C53.6614 18.7377 53.6197 19.4043 53.5364 20.2377C53.453 21.071 53.3697 21.9043 53.2864 22.7377C53.203 23.571 53.1614 24.3627 53.1614 25.1127C53.2447 25.8627 53.4114 26.446 53.6614 26.8627C53.4947 28.0293 53.5364 28.8627 53.7864 29.3627C54.0364 29.7793 54.1614 30.2793 54.1614 30.8627C54.1614 31.5293 53.9947 32.1127 53.6614 32.6127C53.4114 33.1127 53.2447 33.696 53.1614 34.3627C53.1614 34.6127 53.203 34.8627 53.2864 35.1127C53.3697 35.3627 53.4114 35.6543 53.4114 35.9877C53.2447 37.2377 53.203 38.1543 53.2864 38.7377C53.453 39.2377 53.4114 39.696 53.1614 40.1127C52.4947 40.3627 51.828 40.571 51.1614 40.7377C50.578 40.821 49.953 40.7793 49.2864 40.6127C49.0364 40.3627 48.828 40.1127 48.6614 39.8627C48.4947 39.5293 48.2864 39.2377 48.0364 38.9877C47.7864 38.6543 47.828 38.4043 48.1614 38.2377C48.578 37.9877 48.703 37.6127 48.5364 37.1127C48.2864 35.6127 47.703 34.321 46.7864 33.2377C45.953 32.1543 45.078 31.0293 44.1614 29.8627L43.1614 28.4877C42.828 28.071 42.453 27.696 42.0364 27.3627C41.6197 26.946 41.328 26.4877 41.1614 25.9877C40.7447 25.9877 40.4114 25.821 40.1614 25.4877C39.9114 25.071 39.6197 24.7793 39.2864 24.6127C39.0364 24.5293 38.578 24.3627 37.9114 24.1127C37.2447 23.8627 36.4947 23.6543 35.6614 23.4877C34.9114 23.2377 34.1614 23.0293 33.4114 22.8627C32.7447 22.6127 32.2864 22.4877 32.0364 22.4877C31.5364 22.4043 31.0364 22.446 30.5364 22.6127C30.1197 22.696 29.703 22.7377 29.2864 22.7377C28.2864 22.4043 27.6614 22.2793 27.4114 22.3627C27.1614 22.446 26.9114 22.4877 26.6614 22.4877C25.9947 22.4877 25.4114 22.446 24.9114 22.3627C24.4114 22.2793 23.828 22.4877 23.1614 22.9877C21.9947 22.821 20.953 22.9043 20.0364 23.2377C19.1197 23.4877 18.078 23.696 16.9114 23.8627C16.828 24.1127 16.828 24.3627 16.9114 24.6127C17.078 24.8627 17.078 25.071 16.9114 25.2377C16.6614 25.7377 16.453 26.2377 16.2864 26.7377C16.203 27.2377 16.078 27.7377 15.9114 28.2377C16.078 28.4043 16.0364 28.696 15.7864 29.1127C15.6197 29.446 15.5364 29.696 15.5364 29.8627C15.453 30.196 15.453 30.5293 15.5364 30.8627C15.703 31.1127 15.7864 31.4043 15.7864 31.7377C15.703 31.9877 15.578 32.2377 15.4114 32.4877C15.328 32.7377 15.2864 32.946 15.2864 33.1127C15.1197 34.0293 15.1197 34.9043 15.2864 35.7377C15.453 36.571 15.5364 37.4043 15.5364 38.2377C15.5364 38.4877 15.4947 38.7377 15.4114 38.9877C15.328 39.2377 15.2864 39.4877 15.2864 39.7377C15.2864 40.071 15.328 40.4043 15.4114 40.7377C15.578 41.071 15.703 41.4043 15.7864 41.7377C15.8697 42.321 15.9114 42.9877 15.9114 43.7377C15.9114 44.4877 16.1614 45.071 16.6614 45.4877C16.4947 45.6543 16.4114 45.9043 16.4114 46.2377C16.4114 46.4877 16.328 46.696 16.1614 46.8627C16.328 47.5293 16.5364 48.1127 16.7864 48.6127C17.0364 49.0293 17.078 49.6127 16.9114 50.3627C17.4947 50.8627 17.703 51.196 17.5364 51.3627C17.3697 51.5293 17.328 51.6543 17.4114 51.7377C17.578 52.071 17.9114 52.3627 18.4114 52.6127C18.9947 52.8627 19.6197 53.071 20.2864 53.2377C21.0364 53.321 21.7447 53.446 22.4114 53.6127C23.078 53.696 23.578 53.7793 23.9114 53.8627C24.328 54.0293 24.6614 54.196 24.9114 54.3627C25.2447 54.5293 25.6197 54.696 26.0364 54.8627C26.453 54.946 26.828 54.9877 27.1614 54.9877C27.4947 54.9043 27.8697 54.946 28.2864 55.1127C29.203 55.2793 30.0364 55.5293 30.7864 55.8627C31.6197 56.1127 32.4947 56.321 33.4114 56.4877C33.6614 56.571 33.9114 56.571 34.1614 56.4877C34.4947 56.4043 34.7864 56.4043 35.0364 56.4877C36.2864 56.9043 37.203 57.071 37.7864 56.9877C38.453 56.9043 39.078 56.946 39.6614 57.1127C40.078 57.196 40.4114 57.321 40.6614 57.4877C40.9114 57.571 41.203 57.696 41.5364 57.8627C42.5364 58.196 43.7864 58.571 45.2864 58.9877C46.8697 59.4043 47.953 60.0293 48.5364 60.8627C49.203 60.946 49.7447 61.1543 50.1614 61.4877C50.578 61.821 51.1197 62.071 51.7864 62.2377C52.0364 62.821 52.328 63.2793 52.6614 63.6127C53.078 63.946 53.4947 64.3627 53.9114 64.8627C54.578 66.196 54.9947 67.2377 55.1614 67.9877C55.328 68.7377 55.453 69.5293 55.5364 70.3627C55.703 71.446 55.703 72.1127 55.5364 72.3627C55.453 72.5293 55.3697 72.7377 55.2864 72.9877C55.203 73.321 55.203 73.6543 55.2864 73.9877C55.3697 74.321 55.3697 74.696 55.2864 75.1127C55.2864 75.3627 55.203 75.8627 55.0364 76.6127C54.8697 77.2793 54.703 78.0293 54.5364 78.8627C54.3697 79.6127 54.1614 80.3627 53.9114 81.1127C53.6614 81.7793 53.4947 82.2377 53.4114 82.4877C52.9947 82.9043 52.828 83.2377 52.9114 83.4877C52.9947 83.7377 52.953 83.946 52.7864 84.1127C52.1197 84.946 51.6614 85.6127 51.4114 86.1127C51.1614 86.5293 50.828 86.821 50.4114 86.9877C50.4947 87.321 50.453 87.571 50.2864 87.7377C50.1197 87.821 50.078 88.0293 50.1614 88.3627C49.4114 89.1127 48.7864 89.571 48.2864 89.7377C47.8697 89.9043 47.578 90.071 47.4114 90.2377L46.2864 91.1127C45.0364 91.196 44.203 91.3627 43.7864 91.6127C43.3697 91.7793 42.953 91.946 42.5364 92.1127C41.3697 92.3627 40.1614 92.5293 38.9114 92.6127C37.7447 92.6127 36.703 92.9043 35.7864 93.4877C35.2864 93.1543 34.703 93.1127 34.0364 93.3627C33.3697 93.6127 32.703 93.6543 32.0364 93.4877C31.7864 94.1543 31.828 94.9043 32.1614 95.7377C32.4947 96.571 32.6197 97.196 32.5364 97.6127C32.953 98.6127 33.1197 99.2793 33.0364 99.6127C32.953 99.946 32.9947 100.321 33.1614 100.738C33.4114 101.154 33.4114 102.029 33.1614 103.363C32.9947 104.613 32.7864 105.446 32.5364 105.863C32.0364 106.446 31.328 106.738 30.4114 106.738C29.4947 106.738 28.7864 106.446 28.2864 105.863C28.2864 105.279 28.2447 104.696 28.1614 104.113C28.078 103.446 28.203 102.863 28.5364 102.363C28.2864 102.029 28.1197 101.779 28.0364 101.613C28.0364 101.363 28.0364 101.154 28.0364 100.988C28.1197 100.821 28.1614 100.654 28.1614 100.488C28.2447 100.321 28.2864 100.071 28.2864 99.7377C28.2864 99.321 28.203 98.9877 28.0364 98.7377C27.953 98.4043 27.8697 98.0293 27.7864 97.6127C27.703 96.946 27.6614 96.321 27.6614 95.7377C27.6614 95.071 27.578 94.4043 27.4114 93.7377C27.1614 93.821 26.7864 93.821 26.2864 93.7377C25.8697 93.6543 25.6197 93.7377 25.5364 93.9877C24.7864 93.6543 24.1614 93.321 23.6614 92.9877C23.1614 92.6543 22.453 92.4877 21.5364 92.4877C21.1197 91.9877 20.3697 91.571 19.2864 91.2377C18.203 90.821 17.328 90.4877 16.6614 90.2377C16.2447 90.071 15.828 89.8627 15.4114 89.6127C15.078 89.3627 14.703 89.1543 14.2864 88.9877C13.8697 88.821 13.453 88.696 13.0364 88.6127C12.6197 88.5293 12.203 88.3627 11.7864 88.1127C11.453 87.946 11.1614 87.696 10.9114 87.3627C10.6614 87.0293 10.328 86.9043 9.91138 86.9877C9.74471 86.571 9.49471 86.321 9.16138 86.2377C8.91138 86.071 8.61971 85.9043 8.28638 85.7377C7.86971 86.321 7.66138 87.1543 7.66138 88.2377C7.74471 89.321 7.86971 90.196 8.03638 90.8627C8.11971 91.2793 8.32804 91.6127 8.66138 91.8627C8.99471 92.0293 9.16138 92.321 9.16138 92.7377C8.82804 93.6543 8.45304 94.196 8.03638 94.3627C7.70304 94.446 7.49471 94.7793 7.41138 95.3627C6.99471 95.196 6.53638 95.1127 6.03638 95.1127C5.61971 95.0293 5.20304 94.946 4.78638 94.8627C4.61971 94.2793 4.36971 93.7377 4.03638 93.2377C3.70304 92.7377 3.49471 92.196 3.41138 91.6127C3.24471 90.7793 3.24471 89.9877 3.41138 89.2377C3.66138 88.4877 3.74471 87.7377 3.66138 86.9877C3.57804 86.7377 3.49471 86.5293 3.41138 86.3627C3.41138 86.1127 3.24471 85.9043 2.91138 85.7377C3.24471 84.821 3.20304 84.196 2.78638 83.8627C2.45304 83.5293 2.20304 83.071 2.03638 82.4877C1.86971 82.2377 1.78638 81.946 1.78638 81.6127C1.86971 81.2793 1.86971 80.946 1.78638 80.6127C1.78638 80.5293 1.70304 80.321 1.53638 79.9877C1.45304 79.6543 1.36971 79.321 1.28638 78.9877C1.20304 78.6543 1.11971 78.3627 1.03638 78.1127C1.03638 77.7793 1.11971 77.6127 1.28638 77.6127C1.20304 77.446 1.07804 77.2377 0.911377 76.9877C0.828044 76.6543 0.786377 76.4043 0.786377 76.2377C0.786377 75.9877 0.828044 75.5293 0.911377 74.8627C1.07804 74.1127 1.24471 73.321 1.41138 72.4877C1.57804 71.6543 1.78638 70.9043 2.03638 70.2377C2.28638 69.571 2.49471 69.1543 2.66138 68.9877C2.91138 68.821 3.07804 68.7793 3.16138 68.8627C3.24471 68.946 3.49471 68.7793 3.91138 68.3627C4.32804 68.196 4.70304 68.2377 5.03638 68.4877C5.36971 68.7377 5.74471 68.7793 6.16138 68.6127C6.49471 69.0293 6.70304 69.7377 6.78638 70.7377C6.86971 71.6543 6.99471 72.4043 7.16138 72.9877C6.99471 73.4043 7.07804 73.6127 7.41138 73.6127C7.74471 73.6127 7.95304 73.7793 8.03638 74.1127C8.11971 74.446 8.20304 74.8627 8.28638 75.3627C8.36971 75.7793 8.61971 76.071 9.03638 76.2377C8.95304 76.6543 8.95304 77.1127 9.03638 77.6127C9.11971 78.1127 9.32804 78.446 9.66138 78.6127C9.57804 79.2793 9.70304 79.821 10.0364 80.2377C10.3697 80.6543 10.6197 81.0293 10.7864 81.3627C11.203 82.196 11.7864 82.8627 12.5364 83.3627C13.2864 83.8627 13.953 84.446 14.5364 85.1127C15.3697 85.2793 16.078 85.6127 16.6614 86.1127C17.2447 86.5293 17.8697 86.946 18.5364 87.3627C19.6197 87.3627 20.453 87.696 21.0364 88.3627C21.703 88.196 22.578 88.3627 23.6614 88.8627C24.828 89.3627 25.453 89.7377 25.5364 89.9877C25.953 89.821 26.4114 89.7793 26.9114 89.8627C27.4947 89.946 28.0364 89.9877 28.5364 89.9877C29.453 89.821 30.078 89.7793 30.4114 89.8627C30.7447 89.946 31.1197 89.9043 31.5364 89.7377C31.703 89.6543 32.0364 89.6543 32.5364 89.7377C33.1197 89.7377 33.703 89.7377 34.2864 89.7377C34.8697 89.7377 35.3697 89.696 35.7864 89.6127C36.203 89.446 36.4114 89.2377 36.4114 88.9877C36.578 89.1543 36.8697 89.196 37.2864 89.1127C37.7864 89.0293 38.1197 88.946 38.2864 88.8627C39.2864 88.446 39.8697 88.2377 40.0364 88.2377C40.203 88.2377 40.3697 88.2377 40.5364 88.2377C40.703 88.2377 40.8697 88.1543 41.0364 87.9877C41.2864 87.821 41.6197 87.4877 42.0364 86.9877C42.203 86.071 42.453 85.446 42.7864 85.1127C43.1197 84.7793 43.2447 84.321 43.1614 83.7377C42.828 82.9043 42.703 82.446 42.7864 82.3627C42.953 82.196 42.9947 82.0293 42.9114 81.8627C42.9114 80.696 42.7864 79.4877 42.5364 78.2377C42.2864 76.9877 42.1197 75.7793 42.0364 74.6127C42.0364 74.2793 42.0364 73.9877 42.0364 73.7377C42.1197 73.4043 42.1197 73.071 42.0364 72.7377C41.6197 71.7377 41.4114 71.0293 41.4114 70.6127C41.4114 70.1127 41.328 69.6543 41.1614 69.2377C40.4947 68.2377 40.078 67.4043 39.9114 66.7377C39.828 65.9877 39.5364 65.571 39.0364 65.4877C39.1197 64.6543 38.953 64.0293 38.5364 63.6127C38.203 63.196 38.0364 62.6127 38.0364 61.8627C37.2864 61.446 36.2447 61.0293 34.9114 60.6127C33.578 60.196 32.453 59.9043 31.5364 59.7377C31.1197 59.6543 30.6614 59.6543 30.1614 59.7377C29.7447 59.821 29.2864 59.821 28.7864 59.7377C28.1197 59.571 27.578 59.3627 27.1614 59.1127C26.828 58.7793 26.3697 58.5293 25.7864 58.3627C25.203 58.196 24.6197 58.1127 24.0364 58.1127C23.5364 58.1127 23.0364 58.0293 22.5364 57.8627C22.1197 57.696 21.7864 57.5293 21.5364 57.3627C21.2864 57.196 20.9947 57.0293 20.6614 56.8627C20.328 56.7793 19.9947 56.7793 19.6614 56.8627C19.4114 56.946 19.1197 56.946 18.7864 56.8627C17.8697 56.5293 17.2447 56.4043 16.9114 56.4877C16.6614 56.571 16.4114 56.571 16.1614 56.4877C15.9114 56.4043 15.6614 56.2793 15.4114 56.1127C15.2447 55.946 15.0364 55.821 14.7864 55.7377C14.5364 55.6543 14.2447 55.6127 13.9114 55.6127C13.6614 55.5293 13.4114 55.4043 13.1614 55.2377C12.4114 54.9877 12.0364 54.821 12.0364 54.7377C12.1197 54.571 12.1197 54.446 12.0364 54.3627C11.8697 54.196 11.578 54.1127 11.1614 54.1127C10.828 54.0293 10.578 53.946 10.4114 53.8627C9.07804 52.696 7.78638 51.5293 6.53638 50.3627C5.36971 49.1127 4.16138 47.8627 2.91138 46.6127C2.91138 46.5293 2.86971 46.321 2.78638 45.9877C2.78638 45.571 2.74471 45.196 2.66138 44.8627C2.66138 44.446 2.61971 44.071 2.53638 43.7377C2.45304 43.321 2.41138 43.071 2.41138 42.9877C2.16138 42.1543 2.07804 41.696 2.16138 41.6127C2.24471 41.446 2.28638 41.2793 2.28638 41.1127C2.11971 40.1127 2.07804 39.5293 2.16138 39.3627C2.32804 39.196 2.41138 38.9877 2.41138 38.7377C2.49471 38.321 2.45304 37.9877 2.28638 37.7377C2.20304 37.4877 2.24471 37.1127 2.41138 36.6127C2.91138 35.7793 3.11971 35.1543 3.03638 34.7377C3.03638 34.2377 3.07804 33.7793 3.16138 33.3627C3.16138 33.2793 3.20304 33.0293 3.28638 32.6127C3.45304 32.1127 3.57804 31.571 3.66138 30.9877C3.82804 30.4043 3.95304 29.9043 4.03638 29.4877C4.20304 28.9877 4.28638 28.7377 4.28638 28.7377C4.70304 27.9877 4.95304 27.571 5.03638 27.4877C5.20304 27.4043 5.36971 27.2793 5.53638 27.1127C5.70304 26.8627 5.86971 26.6127 6.03638 26.3627C6.20304 26.0293 6.41138 25.7377 6.66138 25.4877C7.07804 24.9877 7.53638 24.5293 8.03638 24.1127C8.53638 23.696 8.99471 23.2377 9.41138 22.7377C10.2447 22.4043 10.7864 22.196 11.0364 22.1127C11.3697 21.946 11.6197 21.6543 11.7864 21.2377C12.703 20.9043 13.203 20.7793 13.2864 20.8627C13.3697 20.8627 13.4947 20.8627 13.6614 20.8627C14.078 20.3627 14.453 20.1543 14.7864 20.2377C15.1197 20.2377 15.453 20.196 15.7864 20.1127C16.453 19.946 17.1614 19.696 17.9114 19.3627C18.6614 19.0293 19.4114 18.9877 20.1614 19.2377C20.9114 18.9043 21.328 18.7377 21.4114 18.7377C21.578 18.6543 21.703 18.571 21.7864 18.4877C22.1197 18.4877 22.4114 18.5293 22.6614 18.6127C22.9947 18.696 23.2447 18.7377 23.4114 18.7377C24.2447 18.321 24.7447 18.1543 24.9114 18.2377C25.1614 18.2377 25.3697 18.1543 25.5364 17.9877C25.5364 16.6543 25.578 15.321 25.6614 13.9877C25.828 12.571 25.7864 11.196 25.5364 9.86266C25.453 8.69599 25.4947 7.98766 25.6614 7.73766C25.9114 7.40432 25.8697 6.94599 25.5364 6.36266C25.5364 5.61266 25.578 4.86266 25.6614 4.11266C25.7447 3.36266 25.9114 2.73766 26.1614 2.23766C26.4947 1.73766 26.953 1.40432 27.5364 1.23766C28.1197 1.07099 28.9114 1.23766 29.9114 1.73766ZM10.4114 28.7377C9.91138 29.1543 9.66138 29.5293 9.66138 29.8627C9.66138 30.196 9.45304 30.3627 9.03638 30.3627C8.86971 31.0293 8.70304 31.5293 8.53638 31.8627C8.36971 32.196 8.11971 32.6127 7.78638 33.1127C8.03638 34.0293 7.95304 34.946 7.53638 35.8627C7.11971 36.696 7.07804 37.571 7.41138 38.4877C7.16138 38.6543 6.95304 39.196 6.78638 40.1127C6.61971 40.946 6.57804 41.4877 6.66138 41.7377C6.66138 42.071 6.74471 42.3627 6.91138 42.6127C7.07804 42.7793 7.24471 42.9877 7.41138 43.2377C7.49471 44.2377 7.66138 44.9043 7.91138 45.2377C8.16138 45.4877 8.20304 45.821 8.03638 46.2377C8.28638 46.4043 8.57804 46.6543 8.91138 46.9877C9.24471 47.321 9.57804 47.6543 9.91138 47.9877C10.328 48.321 10.6614 48.6127 10.9114 48.8627C11.2447 49.1127 11.5364 49.2377 11.7864 49.2377C12.1197 48.9043 12.203 48.571 12.0364 48.2377C11.8697 47.9043 11.703 47.5293 11.5364 47.1127C11.8697 46.196 11.9114 45.0293 11.6614 43.6127C11.4114 42.196 11.078 41.0293 10.6614 40.1127C10.6614 38.446 10.6614 37.1127 10.6614 36.1127C10.7447 35.1127 10.8697 34.1543 11.0364 33.2377C11.2864 32.321 11.453 31.4043 11.5364 30.4877C11.703 29.571 11.703 28.6127 11.5364 27.6127C10.8697 27.7793 10.5364 27.9877 10.5364 28.2377C10.5364 28.4043 10.4947 28.571 10.4114 28.7377ZM46.4114 75.1127C46.4114 76.5293 46.5364 77.9877 46.7864 79.4877C47.0364 80.9877 47.2447 82.446 47.4114 83.8627C48.1614 83.1127 48.703 82.571 49.0364 82.2377C49.203 80.9877 49.6614 79.9877 50.4114 79.2377C50.4947 78.071 50.703 76.9043 51.0364 75.7377C51.453 74.4877 51.6197 73.2793 51.5364 72.1127C51.5364 71.446 51.3697 70.7793 51.0364 70.1127C50.7864 69.446 50.7447 68.7793 50.9114 68.1127C50.4947 67.5293 50.0364 67.0293 49.5364 66.6127C49.0364 66.196 48.6197 65.696 48.2864 65.1127C48.203 65.1127 47.9114 64.9877 47.4114 64.7377C46.9114 64.4877 46.3697 64.2377 45.7864 63.9877C45.2864 63.6543 44.7864 63.3627 44.2864 63.1127C43.7864 62.7793 43.4947 62.571 43.4114 62.4877C42.7447 63.321 42.578 64.071 42.9114 64.7377C43.2447 65.321 43.578 65.9877 43.9114 66.7377C44.2447 67.6543 44.578 68.2793 44.9114 68.6127C45.2447 68.946 45.5364 69.4877 45.7864 70.2377C45.953 70.6543 45.9947 71.071 45.9114 71.4877C45.828 71.9043 45.8697 72.321 46.0364 72.7377C46.0364 72.9043 46.1197 73.1543 46.2864 73.4877C46.453 73.7377 46.4947 73.946 46.4114 74.1127V75.1127Z" fill="#00FF00"/>
</svg>
