<svg width="56" height="107" viewBox="0 0 56 107" fill="none" xmlns="http://www.w3.org/2000/svg">
<path d="M29.5645 1.23419C29.3978 2.06753 29.3561 2.90086 29.4395 3.73419C29.5228 4.48419 29.5645 5.27586 29.5645 6.10919C29.5645 6.35919 29.5228 6.60919 29.4395 6.85919C29.3561 7.10919 29.3145 7.31753 29.3145 7.48419C29.3978 7.90086 29.4811 8.27586 29.5645 8.60919C29.7311 8.85919 29.8145 9.19253 29.8145 9.60919C29.8145 10.1092 29.8561 10.6509 29.9395 11.2342C30.0228 11.7342 30.0645 12.1925 30.0645 12.6092C29.9811 13.2759 29.7728 14.0259 29.4395 14.8592C29.1061 15.6925 29.1478 16.4425 29.5645 17.1092C29.8145 17.5259 30.4811 17.7342 31.5645 17.7342C32.6478 17.7342 33.3978 17.6509 33.8145 17.4842C34.2311 17.9842 34.7728 18.3175 35.4395 18.4842C36.1895 18.6509 36.8978 18.7342 37.5645 18.7342C37.8978 19.1509 38.6061 19.5675 39.6895 19.9842C40.8561 20.3175 41.6895 20.6509 42.1895 20.9842C42.7728 21.8175 43.1478 22.2342 43.3145 22.2342C43.4811 22.2342 43.6478 22.3175 43.8145 22.4842C44.0645 22.6509 44.2728 22.9009 44.4395 23.2342C44.6895 23.5675 45.0228 23.7759 45.4395 23.8592C45.3561 24.1925 45.3561 24.4425 45.4395 24.6092C45.6061 24.6925 45.7728 24.9009 45.9395 25.2342C46.3561 25.4009 46.6061 25.6925 46.6895 26.1092C46.8561 26.4425 47.0645 26.7759 47.3145 27.1092C47.5645 27.3592 47.8561 27.5675 48.1895 27.7342C48.5228 27.9009 48.7728 28.1509 48.9395 28.4842C49.1061 26.7342 49.2311 24.9842 49.3145 23.2342C49.3978 21.4842 49.3561 19.7342 49.1895 17.9842C49.6061 17.4842 50.0228 17.1092 50.4395 16.8592C50.9395 16.5259 51.5228 16.4425 52.1895 16.6092C52.7728 17.0259 53.0645 17.3592 53.0645 17.6092C53.0645 17.7759 53.1478 17.8175 53.3145 17.7342C53.3145 18.2342 53.2728 18.9009 53.1895 19.7342C53.1061 20.5675 53.0228 21.4009 52.9395 22.2342C52.8561 23.0675 52.8145 23.8592 52.8145 24.6092C52.8978 25.3592 53.0645 25.9425 53.3145 26.3592C53.1478 27.5259 53.1895 28.3592 53.4395 28.8592C53.6895 29.2759 53.8145 29.7759 53.8145 30.3592C53.8145 31.0259 53.6478 31.6092 53.3145 32.1092C53.0645 32.6092 52.8978 33.1925 52.8145 33.8592C52.8145 34.1092 52.8561 34.3592 52.9395 34.6092C53.0228 34.8592 53.0645 35.1509 53.0645 35.4842C52.8978 36.7342 52.8561 37.6509 52.9395 38.2342C53.1061 38.7342 53.0645 39.1925 52.8145 39.6092C52.1478 39.8592 51.4811 40.0675 50.8145 40.2342C50.2311 40.3175 49.6061 40.2759 48.9395 40.1092C48.6895 39.8592 48.4811 39.6092 48.3145 39.3592C48.1478 39.0259 47.9395 38.7342 47.6895 38.4842C47.4395 38.1509 47.4811 37.9009 47.8145 37.7342C48.2311 37.4842 48.3561 37.1092 48.1895 36.6092C47.9395 35.1092 47.3561 33.8175 46.4395 32.7342C45.6061 31.6509 44.7311 30.5259 43.8145 29.3592L42.8145 27.9842C42.4811 27.5675 42.1061 27.1925 41.6895 26.8592C41.2728 26.4425 40.9811 25.9842 40.8145 25.4842C40.3978 25.4842 40.0645 25.3175 39.8145 24.9842C39.5645 24.5675 39.2728 24.2759 38.9395 24.1092C38.6895 24.0259 38.2311 23.8592 37.5645 23.6092C36.8978 23.3592 36.1478 23.1509 35.3145 22.9842C34.5645 22.7342 33.8145 22.5259 33.0645 22.3592C32.3978 22.1092 31.9395 21.9842 31.6895 21.9842C31.1895 21.9009 30.6895 21.9425 30.1895 22.1092C29.7728 22.1925 29.3561 22.2342 28.9395 22.2342C27.9395 21.9009 27.3145 21.7759 27.0645 21.8592C26.8145 21.9425 26.5645 21.9842 26.3145 21.9842C25.6478 21.9842 25.0645 21.9425 24.5645 21.8592C24.0645 21.7759 23.4811 21.9842 22.8145 22.4842C21.6478 22.3175 20.6061 22.4009 19.6895 22.7342C18.7728 22.9842 17.7311 23.1925 16.5645 23.3592C16.4811 23.6092 16.4811 23.8592 16.5645 24.1092C16.7311 24.3592 16.7311 24.5675 16.5645 24.7342C16.3145 25.2342 16.1061 25.7342 15.9395 26.2342C15.8561 26.7342 15.7311 27.2342 15.5645 27.7342C15.7311 27.9009 15.6895 28.1925 15.4395 28.6092C15.2728 28.9425 15.1895 29.1925 15.1895 29.3592C15.1061 29.6925 15.1061 30.0259 15.1895 30.3592C15.3561 30.6092 15.4395 30.9009 15.4395 31.2342C15.3561 31.4842 15.2311 31.7342 15.0645 31.9842C14.9811 32.2342 14.9395 32.4425 14.9395 32.6092C14.7728 33.5259 14.7728 34.4009 14.9395 35.2342C15.1061 36.0675 15.1895 36.9009 15.1895 37.7342C15.1895 37.9842 15.1478 38.2342 15.0645 38.4842C14.9811 38.7342 14.9395 38.9842 14.9395 39.2342C14.9395 39.5675 14.9811 39.9009 15.0645 40.2342C15.2311 40.5675 15.3561 40.9009 15.4395 41.2342C15.5228 41.8175 15.5645 42.4842 15.5645 43.2342C15.5645 43.9842 15.8145 44.5675 16.3145 44.9842C16.1478 45.1509 16.0645 45.4009 16.0645 45.7342C16.0645 45.9842 15.9811 46.1925 15.8145 46.3592C15.9811 47.0259 16.1895 47.6092 16.4395 48.1092C16.6895 48.5259 16.7311 49.1092 16.5645 49.8592C17.1478 50.3592 17.3561 50.6925 17.1895 50.8592C17.0228 51.0259 16.9811 51.1509 17.0645 51.2342C17.2311 51.5675 17.5645 51.8592 18.0645 52.1092C18.6478 52.3592 19.2728 52.5675 19.9395 52.7342C20.6895 52.8175 21.3978 52.9425 22.0645 53.1092C22.7311 53.1925 23.2311 53.2759 23.5645 53.3592C23.9811 53.5259 24.3145 53.6925 24.5645 53.8592C24.8978 54.0259 25.2728 54.1925 25.6895 54.3592C26.1061 54.4425 26.4811 54.4842 26.8145 54.4842C27.1478 54.4009 27.5228 54.4425 27.9395 54.6092C28.8561 54.7759 29.6895 55.0259 30.4395 55.3592C31.2728 55.6092 32.1478 55.8175 33.0645 55.9842C33.3145 56.0675 33.5645 56.0675 33.8145 55.9842C34.1478 55.9009 34.4395 55.9009 34.6895 55.9842C35.9395 56.4009 36.8561 56.5675 37.4395 56.4842C38.1061 56.4009 38.7311 56.4425 39.3145 56.6092C39.7311 56.6925 40.0645 56.8175 40.3145 56.9842C40.5645 57.0675 40.8561 57.1925 41.1895 57.3592C42.1895 57.6925 43.4395 58.0675 44.9395 58.4842C46.5228 58.9009 47.6061 59.5259 48.1895 60.3592C48.8561 60.4425 49.3978 60.6509 49.8145 60.9842C50.2311 61.3175 50.7728 61.5675 51.4395 61.7342C51.6895 62.3175 51.9811 62.7759 52.3145 63.1092C52.7311 63.4425 53.1478 63.8592 53.5645 64.3592C54.2311 65.6925 54.6478 66.7342 54.8145 67.4842C54.9811 68.2342 55.1061 69.0259 55.1895 69.8592C55.3561 70.9425 55.3561 71.6092 55.1895 71.8592C55.1061 72.0259 55.0228 72.2342 54.9395 72.4842C54.8561 72.8175 54.8561 73.1509 54.9395 73.4842C55.0228 73.8175 55.0228 74.1925 54.9395 74.6092C54.9395 74.8592 54.8561 75.3592 54.6895 76.1092C54.5228 76.7759 54.3561 77.5259 54.1895 78.3592C54.0228 79.1092 53.8145 79.8592 53.5645 80.6092C53.3145 81.2759 53.1478 81.7342 53.0645 81.9842C52.6478 82.4009 52.4811 82.7342 52.5645 82.9842C52.6478 83.2342 52.6061 83.4425 52.4395 83.6092C51.7728 84.4425 51.3145 85.1092 51.0645 85.6092C50.8145 86.0259 50.4811 86.3175 50.0645 86.4842C50.1478 86.8175 50.1061 87.0675 49.9395 87.2342C49.7728 87.3175 49.7311 87.5259 49.8145 87.8592C49.0645 88.6092 48.4395 89.0675 47.9395 89.2342C47.5228 89.4009 47.2311 89.5675 47.0645 89.7342L45.9395 90.6092C44.6895 90.6925 43.8561 90.8592 43.4395 91.1092C43.0228 91.2759 42.6061 91.4425 42.1895 91.6092C41.0228 91.8592 39.8145 92.0259 38.5645 92.1092C37.3978 92.1092 36.3561 92.4009 35.4395 92.9842C34.9395 92.6509 34.3561 92.6092 33.6895 92.8592C33.0228 93.1092 32.3561 93.1509 31.6895 92.9842C31.4395 93.6509 31.4811 94.4009 31.8145 95.2342C32.1478 96.0675 32.2728 96.6925 32.1895 97.1092C32.6061 98.1092 32.7728 98.7759 32.6895 99.1092C32.6061 99.4425 32.6478 99.8175 32.8145 100.234C33.0645 100.651 33.0645 101.526 32.8145 102.859C32.6478 104.109 32.4395 104.943 32.1895 105.359C31.6895 105.943 30.9811 106.234 30.0645 106.234C29.1478 106.234 28.4395 105.943 27.9395 105.359C27.9395 104.776 27.8978 104.193 27.8145 103.609C27.7311 102.943 27.8561 102.359 28.1895 101.859C27.9395 101.526 27.7728 101.276 27.6895 101.109C27.6895 100.859 27.6895 100.651 27.6895 100.484C27.7728 100.318 27.8145 100.151 27.8145 99.9842C27.8978 99.8175 27.9395 99.5675 27.9395 99.2342C27.9395 98.8175 27.8561 98.4842 27.6895 98.2342C27.6061 97.9009 27.5228 97.5259 27.4395 97.1092C27.3561 96.4425 27.3145 95.8175 27.3145 95.2342C27.3145 94.5675 27.2311 93.9009 27.0645 93.2342C26.8145 93.3175 26.4395 93.3175 25.9395 93.2342C25.5228 93.1509 25.2728 93.2342 25.1895 93.4842C24.4395 93.1509 23.8145 92.8175 23.3145 92.4842C22.8145 92.1509 22.1061 91.9842 21.1895 91.9842C20.7728 91.4842 20.0228 91.0675 18.9395 90.7342C17.8561 90.3175 16.9811 89.9842 16.3145 89.7342C15.8978 89.5675 15.4811 89.3592 15.0645 89.1092C14.7311 88.8592 14.3561 88.6509 13.9395 88.4842C13.5228 88.3175 13.1061 88.1925 12.6895 88.1092C12.2728 88.0259 11.8561 87.8592 11.4395 87.6092C11.1061 87.4425 10.8145 87.1925 10.5645 86.8592C10.3145 86.5259 9.98112 86.4009 9.56445 86.4842C9.39779 86.0675 9.14779 85.8175 8.81445 85.7342C8.56445 85.5675 8.27279 85.4009 7.93945 85.2342C7.52279 85.8175 7.31445 86.6509 7.31445 87.7342C7.39779 88.8175 7.52279 89.6925 7.68945 90.3592C7.77279 90.7759 7.98112 91.1092 8.31445 91.3592C8.64779 91.5259 8.81445 91.8175 8.81445 92.2342C8.48112 93.1509 8.10612 93.6925 7.68945 93.8592C7.35612 93.9425 7.14779 94.2759 7.06445 94.8592C6.64779 94.6925 6.18945 94.6092 5.68945 94.6092C5.27279 94.5259 4.85612 94.4425 4.43945 94.3592C4.27279 93.7759 4.02279 93.2342 3.68945 92.7342C3.35612 92.2342 3.14779 91.6925 3.06445 91.1092C2.89779 90.2759 2.89779 89.4842 3.06445 88.7342C3.31445 87.9842 3.39779 87.2342 3.31445 86.4842C3.23112 86.2342 3.14779 86.0259 3.06445 85.8592C3.06445 85.6092 2.89779 85.4009 2.56445 85.2342C2.89779 84.3175 2.85612 83.6925 2.43945 83.3592C2.10612 83.0259 1.85612 82.5675 1.68945 81.9842C1.52279 81.7342 1.43945 81.4425 1.43945 81.1092C1.52279 80.7759 1.52279 80.4425 1.43945 80.1092C1.43945 80.0259 1.35612 79.8175 1.18945 79.4842C1.10612 79.1509 1.02279 78.8175 0.939453 78.4842C0.85612 78.1509 0.772786 77.8592 0.689453 77.6092C0.689453 77.2759 0.772786 77.1092 0.939453 77.1092C0.85612 76.9425 0.73112 76.7342 0.564453 76.4842C0.48112 76.1509 0.439453 75.9009 0.439453 75.7342C0.439453 75.4842 0.48112 75.0259 0.564453 74.3592C0.73112 73.6092 0.897786 72.8175 1.06445 71.9842C1.23112 71.1509 1.43945 70.4009 1.68945 69.7342C1.93945 69.0675 2.14779 68.6509 2.31445 68.4842C2.56445 68.3175 2.73112 68.2759 2.81445 68.3592C2.89779 68.4425 3.14779 68.2759 3.56445 67.8592C3.98112 67.6925 4.35612 67.7342 4.68945 67.9842C5.02279 68.2342 5.39779 68.2759 5.81445 68.1092C6.14779 68.5259 6.35612 69.2342 6.43945 70.2342C6.52279 71.1509 6.64779 71.9009 6.81445 72.4842C6.64779 72.9009 6.73112 73.1092 7.06445 73.1092C7.39779 73.1092 7.60612 73.2759 7.68945 73.6092C7.77279 73.9425 7.85612 74.3592 7.93945 74.8592C8.02279 75.2759 8.27279 75.5675 8.68945 75.7342C8.60612 76.1509 8.60612 76.6092 8.68945 77.1092C8.77279 77.6092 8.98112 77.9425 9.31445 78.1092C9.23112 78.7759 9.35612 79.3175 9.68945 79.7342C10.0228 80.1509 10.2728 80.5259 10.4395 80.8592C10.8561 81.6925 11.4395 82.3592 12.1895 82.8592C12.9395 83.3592 13.6061 83.9425 14.1895 84.6092C15.0228 84.7759 15.7311 85.1092 16.3145 85.6092C16.8978 86.0259 17.5228 86.4425 18.1895 86.8592C19.2728 86.8592 20.1061 87.1925 20.6895 87.8592C21.3561 87.6925 22.2311 87.8592 23.3145 88.3592C24.4811 88.8592 25.1061 89.2342 25.1895 89.4842C25.6061 89.3175 26.0645 89.2759 26.5645 89.3592C27.1478 89.4425 27.6895 89.4842 28.1895 89.4842C29.1061 89.3175 29.7311 89.2759 30.0645 89.3592C30.3978 89.4425 30.7728 89.4009 31.1895 89.2342C31.3561 89.1509 31.6895 89.1509 32.1895 89.2342C32.7728 89.2342 33.3561 89.2342 33.9395 89.2342C34.5228 89.2342 35.0228 89.1925 35.4395 89.1092C35.8561 88.9425 36.0645 88.7342 36.0645 88.4842C36.2311 88.6509 36.5228 88.6925 36.9395 88.6092C37.4395 88.5259 37.7728 88.4425 37.9395 88.3592C38.9395 87.9425 39.5228 87.7342 39.6895 87.7342C39.8561 87.7342 40.0228 87.7342 40.1895 87.7342C40.3561 87.7342 40.5228 87.6509 40.6895 87.4842C40.9395 87.3175 41.2728 86.9842 41.6895 86.4842C41.8561 85.5675 42.1061 84.9425 42.4395 84.6092C42.7728 84.2759 42.8978 83.8175 42.8145 83.2342C42.4811 82.4009 42.3561 81.9425 42.4395 81.8592C42.6061 81.6925 42.6478 81.5259 42.5645 81.3592C42.5645 80.1925 42.4395 78.9842 42.1895 77.7342C41.9395 76.4842 41.7728 75.2759 41.6895 74.1092C41.6895 73.7759 41.6895 73.4842 41.6895 73.2342C41.7728 72.9009 41.7728 72.5675 41.6895 72.2342C41.2728 71.2342 41.0645 70.5259 41.0645 70.1092C41.0645 69.6092 40.9811 69.1509 40.8145 68.7342C40.1478 67.7342 39.7311 66.9009 39.5645 66.2342C39.4811 65.4842 39.1895 65.0675 38.6895 64.9842C38.7728 64.1509 38.6061 63.5259 38.1895 63.1092C37.8561 62.6925 37.6895 62.1092 37.6895 61.3592C36.9395 60.9425 35.8978 60.5259 34.5645 60.1092C33.2311 59.6925 32.1061 59.4009 31.1895 59.2342C30.7728 59.1509 30.3145 59.1509 29.8145 59.2342C29.3978 59.3175 28.9395 59.3175 28.4395 59.2342C27.7728 59.0675 27.2311 58.8592 26.8145 58.6092C26.4811 58.2759 26.0228 58.0259 25.4395 57.8592C24.8561 57.6925 24.2728 57.6092 23.6895 57.6092C23.1895 57.6092 22.6895 57.5259 22.1895 57.3592C21.7728 57.1925 21.4395 57.0259 21.1895 56.8592C20.9395 56.6925 20.6478 56.5259 20.3145 56.3592C19.9811 56.2759 19.6478 56.2759 19.3145 56.3592C19.0645 56.4425 18.7728 56.4425 18.4395 56.3592C17.5228 56.0259 16.8978 55.9009 16.5645 55.9842C16.3145 56.0675 16.0645 56.0675 15.8145 55.9842C15.5645 55.9009 15.3145 55.7759 15.0645 55.6092C14.8978 55.4425 14.6895 55.3175 14.4395 55.2342C14.1895 55.1509 13.8978 55.1092 13.5645 55.1092C13.3145 55.0259 13.0645 54.9009 12.8145 54.7342C12.0645 54.4842 11.6895 54.3175 11.6895 54.2342C11.7728 54.0675 11.7728 53.9425 11.6895 53.8592C11.5228 53.6925 11.2311 53.6092 10.8145 53.6092C10.4811 53.5259 10.2311 53.4425 10.0645 53.3592C8.73112 52.1925 7.43945 51.0259 6.18945 49.8592C5.02279 48.6092 3.81445 47.3592 2.56445 46.1092C2.56445 46.0259 2.52279 45.8175 2.43945 45.4842C2.43945 45.0675 2.39779 44.6925 2.31445 44.3592C2.31445 43.9425 2.27279 43.5675 2.18945 43.2342C2.10612 42.8175 2.06445 42.5675 2.06445 42.4842C1.81445 41.6509 1.73112 41.1925 1.81445 41.1092C1.89779 40.9425 1.93945 40.7759 1.93945 40.6092C1.77279 39.6092 1.73112 39.0259 1.81445 38.8592C1.98112 38.6925 2.06445 38.4842 2.06445 38.2342C2.14779 37.8175 2.10612 37.4842 1.93945 37.2342C1.85612 36.9842 1.89779 36.6092 2.06445 36.1092C2.56445 35.2759 2.77279 34.6509 2.68945 34.2342C2.68945 33.7342 2.73112 33.2759 2.81445 32.8592C2.81445 32.7759 2.85612 32.5259 2.93945 32.1092C3.10612 31.6092 3.23112 31.0675 3.31445 30.4842C3.48112 29.9009 3.60612 29.4009 3.68945 28.9842C3.85612 28.4842 3.93945 28.2342 3.93945 28.2342C4.35612 27.4842 4.60612 27.0675 4.68945 26.9842C4.85612 26.9009 5.02279 26.7759 5.18945 26.6092C5.35612 26.3592 5.52279 26.1092 5.68945 25.8592C5.85612 25.5259 6.06445 25.2342 6.31445 24.9842C6.73112 24.4842 7.18945 24.0259 7.68945 23.6092C8.18945 23.1925 8.64779 22.7342 9.06445 22.2342C9.89779 21.9009 10.4395 21.6925 10.6895 21.6092C11.0228 21.4425 11.2728 21.1509 11.4395 20.7342C12.3561 20.4009 12.8561 20.2759 12.9395 20.3592C13.0228 20.3592 13.1478 20.3592 13.3145 20.3592C13.7311 19.8592 14.1061 19.6509 14.4395 19.7342C14.7728 19.7342 15.1061 19.6925 15.4395 19.6092C16.1061 19.4425 16.8145 19.1925 17.5645 18.8592C18.3145 18.5259 19.0645 18.4842 19.8145 18.7342C20.5645 18.4009 20.9811 18.2342 21.0645 18.2342C21.2311 18.1509 21.3561 18.0675 21.4395 17.9842C21.7728 17.9842 22.0645 18.0259 22.3145 18.1092C22.6478 18.1925 22.8978 18.2342 23.0645 18.2342C23.8978 17.8175 24.3978 17.6509 24.5645 17.7342C24.8145 17.7342 25.0228 17.6509 25.1895 17.4842C25.1895 16.1509 25.2311 14.8175 25.3145 13.4842C25.4811 12.0675 25.4395 10.6925 25.1895 9.35919C25.1061 8.19253 25.1478 7.48419 25.3145 7.23419C25.5645 6.90086 25.5228 6.44253 25.1895 5.85919C25.1895 5.10919 25.2311 4.35919 25.3145 3.60919C25.3978 2.85919 25.5645 2.23419 25.8145 1.73419C26.1478 1.23419 26.6061 0.900859 27.1895 0.734192C27.7728 0.567525 28.5645 0.734192 29.5645 1.23419ZM10.0645 28.2342C9.56445 28.6509 9.31445 29.0259 9.31445 29.3592C9.31445 29.6925 9.10612 29.8592 8.68945 29.8592C8.52279 30.5259 8.35612 31.0259 8.18945 31.3592C8.02279 31.6925 7.77279 32.1092 7.43945 32.6092C7.68945 33.5259 7.60612 34.4425 7.18945 35.3592C6.77279 36.1925 6.73112 37.0675 7.06445 37.9842C6.81445 38.1509 6.60612 38.6925 6.43945 39.6092C6.27279 40.4425 6.23112 40.9842 6.31445 41.2342C6.31445 41.5675 6.39779 41.8592 6.56445 42.1092C6.73112 42.2759 6.89779 42.4842 7.06445 42.7342C7.14779 43.7342 7.31445 44.4009 7.56445 44.7342C7.81445 44.9842 7.85612 45.3175 7.68945 45.7342C7.93945 45.9009 8.23112 46.1509 8.56445 46.4842C8.89779 46.8175 9.23112 47.1509 9.56445 47.4842C9.98112 47.8175 10.3145 48.1092 10.5645 48.3592C10.8978 48.6092 11.1895 48.7342 11.4395 48.7342C11.7728 48.4009 11.8561 48.0675 11.6895 47.7342C11.5228 47.4009 11.3561 47.0259 11.1895 46.6092C11.5228 45.6925 11.5645 44.5259 11.3145 43.1092C11.0645 41.6925 10.7311 40.5259 10.3145 39.6092C10.3145 37.9425 10.3145 36.6092 10.3145 35.6092C10.3978 34.6092 10.5228 33.6509 10.6895 32.7342C10.9395 31.8175 11.1061 30.9009 11.1895 29.9842C11.3561 29.0675 11.3561 28.1092 11.1895 27.1092C10.5228 27.2759 10.1895 27.4842 10.1895 27.7342C10.1895 27.9009 10.1478 28.0675 10.0645 28.2342ZM46.0645 74.6092C46.0645 76.0259 46.1895 77.4842 46.4395 78.9842C46.6895 80.4842 46.8978 81.9425 47.0645 83.3592C47.8145 82.6092 48.3561 82.0675 48.6895 81.7342C48.8561 80.4842 49.3145 79.4842 50.0645 78.7342C50.1478 77.5675 50.3561 76.4009 50.6895 75.2342C51.1061 73.9842 51.2728 72.7759 51.1895 71.6092C51.1895 70.9425 51.0228 70.2759 50.6895 69.6092C50.4395 68.9425 50.3978 68.2759 50.5645 67.6092C50.1478 67.0259 49.6895 66.5259 49.1895 66.1092C48.6895 65.6925 48.2728 65.1925 47.9395 64.6092C47.8561 64.6092 47.5645 64.4842 47.0645 64.2342C46.5645 63.9842 46.0228 63.7342 45.4395 63.4842C44.9395 63.1509 44.4395 62.8592 43.9395 62.6092C43.4395 62.2759 43.1478 62.0675 43.0645 61.9842C42.3978 62.8175 42.2311 63.5675 42.5645 64.2342C42.8978 64.8175 43.2311 65.4842 43.5645 66.2342C43.8978 67.1509 44.2311 67.7759 44.5645 68.1092C44.8978 68.4425 45.1895 68.9842 45.4395 69.7342C45.6061 70.1509 45.6478 70.5675 45.5645 70.9842C45.4811 71.4009 45.5228 71.8175 45.6895 72.2342C45.6895 72.4009 45.7728 72.6509 45.9395 72.9842C46.1061 73.2342 46.1478 73.4425 46.0645 73.6092V74.6092Z" fill="#FF0000"/>
<path d="M29.5645 1.23419C29.3978 2.06753 29.3561 2.90086 29.4395 3.73419C29.5228 4.48419 29.5645 5.27586 29.5645 6.10919C29.5645 6.35919 29.5228 6.60919 29.4395 6.85919C29.3561 7.10919 29.3145 7.31753 29.3145 7.48419C29.3978 7.90086 29.4811 8.27586 29.5645 8.60919C29.7311 8.85919 29.8145 9.19253 29.8145 9.60919C29.8145 10.1092 29.8561 10.6509 29.9395 11.2342C30.0228 11.7342 30.0645 12.1925 30.0645 12.6092C29.9811 13.2759 29.7728 14.0259 29.4395 14.8592C29.1061 15.6925 29.1478 16.4425 29.5645 17.1092C29.8145 17.5259 30.4811 17.7342 31.5645 17.7342C32.6478 17.7342 33.3978 17.6509 33.8145 17.4842C34.2311 17.9842 34.7728 18.3175 35.4395 18.4842C36.1895 18.6509 36.8978 18.7342 37.5645 18.7342C37.8978 19.1509 38.6061 19.5675 39.6895 19.9842C40.8561 20.3175 41.6895 20.6509 42.1895 20.9842C42.7728 21.8175 43.1478 22.2342 43.3145 22.2342C43.4811 22.2342 43.6478 22.3175 43.8145 22.4842C44.0645 22.6509 44.2728 22.9009 44.4395 23.2342C44.6895 23.5675 45.0228 23.7759 45.4395 23.8592C45.3561 24.1925 45.3561 24.4425 45.4395 24.6092C45.6061 24.6925 45.7728 24.9009 45.9395 25.2342C46.3561 25.4009 46.6061 25.6925 46.6895 26.1092C46.8561 26.4425 47.0645 26.7759 47.3145 27.1092C47.5645 27.3592 47.8561 27.5675 48.1895 27.7342C48.5228 27.9009 48.7728 28.1509 48.9395 28.4842C49.1061 26.7342 49.2311 24.9842 49.3145 23.2342C49.3978 21.4842 49.3561 19.7342 49.1895 17.9842C49.6061 17.4842 50.0228 17.1092 50.4395 16.8592C50.9395 16.5259 51.5228 16.4425 52.1895 16.6092C52.7728 17.0259 53.0645 17.3592 53.0645 17.6092C53.0645 17.7759 53.1478 17.8175 53.3145 17.7342C53.3145 18.2342 53.2728 18.9009 53.1895 19.7342C53.1061 20.5675 53.0228 21.4009 52.9395 22.2342C52.8561 23.0675 52.8145 23.8592 52.8145 24.6092C52.8978 25.3592 53.0645 25.9425 53.3145 26.3592C53.1478 27.5259 53.1895 28.3592 53.4395 28.8592C53.6895 29.2759 53.8145 29.7759 53.8145 30.3592C53.8145 31.0259 53.6478 31.6092 53.3145 32.1092C53.0645 32.6092 52.8978 33.1925 52.8145 33.8592C52.8145 34.1092 52.8561 34.3592 52.9395 34.6092C53.0228 34.8592 53.0645 35.1509 53.0645 35.4842C52.8978 36.7342 52.8561 37.6509 52.9395 38.2342C53.1061 38.7342 53.0645 39.1925 52.8145 39.6092C52.1478 39.8592 51.4811 40.0675 50.8145 40.2342C50.2311 40.3175 49.6061 40.2759 48.9395 40.1092C48.6895 39.8592 48.4811 39.6092 48.3145 39.3592C48.1478 39.0259 47.9395 38.7342 47.6895 38.4842C47.4395 38.1509 47.4811 37.9009 47.8145 37.7342C48.2311 37.4842 48.3561 37.1092 48.1895 36.6092C47.9395 35.1092 47.3561 33.8175 46.4395 32.7342C45.6061 31.6509 44.7311 30.5259 43.8145 29.3592L42.8145 27.9842C42.4811 27.5675 42.1061 27.1925 41.6895 26.8592C41.2728 26.4425 40.9811 25.9842 40.8145 25.4842C40.3978 25.4842 40.0645 25.3175 39.8145 24.9842C39.5645 24.5675 39.2728 24.2759 38.9395 24.1092C38.6895 24.0259 38.2311 23.8592 37.5645 23.6092C36.8978 23.3592 36.1478 23.1509 35.3145 22.9842C34.5645 22.7342 33.8145 22.5259 33.0645 22.3592C32.3978 22.1092 31.9395 21.9842 31.6895 21.9842C31.1895 21.9009 30.6895 21.9425 30.1895 22.1092C29.7728 22.1925 29.3561 22.2342 28.9395 22.2342C27.9395 21.9009 27.3145 21.7759 27.0645 21.8592C26.8145 21.9425 26.5645 21.9842 26.3145 21.9842C25.6478 21.9842 25.0645 21.9425 24.5645 21.8592C24.0645 21.7759 23.4811 21.9842 22.8145 22.4842C21.6478 22.3175 20.6061 22.4009 19.6895 22.7342C18.7728 22.9842 17.7311 23.1925 16.5645 23.3592C16.4811 23.6092 16.4811 23.8592 16.5645 24.1092C16.7311 24.3592 16.7311 24.5675 16.5645 24.7342C16.3145 25.2342 16.1061 25.7342 15.9395 26.2342C15.8561 26.7342 15.7311 27.2342 15.5645 27.7342C15.7311 27.9009 15.6895 28.1925 15.4395 28.6092C15.2728 28.9425 15.1895 29.1925 15.1895 29.3592C15.1061 29.6925 15.1061 30.0259 15.1895 30.3592C15.3561 30.6092 15.4395 30.9009 15.4395 31.2342C15.3561 31.4842 15.2311 31.7342 15.0645 31.9842C14.9811 32.2342 14.9395 32.4425 14.9395 32.6092C14.7728 33.5259 14.7728 34.4009 14.9395 35.2342C15.1061 36.0675 15.1895 36.9009 15.1895 37.7342C15.1895 37.9842 15.1478 38.2342 15.0645 38.4842C14.9811 38.7342 14.9395 38.9842 14.9395 39.2342C14.9395 39.5675 14.9811 39.9009 15.0645 40.2342C15.2311 40.5675 15.3561 40.9009 15.4395 41.2342C15.5228 41.8175 15.5645 42.4842 15.5645 43.2342C15.5645 43.9842 15.8145 44.5675 16.3145 44.9842C16.1478 45.1509 16.0645 45.4009 16.0645 45.7342C16.0645 45.9842 15.9811 46.1925 15.8145 46.3592C15.9811 47.0259 16.1895 47.6092 16.4395 48.1092C16.6895 48.5259 16.7311 49.1092 16.5645 49.8592C17.1478 50.3592 17.3561 50.6925 17.1895 50.8592C17.0228 51.0259 16.9811 51.1509 17.0645 51.2342C17.2311 51.5675 17.5645 51.8592 18.0645 52.1092C18.6478 52.3592 19.2728 52.5675 19.9395 52.7342C20.6895 52.8175 21.3978 52.9425 22.0645 53.1092C22.7311 53.1925 23.2311 53.2759 23.5645 53.3592C23.9811 53.5259 24.3145 53.6925 24.5645 53.8592C24.8978 54.0259 25.2728 54.1925 25.6895 54.3592C26.1061 54.4425 26.4811 54.4842 26.8145 54.4842C27.1478 54.4009 27.5228 54.4425 27.9395 54.6092C28.8561 54.7759 29.6895 55.0259 30.4395 55.3592C31.2728 55.6092 32.1478 55.8175 33.0645 55.9842C33.3145 56.0675 33.5645 56.0675 33.8145 55.9842C34.1478 55.9009 34.4395 55.9009 34.6895 55.9842C35.9395 56.4009 36.8561 56.5675 37.4395 56.4842C38.1061 56.4009 38.7311 56.4425 39.3145 56.6092C39.7311 56.6925 40.0645 56.8175 40.3145 56.9842C40.5645 57.0675 40.8561 57.1925 41.1895 57.3592C42.1895 57.6925 43.4395 58.0675 44.9395 58.4842C46.5228 58.9009 47.6061 59.5259 48.1895 60.3592C48.8561 60.4425 49.3978 60.6509 49.8145 60.9842C50.2311 61.3175 50.7728 61.5675 51.4395 61.7342C51.6895 62.3175 51.9811 62.7759 52.3145 63.1092C52.7311 63.4425 53.1478 63.8592 53.5645 64.3592C54.2311 65.6925 54.6478 66.7342 54.8145 67.4842C54.9811 68.2342 55.1061 69.0259 55.1895 69.8592C55.3561 70.9425 55.3561 71.6092 55.1895 71.8592C55.1061 72.0259 55.0228 72.2342 54.9395 72.4842C54.8561 72.8175 54.8561 73.1509 54.9395 73.4842C55.0228 73.8175 55.0228 74.1925 54.9395 74.6092C54.9395 74.8592 54.8561 75.3592 54.6895 76.1092C54.5228 76.7759 54.3561 77.5259 54.1895 78.3592C54.0228 79.1092 53.8145 79.8592 53.5645 80.6092C53.3145 81.2759 53.1478 81.7342 53.0645 81.9842C52.6478 82.4009 52.4811 82.7342 52.5645 82.9842C52.6478 83.2342 52.6061 83.4425 52.4395 83.6092C51.7728 84.4425 51.3145 85.1092 51.0645 85.6092C50.8145 86.0259 50.4811 86.3175 50.0645 86.4842C50.1478 86.8175 50.1061 87.0675 49.9395 87.2342C49.7728 87.3175 49.7311 87.5259 49.8145 87.8592C49.0645 88.6092 48.4395 89.0675 47.9395 89.2342C47.5228 89.4009 47.2311 89.5675 47.0645 89.7342L45.9395 90.6092C44.6895 90.6925 43.8561 90.8592 43.4395 91.1092C43.0228 91.2759 42.6061 91.4425 42.1895 91.6092C41.0228 91.8592 39.8145 92.0259 38.5645 92.1092C37.3978 92.1092 36.3561 92.4009 35.4395 92.9842C34.9395 92.6509 34.3561 92.6092 33.6895 92.8592C33.0228 93.1092 32.3561 93.1509 31.6895 92.9842C31.4395 93.6509 31.4811 94.4009 31.8145 95.2342C32.1478 96.0675 32.2728 96.6925 32.1895 97.1092C32.6061 98.1092 32.7728 98.7759 32.6895 99.1092C32.6061 99.4425 32.6478 99.8175 32.8145 100.234C33.0645 100.651 33.0645 101.526 32.8145 102.859C32.6478 104.109 32.4395 104.943 32.1895 105.359C31.6895 105.943 30.9811 106.234 30.0645 106.234C29.1478 106.234 28.4395 105.943 27.9395 105.359C27.9395 104.776 27.8978 104.193 27.8145 103.609C27.7311 102.943 27.8561 102.359 28.1895 101.859C27.9395 101.526 27.7728 101.276 27.6895 101.109C27.6895 100.859 27.6895 100.651 27.6895 100.484C27.7728 100.318 27.8145 100.151 27.8145 99.9842C27.8978 99.8175 27.9395 99.5675 27.9395 99.2342C27.9395 98.8175 27.8561 98.4842 27.6895 98.2342C27.6061 97.9009 27.5228 97.5259 27.4395 97.1092C27.3561 96.4425 27.3145 95.8175 27.3145 95.2342C27.3145 94.5675 27.2311 93.9009 27.0645 93.2342C26.8145 93.3175 26.4395 93.3175 25.9395 93.2342C25.5228 93.1509 25.2728 93.2342 25.1895 93.4842C24.4395 93.1509 23.8145 92.8175 23.3145 92.4842C22.8145 92.1509 22.1061 91.9842 21.1895 91.9842C20.7728 91.4842 20.0228 91.0675 18.9395 90.7342C17.8561 90.3175 16.9811 89.9842 16.3145 89.7342C15.8978 89.5675 15.4811 89.3592 15.0645 89.1092C14.7311 88.8592 14.3561 88.6509 13.9395 88.4842C13.5228 88.3175 13.1061 88.1925 12.6895 88.1092C12.2728 88.0259 11.8561 87.8592 11.4395 87.6092C11.1061 87.4425 10.8145 87.1925 10.5645 86.8592C10.3145 86.5259 9.98112 86.4009 9.56445 86.4842C9.39779 86.0675 9.14779 85.8175 8.81445 85.7342C8.56445 85.5675 8.27279 85.4009 7.93945 85.2342C7.52279 85.8175 7.31445 86.6509 7.31445 87.7342C7.39779 88.8175 7.52279 89.6925 7.68945 90.3592C7.77279 90.7759 7.98112 91.1092 8.31445 91.3592C8.64779 91.5259 8.81445 91.8175 8.81445 92.2342C8.48112 93.1509 8.10612 93.6925 7.68945 93.8592C7.35612 93.9425 7.14779 94.2759 7.06445 94.8592C6.64779 94.6925 6.18945 94.6092 5.68945 94.6092C5.27279 94.5259 4.85612 94.4425 4.43945 94.3592C4.27279 93.7759 4.02279 93.2342 3.68945 92.7342C3.35612 92.2342 3.14779 91.6925 3.06445 91.1092C2.89779 90.2759 2.89779 89.4842 3.06445 88.7342C3.31445 87.9842 3.39779 87.2342 3.31445 86.4842C3.23112 86.2342 3.14779 86.0259 3.06445 85.8592C3.06445 85.6092 2.89779 85.4009 2.56445 85.2342C2.89779 84.3175 2.85612 83.6925 2.43945 83.3592C2.10612 83.0259 1.85612 82.5675 1.68945 81.9842C1.52279 81.7342 1.43945 81.4425 1.43945 81.1092C1.52279 80.7759 1.52279 80.4425 1.43945 80.1092C1.43945 80.0259 1.35612 79.8175 1.18945 79.4842C1.10612 79.1509 1.02279 78.8175 0.939453 78.4842C0.85612 78.1509 0.772786 77.8592 0.689453 77.6092C0.689453 77.2759 0.772786 77.1092 0.939453 77.1092C0.85612 76.9425 0.73112 76.7342 0.564453 76.4842C0.48112 76.1509 0.439453 75.9009 0.439453 75.7342C0.439453 75.4842 0.48112 75.0259 0.564453 74.3592C0.73112 73.6092 0.897786 72.8175 1.06445 71.9842C1.23112 71.1509 1.43945 70.4009 1.68945 69.7342C1.93945 69.0675 2.14779 68.6509 2.31445 68.4842C2.56445 68.3175 2.73112 68.2759 2.81445 68.3592C2.89779 68.4425 3.14779 68.2759 3.56445 67.8592C3.98112 67.6925 4.35612 67.7342 4.68945 67.9842C5.02279 68.2342 5.39779 68.2759 5.81445 68.1092C6.14779 68.5259 6.35612 69.2342 6.43945 70.2342C6.52279 71.1509 6.64779 71.9009 6.81445 72.4842C6.64779 72.9009 6.73112 73.1092 7.06445 73.1092C7.39779 73.1092 7.60612 73.2759 7.68945 73.6092C7.77279 73.9425 7.85612 74.3592 7.93945 74.8592C8.02279 75.2759 8.27279 75.5675 8.68945 75.7342C8.60612 76.1509 8.60612 76.6092 8.68945 77.1092C8.77279 77.6092 8.98112 77.9425 9.31445 78.1092C9.23112 78.7759 9.35612 79.3175 9.68945 79.7342C10.0228 80.1509 10.2728 80.5259 10.4395 80.8592C10.8561 81.6925 11.4395 82.3592 12.1895 82.8592C12.9395 83.3592 13.6061 83.9425 14.1895 84.6092C15.0228 84.7759 15.7311 85.1092 16.3145 85.6092C16.8978 86.0259 17.5228 86.4425 18.1895 86.8592C19.2728 86.8592 20.1061 87.1925 20.6895 87.8592C21.3561 87.6925 22.2311 87.8592 23.3145 88.3592C24.4811 88.8592 25.1061 89.2342 25.1895 89.4842C25.6061 89.3175 26.0645 89.2759 26.5645 89.3592C27.1478 89.4425 27.6895 89.4842 28.1895 89.4842C29.1061 89.3175 29.7311 89.2759 30.0645 89.3592C30.3978 89.4425 30.7728 89.4009 31.1895 89.2342C31.3561 89.1509 31.6895 89.1509 32.1895 89.2342C32.7728 89.2342 33.3561 89.2342 33.9395 89.2342C34.5228 89.2342 35.0228 89.1925 35.4395 89.1092C35.8561 88.9425 36.0645 88.7342 36.0645 88.4842C36.2311 88.6509 36.5228 88.6925 36.9395 88.6092C37.4395 88.5259 37.7728 88.4425 37.9395 88.3592C38.9395 87.9425 39.5228 87.7342 39.6895 87.7342C39.8561 87.7342 40.0228 87.7342 40.1895 87.7342C40.3561 87.7342 40.5228 87.6509 40.6895 87.4842C40.9395 87.3175 41.2728 86.9842 41.6895 86.4842C41.8561 85.5675 42.1061 84.9425 42.4395 84.6092C42.7728 84.2759 42.8978 83.8175 42.8145 83.2342C42.4811 82.4009 42.3561 81.9425 42.4395 81.8592C42.6061 81.6925 42.6478 81.5259 42.5645 81.3592C42.5645 80.1925 42.4395 78.9842 42.1895 77.7342C41.9395 76.4842 41.7728 75.2759 41.6895 74.1092C41.6895 73.7759 41.6895 73.4842 41.6895 73.2342C41.7728 72.9009 41.7728 72.5675 41.6895 72.2342C41.2728 71.2342 41.0645 70.5259 41.0645 70.1092C41.0645 69.6092 40.9811 69.1509 40.8145 68.7342C40.1478 67.7342 39.7311 66.9009 39.5645 66.2342C39.4811 65.4842 39.1895 65.0675 38.6895 64.9842C38.7728 64.1509 38.6061 63.5259 38.1895 63.1092C37.8561 62.6925 37.6895 62.1092 37.6895 61.3592C36.9395 60.9425 35.8978 60.5259 34.5645 60.1092C33.2311 59.6925 32.1061 59.4009 31.1895 59.2342C30.7728 59.1509 30.3145 59.1509 29.8145 59.2342C29.3978 59.3175 28.9395 59.3175 28.4395 59.2342C27.7728 59.0675 27.2311 58.8592 26.8145 58.6092C26.4811 58.2759 26.0228 58.0259 25.4395 57.8592C24.8561 57.6925 24.2728 57.6092 23.6895 57.6092C23.1895 57.6092 22.6895 57.5259 22.1895 57.3592C21.7728 57.1925 21.4395 57.0259 21.1895 56.8592C20.9395 56.6925 20.6478 56.5259 20.3145 56.3592C19.9811 56.2759 19.6478 56.2759 19.3145 56.3592C19.0645 56.4425 18.7728 56.4425 18.4395 56.3592C17.5228 56.0259 16.8978 55.9009 16.5645 55.9842C16.3145 56.0675 16.0645 56.0675 15.8145 55.9842C15.5645 55.9009 15.3145 55.7759 15.0645 55.6092C14.8978 55.4425 14.6895 55.3175 14.4395 55.2342C14.1895 55.1509 13.8978 55.1092 13.5645 55.1092C13.3145 55.0259 13.0645 54.9009 12.8145 54.7342C12.0645 54.4842 11.6895 54.3175 11.6895 54.2342C11.7728 54.0675 11.7728 53.9425 11.6895 53.8592C11.5228 53.6925 11.2311 53.6092 10.8145 53.6092C10.4811 53.5259 10.2311 53.4425 10.0645 53.3592C8.73112 52.1925 7.43945 51.0259 6.18945 49.8592C5.02279 48.6092 3.81445 47.3592 2.56445 46.1092C2.56445 46.0259 2.52279 45.8175 2.43945 45.4842C2.43945 45.0675 2.39779 44.6925 2.31445 44.3592C2.31445 43.9425 2.27279 43.5675 2.18945 43.2342C2.10612 42.8175 2.06445 42.5675 2.06445 42.4842C1.81445 41.6509 1.73112 41.1925 1.81445 41.1092C1.89779 40.9425 1.93945 40.7759 1.93945 40.6092C1.77279 39.6092 1.73112 39.0259 1.81445 38.8592C1.98112 38.6925 2.06445 38.4842 2.06445 38.2342C2.14779 37.8175 2.10612 37.4842 1.93945 37.2342C1.85612 36.9842 1.89779 36.6092 2.06445 36.1092C2.56445 35.2759 2.77279 34.6509 2.68945 34.2342C2.68945 33.7342 2.73112 33.2759 2.81445 32.8592C2.81445 32.7759 2.85612 32.5259 2.93945 32.1092C3.10612 31.6092 3.23112 31.0675 3.31445 30.4842C3.48112 29.9009 3.60612 29.4009 3.68945 28.9842C3.85612 28.4842 3.93945 28.2342 3.93945 28.2342C4.35612 27.4842 4.60612 27.0675 4.68945 26.9842C4.85612 26.9009 5.02279 26.7759 5.18945 26.6092C5.35612 26.3592 5.52279 26.1092 5.68945 25.8592C5.85612 25.5259 6.06445 25.2342 6.31445 24.9842C6.73112 24.4842 7.18945 24.0259 7.68945 23.6092C8.18945 23.1925 8.64779 22.7342 9.06445 22.2342C9.89779 21.9009 10.4395 21.6925 10.6895 21.6092C11.0228 21.4425 11.2728 21.1509 11.4395 20.7342C12.3561 20.4009 12.8561 20.2759 12.9395 20.3592C13.0228 20.3592 13.1478 20.3592 13.3145 20.3592C13.7311 19.8592 14.1061 19.6509 14.4395 19.7342C14.7728 19.7342 15.1061 19.6925 15.4395 19.6092C16.1061 19.4425 16.8145 19.1925 17.5645 18.8592C18.3145 18.5259 19.0645 18.4842 19.8145 18.7342C20.5645 18.4009 20.9811 18.2342 21.0645 18.2342C21.2311 18.1509 21.3561 18.0675 21.4395 17.9842C21.7728 17.9842 22.0645 18.0259 22.3145 18.1092C22.6478 18.1925 22.8978 18.2342 23.0645 18.2342C23.8978 17.8175 24.3978 17.6509 24.5645 17.7342C24.8145 17.7342 25.0228 17.6509 25.1895 17.4842C25.1895 16.1509 25.2311 14.8175 25.3145 13.4842C25.4811 12.0675 25.4395 10.6925 25.1895 9.35919C25.1061 8.19253 25.1478 7.48419 25.3145 7.23419C25.5645 6.90086 25.5228 6.44253 25.1895 5.85919C25.1895 5.10919 25.2311 4.35919 25.3145 3.60919C25.3978 2.85919 25.5645 2.23419 25.8145 1.73419C26.1478 1.23419 26.6061 0.900859 27.1895 0.734192C27.7728 0.567525 28.5645 0.734192 29.5645 1.23419ZM10.0645 28.2342C9.56445 28.6509 9.31445 29.0259 9.31445 29.3592C9.31445 29.6925 9.10612 29.8592 8.68945 29.8592C8.52279 30.5259 8.35612 31.0259 8.18945 31.3592C8.02279 31.6925 7.77279 32.1092 7.43945 32.6092C7.68945 33.5259 7.60612 34.4425 7.18945 35.3592C6.77279 36.1925 6.73112 37.0675 7.06445 37.9842C6.81445 38.1509 6.60612 38.6925 6.43945 39.6092C6.27279 40.4425 6.23112 40.9842 6.31445 41.2342C6.31445 41.5675 6.39779 41.8592 6.56445 42.1092C6.73112 42.2759 6.89779 42.4842 7.06445 42.7342C7.14779 43.7342 7.31445 44.4009 7.56445 44.7342C7.81445 44.9842 7.85612 45.3175 7.68945 45.7342C7.93945 45.9009 8.23112 46.1509 8.56445 46.4842C8.89779 46.8175 9.23112 47.1509 9.56445 47.4842C9.98112 47.8175 10.3145 48.1092 10.5645 48.3592C10.8978 48.6092 11.1895 48.7342 11.4395 48.7342C11.7728 48.4009 11.8561 48.0675 11.6895 47.7342C11.5228 47.4009 11.3561 47.0259 11.1895 46.6092C11.5228 45.6925 11.5645 44.5259 11.3145 43.1092C11.0645 41.6925 10.7311 40.5259 10.3145 39.6092C10.3145 37.9425 10.3145 36.6092 10.3145 35.6092C10.3978 34.6092 10.5228 33.6509 10.6895 32.7342C10.9395 31.8175 11.1061 30.9009 11.1895 29.9842C11.3561 29.0675 11.3561 28.1092 11.1895 27.1092C10.5228 27.2759 10.1895 27.4842 10.1895 27.7342C10.1895 27.9009 10.1478 28.0675 10.0645 28.2342ZM46.0645 74.6092C46.0645 76.0259 46.1895 77.4842 46.4395 78.9842C46.6895 80.4842 46.8978 81.9425 47.0645 83.3592C47.8145 82.6092 48.3561 82.0675 48.6895 81.7342C48.8561 80.4842 49.3145 79.4842 50.0645 78.7342C50.1478 77.5675 50.3561 76.4009 50.6895 75.2342C51.1061 73.9842 51.2728 72.7759 51.1895 71.6092C51.1895 70.9425 51.0228 70.2759 50.6895 69.6092C50.4395 68.9425 50.3978 68.2759 50.5645 67.6092C50.1478 67.0259 49.6895 66.5259 49.1895 66.1092C48.6895 65.6925 48.2728 65.1925 47.9395 64.6092C47.8561 64.6092 47.5645 64.4842 47.0645 64.2342C46.5645 63.9842 46.0228 63.7342 45.4395 63.4842C44.9395 63.1509 44.4395 62.8592 43.9395 62.6092C43.4395 62.2759 43.1478 62.0675 43.0645 61.9842C42.3978 62.8175 42.2311 63.5675 42.5645 64.2342C42.8978 64.8175 43.2311 65.4842 43.5645 66.2342C43.8978 67.1509 44.2311 67.7759 44.5645 68.1092C44.8978 68.4425 45.1895 68.9842 45.4395 69.7342C45.6061 70.1509 45.6478 70.5675 45.5645 70.9842C45.4811 71.4009 45.5228 71.8175 45.6895 72.2342C45.6895 72.4009 45.7728 72.6509 45.9395 72.9842C46.1061 73.2342 46.1478 73.4425 46.0645 73.6092V74.6092Z" fill="#FF0000"/>
<path d="M29.5645 1.23419C29.3978 2.06753 29.3561 2.90086 29.4395 3.73419C29.5228 4.48419 29.5645 5.27586 29.5645 6.10919C29.5645 6.35919 29.5228 6.60919 29.4395 6.85919C29.3561 7.10919 29.3145 7.31753 29.3145 7.48419C29.3978 7.90086 29.4811 8.27586 29.5645 8.60919C29.7311 8.85919 29.8145 9.19253 29.8145 9.60919C29.8145 10.1092 29.8561 10.6509 29.9395 11.2342C30.0228 11.7342 30.0645 12.1925 30.0645 12.6092C29.9811 13.2759 29.7728 14.0259 29.4395 14.8592C29.1061 15.6925 29.1478 16.4425 29.5645 17.1092C29.8145 17.5259 30.4811 17.7342 31.5645 17.7342C32.6478 17.7342 33.3978 17.6509 33.8145 17.4842C34.2311 17.9842 34.7728 18.3175 35.4395 18.4842C36.1895 18.6509 36.8978 18.7342 37.5645 18.7342C37.8978 19.1509 38.6061 19.5675 39.6895 19.9842C40.8561 20.3175 41.6895 20.6509 42.1895 20.9842C42.7728 21.8175 43.1478 22.2342 43.3145 22.2342C43.4811 22.2342 43.6478 22.3175 43.8145 22.4842C44.0645 22.6509 44.2728 22.9009 44.4395 23.2342C44.6895 23.5675 45.0228 23.7759 45.4395 23.8592C45.3561 24.1925 45.3561 24.4425 45.4395 24.6092C45.6061 24.6925 45.7728 24.9009 45.9395 25.2342C46.3561 25.4009 46.6061 25.6925 46.6895 26.1092C46.8561 26.4425 47.0645 26.7759 47.3145 27.1092C47.5645 27.3592 47.8561 27.5675 48.1895 27.7342C48.5228 27.9009 48.7728 28.1509 48.9395 28.4842C49.1061 26.7342 49.2311 24.9842 49.3145 23.2342C49.3978 21.4842 49.3561 19.7342 49.1895 17.9842C49.6061 17.4842 50.0228 17.1092 50.4395 16.8592C50.9395 16.5259 51.5228 16.4425 52.1895 16.6092C52.7728 17.0259 53.0645 17.3592 53.0645 17.6092C53.0645 17.7759 53.1478 17.8175 53.3145 17.7342C53.3145 18.2342 53.2728 18.9009 53.1895 19.7342C53.1061 20.5675 53.0228 21.4009 52.9395 22.2342C52.8561 23.0675 52.8145 23.8592 52.8145 24.6092C52.8978 25.3592 53.0645 25.9425 53.3145 26.3592C53.1478 27.5259 53.1895 28.3592 53.4395 28.8592C53.6895 29.2759 53.8145 29.7759 53.8145 30.3592C53.8145 31.0259 53.6478 31.6092 53.3145 32.1092C53.0645 32.6092 52.8978 33.1925 52.8145 33.8592C52.8145 34.1092 52.8561 34.3592 52.9395 34.6092C53.0228 34.8592 53.0645 35.1509 53.0645 35.4842C52.8978 36.7342 52.8561 37.6509 52.9395 38.2342C53.1061 38.7342 53.0645 39.1925 52.8145 39.6092C52.1478 39.8592 51.4811 40.0675 50.8145 40.2342C50.2311 40.3175 49.6061 40.2759 48.9395 40.1092C48.6895 39.8592 48.4811 39.6092 48.3145 39.3592C48.1478 39.0259 47.9395 38.7342 47.6895 38.4842C47.4395 38.1509 47.4811 37.9009 47.8145 37.7342C48.2311 37.4842 48.3561 37.1092 48.1895 36.6092C47.9395 35.1092 47.3561 33.8175 46.4395 32.7342C45.6061 31.6509 44.7311 30.5259 43.8145 29.3592L42.8145 27.9842C42.4811 27.5675 42.1061 27.1925 41.6895 26.8592C41.2728 26.4425 40.9811 25.9842 40.8145 25.4842C40.3978 25.4842 40.0645 25.3175 39.8145 24.9842C39.5645 24.5675 39.2728 24.2759 38.9395 24.1092C38.6895 24.0259 38.2311 23.8592 37.5645 23.6092C36.8978 23.3592 36.1478 23.1509 35.3145 22.9842C34.5645 22.7342 33.8145 22.5259 33.0645 22.3592C32.3978 22.1092 31.9395 21.9842 31.6895 21.9842C31.1895 21.9009 30.6895 21.9425 30.1895 22.1092C29.7728 22.1925 29.3561 22.2342 28.9395 22.2342C27.9395 21.9009 27.3145 21.7759 27.0645 21.8592C26.8145 21.9425 26.5645 21.9842 26.3145 21.9842C25.6478 21.9842 25.0645 21.9425 24.5645 21.8592C24.0645 21.7759 23.4811 21.9842 22.8145 22.4842C21.6478 22.3175 20.6061 22.4009 19.6895 22.7342C18.7728 22.9842 17.7311 23.1925 16.5645 23.3592C16.4811 23.6092 16.4811 23.8592 16.5645 24.1092C16.7311 24.3592 16.7311 24.5675 16.5645 24.7342C16.3145 25.2342 16.1061 25.7342 15.9395 26.2342C15.8561 26.7342 15.7311 27.2342 15.5645 27.7342C15.7311 27.9009 15.6895 28.1925 15.4395 28.6092C15.2728 28.9425 15.1895 29.1925 15.1895 29.3592C15.1061 29.6925 15.1061 30.0259 15.1895 30.3592C15.3561 30.6092 15.4395 30.9009 15.4395 31.2342C15.3561 31.4842 15.2311 31.7342 15.0645 31.9842C14.9811 32.2342 14.9395 32.4425 14.9395 32.6092C14.7728 33.5259 14.7728 34.4009 14.9395 35.2342C15.1061 36.0675 15.1895 36.9009 15.1895 37.7342C15.1895 37.9842 15.1478 38.2342 15.0645 38.4842C14.9811 38.7342 14.9395 38.9842 14.9395 39.2342C14.9395 39.5675 14.9811 39.9009 15.0645 40.2342C15.2311 40.5675 15.3561 40.9009 15.4395 41.2342C15.5228 41.8175 15.5645 42.4842 15.5645 43.2342C15.5645 43.9842 15.8145 44.5675 16.3145 44.9842C16.1478 45.1509 16.0645 45.4009 16.0645 45.7342C16.0645 45.9842 15.9811 46.1925 15.8145 46.3592C15.9811 47.0259 16.1895 47.6092 16.4395 48.1092C16.6895 48.5259 16.7311 49.1092 16.5645 49.8592C17.1478 50.3592 17.3561 50.6925 17.1895 50.8592C17.0228 51.0259 16.9811 51.1509 17.0645 51.2342C17.2311 51.5675 17.5645 51.8592 18.0645 52.1092C18.6478 52.3592 19.2728 52.5675 19.9395 52.7342C20.6895 52.8175 21.3978 52.9425 22.0645 53.1092C22.7311 53.1925 23.2311 53.2759 23.5645 53.3592C23.9811 53.5259 24.3145 53.6925 24.5645 53.8592C24.8978 54.0259 25.2728 54.1925 25.6895 54.3592C26.1061 54.4425 26.4811 54.4842 26.8145 54.4842C27.1478 54.4009 27.5228 54.4425 27.9395 54.6092C28.8561 54.7759 29.6895 55.0259 30.4395 55.3592C31.2728 55.6092 32.1478 55.8175 33.0645 55.9842C33.3145 56.0675 33.5645 56.0675 33.8145 55.9842C34.1478 55.9009 34.4395 55.9009 34.6895 55.9842C35.9395 56.4009 36.8561 56.5675 37.4395 56.4842C38.1061 56.4009 38.7311 56.4425 39.3145 56.6092C39.7311 56.6925 40.0645 56.8175 40.3145 56.9842C40.5645 57.0675 40.8561 57.1925 41.1895 57.3592C42.1895 57.6925 43.4395 58.0675 44.9395 58.4842C46.5228 58.9009 47.6061 59.5259 48.1895 60.3592C48.8561 60.4425 49.3978 60.6509 49.8145 60.9842C50.2311 61.3175 50.7728 61.5675 51.4395 61.7342C51.6895 62.3175 51.9811 62.7759 52.3145 63.1092C52.7311 63.4425 53.1478 63.8592 53.5645 64.3592C54.2311 65.6925 54.6478 66.7342 54.8145 67.4842C54.9811 68.2342 55.1061 69.0259 55.1895 69.8592C55.3561 70.9425 55.3561 71.6092 55.1895 71.8592C55.1061 72.0259 55.0228 72.2342 54.9395 72.4842C54.8561 72.8175 54.8561 73.1509 54.9395 73.4842C55.0228 73.8175 55.0228 74.1925 54.9395 74.6092C54.9395 74.8592 54.8561 75.3592 54.6895 76.1092C54.5228 76.7759 54.3561 77.5259 54.1895 78.3592C54.0228 79.1092 53.8145 79.8592 53.5645 80.6092C53.3145 81.2759 53.1478 81.7342 53.0645 81.9842C52.6478 82.4009 52.4811 82.7342 52.5645 82.9842C52.6478 83.2342 52.6061 83.4425 52.4395 83.6092C51.7728 84.4425 51.3145 85.1092 51.0645 85.6092C50.8145 86.0259 50.4811 86.3175 50.0645 86.4842C50.1478 86.8175 50.1061 87.0675 49.9395 87.2342C49.7728 87.3175 49.7311 87.5259 49.8145 87.8592C49.0645 88.6092 48.4395 89.0675 47.9395 89.2342C47.5228 89.4009 47.2311 89.5675 47.0645 89.7342L45.9395 90.6092C44.6895 90.6925 43.8561 90.8592 43.4395 91.1092C43.0228 91.2759 42.6061 91.4425 42.1895 91.6092C41.0228 91.8592 39.8145 92.0259 38.5645 92.1092C37.3978 92.1092 36.3561 92.4009 35.4395 92.9842C34.9395 92.6509 34.3561 92.6092 33.6895 92.8592C33.0228 93.1092 32.3561 93.1509 31.6895 92.9842C31.4395 93.6509 31.4811 94.4009 31.8145 95.2342C32.1478 96.0675 32.2728 96.6925 32.1895 97.1092C32.6061 98.1092 32.7728 98.7759 32.6895 99.1092C32.6061 99.4425 32.6478 99.8175 32.8145 100.234C33.0645 100.651 33.0645 101.526 32.8145 102.859C32.6478 104.109 32.4395 104.943 32.1895 105.359C31.6895 105.943 30.9811 106.234 30.0645 106.234C29.1478 106.234 28.4395 105.943 27.9395 105.359C27.9395 104.776 27.8978 104.193 27.8145 103.609C27.7311 102.943 27.8561 102.359 28.1895 101.859C27.9395 101.526 27.7728 101.276 27.6895 101.109C27.6895 100.859 27.6895 100.651 27.6895 100.484C27.7728 100.318 27.8145 100.151 27.8145 99.9842C27.8978 99.8175 27.9395 99.5675 27.9395 99.2342C27.9395 98.8175 27.8561 98.4842 27.6895 98.2342C27.6061 97.9009 27.5228 97.5259 27.4395 97.1092C27.3561 96.4425 27.3145 95.8175 27.3145 95.2342C27.3145 94.5675 27.2311 93.9009 27.0645 93.2342C26.8145 93.3175 26.4395 93.3175 25.9395 93.2342C25.5228 93.1509 25.2728 93.2342 25.1895 93.4842C24.4395 93.1509 23.8145 92.8175 23.3145 92.4842C22.8145 92.1509 22.1061 91.9842 21.1895 91.9842C20.7728 91.4842 20.0228 91.0675 18.9395 90.7342C17.8561 90.3175 16.9811 89.9842 16.3145 89.7342C15.8978 89.5675 15.4811 89.3592 15.0645 89.1092C14.7311 88.8592 14.3561 88.6509 13.9395 88.4842C13.5228 88.3175 13.1061 88.1925 12.6895 88.1092C12.2728 88.0259 11.8561 87.8592 11.4395 87.6092C11.1061 87.4425 10.8145 87.1925 10.5645 86.8592C10.3145 86.5259 9.98112 86.4009 9.56445 86.4842C9.39779 86.0675 9.14779 85.8175 8.81445 85.7342C8.56445 85.5675 8.27279 85.4009 7.93945 85.2342C7.52279 85.8175 7.31445 86.6509 7.31445 87.7342C7.39779 88.8175 7.52279 89.6925 7.68945 90.3592C7.77279 90.7759 7.98112 91.1092 8.31445 91.3592C8.64779 91.5259 8.81445 91.8175 8.81445 92.2342C8.48112 93.1509 8.10612 93.6925 7.68945 93.8592C7.35612 93.9425 7.14779 94.2759 7.06445 94.8592C6.64779 94.6925 6.18945 94.6092 5.68945 94.6092C5.27279 94.5259 4.85612 94.4425 4.43945 94.3592C4.27279 93.7759 4.02279 93.2342 3.68945 92.7342C3.35612 92.2342 3.14779 91.6925 3.06445 91.1092C2.89779 90.2759 2.89779 89.4842 3.06445 88.7342C3.31445 87.9842 3.39779 87.2342 3.31445 86.4842C3.23112 86.2342 3.14779 86.0259 3.06445 85.8592C3.06445 85.6092 2.89779 85.4009 2.56445 85.2342C2.89779 84.3175 2.85612 83.6925 2.43945 83.3592C2.10612 83.0259 1.85612 82.5675 1.68945 81.9842C1.52279 81.7342 1.43945 81.4425 1.43945 81.1092C1.52279 80.7759 1.52279 80.4425 1.43945 80.1092C1.43945 80.0259 1.35612 79.8175 1.18945 79.4842C1.10612 79.1509 1.02279 78.8175 0.939453 78.4842C0.85612 78.1509 0.772786 77.8592 0.689453 77.6092C0.689453 77.2759 0.772786 77.1092 0.939453 77.1092C0.85612 76.9425 0.73112 76.7342 0.564453 76.4842C0.48112 76.1509 0.439453 75.9009 0.439453 75.7342C0.439453 75.4842 0.48112 75.0259 0.564453 74.3592C0.73112 73.6092 0.897786 72.8175 1.06445 71.9842C1.23112 71.1509 1.43945 70.4009 1.68945 69.7342C1.93945 69.0675 2.14779 68.6509 2.31445 68.4842C2.56445 68.3175 2.73112 68.2759 2.81445 68.3592C2.89779 68.4425 3.14779 68.2759 3.56445 67.8592C3.98112 67.6925 4.35612 67.7342 4.68945 67.9842C5.02279 68.2342 5.39779 68.2759 5.81445 68.1092C6.14779 68.5259 6.35612 69.2342 6.43945 70.2342C6.52279 71.1509 6.64779 71.9009 6.81445 72.4842C6.64779 72.9009 6.73112 73.1092 7.06445 73.1092C7.39779 73.1092 7.60612 73.2759 7.68945 73.6092C7.77279 73.9425 7.85612 74.3592 7.93945 74.8592C8.02279 75.2759 8.27279 75.5675 8.68945 75.7342C8.60612 76.1509 8.60612 76.6092 8.68945 77.1092C8.77279 77.6092 8.98112 77.9425 9.31445 78.1092C9.23112 78.7759 9.35612 79.3175 9.68945 79.7342C10.0228 80.1509 10.2728 80.5259 10.4395 80.8592C10.8561 81.6925 11.4395 82.3592 12.1895 82.8592C12.9395 83.3592 13.6061 83.9425 14.1895 84.6092C15.0228 84.7759 15.7311 85.1092 16.3145 85.6092C16.8978 86.0259 17.5228 86.4425 18.1895 86.8592C19.2728 86.8592 20.1061 87.1925 20.6895 87.8592C21.3561 87.6925 22.2311 87.8592 23.3145 88.3592C24.4811 88.8592 25.1061 89.2342 25.1895 89.4842C25.6061 89.3175 26.0645 89.2759 26.5645 89.3592C27.1478 89.4425 27.6895 89.4842 28.1895 89.4842C29.1061 89.3175 29.7311 89.2759 30.0645 89.3592C30.3978 89.4425 30.7728 89.4009 31.1895 89.2342C31.3561 89.1509 31.6895 89.1509 32.1895 89.2342C32.7728 89.2342 33.3561 89.2342 33.9395 89.2342C34.5228 89.2342 35.0228 89.1925 35.4395 89.1092C35.8561 88.9425 36.0645 88.7342 36.0645 88.4842C36.2311 88.6509 36.5228 88.6925 36.9395 88.6092C37.4395 88.5259 37.7728 88.4425 37.9395 88.3592C38.9395 87.9425 39.5228 87.7342 39.6895 87.7342C39.8561 87.7342 40.0228 87.7342 40.1895 87.7342C40.3561 87.7342 40.5228 87.6509 40.6895 87.4842C40.9395 87.3175 41.2728 86.9842 41.6895 86.4842C41.8561 85.5675 42.1061 84.9425 42.4395 84.6092C42.7728 84.2759 42.8978 83.8175 42.8145 83.2342C42.4811 82.4009 42.3561 81.9425 42.4395 81.8592C42.6061 81.6925 42.6478 81.5259 42.5645 81.3592C42.5645 80.1925 42.4395 78.9842 42.1895 77.7342C41.9395 76.4842 41.7728 75.2759 41.6895 74.1092C41.6895 73.7759 41.6895 73.4842 41.6895 73.2342C41.7728 72.9009 41.7728 72.5675 41.6895 72.2342C41.2728 71.2342 41.0645 70.5259 41.0645 70.1092C41.0645 69.6092 40.9811 69.1509 40.8145 68.7342C40.1478 67.7342 39.7311 66.9009 39.5645 66.2342C39.4811 65.4842 39.1895 65.0675 38.6895 64.9842C38.7728 64.1509 38.6061 63.5259 38.1895 63.1092C37.8561 62.6925 37.6895 62.1092 37.6895 61.3592C36.9395 60.9425 35.8978 60.5259 34.5645 60.1092C33.2311 59.6925 32.1061 59.4009 31.1895 59.2342C30.7728 59.1509 30.3145 59.1509 29.8145 59.2342C29.3978 59.3175 28.9395 59.3175 28.4395 59.2342C27.7728 59.0675 27.2311 58.8592 26.8145 58.6092C26.4811 58.2759 26.0228 58.0259 25.4395 57.8592C24.8561 57.6925 24.2728 57.6092 23.6895 57.6092C23.1895 57.6092 22.6895 57.5259 22.1895 57.3592C21.7728 57.1925 21.4395 57.0259 21.1895 56.8592C20.9395 56.6925 20.6478 56.5259 20.3145 56.3592C19.9811 56.2759 19.6478 56.2759 19.3145 56.3592C19.0645 56.4425 18.7728 56.4425 18.4395 56.3592C17.5228 56.0259 16.8978 55.9009 16.5645 55.9842C16.3145 56.0675 16.0645 56.0675 15.8145 55.9842C15.5645 55.9009 15.3145 55.7759 15.0645 55.6092C14.8978 55.4425 14.6895 55.3175 14.4395 55.2342C14.1895 55.1509 13.8978 55.1092 13.5645 55.1092C13.3145 55.0259 13.0645 54.9009 12.8145 54.7342C12.0645 54.4842 11.6895 54.3175 11.6895 54.2342C11.7728 54.0675 11.7728 53.9425 11.6895 53.8592C11.5228 53.6925 11.2311 53.6092 10.8145 53.6092C10.4811 53.5259 10.2311 53.4425 10.0645 53.3592C8.73112 52.1925 7.43945 51.0259 6.18945 49.8592C5.02279 48.6092 3.81445 47.3592 2.56445 46.1092C2.56445 46.0259 2.52279 45.8175 2.43945 45.4842C2.43945 45.0675 2.39779 44.6925 2.31445 44.3592C2.31445 43.9425 2.27279 43.5675 2.18945 43.2342C2.10612 42.8175 2.06445 42.5675 2.06445 42.4842C1.81445 41.6509 1.73112 41.1925 1.81445 41.1092C1.89779 40.9425 1.93945 40.7759 1.93945 40.6092C1.77279 39.6092 1.73112 39.0259 1.81445 38.8592C1.98112 38.6925 2.06445 38.4842 2.06445 38.2342C2.14779 37.8175 2.10612 37.4842 1.93945 37.2342C1.85612 36.9842 1.89779 36.6092 2.06445 36.1092C2.56445 35.2759 2.77279 34.6509 2.68945 34.2342C2.68945 33.7342 2.73112 33.2759 2.81445 32.8592C2.81445 32.7759 2.85612 32.5259 2.93945 32.1092C3.10612 31.6092 3.23112 31.0675 3.31445 30.4842C3.48112 29.9009 3.60612 29.4009 3.68945 28.9842C3.85612 28.4842 3.93945 28.2342 3.93945 28.2342C4.35612 27.4842 4.60612 27.0675 4.68945 26.9842C4.85612 26.9009 5.02279 26.7759 5.18945 26.6092C5.35612 26.3592 5.52279 26.1092 5.68945 25.8592C5.85612 25.5259 6.06445 25.2342 6.31445 24.9842C6.73112 24.4842 7.18945 24.0259 7.68945 23.6092C8.18945 23.1925 8.64779 22.7342 9.06445 22.2342C9.89779 21.9009 10.4395 21.6925 10.6895 21.6092C11.0228 21.4425 11.2728 21.1509 11.4395 20.7342C12.3561 20.4009 12.8561 20.2759 12.9395 20.3592C13.0228 20.3592 13.1478 20.3592 13.3145 20.3592C13.7311 19.8592 14.1061 19.6509 14.4395 19.7342C14.7728 19.7342 15.1061 19.6925 15.4395 19.6092C16.1061 19.4425 16.8145 19.1925 17.5645 18.8592C18.3145 18.5259 19.0645 18.4842 19.8145 18.7342C20.5645 18.4009 20.9811 18.2342 21.0645 18.2342C21.2311 18.1509 21.3561 18.0675 21.4395 17.9842C21.7728 17.9842 22.0645 18.0259 22.3145 18.1092C22.6478 18.1925 22.8978 18.2342 23.0645 18.2342C23.8978 17.8175 24.3978 17.6509 24.5645 17.7342C24.8145 17.7342 25.0228 17.6509 25.1895 17.4842C25.1895 16.1509 25.2311 14.8175 25.3145 13.4842C25.4811 12.0675 25.4395 10.6925 25.1895 9.35919C25.1061 8.19253 25.1478 7.48419 25.3145 7.23419C25.5645 6.90086 25.5228 6.44253 25.1895 5.85919C25.1895 5.10919 25.2311 4.35919 25.3145 3.60919C25.3978 2.85919 25.5645 2.23419 25.8145 1.73419C26.1478 1.23419 26.6061 0.900859 27.1895 0.734192C27.7728 0.567525 28.5645 0.734192 29.5645 1.23419ZM10.0645 28.2342C9.56445 28.6509 9.31445 29.0259 9.31445 29.3592C9.31445 29.6925 9.10612 29.8592 8.68945 29.8592C8.52279 30.5259 8.35612 31.0259 8.18945 31.3592C8.02279 31.6925 7.77279 32.1092 7.43945 32.6092C7.68945 33.5259 7.60612 34.4425 7.18945 35.3592C6.77279 36.1925 6.73112 37.0675 7.06445 37.9842C6.81445 38.1509 6.60612 38.6925 6.43945 39.6092C6.27279 40.4425 6.23112 40.9842 6.31445 41.2342C6.31445 41.5675 6.39779 41.8592 6.56445 42.1092C6.73112 42.2759 6.89779 42.4842 7.06445 42.7342C7.14779 43.7342 7.31445 44.4009 7.56445 44.7342C7.81445 44.9842 7.85612 45.3175 7.68945 45.7342C7.93945 45.9009 8.23112 46.1509 8.56445 46.4842C8.89779 46.8175 9.23112 47.1509 9.56445 47.4842C9.98112 47.8175 10.3145 48.1092 10.5645 48.3592C10.8978 48.6092 11.1895 48.7342 11.4395 48.7342C11.7728 48.4009 11.8561 48.0675 11.6895 47.7342C11.5228 47.4009 11.3561 47.0259 11.1895 46.6092C11.5228 45.6925 11.5645 44.5259 11.3145 43.1092C11.0645 41.6925 10.7311 40.5259 10.3145 39.6092C10.3145 37.9425 10.3145 36.6092 10.3145 35.6092C10.3978 34.6092 10.5228 33.6509 10.6895 32.7342C10.9395 31.8175 11.1061 30.9009 11.1895 29.9842C11.3561 29.0675 11.3561 28.1092 11.1895 27.1092C10.5228 27.2759 10.1895 27.4842 10.1895 27.7342C10.1895 27.9009 10.1478 28.0675 10.0645 28.2342ZM46.0645 74.6092C46.0645 76.0259 46.1895 77.4842 46.4395 78.9842C46.6895 80.4842 46.8978 81.9425 47.0645 83.3592C47.8145 82.6092 48.3561 82.0675 48.6895 81.7342C48.8561 80.4842 49.3145 79.4842 50.0645 78.7342C50.1478 77.5675 50.3561 76.4009 50.6895 75.2342C51.1061 73.9842 51.2728 72.7759 51.1895 71.6092C51.1895 70.9425 51.0228 70.2759 50.6895 69.6092C50.4395 68.9425 50.3978 68.2759 50.5645 67.6092C50.1478 67.0259 49.6895 66.5259 49.1895 66.1092C48.6895 65.6925 48.2728 65.1925 47.9395 64.6092C47.8561 64.6092 47.5645 64.4842 47.0645 64.2342C46.5645 63.9842 46.0228 63.7342 45.4395 63.4842C44.9395 63.1509 44.4395 62.8592 43.9395 62.6092C43.4395 62.2759 43.1478 62.0675 43.0645 61.9842C42.3978 62.8175 42.2311 63.5675 42.5645 64.2342C42.8978 64.8175 43.2311 65.4842 43.5645 66.2342C43.8978 67.1509 44.2311 67.7759 44.5645 68.1092C44.8978 68.4425 45.1895 68.9842 45.4395 69.7342C45.6061 70.1509 45.6478 70.5675 45.5645 70.9842C45.4811 71.4009 45.5228 71.8175 45.6895 72.2342C45.6895 72.4009 45.7728 72.6509 45.9395 72.9842C46.1061 73.2342 46.1478 73.4425 46.0645 73.6092V74.6092Z" fill="#FF0000"/>
<path d="M29.5645 1.23419C29.3978 2.06753 29.3561 2.90086 29.4395 3.73419C29.5228 4.48419 29.5645 5.27586 29.5645 6.10919C29.5645 6.35919 29.5228 6.60919 29.4395 6.85919C29.3561 7.10919 29.3145 7.31753 29.3145 7.48419C29.3978 7.90086 29.4811 8.27586 29.5645 8.60919C29.7311 8.85919 29.8145 9.19253 29.8145 9.60919C29.8145 10.1092 29.8561 10.6509 29.9395 11.2342C30.0228 11.7342 30.0645 12.1925 30.0645 12.6092C29.9811 13.2759 29.7728 14.0259 29.4395 14.8592C29.1061 15.6925 29.1478 16.4425 29.5645 17.1092C29.8145 17.5259 30.4811 17.7342 31.5645 17.7342C32.6478 17.7342 33.3978 17.6509 33.8145 17.4842C34.2311 17.9842 34.7728 18.3175 35.4395 18.4842C36.1895 18.6509 36.8978 18.7342 37.5645 18.7342C37.8978 19.1509 38.6061 19.5675 39.6895 19.9842C40.8561 20.3175 41.6895 20.6509 42.1895 20.9842C42.7728 21.8175 43.1478 22.2342 43.3145 22.2342C43.4811 22.2342 43.6478 22.3175 43.8145 22.4842C44.0645 22.6509 44.2728 22.9009 44.4395 23.2342C44.6895 23.5675 45.0228 23.7759 45.4395 23.8592C45.3561 24.1925 45.3561 24.4425 45.4395 24.6092C45.6061 24.6925 45.7728 24.9009 45.9395 25.2342C46.3561 25.4009 46.6061 25.6925 46.6895 26.1092C46.8561 26.4425 47.0645 26.7759 47.3145 27.1092C47.5645 27.3592 47.8561 27.5675 48.1895 27.7342C48.5228 27.9009 48.7728 28.1509 48.9395 28.4842C49.1061 26.7342 49.2311 24.9842 49.3145 23.2342C49.3978 21.4842 49.3561 19.7342 49.1895 17.9842C49.6061 17.4842 50.0228 17.1092 50.4395 16.8592C50.9395 16.5259 51.5228 16.4425 52.1895 16.6092C52.7728 17.0259 53.0645 17.3592 53.0645 17.6092C53.0645 17.7759 53.1478 17.8175 53.3145 17.7342C53.3145 18.2342 53.2728 18.9009 53.1895 19.7342C53.1061 20.5675 53.0228 21.4009 52.9395 22.2342C52.8561 23.0675 52.8145 23.8592 52.8145 24.6092C52.8978 25.3592 53.0645 25.9425 53.3145 26.3592C53.1478 27.5259 53.1895 28.3592 53.4395 28.8592C53.6895 29.2759 53.8145 29.7759 53.8145 30.3592C53.8145 31.0259 53.6478 31.6092 53.3145 32.1092C53.0645 32.6092 52.8978 33.1925 52.8145 33.8592C52.8145 34.1092 52.8561 34.3592 52.9395 34.6092C53.0228 34.8592 53.0645 35.1509 53.0645 35.4842C52.8978 36.7342 52.8561 37.6509 52.9395 38.2342C53.1061 38.7342 53.0645 39.1925 52.8145 39.6092C52.1478 39.8592 51.4811 40.0675 50.8145 40.2342C50.2311 40.3175 49.6061 40.2759 48.9395 40.1092C48.6895 39.8592 48.4811 39.6092 48.3145 39.3592C48.1478 39.0259 47.9395 38.7342 47.6895 38.4842C47.4395 38.1509 47.4811 37.9009 47.8145 37.7342C48.2311 37.4842 48.3561 37.1092 48.1895 36.6092C47.9395 35.1092 47.3561 33.8175 46.4395 32.7342C45.6061 31.6509 44.7311 30.5259 43.8145 29.3592L42.8145 27.9842C42.4811 27.5675 42.1061 27.1925 41.6895 26.8592C41.2728 26.4425 40.9811 25.9842 40.8145 25.4842C40.3978 25.4842 40.0645 25.3175 39.8145 24.9842C39.5645 24.5675 39.2728 24.2759 38.9395 24.1092C38.6895 24.0259 38.2311 23.8592 37.5645 23.6092C36.8978 23.3592 36.1478 23.1509 35.3145 22.9842C34.5645 22.7342 33.8145 22.5259 33.0645 22.3592C32.3978 22.1092 31.9395 21.9842 31.6895 21.9842C31.1895 21.9009 30.6895 21.9425 30.1895 22.1092C29.7728 22.1925 29.3561 22.2342 28.9395 22.2342C27.9395 21.9009 27.3145 21.7759 27.0645 21.8592C26.8145 21.9425 26.5645 21.9842 26.3145 21.9842C25.6478 21.9842 25.0645 21.9425 24.5645 21.8592C24.0645 21.7759 23.4811 21.9842 22.8145 22.4842C21.6478 22.3175 20.6061 22.4009 19.6895 22.7342C18.7728 22.9842 17.7311 23.1925 16.5645 23.3592C16.4811 23.6092 16.4811 23.8592 16.5645 24.1092C16.7311 24.3592 16.7311 24.5675 16.5645 24.7342C16.3145 25.2342 16.1061 25.7342 15.9395 26.2342C15.8561 26.7342 15.7311 27.2342 15.5645 27.7342C15.7311 27.9009 15.6895 28.1925 15.4395 28.6092C15.2728 28.9425 15.1895 29.1925 15.1895 29.3592C15.1061 29.6925 15.1061 30.0259 15.1895 30.3592C15.3561 30.6092 15.4395 30.9009 15.4395 31.2342C15.3561 31.4842 15.2311 31.7342 15.0645 31.9842C14.9811 32.2342 14.9395 32.4425 14.9395 32.6092C14.7728 33.5259 14.7728 34.4009 14.9395 35.2342C15.1061 36.0675 15.1895 36.9009 15.1895 37.7342C15.1895 37.9842 15.1478 38.2342 15.0645 38.4842C14.9811 38.7342 14.9395 38.9842 14.9395 39.2342C14.9395 39.5675 14.9811 39.9009 15.0645 40.2342C15.2311 40.5675 15.3561 40.9009 15.4395 41.2342C15.5228 41.8175 15.5645 42.4842 15.5645 43.2342C15.5645 43.9842 15.8145 44.5675 16.3145 44.9842C16.1478 45.1509 16.0645 45.4009 16.0645 45.7342C16.0645 45.9842 15.9811 46.1925 15.8145 46.3592C15.9811 47.0259 16.1895 47.6092 16.4395 48.1092C16.6895 48.5259 16.7311 49.1092 16.5645 49.8592C17.1478 50.3592 17.3561 50.6925 17.1895 50.8592C17.0228 51.0259 16.9811 51.1509 17.0645 51.2342C17.2311 51.5675 17.5645 51.8592 18.0645 52.1092C18.6478 52.3592 19.2728 52.5675 19.9395 52.7342C20.6895 52.8175 21.3978 52.9425 22.0645 53.1092C22.7311 53.1925 23.2311 53.2759 23.5645 53.3592C23.9811 53.5259 24.3145 53.6925 24.5645 53.8592C24.8978 54.0259 25.2728 54.1925 25.6895 54.3592C26.1061 54.4425 26.4811 54.4842 26.8145 54.4842C27.1478 54.4009 27.5228 54.4425 27.9395 54.6092C28.8561 54.7759 29.6895 55.0259 30.4395 55.3592C31.2728 55.6092 32.1478 55.8175 33.0645 55.9842C33.3145 56.0675 33.5645 56.0675 33.8145 55.9842C34.1478 55.9009 34.4395 55.9009 34.6895 55.9842C35.9395 56.4009 36.8561 56.5675 37.4395 56.4842C38.1061 56.4009 38.7311 56.4425 39.3145 56.6092C39.7311 56.6925 40.0645 56.8175 40.3145 56.9842C40.5645 57.0675 40.8561 57.1925 41.1895 57.3592C42.1895 57.6925 43.4395 58.0675 44.9395 58.4842C46.5228 58.9009 47.6061 59.5259 48.1895 60.3592C48.8561 60.4425 49.3978 60.6509 49.8145 60.9842C50.2311 61.3175 50.7728 61.5675 51.4395 61.7342C51.6895 62.3175 51.9811 62.7759 52.3145 63.1092C52.7311 63.4425 53.1478 63.8592 53.5645 64.3592C54.2311 65.6925 54.6478 66.7342 54.8145 67.4842C54.9811 68.2342 55.1061 69.0259 55.1895 69.8592C55.3561 70.9425 55.3561 71.6092 55.1895 71.8592C55.1061 72.0259 55.0228 72.2342 54.9395 72.4842C54.8561 72.8175 54.8561 73.1509 54.9395 73.4842C55.0228 73.8175 55.0228 74.1925 54.9395 74.6092C54.9395 74.8592 54.8561 75.3592 54.6895 76.1092C54.5228 76.7759 54.3561 77.5259 54.1895 78.3592C54.0228 79.1092 53.8145 79.8592 53.5645 80.6092C53.3145 81.2759 53.1478 81.7342 53.0645 81.9842C52.6478 82.4009 52.4811 82.7342 52.5645 82.9842C52.6478 83.2342 52.6061 83.4425 52.4395 83.6092C51.7728 84.4425 51.3145 85.1092 51.0645 85.6092C50.8145 86.0259 50.4811 86.3175 50.0645 86.4842C50.1478 86.8175 50.1061 87.0675 49.9395 87.2342C49.7728 87.3175 49.7311 87.5259 49.8145 87.8592C49.0645 88.6092 48.4395 89.0675 47.9395 89.2342C47.5228 89.4009 47.2311 89.5675 47.0645 89.7342L45.9395 90.6092C44.6895 90.6925 43.8561 90.8592 43.4395 91.1092C43.0228 91.2759 42.6061 91.4425 42.1895 91.6092C41.0228 91.8592 39.8145 92.0259 38.5645 92.1092C37.3978 92.1092 36.3561 92.4009 35.4395 92.9842C34.9395 92.6509 34.3561 92.6092 33.6895 92.8592C33.0228 93.1092 32.3561 93.1509 31.6895 92.9842C31.4395 93.6509 31.4811 94.4009 31.8145 95.2342C32.1478 96.0675 32.2728 96.6925 32.1895 97.1092C32.6061 98.1092 32.7728 98.7759 32.6895 99.1092C32.6061 99.4425 32.6478 99.8175 32.8145 100.234C33.0645 100.651 33.0645 101.526 32.8145 102.859C32.6478 104.109 32.4395 104.943 32.1895 105.359C31.6895 105.943 30.9811 106.234 30.0645 106.234C29.1478 106.234 28.4395 105.943 27.9395 105.359C27.9395 104.776 27.8978 104.193 27.8145 103.609C27.7311 102.943 27.8561 102.359 28.1895 101.859C27.9395 101.526 27.7728 101.276 27.6895 101.109C27.6895 100.859 27.6895 100.651 27.6895 100.484C27.7728 100.318 27.8145 100.151 27.8145 99.9842C27.8978 99.8175 27.9395 99.5675 27.9395 99.2342C27.9395 98.8175 27.8561 98.4842 27.6895 98.2342C27.6061 97.9009 27.5228 97.5259 27.4395 97.1092C27.3561 96.4425 27.3145 95.8175 27.3145 95.2342C27.3145 94.5675 27.2311 93.9009 27.0645 93.2342C26.8145 93.3175 26.4395 93.3175 25.9395 93.2342C25.5228 93.1509 25.2728 93.2342 25.1895 93.4842C24.4395 93.1509 23.8145 92.8175 23.3145 92.4842C22.8145 92.1509 22.1061 91.9842 21.1895 91.9842C20.7728 91.4842 20.0228 91.0675 18.9395 90.7342C17.8561 90.3175 16.9811 89.9842 16.3145 89.7342C15.8978 89.5675 15.4811 89.3592 15.0645 89.1092C14.7311 88.8592 14.3561 88.6509 13.9395 88.4842C13.5228 88.3175 13.1061 88.1925 12.6895 88.1092C12.2728 88.0259 11.8561 87.8592 11.4395 87.6092C11.1061 87.4425 10.8145 87.1925 10.5645 86.8592C10.3145 86.5259 9.98112 86.4009 9.56445 86.4842C9.39779 86.0675 9.14779 85.8175 8.81445 85.7342C8.56445 85.5675 8.27279 85.4009 7.93945 85.2342C7.52279 85.8175 7.31445 86.6509 7.31445 87.7342C7.39779 88.8175 7.52279 89.6925 7.68945 90.3592C7.77279 90.7759 7.98112 91.1092 8.31445 91.3592C8.64779 91.5259 8.81445 91.8175 8.81445 92.2342C8.48112 93.1509 8.10612 93.6925 7.68945 93.8592C7.35612 93.9425 7.14779 94.2759 7.06445 94.8592C6.64779 94.6925 6.18945 94.6092 5.68945 94.6092C5.27279 94.5259 4.85612 94.4425 4.43945 94.3592C4.27279 93.7759 4.02279 93.2342 3.68945 92.7342C3.35612 92.2342 3.14779 91.6925 3.06445 91.1092C2.89779 90.2759 2.89779 89.4842 3.06445 88.7342C3.31445 87.9842 3.39779 87.2342 3.31445 86.4842C3.23112 86.2342 3.14779 86.0259 3.06445 85.8592C3.06445 85.6092 2.89779 85.4009 2.56445 85.2342C2.89779 84.3175 2.85612 83.6925 2.43945 83.3592C2.10612 83.0259 1.85612 82.5675 1.68945 81.9842C1.52279 81.7342 1.43945 81.4425 1.43945 81.1092C1.52279 80.7759 1.52279 80.4425 1.43945 80.1092C1.43945 80.0259 1.35612 79.8175 1.18945 79.4842C1.10612 79.1509 1.02279 78.8175 0.939453 78.4842C0.85612 78.1509 0.772786 77.8592 0.689453 77.6092C0.689453 77.2759 0.772786 77.1092 0.939453 77.1092C0.85612 76.9425 0.73112 76.7342 0.564453 76.4842C0.48112 76.1509 0.439453 75.9009 0.439453 75.7342C0.439453 75.4842 0.48112 75.0259 0.564453 74.3592C0.73112 73.6092 0.897786 72.8175 1.06445 71.9842C1.23112 71.1509 1.43945 70.4009 1.68945 69.7342C1.93945 69.0675 2.14779 68.6509 2.31445 68.4842C2.56445 68.3175 2.73112 68.2759 2.81445 68.3592C2.89779 68.4425 3.14779 68.2759 3.56445 67.8592C3.98112 67.6925 4.35612 67.7342 4.68945 67.9842C5.02279 68.2342 5.39779 68.2759 5.81445 68.1092C6.14779 68.5259 6.35612 69.2342 6.43945 70.2342C6.52279 71.1509 6.64779 71.9009 6.81445 72.4842C6.64779 72.9009 6.73112 73.1092 7.06445 73.1092C7.39779 73.1092 7.60612 73.2759 7.68945 73.6092C7.77279 73.9425 7.85612 74.3592 7.93945 74.8592C8.02279 75.2759 8.27279 75.5675 8.68945 75.7342C8.60612 76.1509 8.60612 76.6092 8.68945 77.1092C8.77279 77.6092 8.98112 77.9425 9.31445 78.1092C9.23112 78.7759 9.35612 79.3175 9.68945 79.7342C10.0228 80.1509 10.2728 80.5259 10.4395 80.8592C10.8561 81.6925 11.4395 82.3592 12.1895 82.8592C12.9395 83.3592 13.6061 83.9425 14.1895 84.6092C15.0228 84.7759 15.7311 85.1092 16.3145 85.6092C16.8978 86.0259 17.5228 86.4425 18.1895 86.8592C19.2728 86.8592 20.1061 87.1925 20.6895 87.8592C21.3561 87.6925 22.2311 87.8592 23.3145 88.3592C24.4811 88.8592 25.1061 89.2342 25.1895 89.4842C25.6061 89.3175 26.0645 89.2759 26.5645 89.3592C27.1478 89.4425 27.6895 89.4842 28.1895 89.4842C29.1061 89.3175 29.7311 89.2759 30.0645 89.3592C30.3978 89.4425 30.7728 89.4009 31.1895 89.2342C31.3561 89.1509 31.6895 89.1509 32.1895 89.2342C32.7728 89.2342 33.3561 89.2342 33.9395 89.2342C34.5228 89.2342 35.0228 89.1925 35.4395 89.1092C35.8561 88.9425 36.0645 88.7342 36.0645 88.4842C36.2311 88.6509 36.5228 88.6925 36.9395 88.6092C37.4395 88.5259 37.7728 88.4425 37.9395 88.3592C38.9395 87.9425 39.5228 87.7342 39.6895 87.7342C39.8561 87.7342 40.0228 87.7342 40.1895 87.7342C40.3561 87.7342 40.5228 87.6509 40.6895 87.4842C40.9395 87.3175 41.2728 86.9842 41.6895 86.4842C41.8561 85.5675 42.1061 84.9425 42.4395 84.6092C42.7728 84.2759 42.8978 83.8175 42.8145 83.2342C42.4811 82.4009 42.3561 81.9425 42.4395 81.8592C42.6061 81.6925 42.6478 81.5259 42.5645 81.3592C42.5645 80.1925 42.4395 78.9842 42.1895 77.7342C41.9395 76.4842 41.7728 75.2759 41.6895 74.1092C41.6895 73.7759 41.6895 73.4842 41.6895 73.2342C41.7728 72.9009 41.7728 72.5675 41.6895 72.2342C41.2728 71.2342 41.0645 70.5259 41.0645 70.1092C41.0645 69.6092 40.9811 69.1509 40.8145 68.7342C40.1478 67.7342 39.7311 66.9009 39.5645 66.2342C39.4811 65.4842 39.1895 65.0675 38.6895 64.9842C38.7728 64.1509 38.6061 63.5259 38.1895 63.1092C37.8561 62.6925 37.6895 62.1092 37.6895 61.3592C36.9395 60.9425 35.8978 60.5259 34.5645 60.1092C33.2311 59.6925 32.1061 59.4009 31.1895 59.2342C30.7728 59.1509 30.3145 59.1509 29.8145 59.2342C29.3978 59.3175 28.9395 59.3175 28.4395 59.2342C27.7728 59.0675 27.2311 58.8592 26.8145 58.6092C26.4811 58.2759 26.0228 58.0259 25.4395 57.8592C24.8561 57.6925 24.2728 57.6092 23.6895 57.6092C23.1895 57.6092 22.6895 57.5259 22.1895 57.3592C21.7728 57.1925 21.4395 57.0259 21.1895 56.8592C20.9395 56.6925 20.6478 56.5259 20.3145 56.3592C19.9811 56.2759 19.6478 56.2759 19.3145 56.3592C19.0645 56.4425 18.7728 56.4425 18.4395 56.3592C17.5228 56.0259 16.8978 55.9009 16.5645 55.9842C16.3145 56.0675 16.0645 56.0675 15.8145 55.9842C15.5645 55.9009 15.3145 55.7759 15.0645 55.6092C14.8978 55.4425 14.6895 55.3175 14.4395 55.2342C14.1895 55.1509 13.8978 55.1092 13.5645 55.1092C13.3145 55.0259 13.0645 54.9009 12.8145 54.7342C12.0645 54.4842 11.6895 54.3175 11.6895 54.2342C11.7728 54.0675 11.7728 53.9425 11.6895 53.8592C11.5228 53.6925 11.2311 53.6092 10.8145 53.6092C10.4811 53.5259 10.2311 53.4425 10.0645 53.3592C8.73112 52.1925 7.43945 51.0259 6.18945 49.8592C5.02279 48.6092 3.81445 47.3592 2.56445 46.1092C2.56445 46.0259 2.52279 45.8175 2.43945 45.4842C2.43945 45.0675 2.39779 44.6925 2.31445 44.3592C2.31445 43.9425 2.27279 43.5675 2.18945 43.2342C2.10612 42.8175 2.06445 42.5675 2.06445 42.4842C1.81445 41.6509 1.73112 41.1925 1.81445 41.1092C1.89779 40.9425 1.93945 40.7759 1.93945 40.6092C1.77279 39.6092 1.73112 39.0259 1.81445 38.8592C1.98112 38.6925 2.06445 38.4842 2.06445 38.2342C2.14779 37.8175 2.10612 37.4842 1.93945 37.2342C1.85612 36.9842 1.89779 36.6092 2.06445 36.1092C2.56445 35.2759 2.77279 34.6509 2.68945 34.2342C2.68945 33.7342 2.73112 33.2759 2.81445 32.8592C2.81445 32.7759 2.85612 32.5259 2.93945 32.1092C3.10612 31.6092 3.23112 31.0675 3.31445 30.4842C3.48112 29.9009 3.60612 29.4009 3.68945 28.9842C3.85612 28.4842 3.93945 28.2342 3.93945 28.2342C4.35612 27.4842 4.60612 27.0675 4.68945 26.9842C4.85612 26.9009 5.02279 26.7759 5.18945 26.6092C5.35612 26.3592 5.52279 26.1092 5.68945 25.8592C5.85612 25.5259 6.06445 25.2342 6.31445 24.9842C6.73112 24.4842 7.18945 24.0259 7.68945 23.6092C8.18945 23.1925 8.64779 22.7342 9.06445 22.2342C9.89779 21.9009 10.4395 21.6925 10.6895 21.6092C11.0228 21.4425 11.2728 21.1509 11.4395 20.7342C12.3561 20.4009 12.8561 20.2759 12.9395 20.3592C13.0228 20.3592 13.1478 20.3592 13.3145 20.3592C13.7311 19.8592 14.1061 19.6509 14.4395 19.7342C14.7728 19.7342 15.1061 19.6925 15.4395 19.6092C16.1061 19.4425 16.8145 19.1925 17.5645 18.8592C18.3145 18.5259 19.0645 18.4842 19.8145 18.7342C20.5645 18.4009 20.9811 18.2342 21.0645 18.2342C21.2311 18.1509 21.3561 18.0675 21.4395 17.9842C21.7728 17.9842 22.0645 18.0259 22.3145 18.1092C22.6478 18.1925 22.8978 18.2342 23.0645 18.2342C23.8978 17.8175 24.3978 17.6509 24.5645 17.7342C24.8145 17.7342 25.0228 17.6509 25.1895 17.4842C25.1895 16.1509 25.2311 14.8175 25.3145 13.4842C25.4811 12.0675 25.4395 10.6925 25.1895 9.35919C25.1061 8.19253 25.1478 7.48419 25.3145 7.23419C25.5645 6.90086 25.5228 6.44253 25.1895 5.85919C25.1895 5.10919 25.2311 4.35919 25.3145 3.60919C25.3978 2.85919 25.5645 2.23419 25.8145 1.73419C26.1478 1.23419 26.6061 0.900859 27.1895 0.734192C27.7728 0.567525 28.5645 0.734192 29.5645 1.23419ZM10.0645 28.2342C9.56445 28.6509 9.31445 29.0259 9.31445 29.3592C9.31445 29.6925 9.10612 29.8592 8.68945 29.8592C8.52279 30.5259 8.35612 31.0259 8.18945 31.3592C8.02279 31.6925 7.77279 32.1092 7.43945 32.6092C7.68945 33.5259 7.60612 34.4425 7.18945 35.3592C6.77279 36.1925 6.73112 37.0675 7.06445 37.9842C6.81445 38.1509 6.60612 38.6925 6.43945 39.6092C6.27279 40.4425 6.23112 40.9842 6.31445 41.2342C6.31445 41.5675 6.39779 41.8592 6.56445 42.1092C6.73112 42.2759 6.89779 42.4842 7.06445 42.7342C7.14779 43.7342 7.31445 44.4009 7.56445 44.7342C7.81445 44.9842 7.85612 45.3175 7.68945 45.7342C7.93945 45.9009 8.23112 46.1509 8.56445 46.4842C8.89779 46.8175 9.23112 47.1509 9.56445 47.4842C9.98112 47.8175 10.3145 48.1092 10.5645 48.3592C10.8978 48.6092 11.1895 48.7342 11.4395 48.7342C11.7728 48.4009 11.8561 48.0675 11.6895 47.7342C11.5228 47.4009 11.3561 47.0259 11.1895 46.6092C11.5228 45.6925 11.5645 44.5259 11.3145 43.1092C11.0645 41.6925 10.7311 40.5259 10.3145 39.6092C10.3145 37.9425 10.3145 36.6092 10.3145 35.6092C10.3978 34.6092 10.5228 33.6509 10.6895 32.7342C10.9395 31.8175 11.1061 30.9009 11.1895 29.9842C11.3561 29.0675 11.3561 28.1092 11.1895 27.1092C10.5228 27.2759 10.1895 27.4842 10.1895 27.7342C10.1895 27.9009 10.1478 28.0675 10.0645 28.2342ZM46.0645 74.6092C46.0645 76.0259 46.1895 77.4842 46.4395 78.9842C46.6895 80.4842 46.8978 81.9425 47.0645 83.3592C47.8145 82.6092 48.3561 82.0675 48.6895 81.7342C48.8561 80.4842 49.3145 79.4842 50.0645 78.7342C50.1478 77.5675 50.3561 76.4009 50.6895 75.2342C51.1061 73.9842 51.2728 72.7759 51.1895 71.6092C51.1895 70.9425 51.0228 70.2759 50.6895 69.6092C50.4395 68.9425 50.3978 68.2759 50.5645 67.6092C50.1478 67.0259 49.6895 66.5259 49.1895 66.1092C48.6895 65.6925 48.2728 65.1925 47.9395 64.6092C47.8561 64.6092 47.5645 64.4842 47.0645 64.2342C46.5645 63.9842 46.0228 63.7342 45.4395 63.4842C44.9395 63.1509 44.4395 62.8592 43.9395 62.6092C43.4395 62.2759 43.1478 62.0675 43.0645 61.9842C42.3978 62.8175 42.2311 63.5675 42.5645 64.2342C42.8978 64.8175 43.2311 65.4842 43.5645 66.2342C43.8978 67.1509 44.2311 67.7759 44.5645 68.1092C44.8978 68.4425 45.1895 68.9842 45.4395 69.7342C45.6061 70.1509 45.6478 70.5675 45.5645 70.9842C45.4811 71.4009 45.5228 71.8175 45.6895 72.2342C45.6895 72.4009 45.7728 72.6509 45.9395 72.9842C46.1061 73.2342 46.1478 73.4425 46.0645 73.6092V74.6092Z" fill="#E6961E"/>
</svg>
