<svg width="56" height="107" viewBox="0 0 56 107" fill="none" xmlns="http://www.w3.org/2000/svg">
<path d="M29.2339 1.70776C29.0672 2.5411 29.0256 3.37443 29.1089 4.20776C29.1922 4.95776 29.2339 5.74943 29.2339 6.58276C29.2339 6.83276 29.1922 7.08276 29.1089 7.33276C29.0256 7.58276 28.9839 7.7911 28.9839 7.95776C29.0672 8.37443 29.1506 8.74943 29.2339 9.08276C29.4006 9.33276 29.4839 9.6661 29.4839 10.0828C29.4839 10.5828 29.5256 11.1244 29.6089 11.7078C29.6922 12.2078 29.7339 12.6661 29.7339 13.0828C29.6506 13.7494 29.4422 14.4994 29.1089 15.3328C28.7756 16.1661 28.8172 16.9161 29.2339 17.5828C29.4839 17.9994 30.1506 18.2078 31.2339 18.2078C32.3172 18.2078 33.0672 18.1244 33.4839 17.9578C33.9006 18.4578 34.4422 18.7911 35.1089 18.9578C35.8589 19.1244 36.5672 19.2078 37.2339 19.2078C37.5672 19.6244 38.2756 20.0411 39.3589 20.4578C40.5256 20.7911 41.3589 21.1244 41.8589 21.4578C42.4422 22.2911 42.8172 22.7078 42.9839 22.7078C43.1506 22.7078 43.3172 22.7911 43.4839 22.9578C43.7339 23.1244 43.9422 23.3744 44.1089 23.7078C44.3589 24.0411 44.6922 24.2494 45.1089 24.3328C45.0256 24.6661 45.0256 24.9161 45.1089 25.0828C45.2756 25.1661 45.4422 25.3744 45.6089 25.7078C46.0256 25.8744 46.2756 26.1661 46.3589 26.5828C46.5256 26.9161 46.7339 27.2494 46.9839 27.5828C47.2339 27.8328 47.5256 28.0411 47.8589 28.2078C48.1922 28.3744 48.4422 28.6244 48.6089 28.9578C48.7756 27.2078 48.9006 25.4578 48.9839 23.7078C49.0672 21.9578 49.0256 20.2078 48.8589 18.4578C49.2756 17.9578 49.6922 17.5828 50.1089 17.3328C50.6089 16.9994 51.1922 16.9161 51.8589 17.0828C52.4422 17.4994 52.7339 17.8328 52.7339 18.0828C52.7339 18.2494 52.8172 18.2911 52.9839 18.2078C52.9839 18.7078 52.9422 19.3744 52.8589 20.2078C52.7756 21.0411 52.6922 21.8744 52.6089 22.7078C52.5256 23.5411 52.4839 24.3328 52.4839 25.0828C52.5672 25.8328 52.7339 26.4161 52.9839 26.8328C52.8172 27.9994 52.8589 28.8328 53.1089 29.3328C53.3589 29.7494 53.4839 30.2494 53.4839 30.8328C53.4839 31.4994 53.3172 32.0828 52.9839 32.5828C52.7339 33.0828 52.5672 33.6661 52.4839 34.3328C52.4839 34.5828 52.5256 34.8328 52.6089 35.0828C52.6922 35.3328 52.7339 35.6244 52.7339 35.9578C52.5672 37.2078 52.5256 38.1244 52.6089 38.7078C52.7756 39.2078 52.7339 39.6661 52.4839 40.0828C51.8172 40.3328 51.1506 40.5411 50.4839 40.7078C49.9006 40.7911 49.2756 40.7494 48.6089 40.5828C48.3589 40.3328 48.1506 40.0828 47.9839 39.8328C47.8172 39.4994 47.6089 39.2078 47.3589 38.9578C47.1089 38.6244 47.1506 38.3744 47.4839 38.2078C47.9006 37.9578 48.0256 37.5828 47.8589 37.0828C47.6089 35.5828 47.0256 34.2911 46.1089 33.2078C45.2756 32.1244 44.4006 30.9994 43.4839 29.8328L42.4839 28.4578C42.1506 28.0411 41.7756 27.6661 41.3589 27.3328C40.9422 26.9161 40.6506 26.4578 40.4839 25.9578C40.0672 25.9578 39.7339 25.7911 39.4839 25.4578C39.2339 25.0411 38.9422 24.7494 38.6089 24.5828C38.3589 24.4994 37.9006 24.3328 37.2339 24.0828C36.5672 23.8328 35.8172 23.6244 34.9839 23.4578C34.2339 23.2078 33.4839 22.9994 32.7339 22.8328C32.0672 22.5828 31.6089 22.4578 31.3589 22.4578C30.8589 22.3744 30.3589 22.4161 29.8589 22.5828C29.4422 22.6661 29.0256 22.7078 28.6089 22.7078C27.6089 22.3744 26.9839 22.2494 26.7339 22.3328C26.4839 22.4161 26.2339 22.4578 25.9839 22.4578C25.3172 22.4578 24.7339 22.4161 24.2339 22.3328C23.7339 22.2494 23.1506 22.4578 22.4839 22.9578C21.3172 22.7911 20.2756 22.8744 19.3589 23.2078C18.4422 23.4578 17.4006 23.6661 16.2339 23.8328C16.1506 24.0828 16.1506 24.3328 16.2339 24.5828C16.4006 24.8328 16.4006 25.0411 16.2339 25.2078C15.9839 25.7078 15.7756 26.2078 15.6089 26.7078C15.5256 27.2078 15.4006 27.7078 15.2339 28.2078C15.4006 28.3744 15.3589 28.6661 15.1089 29.0828C14.9422 29.4161 14.8589 29.6661 14.8589 29.8328C14.7756 30.1661 14.7756 30.4994 14.8589 30.8328C15.0256 31.0828 15.1089 31.3744 15.1089 31.7078C15.0256 31.9578 14.9006 32.2078 14.7339 32.4578C14.6506 32.7078 14.6089 32.9161 14.6089 33.0828C14.4422 33.9994 14.4422 34.8744 14.6089 35.7078C14.7756 36.5411 14.8589 37.3744 14.8589 38.2078C14.8589 38.4578 14.8172 38.7078 14.7339 38.9578C14.6506 39.2078 14.6089 39.4578 14.6089 39.7078C14.6089 40.0411 14.6506 40.3744 14.7339 40.7078C14.9006 41.0411 15.0256 41.3744 15.1089 41.7078C15.1922 42.2911 15.2339 42.9578 15.2339 43.7078C15.2339 44.4578 15.4839 45.0411 15.9839 45.4578C15.8172 45.6244 15.7339 45.8744 15.7339 46.2078C15.7339 46.4578 15.6506 46.6661 15.4839 46.8328C15.6506 47.4994 15.8589 48.0828 16.1089 48.5828C16.3589 48.9994 16.4006 49.5828 16.2339 50.3328C16.8172 50.8328 17.0256 51.1661 16.8589 51.3328C16.6922 51.4994 16.6506 51.6244 16.7339 51.7078C16.9006 52.0411 17.2339 52.3328 17.7339 52.5828C18.3172 52.8328 18.9422 53.0411 19.6089 53.2078C20.3589 53.2911 21.0672 53.4161 21.7339 53.5828C22.4006 53.6661 22.9006 53.7494 23.2339 53.8328C23.6506 53.9994 23.9839 54.1661 24.2339 54.3328C24.5672 54.4994 24.9422 54.6661 25.3589 54.8328C25.7756 54.9161 26.1506 54.9578 26.4839 54.9578C26.8172 54.8744 27.1922 54.9161 27.6089 55.0828C28.5256 55.2494 29.3589 55.4994 30.1089 55.8328C30.9422 56.0828 31.8172 56.2911 32.7339 56.4578C32.9839 56.5411 33.2339 56.5411 33.4839 56.4578C33.8172 56.3744 34.1089 56.3744 34.3589 56.4578C35.6089 56.8744 36.5256 57.0411 37.1089 56.9578C37.7756 56.8744 38.4006 56.9161 38.9839 57.0828C39.4006 57.1661 39.7339 57.2911 39.9839 57.4578C40.2339 57.5411 40.5256 57.6661 40.8589 57.8328C41.8589 58.1661 43.1089 58.5411 44.6089 58.9578C46.1922 59.3744 47.2756 59.9994 47.8589 60.8328C48.5256 60.9161 49.0672 61.1244 49.4839 61.4578C49.9006 61.7911 50.4422 62.0411 51.1089 62.2078C51.3589 62.7911 51.6506 63.2494 51.9839 63.5828C52.4006 63.9161 52.8172 64.3328 53.2339 64.8328C53.9006 66.1661 54.3172 67.2078 54.4839 67.9578C54.6506 68.7078 54.7756 69.4994 54.8589 70.3328C55.0256 71.4161 55.0256 72.0828 54.8589 72.3328C54.7756 72.4994 54.6922 72.7078 54.6089 72.9578C54.5256 73.2911 54.5256 73.6244 54.6089 73.9578C54.6922 74.2911 54.6922 74.6661 54.6089 75.0828C54.6089 75.3328 54.5256 75.8328 54.3589 76.5828C54.1922 77.2494 54.0256 77.9994 53.8589 78.8328C53.6922 79.5828 53.4839 80.3328 53.2339 81.0828C52.9839 81.7494 52.8172 82.2078 52.7339 82.4578C52.3172 82.8744 52.1506 83.2078 52.2339 83.4578C52.3172 83.7078 52.2756 83.9161 52.1089 84.0828C51.4422 84.9161 50.9839 85.5828 50.7339 86.0828C50.4839 86.4994 50.1506 86.7911 49.7339 86.9578C49.8172 87.2911 49.7756 87.5411 49.6089 87.7078C49.4422 87.7911 49.4006 87.9994 49.4839 88.3328C48.7339 89.0828 48.1089 89.5411 47.6089 89.7078C47.1922 89.8744 46.9006 90.0411 46.7339 90.2078L45.6089 91.0828C44.3589 91.1661 43.5256 91.3328 43.1089 91.5828C42.6922 91.7494 42.2756 91.9161 41.8589 92.0828C40.6922 92.3328 39.4839 92.4994 38.2339 92.5828C37.0672 92.5828 36.0256 92.8744 35.1089 93.4578C34.6089 93.1244 34.0256 93.0828 33.3589 93.3328C32.6922 93.5828 32.0256 93.6244 31.3589 93.4578C31.1089 94.1244 31.1506 94.8744 31.4839 95.7078C31.8172 96.5411 31.9422 97.1661 31.8589 97.5828C32.2756 98.5828 32.4422 99.2494 32.3589 99.5828C32.2756 99.9161 32.3172 100.291 32.4839 100.708C32.7339 101.124 32.7339 101.999 32.4839 103.333C32.3172 104.583 32.1089 105.416 31.8589 105.833C31.3589 106.416 30.6506 106.708 29.7339 106.708C28.8172 106.708 28.1089 106.416 27.6089 105.833C27.6089 105.249 27.5672 104.666 27.4839 104.083C27.4006 103.416 27.5256 102.833 27.8589 102.333C27.6089 101.999 27.4422 101.749 27.3589 101.583C27.3589 101.333 27.3589 101.124 27.3589 100.958C27.4422 100.791 27.4839 100.624 27.4839 100.458C27.5672 100.291 27.6089 100.041 27.6089 99.7078C27.6089 99.2911 27.5256 98.9578 27.3589 98.7078C27.2756 98.3744 27.1922 97.9994 27.1089 97.5828C27.0256 96.9161 26.9839 96.2911 26.9839 95.7078C26.9839 95.0411 26.9006 94.3744 26.7339 93.7078C26.4839 93.7911 26.1089 93.7911 25.6089 93.7078C25.1922 93.6244 24.9422 93.7078 24.8589 93.9578C24.1089 93.6244 23.4839 93.2911 22.9839 92.9578C22.4839 92.6244 21.7756 92.4578 20.8589 92.4578C20.4422 91.9578 19.6922 91.5411 18.6089 91.2078C17.5256 90.7911 16.6506 90.4578 15.9839 90.2078C15.5672 90.0411 15.1506 89.8328 14.7339 89.5828C14.4006 89.3328 14.0256 89.1244 13.6089 88.9578C13.1922 88.7911 12.7756 88.6661 12.3589 88.5828C11.9422 88.4994 11.5256 88.3328 11.1089 88.0828C10.7756 87.9161 10.4839 87.6661 10.2339 87.3328C9.98389 86.9994 9.65055 86.8744 9.23389 86.9578C9.06722 86.5411 8.81722 86.2911 8.48389 86.2078C8.23389 86.0411 7.94222 85.8744 7.60889 85.7078C7.19222 86.2911 6.98389 87.1244 6.98389 88.2078C7.06722 89.2911 7.19222 90.1661 7.35889 90.8328C7.44222 91.2494 7.65055 91.5828 7.98389 91.8328C8.31722 91.9994 8.48389 92.2911 8.48389 92.7078C8.15055 93.6244 7.77555 94.1661 7.35889 94.3328C7.02555 94.4161 6.81722 94.7494 6.73389 95.3328C6.31722 95.1661 5.85889 95.0828 5.35889 95.0828C4.94222 94.9994 4.52555 94.9161 4.10889 94.8328C3.94222 94.2494 3.69222 93.7078 3.35889 93.2078C3.02555 92.7078 2.81722 92.1661 2.73389 91.5828C2.56722 90.7494 2.56722 89.9578 2.73389 89.2078C2.98389 88.4578 3.06722 87.7078 2.98389 86.9578C2.90055 86.7078 2.81722 86.4994 2.73389 86.3328C2.73389 86.0828 2.56722 85.8744 2.23389 85.7078C2.56722 84.7911 2.52555 84.1661 2.10889 83.8328C1.77555 83.4994 1.52555 83.0411 1.35889 82.4578C1.19222 82.2078 1.10889 81.9161 1.10889 81.5828C1.19222 81.2494 1.19222 80.9161 1.10889 80.5828C1.10889 80.4994 1.02555 80.2911 0.858887 79.9578C0.775553 79.6244 0.69222 79.2911 0.608887 78.9578C0.525553 78.6244 0.44222 78.3328 0.358887 78.0828C0.358887 77.7494 0.44222 77.5828 0.608887 77.5828C0.525553 77.4161 0.400553 77.2078 0.233887 76.9578C0.150553 76.6244 0.108887 76.3744 0.108887 76.2078C0.108887 75.9578 0.150553 75.4994 0.233887 74.8328C0.400553 74.0828 0.56722 73.2911 0.733887 72.4578C0.900553 71.6244 1.10889 70.8744 1.35889 70.2078C1.60889 69.5411 1.81722 69.1244 1.98389 68.9578C2.23389 68.7911 2.40055 68.7494 2.48389 68.8328C2.56722 68.9161 2.81722 68.7494 3.23389 68.3328C3.65055 68.1661 4.02555 68.2078 4.35889 68.4578C4.69222 68.7078 5.06722 68.7494 5.48389 68.5828C5.81722 68.9994 6.02555 69.7078 6.10889 70.7078C6.19222 71.6244 6.31722 72.3744 6.48389 72.9578C6.31722 73.3744 6.40055 73.5828 6.73389 73.5828C7.06722 73.5828 7.27555 73.7494 7.35889 74.0828C7.44222 74.4161 7.52555 74.8328 7.60889 75.3328C7.69222 75.7494 7.94222 76.0411 8.35889 76.2078C8.27555 76.6244 8.27555 77.0828 8.35889 77.5828C8.44222 78.0828 8.65055 78.4161 8.98389 78.5828C8.90055 79.2494 9.02555 79.7911 9.35889 80.2078C9.69222 80.6244 9.94222 80.9994 10.1089 81.3328C10.5256 82.1661 11.1089 82.8328 11.8589 83.3328C12.6089 83.8328 13.2756 84.4161 13.8589 85.0828C14.6922 85.2494 15.4006 85.5828 15.9839 86.0828C16.5672 86.4994 17.1922 86.9161 17.8589 87.3328C18.9422 87.3328 19.7756 87.6661 20.3589 88.3328C21.0256 88.1661 21.9006 88.3328 22.9839 88.8328C24.1506 89.3328 24.7756 89.7078 24.8589 89.9578C25.2756 89.7911 25.7339 89.7494 26.2339 89.8328C26.8172 89.9161 27.3589 89.9578 27.8589 89.9578C28.7756 89.7911 29.4006 89.7494 29.7339 89.8328C30.0672 89.9161 30.4422 89.8744 30.8589 89.7078C31.0256 89.6244 31.3589 89.6244 31.8589 89.7078C32.4422 89.7078 33.0256 89.7078 33.6089 89.7078C34.1922 89.7078 34.6922 89.6661 35.1089 89.5828C35.5256 89.4161 35.7339 89.2078 35.7339 88.9578C35.9006 89.1244 36.1922 89.1661 36.6089 89.0828C37.1089 88.9994 37.4422 88.9161 37.6089 88.8328C38.6089 88.4161 39.1922 88.2078 39.3589 88.2078C39.5256 88.2078 39.6922 88.2078 39.8589 88.2078C40.0256 88.2078 40.1922 88.1244 40.3589 87.9578C40.6089 87.7911 40.9422 87.4578 41.3589 86.9578C41.5256 86.0411 41.7756 85.4161 42.1089 85.0828C42.4422 84.7494 42.5672 84.2911 42.4839 83.7078C42.1506 82.8744 42.0256 82.4161 42.1089 82.3328C42.2756 82.1661 42.3172 81.9994 42.2339 81.8328C42.2339 80.6661 42.1089 79.4578 41.8589 78.2078C41.6089 76.9578 41.4422 75.7494 41.3589 74.5828C41.3589 74.2494 41.3589 73.9578 41.3589 73.7078C41.4422 73.3744 41.4422 73.0411 41.3589 72.7078C40.9422 71.7078 40.7339 70.9994 40.7339 70.5828C40.7339 70.0828 40.6506 69.6244 40.4839 69.2078C39.8172 68.2078 39.4006 67.3744 39.2339 66.7078C39.1506 65.9578 38.8589 65.5411 38.3589 65.4578C38.4422 64.6244 38.2756 63.9994 37.8589 63.5828C37.5256 63.1661 37.3589 62.5828 37.3589 61.8328C36.6089 61.4161 35.5672 60.9994 34.2339 60.5828C32.9006 60.1661 31.7756 59.8744 30.8589 59.7078C30.4422 59.6244 29.9839 59.6244 29.4839 59.7078C29.0672 59.7911 28.6089 59.7911 28.1089 59.7078C27.4422 59.5411 26.9006 59.3328 26.4839 59.0828C26.1506 58.7494 25.6922 58.4994 25.1089 58.3328C24.5256 58.1661 23.9422 58.0828 23.3589 58.0828C22.8589 58.0828 22.3589 57.9994 21.8589 57.8328C21.4422 57.6661 21.1089 57.4994 20.8589 57.3328C20.6089 57.1661 20.3172 56.9994 19.9839 56.8328C19.6506 56.7494 19.3172 56.7494 18.9839 56.8328C18.7339 56.9161 18.4422 56.9161 18.1089 56.8328C17.1922 56.4994 16.5672 56.3744 16.2339 56.4578C15.9839 56.5411 15.7339 56.5411 15.4839 56.4578C15.2339 56.3744 14.9839 56.2494 14.7339 56.0828C14.5672 55.9161 14.3589 55.7911 14.1089 55.7078C13.8589 55.6244 13.5672 55.5828 13.2339 55.5828C12.9839 55.4994 12.7339 55.3744 12.4839 55.2078C11.7339 54.9578 11.3589 54.7911 11.3589 54.7078C11.4422 54.5411 11.4422 54.4161 11.3589 54.3328C11.1922 54.1661 10.9006 54.0828 10.4839 54.0828C10.1506 53.9994 9.90055 53.9161 9.73389 53.8328C8.40055 52.6661 7.10889 51.4994 5.85889 50.3328C4.69222 49.0828 3.48389 47.8328 2.23389 46.5828C2.23389 46.4994 2.19222 46.2911 2.10889 45.9578C2.10889 45.5411 2.06722 45.1661 1.98389 44.8328C1.98389 44.4161 1.94222 44.0411 1.85889 43.7078C1.77555 43.2911 1.73389 43.0411 1.73389 42.9578C1.48389 42.1244 1.40055 41.6661 1.48389 41.5828C1.56722 41.4161 1.60889 41.2494 1.60889 41.0828C1.44222 40.0828 1.40055 39.4994 1.48389 39.3328C1.65055 39.1661 1.73389 38.9578 1.73389 38.7078C1.81722 38.2911 1.77555 37.9578 1.60889 37.7078C1.52555 37.4578 1.56722 37.0828 1.73389 36.5828C2.23389 35.7494 2.44222 35.1244 2.35889 34.7078C2.35889 34.2078 2.40055 33.7494 2.48389 33.3328C2.48389 33.2494 2.52555 32.9994 2.60889 32.5828C2.77555 32.0828 2.90055 31.5411 2.98389 30.9578C3.15055 30.3744 3.27555 29.8744 3.35889 29.4578C3.52555 28.9578 3.60889 28.7078 3.60889 28.7078C4.02555 27.9578 4.27555 27.5411 4.35889 27.4578C4.52555 27.3744 4.69222 27.2494 4.85889 27.0828C5.02555 26.8328 5.19222 26.5828 5.35889 26.3328C5.52555 25.9994 5.73389 25.7078 5.98389 25.4578C6.40055 24.9578 6.85889 24.4994 7.35889 24.0828C7.85889 23.6661 8.31722 23.2078 8.73389 22.7078C9.56722 22.3744 10.1089 22.1661 10.3589 22.0828C10.6922 21.9161 10.9422 21.6244 11.1089 21.2078C12.0256 20.8744 12.5256 20.7494 12.6089 20.8328C12.6922 20.8328 12.8172 20.8328 12.9839 20.8328C13.4006 20.3328 13.7756 20.1244 14.1089 20.2078C14.4422 20.2078 14.7756 20.1661 15.1089 20.0828C15.7756 19.9161 16.4839 19.6661 17.2339 19.3328C17.9839 18.9994 18.7339 18.9578 19.4839 19.2078C20.2339 18.8744 20.6506 18.7078 20.7339 18.7078C20.9006 18.6244 21.0256 18.5411 21.1089 18.4578C21.4422 18.4578 21.7339 18.4994 21.9839 18.5828C22.3172 18.6661 22.5672 18.7078 22.7339 18.7078C23.5672 18.2911 24.0672 18.1244 24.2339 18.2078C24.4839 18.2078 24.6922 18.1244 24.8589 17.9578C24.8589 16.6244 24.9006 15.2911 24.9839 13.9578C25.1506 12.5411 25.1089 11.1661 24.8589 9.83276C24.7756 8.6661 24.8172 7.95776 24.9839 7.70776C25.2339 7.37443 25.1922 6.9161 24.8589 6.33276C24.8589 5.58276 24.9006 4.83276 24.9839 4.08276C25.0672 3.33276 25.2339 2.70776 25.4839 2.20776C25.8172 1.70776 26.2756 1.37443 26.8589 1.20776C27.4422 1.0411 28.2339 1.20776 29.2339 1.70776ZM9.73389 28.7078C9.23389 29.1244 8.98389 29.4994 8.98389 29.8328C8.98389 30.1661 8.77555 30.3328 8.35889 30.3328C8.19222 30.9994 8.02555 31.4994 7.85889 31.8328C7.69222 32.1661 7.44222 32.5828 7.10889 33.0828C7.35889 33.9994 7.27555 34.9161 6.85889 35.8328C6.44222 36.6661 6.40055 37.5411 6.73389 38.4578C6.48389 38.6244 6.27555 39.1661 6.10889 40.0828C5.94222 40.9161 5.90055 41.4578 5.98389 41.7078C5.98389 42.0411 6.06722 42.3328 6.23389 42.5828C6.40055 42.7494 6.56722 42.9578 6.73389 43.2078C6.81722 44.2078 6.98389 44.8744 7.23389 45.2078C7.48389 45.4578 7.52555 45.7911 7.35889 46.2078C7.60889 46.3744 7.90055 46.6244 8.23389 46.9578C8.56722 47.2911 8.90055 47.6244 9.23389 47.9578C9.65055 48.2911 9.98389 48.5828 10.2339 48.8328C10.5672 49.0828 10.8589 49.2078 11.1089 49.2078C11.4422 48.8744 11.5256 48.5411 11.3589 48.2078C11.1922 47.8744 11.0256 47.4994 10.8589 47.0828C11.1922 46.1661 11.2339 44.9994 10.9839 43.5828C10.7339 42.1661 10.4006 40.9994 9.98389 40.0828C9.98389 38.4161 9.98389 37.0828 9.98389 36.0828C10.0672 35.0828 10.1922 34.1244 10.3589 33.2078C10.6089 32.2911 10.7756 31.3744 10.8589 30.4578C11.0256 29.5411 11.0256 28.5828 10.8589 27.5828C10.1922 27.7494 9.85889 27.9578 9.85889 28.2078C9.85889 28.3744 9.81722 28.5411 9.73389 28.7078ZM45.7339 75.0828C45.7339 76.4994 45.8589 77.9578 46.1089 79.4578C46.3589 80.9578 46.5672 82.4161 46.7339 83.8328C47.4839 83.0828 48.0256 82.5411 48.3589 82.2078C48.5256 80.9578 48.9839 79.9578 49.7339 79.2078C49.8172 78.0411 50.0256 76.8744 50.3589 75.7078C50.7756 74.4578 50.9422 73.2494 50.8589 72.0828C50.8589 71.4161 50.6922 70.7494 50.3589 70.0828C50.1089 69.4161 50.0672 68.7494 50.2339 68.0828C49.8172 67.4994 49.3589 66.9994 48.8589 66.5828C48.3589 66.1661 47.9422 65.6661 47.6089 65.0828C47.5256 65.0828 47.2339 64.9578 46.7339 64.7078C46.2339 64.4578 45.6922 64.2078 45.1089 63.9578C44.6089 63.6244 44.1089 63.3328 43.6089 63.0828C43.1089 62.7494 42.8172 62.5411 42.7339 62.4578C42.0672 63.2911 41.9006 64.0411 42.2339 64.7078C42.5672 65.2911 42.9006 65.9578 43.2339 66.7078C43.5672 67.6244 43.9006 68.2494 44.2339 68.5828C44.5672 68.9161 44.8589 69.4578 45.1089 70.2078C45.2756 70.6244 45.3172 71.0411 45.2339 71.4578C45.1506 71.8744 45.1922 72.2911 45.3589 72.7078C45.3589 72.8744 45.4422 73.1244 45.6089 73.4578C45.7756 73.7078 45.8172 73.9161 45.7339 74.0828V75.0828Z" fill="#FF0000"/>
<path d="M29.2339 1.70776C29.0672 2.5411 29.0256 3.37443 29.1089 4.20776C29.1922 4.95776 29.2339 5.74943 29.2339 6.58276C29.2339 6.83276 29.1922 7.08276 29.1089 7.33276C29.0256 7.58276 28.9839 7.7911 28.9839 7.95776C29.0672 8.37443 29.1506 8.74943 29.2339 9.08276C29.4006 9.33276 29.4839 9.6661 29.4839 10.0828C29.4839 10.5828 29.5256 11.1244 29.6089 11.7078C29.6922 12.2078 29.7339 12.6661 29.7339 13.0828C29.6506 13.7494 29.4422 14.4994 29.1089 15.3328C28.7756 16.1661 28.8172 16.9161 29.2339 17.5828C29.4839 17.9994 30.1506 18.2078 31.2339 18.2078C32.3172 18.2078 33.0672 18.1244 33.4839 17.9578C33.9006 18.4578 34.4422 18.7911 35.1089 18.9578C35.8589 19.1244 36.5672 19.2078 37.2339 19.2078C37.5672 19.6244 38.2756 20.0411 39.3589 20.4578C40.5256 20.7911 41.3589 21.1244 41.8589 21.4578C42.4422 22.2911 42.8172 22.7078 42.9839 22.7078C43.1506 22.7078 43.3172 22.7911 43.4839 22.9578C43.7339 23.1244 43.9422 23.3744 44.1089 23.7078C44.3589 24.0411 44.6922 24.2494 45.1089 24.3328C45.0256 24.6661 45.0256 24.9161 45.1089 25.0828C45.2756 25.1661 45.4422 25.3744 45.6089 25.7078C46.0256 25.8744 46.2756 26.1661 46.3589 26.5828C46.5256 26.9161 46.7339 27.2494 46.9839 27.5828C47.2339 27.8328 47.5256 28.0411 47.8589 28.2078C48.1922 28.3744 48.4422 28.6244 48.6089 28.9578C48.7756 27.2078 48.9006 25.4578 48.9839 23.7078C49.0672 21.9578 49.0256 20.2078 48.8589 18.4578C49.2756 17.9578 49.6922 17.5828 50.1089 17.3328C50.6089 16.9994 51.1922 16.9161 51.8589 17.0828C52.4422 17.4994 52.7339 17.8328 52.7339 18.0828C52.7339 18.2494 52.8172 18.2911 52.9839 18.2078C52.9839 18.7078 52.9422 19.3744 52.8589 20.2078C52.7756 21.0411 52.6922 21.8744 52.6089 22.7078C52.5256 23.5411 52.4839 24.3328 52.4839 25.0828C52.5672 25.8328 52.7339 26.4161 52.9839 26.8328C52.8172 27.9994 52.8589 28.8328 53.1089 29.3328C53.3589 29.7494 53.4839 30.2494 53.4839 30.8328C53.4839 31.4994 53.3172 32.0828 52.9839 32.5828C52.7339 33.0828 52.5672 33.6661 52.4839 34.3328C52.4839 34.5828 52.5256 34.8328 52.6089 35.0828C52.6922 35.3328 52.7339 35.6244 52.7339 35.9578C52.5672 37.2078 52.5256 38.1244 52.6089 38.7078C52.7756 39.2078 52.7339 39.6661 52.4839 40.0828C51.8172 40.3328 51.1506 40.5411 50.4839 40.7078C49.9006 40.7911 49.2756 40.7494 48.6089 40.5828C48.3589 40.3328 48.1506 40.0828 47.9839 39.8328C47.8172 39.4994 47.6089 39.2078 47.3589 38.9578C47.1089 38.6244 47.1506 38.3744 47.4839 38.2078C47.9006 37.9578 48.0256 37.5828 47.8589 37.0828C47.6089 35.5828 47.0256 34.2911 46.1089 33.2078C45.2756 32.1244 44.4006 30.9994 43.4839 29.8328L42.4839 28.4578C42.1506 28.0411 41.7756 27.6661 41.3589 27.3328C40.9422 26.9161 40.6506 26.4578 40.4839 25.9578C40.0672 25.9578 39.7339 25.7911 39.4839 25.4578C39.2339 25.0411 38.9422 24.7494 38.6089 24.5828C38.3589 24.4994 37.9006 24.3328 37.2339 24.0828C36.5672 23.8328 35.8172 23.6244 34.9839 23.4578C34.2339 23.2078 33.4839 22.9994 32.7339 22.8328C32.0672 22.5828 31.6089 22.4578 31.3589 22.4578C30.8589 22.3744 30.3589 22.4161 29.8589 22.5828C29.4422 22.6661 29.0256 22.7078 28.6089 22.7078C27.6089 22.3744 26.9839 22.2494 26.7339 22.3328C26.4839 22.4161 26.2339 22.4578 25.9839 22.4578C25.3172 22.4578 24.7339 22.4161 24.2339 22.3328C23.7339 22.2494 23.1506 22.4578 22.4839 22.9578C21.3172 22.7911 20.2756 22.8744 19.3589 23.2078C18.4422 23.4578 17.4006 23.6661 16.2339 23.8328C16.1506 24.0828 16.1506 24.3328 16.2339 24.5828C16.4006 24.8328 16.4006 25.0411 16.2339 25.2078C15.9839 25.7078 15.7756 26.2078 15.6089 26.7078C15.5256 27.2078 15.4006 27.7078 15.2339 28.2078C15.4006 28.3744 15.3589 28.6661 15.1089 29.0828C14.9422 29.4161 14.8589 29.6661 14.8589 29.8328C14.7756 30.1661 14.7756 30.4994 14.8589 30.8328C15.0256 31.0828 15.1089 31.3744 15.1089 31.7078C15.0256 31.9578 14.9006 32.2078 14.7339 32.4578C14.6506 32.7078 14.6089 32.9161 14.6089 33.0828C14.4422 33.9994 14.4422 34.8744 14.6089 35.7078C14.7756 36.5411 14.8589 37.3744 14.8589 38.2078C14.8589 38.4578 14.8172 38.7078 14.7339 38.9578C14.6506 39.2078 14.6089 39.4578 14.6089 39.7078C14.6089 40.0411 14.6506 40.3744 14.7339 40.7078C14.9006 41.0411 15.0256 41.3744 15.1089 41.7078C15.1922 42.2911 15.2339 42.9578 15.2339 43.7078C15.2339 44.4578 15.4839 45.0411 15.9839 45.4578C15.8172 45.6244 15.7339 45.8744 15.7339 46.2078C15.7339 46.4578 15.6506 46.6661 15.4839 46.8328C15.6506 47.4994 15.8589 48.0828 16.1089 48.5828C16.3589 48.9994 16.4006 49.5828 16.2339 50.3328C16.8172 50.8328 17.0256 51.1661 16.8589 51.3328C16.6922 51.4994 16.6506 51.6244 16.7339 51.7078C16.9006 52.0411 17.2339 52.3328 17.7339 52.5828C18.3172 52.8328 18.9422 53.0411 19.6089 53.2078C20.3589 53.2911 21.0672 53.4161 21.7339 53.5828C22.4006 53.6661 22.9006 53.7494 23.2339 53.8328C23.6506 53.9994 23.9839 54.1661 24.2339 54.3328C24.5672 54.4994 24.9422 54.6661 25.3589 54.8328C25.7756 54.9161 26.1506 54.9578 26.4839 54.9578C26.8172 54.8744 27.1922 54.9161 27.6089 55.0828C28.5256 55.2494 29.3589 55.4994 30.1089 55.8328C30.9422 56.0828 31.8172 56.2911 32.7339 56.4578C32.9839 56.5411 33.2339 56.5411 33.4839 56.4578C33.8172 56.3744 34.1089 56.3744 34.3589 56.4578C35.6089 56.8744 36.5256 57.0411 37.1089 56.9578C37.7756 56.8744 38.4006 56.9161 38.9839 57.0828C39.4006 57.1661 39.7339 57.2911 39.9839 57.4578C40.2339 57.5411 40.5256 57.6661 40.8589 57.8328C41.8589 58.1661 43.1089 58.5411 44.6089 58.9578C46.1922 59.3744 47.2756 59.9994 47.8589 60.8328C48.5256 60.9161 49.0672 61.1244 49.4839 61.4578C49.9006 61.7911 50.4422 62.0411 51.1089 62.2078C51.3589 62.7911 51.6506 63.2494 51.9839 63.5828C52.4006 63.9161 52.8172 64.3328 53.2339 64.8328C53.9006 66.1661 54.3172 67.2078 54.4839 67.9578C54.6506 68.7078 54.7756 69.4994 54.8589 70.3328C55.0256 71.4161 55.0256 72.0828 54.8589 72.3328C54.7756 72.4994 54.6922 72.7078 54.6089 72.9578C54.5256 73.2911 54.5256 73.6244 54.6089 73.9578C54.6922 74.2911 54.6922 74.6661 54.6089 75.0828C54.6089 75.3328 54.5256 75.8328 54.3589 76.5828C54.1922 77.2494 54.0256 77.9994 53.8589 78.8328C53.6922 79.5828 53.4839 80.3328 53.2339 81.0828C52.9839 81.7494 52.8172 82.2078 52.7339 82.4578C52.3172 82.8744 52.1506 83.2078 52.2339 83.4578C52.3172 83.7078 52.2756 83.9161 52.1089 84.0828C51.4422 84.9161 50.9839 85.5828 50.7339 86.0828C50.4839 86.4994 50.1506 86.7911 49.7339 86.9578C49.8172 87.2911 49.7756 87.5411 49.6089 87.7078C49.4422 87.7911 49.4006 87.9994 49.4839 88.3328C48.7339 89.0828 48.1089 89.5411 47.6089 89.7078C47.1922 89.8744 46.9006 90.0411 46.7339 90.2078L45.6089 91.0828C44.3589 91.1661 43.5256 91.3328 43.1089 91.5828C42.6922 91.7494 42.2756 91.9161 41.8589 92.0828C40.6922 92.3328 39.4839 92.4994 38.2339 92.5828C37.0672 92.5828 36.0256 92.8744 35.1089 93.4578C34.6089 93.1244 34.0256 93.0828 33.3589 93.3328C32.6922 93.5828 32.0256 93.6244 31.3589 93.4578C31.1089 94.1244 31.1506 94.8744 31.4839 95.7078C31.8172 96.5411 31.9422 97.1661 31.8589 97.5828C32.2756 98.5828 32.4422 99.2494 32.3589 99.5828C32.2756 99.9161 32.3172 100.291 32.4839 100.708C32.7339 101.124 32.7339 101.999 32.4839 103.333C32.3172 104.583 32.1089 105.416 31.8589 105.833C31.3589 106.416 30.6506 106.708 29.7339 106.708C28.8172 106.708 28.1089 106.416 27.6089 105.833C27.6089 105.249 27.5672 104.666 27.4839 104.083C27.4006 103.416 27.5256 102.833 27.8589 102.333C27.6089 101.999 27.4422 101.749 27.3589 101.583C27.3589 101.333 27.3589 101.124 27.3589 100.958C27.4422 100.791 27.4839 100.624 27.4839 100.458C27.5672 100.291 27.6089 100.041 27.6089 99.7078C27.6089 99.2911 27.5256 98.9578 27.3589 98.7078C27.2756 98.3744 27.1922 97.9994 27.1089 97.5828C27.0256 96.9161 26.9839 96.2911 26.9839 95.7078C26.9839 95.0411 26.9006 94.3744 26.7339 93.7078C26.4839 93.7911 26.1089 93.7911 25.6089 93.7078C25.1922 93.6244 24.9422 93.7078 24.8589 93.9578C24.1089 93.6244 23.4839 93.2911 22.9839 92.9578C22.4839 92.6244 21.7756 92.4578 20.8589 92.4578C20.4422 91.9578 19.6922 91.5411 18.6089 91.2078C17.5256 90.7911 16.6506 90.4578 15.9839 90.2078C15.5672 90.0411 15.1506 89.8328 14.7339 89.5828C14.4006 89.3328 14.0256 89.1244 13.6089 88.9578C13.1922 88.7911 12.7756 88.6661 12.3589 88.5828C11.9422 88.4994 11.5256 88.3328 11.1089 88.0828C10.7756 87.9161 10.4839 87.6661 10.2339 87.3328C9.98389 86.9994 9.65055 86.8744 9.23389 86.9578C9.06722 86.5411 8.81722 86.2911 8.48389 86.2078C8.23389 86.0411 7.94222 85.8744 7.60889 85.7078C7.19222 86.2911 6.98389 87.1244 6.98389 88.2078C7.06722 89.2911 7.19222 90.1661 7.35889 90.8328C7.44222 91.2494 7.65055 91.5828 7.98389 91.8328C8.31722 91.9994 8.48389 92.2911 8.48389 92.7078C8.15055 93.6244 7.77555 94.1661 7.35889 94.3328C7.02555 94.4161 6.81722 94.7494 6.73389 95.3328C6.31722 95.1661 5.85889 95.0828 5.35889 95.0828C4.94222 94.9994 4.52555 94.9161 4.10889 94.8328C3.94222 94.2494 3.69222 93.7078 3.35889 93.2078C3.02555 92.7078 2.81722 92.1661 2.73389 91.5828C2.56722 90.7494 2.56722 89.9578 2.73389 89.2078C2.98389 88.4578 3.06722 87.7078 2.98389 86.9578C2.90055 86.7078 2.81722 86.4994 2.73389 86.3328C2.73389 86.0828 2.56722 85.8744 2.23389 85.7078C2.56722 84.7911 2.52555 84.1661 2.10889 83.8328C1.77555 83.4994 1.52555 83.0411 1.35889 82.4578C1.19222 82.2078 1.10889 81.9161 1.10889 81.5828C1.19222 81.2494 1.19222 80.9161 1.10889 80.5828C1.10889 80.4994 1.02555 80.2911 0.858887 79.9578C0.775553 79.6244 0.69222 79.2911 0.608887 78.9578C0.525553 78.6244 0.44222 78.3328 0.358887 78.0828C0.358887 77.7494 0.44222 77.5828 0.608887 77.5828C0.525553 77.4161 0.400553 77.2078 0.233887 76.9578C0.150553 76.6244 0.108887 76.3744 0.108887 76.2078C0.108887 75.9578 0.150553 75.4994 0.233887 74.8328C0.400553 74.0828 0.56722 73.2911 0.733887 72.4578C0.900553 71.6244 1.10889 70.8744 1.35889 70.2078C1.60889 69.5411 1.81722 69.1244 1.98389 68.9578C2.23389 68.7911 2.40055 68.7494 2.48389 68.8328C2.56722 68.9161 2.81722 68.7494 3.23389 68.3328C3.65055 68.1661 4.02555 68.2078 4.35889 68.4578C4.69222 68.7078 5.06722 68.7494 5.48389 68.5828C5.81722 68.9994 6.02555 69.7078 6.10889 70.7078C6.19222 71.6244 6.31722 72.3744 6.48389 72.9578C6.31722 73.3744 6.40055 73.5828 6.73389 73.5828C7.06722 73.5828 7.27555 73.7494 7.35889 74.0828C7.44222 74.4161 7.52555 74.8328 7.60889 75.3328C7.69222 75.7494 7.94222 76.0411 8.35889 76.2078C8.27555 76.6244 8.27555 77.0828 8.35889 77.5828C8.44222 78.0828 8.65055 78.4161 8.98389 78.5828C8.90055 79.2494 9.02555 79.7911 9.35889 80.2078C9.69222 80.6244 9.94222 80.9994 10.1089 81.3328C10.5256 82.1661 11.1089 82.8328 11.8589 83.3328C12.6089 83.8328 13.2756 84.4161 13.8589 85.0828C14.6922 85.2494 15.4006 85.5828 15.9839 86.0828C16.5672 86.4994 17.1922 86.9161 17.8589 87.3328C18.9422 87.3328 19.7756 87.6661 20.3589 88.3328C21.0256 88.1661 21.9006 88.3328 22.9839 88.8328C24.1506 89.3328 24.7756 89.7078 24.8589 89.9578C25.2756 89.7911 25.7339 89.7494 26.2339 89.8328C26.8172 89.9161 27.3589 89.9578 27.8589 89.9578C28.7756 89.7911 29.4006 89.7494 29.7339 89.8328C30.0672 89.9161 30.4422 89.8744 30.8589 89.7078C31.0256 89.6244 31.3589 89.6244 31.8589 89.7078C32.4422 89.7078 33.0256 89.7078 33.6089 89.7078C34.1922 89.7078 34.6922 89.6661 35.1089 89.5828C35.5256 89.4161 35.7339 89.2078 35.7339 88.9578C35.9006 89.1244 36.1922 89.1661 36.6089 89.0828C37.1089 88.9994 37.4422 88.9161 37.6089 88.8328C38.6089 88.4161 39.1922 88.2078 39.3589 88.2078C39.5256 88.2078 39.6922 88.2078 39.8589 88.2078C40.0256 88.2078 40.1922 88.1244 40.3589 87.9578C40.6089 87.7911 40.9422 87.4578 41.3589 86.9578C41.5256 86.0411 41.7756 85.4161 42.1089 85.0828C42.4422 84.7494 42.5672 84.2911 42.4839 83.7078C42.1506 82.8744 42.0256 82.4161 42.1089 82.3328C42.2756 82.1661 42.3172 81.9994 42.2339 81.8328C42.2339 80.6661 42.1089 79.4578 41.8589 78.2078C41.6089 76.9578 41.4422 75.7494 41.3589 74.5828C41.3589 74.2494 41.3589 73.9578 41.3589 73.7078C41.4422 73.3744 41.4422 73.0411 41.3589 72.7078C40.9422 71.7078 40.7339 70.9994 40.7339 70.5828C40.7339 70.0828 40.6506 69.6244 40.4839 69.2078C39.8172 68.2078 39.4006 67.3744 39.2339 66.7078C39.1506 65.9578 38.8589 65.5411 38.3589 65.4578C38.4422 64.6244 38.2756 63.9994 37.8589 63.5828C37.5256 63.1661 37.3589 62.5828 37.3589 61.8328C36.6089 61.4161 35.5672 60.9994 34.2339 60.5828C32.9006 60.1661 31.7756 59.8744 30.8589 59.7078C30.4422 59.6244 29.9839 59.6244 29.4839 59.7078C29.0672 59.7911 28.6089 59.7911 28.1089 59.7078C27.4422 59.5411 26.9006 59.3328 26.4839 59.0828C26.1506 58.7494 25.6922 58.4994 25.1089 58.3328C24.5256 58.1661 23.9422 58.0828 23.3589 58.0828C22.8589 58.0828 22.3589 57.9994 21.8589 57.8328C21.4422 57.6661 21.1089 57.4994 20.8589 57.3328C20.6089 57.1661 20.3172 56.9994 19.9839 56.8328C19.6506 56.7494 19.3172 56.7494 18.9839 56.8328C18.7339 56.9161 18.4422 56.9161 18.1089 56.8328C17.1922 56.4994 16.5672 56.3744 16.2339 56.4578C15.9839 56.5411 15.7339 56.5411 15.4839 56.4578C15.2339 56.3744 14.9839 56.2494 14.7339 56.0828C14.5672 55.9161 14.3589 55.7911 14.1089 55.7078C13.8589 55.6244 13.5672 55.5828 13.2339 55.5828C12.9839 55.4994 12.7339 55.3744 12.4839 55.2078C11.7339 54.9578 11.3589 54.7911 11.3589 54.7078C11.4422 54.5411 11.4422 54.4161 11.3589 54.3328C11.1922 54.1661 10.9006 54.0828 10.4839 54.0828C10.1506 53.9994 9.90055 53.9161 9.73389 53.8328C8.40055 52.6661 7.10889 51.4994 5.85889 50.3328C4.69222 49.0828 3.48389 47.8328 2.23389 46.5828C2.23389 46.4994 2.19222 46.2911 2.10889 45.9578C2.10889 45.5411 2.06722 45.1661 1.98389 44.8328C1.98389 44.4161 1.94222 44.0411 1.85889 43.7078C1.77555 43.2911 1.73389 43.0411 1.73389 42.9578C1.48389 42.1244 1.40055 41.6661 1.48389 41.5828C1.56722 41.4161 1.60889 41.2494 1.60889 41.0828C1.44222 40.0828 1.40055 39.4994 1.48389 39.3328C1.65055 39.1661 1.73389 38.9578 1.73389 38.7078C1.81722 38.2911 1.77555 37.9578 1.60889 37.7078C1.52555 37.4578 1.56722 37.0828 1.73389 36.5828C2.23389 35.7494 2.44222 35.1244 2.35889 34.7078C2.35889 34.2078 2.40055 33.7494 2.48389 33.3328C2.48389 33.2494 2.52555 32.9994 2.60889 32.5828C2.77555 32.0828 2.90055 31.5411 2.98389 30.9578C3.15055 30.3744 3.27555 29.8744 3.35889 29.4578C3.52555 28.9578 3.60889 28.7078 3.60889 28.7078C4.02555 27.9578 4.27555 27.5411 4.35889 27.4578C4.52555 27.3744 4.69222 27.2494 4.85889 27.0828C5.02555 26.8328 5.19222 26.5828 5.35889 26.3328C5.52555 25.9994 5.73389 25.7078 5.98389 25.4578C6.40055 24.9578 6.85889 24.4994 7.35889 24.0828C7.85889 23.6661 8.31722 23.2078 8.73389 22.7078C9.56722 22.3744 10.1089 22.1661 10.3589 22.0828C10.6922 21.9161 10.9422 21.6244 11.1089 21.2078C12.0256 20.8744 12.5256 20.7494 12.6089 20.8328C12.6922 20.8328 12.8172 20.8328 12.9839 20.8328C13.4006 20.3328 13.7756 20.1244 14.1089 20.2078C14.4422 20.2078 14.7756 20.1661 15.1089 20.0828C15.7756 19.9161 16.4839 19.6661 17.2339 19.3328C17.9839 18.9994 18.7339 18.9578 19.4839 19.2078C20.2339 18.8744 20.6506 18.7078 20.7339 18.7078C20.9006 18.6244 21.0256 18.5411 21.1089 18.4578C21.4422 18.4578 21.7339 18.4994 21.9839 18.5828C22.3172 18.6661 22.5672 18.7078 22.7339 18.7078C23.5672 18.2911 24.0672 18.1244 24.2339 18.2078C24.4839 18.2078 24.6922 18.1244 24.8589 17.9578C24.8589 16.6244 24.9006 15.2911 24.9839 13.9578C25.1506 12.5411 25.1089 11.1661 24.8589 9.83276C24.7756 8.6661 24.8172 7.95776 24.9839 7.70776C25.2339 7.37443 25.1922 6.9161 24.8589 6.33276C24.8589 5.58276 24.9006 4.83276 24.9839 4.08276C25.0672 3.33276 25.2339 2.70776 25.4839 2.20776C25.8172 1.70776 26.2756 1.37443 26.8589 1.20776C27.4422 1.0411 28.2339 1.20776 29.2339 1.70776ZM9.73389 28.7078C9.23389 29.1244 8.98389 29.4994 8.98389 29.8328C8.98389 30.1661 8.77555 30.3328 8.35889 30.3328C8.19222 30.9994 8.02555 31.4994 7.85889 31.8328C7.69222 32.1661 7.44222 32.5828 7.10889 33.0828C7.35889 33.9994 7.27555 34.9161 6.85889 35.8328C6.44222 36.6661 6.40055 37.5411 6.73389 38.4578C6.48389 38.6244 6.27555 39.1661 6.10889 40.0828C5.94222 40.9161 5.90055 41.4578 5.98389 41.7078C5.98389 42.0411 6.06722 42.3328 6.23389 42.5828C6.40055 42.7494 6.56722 42.9578 6.73389 43.2078C6.81722 44.2078 6.98389 44.8744 7.23389 45.2078C7.48389 45.4578 7.52555 45.7911 7.35889 46.2078C7.60889 46.3744 7.90055 46.6244 8.23389 46.9578C8.56722 47.2911 8.90055 47.6244 9.23389 47.9578C9.65055 48.2911 9.98389 48.5828 10.2339 48.8328C10.5672 49.0828 10.8589 49.2078 11.1089 49.2078C11.4422 48.8744 11.5256 48.5411 11.3589 48.2078C11.1922 47.8744 11.0256 47.4994 10.8589 47.0828C11.1922 46.1661 11.2339 44.9994 10.9839 43.5828C10.7339 42.1661 10.4006 40.9994 9.98389 40.0828C9.98389 38.4161 9.98389 37.0828 9.98389 36.0828C10.0672 35.0828 10.1922 34.1244 10.3589 33.2078C10.6089 32.2911 10.7756 31.3744 10.8589 30.4578C11.0256 29.5411 11.0256 28.5828 10.8589 27.5828C10.1922 27.7494 9.85889 27.9578 9.85889 28.2078C9.85889 28.3744 9.81722 28.5411 9.73389 28.7078ZM45.7339 75.0828C45.7339 76.4994 45.8589 77.9578 46.1089 79.4578C46.3589 80.9578 46.5672 82.4161 46.7339 83.8328C47.4839 83.0828 48.0256 82.5411 48.3589 82.2078C48.5256 80.9578 48.9839 79.9578 49.7339 79.2078C49.8172 78.0411 50.0256 76.8744 50.3589 75.7078C50.7756 74.4578 50.9422 73.2494 50.8589 72.0828C50.8589 71.4161 50.6922 70.7494 50.3589 70.0828C50.1089 69.4161 50.0672 68.7494 50.2339 68.0828C49.8172 67.4994 49.3589 66.9994 48.8589 66.5828C48.3589 66.1661 47.9422 65.6661 47.6089 65.0828C47.5256 65.0828 47.2339 64.9578 46.7339 64.7078C46.2339 64.4578 45.6922 64.2078 45.1089 63.9578C44.6089 63.6244 44.1089 63.3328 43.6089 63.0828C43.1089 62.7494 42.8172 62.5411 42.7339 62.4578C42.0672 63.2911 41.9006 64.0411 42.2339 64.7078C42.5672 65.2911 42.9006 65.9578 43.2339 66.7078C43.5672 67.6244 43.9006 68.2494 44.2339 68.5828C44.5672 68.9161 44.8589 69.4578 45.1089 70.2078C45.2756 70.6244 45.3172 71.0411 45.2339 71.4578C45.1506 71.8744 45.1922 72.2911 45.3589 72.7078C45.3589 72.8744 45.4422 73.1244 45.6089 73.4578C45.7756 73.7078 45.8172 73.9161 45.7339 74.0828V75.0828Z" fill="#FF0000"/>
<path d="M29.2339 1.70776C29.0672 2.5411 29.0256 3.37443 29.1089 4.20776C29.1922 4.95776 29.2339 5.74943 29.2339 6.58276C29.2339 6.83276 29.1922 7.08276 29.1089 7.33276C29.0256 7.58276 28.9839 7.7911 28.9839 7.95776C29.0672 8.37443 29.1506 8.74943 29.2339 9.08276C29.4006 9.33276 29.4839 9.6661 29.4839 10.0828C29.4839 10.5828 29.5256 11.1244 29.6089 11.7078C29.6922 12.2078 29.7339 12.6661 29.7339 13.0828C29.6506 13.7494 29.4422 14.4994 29.1089 15.3328C28.7756 16.1661 28.8172 16.9161 29.2339 17.5828C29.4839 17.9994 30.1506 18.2078 31.2339 18.2078C32.3172 18.2078 33.0672 18.1244 33.4839 17.9578C33.9006 18.4578 34.4422 18.7911 35.1089 18.9578C35.8589 19.1244 36.5672 19.2078 37.2339 19.2078C37.5672 19.6244 38.2756 20.0411 39.3589 20.4578C40.5256 20.7911 41.3589 21.1244 41.8589 21.4578C42.4422 22.2911 42.8172 22.7078 42.9839 22.7078C43.1506 22.7078 43.3172 22.7911 43.4839 22.9578C43.7339 23.1244 43.9422 23.3744 44.1089 23.7078C44.3589 24.0411 44.6922 24.2494 45.1089 24.3328C45.0256 24.6661 45.0256 24.9161 45.1089 25.0828C45.2756 25.1661 45.4422 25.3744 45.6089 25.7078C46.0256 25.8744 46.2756 26.1661 46.3589 26.5828C46.5256 26.9161 46.7339 27.2494 46.9839 27.5828C47.2339 27.8328 47.5256 28.0411 47.8589 28.2078C48.1922 28.3744 48.4422 28.6244 48.6089 28.9578C48.7756 27.2078 48.9006 25.4578 48.9839 23.7078C49.0672 21.9578 49.0256 20.2078 48.8589 18.4578C49.2756 17.9578 49.6922 17.5828 50.1089 17.3328C50.6089 16.9994 51.1922 16.9161 51.8589 17.0828C52.4422 17.4994 52.7339 17.8328 52.7339 18.0828C52.7339 18.2494 52.8172 18.2911 52.9839 18.2078C52.9839 18.7078 52.9422 19.3744 52.8589 20.2078C52.7756 21.0411 52.6922 21.8744 52.6089 22.7078C52.5256 23.5411 52.4839 24.3328 52.4839 25.0828C52.5672 25.8328 52.7339 26.4161 52.9839 26.8328C52.8172 27.9994 52.8589 28.8328 53.1089 29.3328C53.3589 29.7494 53.4839 30.2494 53.4839 30.8328C53.4839 31.4994 53.3172 32.0828 52.9839 32.5828C52.7339 33.0828 52.5672 33.6661 52.4839 34.3328C52.4839 34.5828 52.5256 34.8328 52.6089 35.0828C52.6922 35.3328 52.7339 35.6244 52.7339 35.9578C52.5672 37.2078 52.5256 38.1244 52.6089 38.7078C52.7756 39.2078 52.7339 39.6661 52.4839 40.0828C51.8172 40.3328 51.1506 40.5411 50.4839 40.7078C49.9006 40.7911 49.2756 40.7494 48.6089 40.5828C48.3589 40.3328 48.1506 40.0828 47.9839 39.8328C47.8172 39.4994 47.6089 39.2078 47.3589 38.9578C47.1089 38.6244 47.1506 38.3744 47.4839 38.2078C47.9006 37.9578 48.0256 37.5828 47.8589 37.0828C47.6089 35.5828 47.0256 34.2911 46.1089 33.2078C45.2756 32.1244 44.4006 30.9994 43.4839 29.8328L42.4839 28.4578C42.1506 28.0411 41.7756 27.6661 41.3589 27.3328C40.9422 26.9161 40.6506 26.4578 40.4839 25.9578C40.0672 25.9578 39.7339 25.7911 39.4839 25.4578C39.2339 25.0411 38.9422 24.7494 38.6089 24.5828C38.3589 24.4994 37.9006 24.3328 37.2339 24.0828C36.5672 23.8328 35.8172 23.6244 34.9839 23.4578C34.2339 23.2078 33.4839 22.9994 32.7339 22.8328C32.0672 22.5828 31.6089 22.4578 31.3589 22.4578C30.8589 22.3744 30.3589 22.4161 29.8589 22.5828C29.4422 22.6661 29.0256 22.7078 28.6089 22.7078C27.6089 22.3744 26.9839 22.2494 26.7339 22.3328C26.4839 22.4161 26.2339 22.4578 25.9839 22.4578C25.3172 22.4578 24.7339 22.4161 24.2339 22.3328C23.7339 22.2494 23.1506 22.4578 22.4839 22.9578C21.3172 22.7911 20.2756 22.8744 19.3589 23.2078C18.4422 23.4578 17.4006 23.6661 16.2339 23.8328C16.1506 24.0828 16.1506 24.3328 16.2339 24.5828C16.4006 24.8328 16.4006 25.0411 16.2339 25.2078C15.9839 25.7078 15.7756 26.2078 15.6089 26.7078C15.5256 27.2078 15.4006 27.7078 15.2339 28.2078C15.4006 28.3744 15.3589 28.6661 15.1089 29.0828C14.9422 29.4161 14.8589 29.6661 14.8589 29.8328C14.7756 30.1661 14.7756 30.4994 14.8589 30.8328C15.0256 31.0828 15.1089 31.3744 15.1089 31.7078C15.0256 31.9578 14.9006 32.2078 14.7339 32.4578C14.6506 32.7078 14.6089 32.9161 14.6089 33.0828C14.4422 33.9994 14.4422 34.8744 14.6089 35.7078C14.7756 36.5411 14.8589 37.3744 14.8589 38.2078C14.8589 38.4578 14.8172 38.7078 14.7339 38.9578C14.6506 39.2078 14.6089 39.4578 14.6089 39.7078C14.6089 40.0411 14.6506 40.3744 14.7339 40.7078C14.9006 41.0411 15.0256 41.3744 15.1089 41.7078C15.1922 42.2911 15.2339 42.9578 15.2339 43.7078C15.2339 44.4578 15.4839 45.0411 15.9839 45.4578C15.8172 45.6244 15.7339 45.8744 15.7339 46.2078C15.7339 46.4578 15.6506 46.6661 15.4839 46.8328C15.6506 47.4994 15.8589 48.0828 16.1089 48.5828C16.3589 48.9994 16.4006 49.5828 16.2339 50.3328C16.8172 50.8328 17.0256 51.1661 16.8589 51.3328C16.6922 51.4994 16.6506 51.6244 16.7339 51.7078C16.9006 52.0411 17.2339 52.3328 17.7339 52.5828C18.3172 52.8328 18.9422 53.0411 19.6089 53.2078C20.3589 53.2911 21.0672 53.4161 21.7339 53.5828C22.4006 53.6661 22.9006 53.7494 23.2339 53.8328C23.6506 53.9994 23.9839 54.1661 24.2339 54.3328C24.5672 54.4994 24.9422 54.6661 25.3589 54.8328C25.7756 54.9161 26.1506 54.9578 26.4839 54.9578C26.8172 54.8744 27.1922 54.9161 27.6089 55.0828C28.5256 55.2494 29.3589 55.4994 30.1089 55.8328C30.9422 56.0828 31.8172 56.2911 32.7339 56.4578C32.9839 56.5411 33.2339 56.5411 33.4839 56.4578C33.8172 56.3744 34.1089 56.3744 34.3589 56.4578C35.6089 56.8744 36.5256 57.0411 37.1089 56.9578C37.7756 56.8744 38.4006 56.9161 38.9839 57.0828C39.4006 57.1661 39.7339 57.2911 39.9839 57.4578C40.2339 57.5411 40.5256 57.6661 40.8589 57.8328C41.8589 58.1661 43.1089 58.5411 44.6089 58.9578C46.1922 59.3744 47.2756 59.9994 47.8589 60.8328C48.5256 60.9161 49.0672 61.1244 49.4839 61.4578C49.9006 61.7911 50.4422 62.0411 51.1089 62.2078C51.3589 62.7911 51.6506 63.2494 51.9839 63.5828C52.4006 63.9161 52.8172 64.3328 53.2339 64.8328C53.9006 66.1661 54.3172 67.2078 54.4839 67.9578C54.6506 68.7078 54.7756 69.4994 54.8589 70.3328C55.0256 71.4161 55.0256 72.0828 54.8589 72.3328C54.7756 72.4994 54.6922 72.7078 54.6089 72.9578C54.5256 73.2911 54.5256 73.6244 54.6089 73.9578C54.6922 74.2911 54.6922 74.6661 54.6089 75.0828C54.6089 75.3328 54.5256 75.8328 54.3589 76.5828C54.1922 77.2494 54.0256 77.9994 53.8589 78.8328C53.6922 79.5828 53.4839 80.3328 53.2339 81.0828C52.9839 81.7494 52.8172 82.2078 52.7339 82.4578C52.3172 82.8744 52.1506 83.2078 52.2339 83.4578C52.3172 83.7078 52.2756 83.9161 52.1089 84.0828C51.4422 84.9161 50.9839 85.5828 50.7339 86.0828C50.4839 86.4994 50.1506 86.7911 49.7339 86.9578C49.8172 87.2911 49.7756 87.5411 49.6089 87.7078C49.4422 87.7911 49.4006 87.9994 49.4839 88.3328C48.7339 89.0828 48.1089 89.5411 47.6089 89.7078C47.1922 89.8744 46.9006 90.0411 46.7339 90.2078L45.6089 91.0828C44.3589 91.1661 43.5256 91.3328 43.1089 91.5828C42.6922 91.7494 42.2756 91.9161 41.8589 92.0828C40.6922 92.3328 39.4839 92.4994 38.2339 92.5828C37.0672 92.5828 36.0256 92.8744 35.1089 93.4578C34.6089 93.1244 34.0256 93.0828 33.3589 93.3328C32.6922 93.5828 32.0256 93.6244 31.3589 93.4578C31.1089 94.1244 31.1506 94.8744 31.4839 95.7078C31.8172 96.5411 31.9422 97.1661 31.8589 97.5828C32.2756 98.5828 32.4422 99.2494 32.3589 99.5828C32.2756 99.9161 32.3172 100.291 32.4839 100.708C32.7339 101.124 32.7339 101.999 32.4839 103.333C32.3172 104.583 32.1089 105.416 31.8589 105.833C31.3589 106.416 30.6506 106.708 29.7339 106.708C28.8172 106.708 28.1089 106.416 27.6089 105.833C27.6089 105.249 27.5672 104.666 27.4839 104.083C27.4006 103.416 27.5256 102.833 27.8589 102.333C27.6089 101.999 27.4422 101.749 27.3589 101.583C27.3589 101.333 27.3589 101.124 27.3589 100.958C27.4422 100.791 27.4839 100.624 27.4839 100.458C27.5672 100.291 27.6089 100.041 27.6089 99.7078C27.6089 99.2911 27.5256 98.9578 27.3589 98.7078C27.2756 98.3744 27.1922 97.9994 27.1089 97.5828C27.0256 96.9161 26.9839 96.2911 26.9839 95.7078C26.9839 95.0411 26.9006 94.3744 26.7339 93.7078C26.4839 93.7911 26.1089 93.7911 25.6089 93.7078C25.1922 93.6244 24.9422 93.7078 24.8589 93.9578C24.1089 93.6244 23.4839 93.2911 22.9839 92.9578C22.4839 92.6244 21.7756 92.4578 20.8589 92.4578C20.4422 91.9578 19.6922 91.5411 18.6089 91.2078C17.5256 90.7911 16.6506 90.4578 15.9839 90.2078C15.5672 90.0411 15.1506 89.8328 14.7339 89.5828C14.4006 89.3328 14.0256 89.1244 13.6089 88.9578C13.1922 88.7911 12.7756 88.6661 12.3589 88.5828C11.9422 88.4994 11.5256 88.3328 11.1089 88.0828C10.7756 87.9161 10.4839 87.6661 10.2339 87.3328C9.98389 86.9994 9.65055 86.8744 9.23389 86.9578C9.06722 86.5411 8.81722 86.2911 8.48389 86.2078C8.23389 86.0411 7.94222 85.8744 7.60889 85.7078C7.19222 86.2911 6.98389 87.1244 6.98389 88.2078C7.06722 89.2911 7.19222 90.1661 7.35889 90.8328C7.44222 91.2494 7.65055 91.5828 7.98389 91.8328C8.31722 91.9994 8.48389 92.2911 8.48389 92.7078C8.15055 93.6244 7.77555 94.1661 7.35889 94.3328C7.02555 94.4161 6.81722 94.7494 6.73389 95.3328C6.31722 95.1661 5.85889 95.0828 5.35889 95.0828C4.94222 94.9994 4.52555 94.9161 4.10889 94.8328C3.94222 94.2494 3.69222 93.7078 3.35889 93.2078C3.02555 92.7078 2.81722 92.1661 2.73389 91.5828C2.56722 90.7494 2.56722 89.9578 2.73389 89.2078C2.98389 88.4578 3.06722 87.7078 2.98389 86.9578C2.90055 86.7078 2.81722 86.4994 2.73389 86.3328C2.73389 86.0828 2.56722 85.8744 2.23389 85.7078C2.56722 84.7911 2.52555 84.1661 2.10889 83.8328C1.77555 83.4994 1.52555 83.0411 1.35889 82.4578C1.19222 82.2078 1.10889 81.9161 1.10889 81.5828C1.19222 81.2494 1.19222 80.9161 1.10889 80.5828C1.10889 80.4994 1.02555 80.2911 0.858887 79.9578C0.775553 79.6244 0.69222 79.2911 0.608887 78.9578C0.525553 78.6244 0.44222 78.3328 0.358887 78.0828C0.358887 77.7494 0.44222 77.5828 0.608887 77.5828C0.525553 77.4161 0.400553 77.2078 0.233887 76.9578C0.150553 76.6244 0.108887 76.3744 0.108887 76.2078C0.108887 75.9578 0.150553 75.4994 0.233887 74.8328C0.400553 74.0828 0.56722 73.2911 0.733887 72.4578C0.900553 71.6244 1.10889 70.8744 1.35889 70.2078C1.60889 69.5411 1.81722 69.1244 1.98389 68.9578C2.23389 68.7911 2.40055 68.7494 2.48389 68.8328C2.56722 68.9161 2.81722 68.7494 3.23389 68.3328C3.65055 68.1661 4.02555 68.2078 4.35889 68.4578C4.69222 68.7078 5.06722 68.7494 5.48389 68.5828C5.81722 68.9994 6.02555 69.7078 6.10889 70.7078C6.19222 71.6244 6.31722 72.3744 6.48389 72.9578C6.31722 73.3744 6.40055 73.5828 6.73389 73.5828C7.06722 73.5828 7.27555 73.7494 7.35889 74.0828C7.44222 74.4161 7.52555 74.8328 7.60889 75.3328C7.69222 75.7494 7.94222 76.0411 8.35889 76.2078C8.27555 76.6244 8.27555 77.0828 8.35889 77.5828C8.44222 78.0828 8.65055 78.4161 8.98389 78.5828C8.90055 79.2494 9.02555 79.7911 9.35889 80.2078C9.69222 80.6244 9.94222 80.9994 10.1089 81.3328C10.5256 82.1661 11.1089 82.8328 11.8589 83.3328C12.6089 83.8328 13.2756 84.4161 13.8589 85.0828C14.6922 85.2494 15.4006 85.5828 15.9839 86.0828C16.5672 86.4994 17.1922 86.9161 17.8589 87.3328C18.9422 87.3328 19.7756 87.6661 20.3589 88.3328C21.0256 88.1661 21.9006 88.3328 22.9839 88.8328C24.1506 89.3328 24.7756 89.7078 24.8589 89.9578C25.2756 89.7911 25.7339 89.7494 26.2339 89.8328C26.8172 89.9161 27.3589 89.9578 27.8589 89.9578C28.7756 89.7911 29.4006 89.7494 29.7339 89.8328C30.0672 89.9161 30.4422 89.8744 30.8589 89.7078C31.0256 89.6244 31.3589 89.6244 31.8589 89.7078C32.4422 89.7078 33.0256 89.7078 33.6089 89.7078C34.1922 89.7078 34.6922 89.6661 35.1089 89.5828C35.5256 89.4161 35.7339 89.2078 35.7339 88.9578C35.9006 89.1244 36.1922 89.1661 36.6089 89.0828C37.1089 88.9994 37.4422 88.9161 37.6089 88.8328C38.6089 88.4161 39.1922 88.2078 39.3589 88.2078C39.5256 88.2078 39.6922 88.2078 39.8589 88.2078C40.0256 88.2078 40.1922 88.1244 40.3589 87.9578C40.6089 87.7911 40.9422 87.4578 41.3589 86.9578C41.5256 86.0411 41.7756 85.4161 42.1089 85.0828C42.4422 84.7494 42.5672 84.2911 42.4839 83.7078C42.1506 82.8744 42.0256 82.4161 42.1089 82.3328C42.2756 82.1661 42.3172 81.9994 42.2339 81.8328C42.2339 80.6661 42.1089 79.4578 41.8589 78.2078C41.6089 76.9578 41.4422 75.7494 41.3589 74.5828C41.3589 74.2494 41.3589 73.9578 41.3589 73.7078C41.4422 73.3744 41.4422 73.0411 41.3589 72.7078C40.9422 71.7078 40.7339 70.9994 40.7339 70.5828C40.7339 70.0828 40.6506 69.6244 40.4839 69.2078C39.8172 68.2078 39.4006 67.3744 39.2339 66.7078C39.1506 65.9578 38.8589 65.5411 38.3589 65.4578C38.4422 64.6244 38.2756 63.9994 37.8589 63.5828C37.5256 63.1661 37.3589 62.5828 37.3589 61.8328C36.6089 61.4161 35.5672 60.9994 34.2339 60.5828C32.9006 60.1661 31.7756 59.8744 30.8589 59.7078C30.4422 59.6244 29.9839 59.6244 29.4839 59.7078C29.0672 59.7911 28.6089 59.7911 28.1089 59.7078C27.4422 59.5411 26.9006 59.3328 26.4839 59.0828C26.1506 58.7494 25.6922 58.4994 25.1089 58.3328C24.5256 58.1661 23.9422 58.0828 23.3589 58.0828C22.8589 58.0828 22.3589 57.9994 21.8589 57.8328C21.4422 57.6661 21.1089 57.4994 20.8589 57.3328C20.6089 57.1661 20.3172 56.9994 19.9839 56.8328C19.6506 56.7494 19.3172 56.7494 18.9839 56.8328C18.7339 56.9161 18.4422 56.9161 18.1089 56.8328C17.1922 56.4994 16.5672 56.3744 16.2339 56.4578C15.9839 56.5411 15.7339 56.5411 15.4839 56.4578C15.2339 56.3744 14.9839 56.2494 14.7339 56.0828C14.5672 55.9161 14.3589 55.7911 14.1089 55.7078C13.8589 55.6244 13.5672 55.5828 13.2339 55.5828C12.9839 55.4994 12.7339 55.3744 12.4839 55.2078C11.7339 54.9578 11.3589 54.7911 11.3589 54.7078C11.4422 54.5411 11.4422 54.4161 11.3589 54.3328C11.1922 54.1661 10.9006 54.0828 10.4839 54.0828C10.1506 53.9994 9.90055 53.9161 9.73389 53.8328C8.40055 52.6661 7.10889 51.4994 5.85889 50.3328C4.69222 49.0828 3.48389 47.8328 2.23389 46.5828C2.23389 46.4994 2.19222 46.2911 2.10889 45.9578C2.10889 45.5411 2.06722 45.1661 1.98389 44.8328C1.98389 44.4161 1.94222 44.0411 1.85889 43.7078C1.77555 43.2911 1.73389 43.0411 1.73389 42.9578C1.48389 42.1244 1.40055 41.6661 1.48389 41.5828C1.56722 41.4161 1.60889 41.2494 1.60889 41.0828C1.44222 40.0828 1.40055 39.4994 1.48389 39.3328C1.65055 39.1661 1.73389 38.9578 1.73389 38.7078C1.81722 38.2911 1.77555 37.9578 1.60889 37.7078C1.52555 37.4578 1.56722 37.0828 1.73389 36.5828C2.23389 35.7494 2.44222 35.1244 2.35889 34.7078C2.35889 34.2078 2.40055 33.7494 2.48389 33.3328C2.48389 33.2494 2.52555 32.9994 2.60889 32.5828C2.77555 32.0828 2.90055 31.5411 2.98389 30.9578C3.15055 30.3744 3.27555 29.8744 3.35889 29.4578C3.52555 28.9578 3.60889 28.7078 3.60889 28.7078C4.02555 27.9578 4.27555 27.5411 4.35889 27.4578C4.52555 27.3744 4.69222 27.2494 4.85889 27.0828C5.02555 26.8328 5.19222 26.5828 5.35889 26.3328C5.52555 25.9994 5.73389 25.7078 5.98389 25.4578C6.40055 24.9578 6.85889 24.4994 7.35889 24.0828C7.85889 23.6661 8.31722 23.2078 8.73389 22.7078C9.56722 22.3744 10.1089 22.1661 10.3589 22.0828C10.6922 21.9161 10.9422 21.6244 11.1089 21.2078C12.0256 20.8744 12.5256 20.7494 12.6089 20.8328C12.6922 20.8328 12.8172 20.8328 12.9839 20.8328C13.4006 20.3328 13.7756 20.1244 14.1089 20.2078C14.4422 20.2078 14.7756 20.1661 15.1089 20.0828C15.7756 19.9161 16.4839 19.6661 17.2339 19.3328C17.9839 18.9994 18.7339 18.9578 19.4839 19.2078C20.2339 18.8744 20.6506 18.7078 20.7339 18.7078C20.9006 18.6244 21.0256 18.5411 21.1089 18.4578C21.4422 18.4578 21.7339 18.4994 21.9839 18.5828C22.3172 18.6661 22.5672 18.7078 22.7339 18.7078C23.5672 18.2911 24.0672 18.1244 24.2339 18.2078C24.4839 18.2078 24.6922 18.1244 24.8589 17.9578C24.8589 16.6244 24.9006 15.2911 24.9839 13.9578C25.1506 12.5411 25.1089 11.1661 24.8589 9.83276C24.7756 8.6661 24.8172 7.95776 24.9839 7.70776C25.2339 7.37443 25.1922 6.9161 24.8589 6.33276C24.8589 5.58276 24.9006 4.83276 24.9839 4.08276C25.0672 3.33276 25.2339 2.70776 25.4839 2.20776C25.8172 1.70776 26.2756 1.37443 26.8589 1.20776C27.4422 1.0411 28.2339 1.20776 29.2339 1.70776ZM9.73389 28.7078C9.23389 29.1244 8.98389 29.4994 8.98389 29.8328C8.98389 30.1661 8.77555 30.3328 8.35889 30.3328C8.19222 30.9994 8.02555 31.4994 7.85889 31.8328C7.69222 32.1661 7.44222 32.5828 7.10889 33.0828C7.35889 33.9994 7.27555 34.9161 6.85889 35.8328C6.44222 36.6661 6.40055 37.5411 6.73389 38.4578C6.48389 38.6244 6.27555 39.1661 6.10889 40.0828C5.94222 40.9161 5.90055 41.4578 5.98389 41.7078C5.98389 42.0411 6.06722 42.3328 6.23389 42.5828C6.40055 42.7494 6.56722 42.9578 6.73389 43.2078C6.81722 44.2078 6.98389 44.8744 7.23389 45.2078C7.48389 45.4578 7.52555 45.7911 7.35889 46.2078C7.60889 46.3744 7.90055 46.6244 8.23389 46.9578C8.56722 47.2911 8.90055 47.6244 9.23389 47.9578C9.65055 48.2911 9.98389 48.5828 10.2339 48.8328C10.5672 49.0828 10.8589 49.2078 11.1089 49.2078C11.4422 48.8744 11.5256 48.5411 11.3589 48.2078C11.1922 47.8744 11.0256 47.4994 10.8589 47.0828C11.1922 46.1661 11.2339 44.9994 10.9839 43.5828C10.7339 42.1661 10.4006 40.9994 9.98389 40.0828C9.98389 38.4161 9.98389 37.0828 9.98389 36.0828C10.0672 35.0828 10.1922 34.1244 10.3589 33.2078C10.6089 32.2911 10.7756 31.3744 10.8589 30.4578C11.0256 29.5411 11.0256 28.5828 10.8589 27.5828C10.1922 27.7494 9.85889 27.9578 9.85889 28.2078C9.85889 28.3744 9.81722 28.5411 9.73389 28.7078ZM45.7339 75.0828C45.7339 76.4994 45.8589 77.9578 46.1089 79.4578C46.3589 80.9578 46.5672 82.4161 46.7339 83.8328C47.4839 83.0828 48.0256 82.5411 48.3589 82.2078C48.5256 80.9578 48.9839 79.9578 49.7339 79.2078C49.8172 78.0411 50.0256 76.8744 50.3589 75.7078C50.7756 74.4578 50.9422 73.2494 50.8589 72.0828C50.8589 71.4161 50.6922 70.7494 50.3589 70.0828C50.1089 69.4161 50.0672 68.7494 50.2339 68.0828C49.8172 67.4994 49.3589 66.9994 48.8589 66.5828C48.3589 66.1661 47.9422 65.6661 47.6089 65.0828C47.5256 65.0828 47.2339 64.9578 46.7339 64.7078C46.2339 64.4578 45.6922 64.2078 45.1089 63.9578C44.6089 63.6244 44.1089 63.3328 43.6089 63.0828C43.1089 62.7494 42.8172 62.5411 42.7339 62.4578C42.0672 63.2911 41.9006 64.0411 42.2339 64.7078C42.5672 65.2911 42.9006 65.9578 43.2339 66.7078C43.5672 67.6244 43.9006 68.2494 44.2339 68.5828C44.5672 68.9161 44.8589 69.4578 45.1089 70.2078C45.2756 70.6244 45.3172 71.0411 45.2339 71.4578C45.1506 71.8744 45.1922 72.2911 45.3589 72.7078C45.3589 72.8744 45.4422 73.1244 45.6089 73.4578C45.7756 73.7078 45.8172 73.9161 45.7339 74.0828V75.0828Z" fill="#FF0000"/>
<path d="M29.2339 1.70776C29.0672 2.5411 29.0256 3.37443 29.1089 4.20776C29.1922 4.95776 29.2339 5.74943 29.2339 6.58276C29.2339 6.83276 29.1922 7.08276 29.1089 7.33276C29.0256 7.58276 28.9839 7.7911 28.9839 7.95776C29.0672 8.37443 29.1506 8.74943 29.2339 9.08276C29.4006 9.33276 29.4839 9.6661 29.4839 10.0828C29.4839 10.5828 29.5256 11.1244 29.6089 11.7078C29.6922 12.2078 29.7339 12.6661 29.7339 13.0828C29.6506 13.7494 29.4422 14.4994 29.1089 15.3328C28.7756 16.1661 28.8172 16.9161 29.2339 17.5828C29.4839 17.9994 30.1506 18.2078 31.2339 18.2078C32.3172 18.2078 33.0672 18.1244 33.4839 17.9578C33.9006 18.4578 34.4422 18.7911 35.1089 18.9578C35.8589 19.1244 36.5672 19.2078 37.2339 19.2078C37.5672 19.6244 38.2756 20.0411 39.3589 20.4578C40.5256 20.7911 41.3589 21.1244 41.8589 21.4578C42.4422 22.2911 42.8172 22.7078 42.9839 22.7078C43.1506 22.7078 43.3172 22.7911 43.4839 22.9578C43.7339 23.1244 43.9422 23.3744 44.1089 23.7078C44.3589 24.0411 44.6922 24.2494 45.1089 24.3328C45.0256 24.6661 45.0256 24.9161 45.1089 25.0828C45.2756 25.1661 45.4422 25.3744 45.6089 25.7078C46.0256 25.8744 46.2756 26.1661 46.3589 26.5828C46.5256 26.9161 46.7339 27.2494 46.9839 27.5828C47.2339 27.8328 47.5256 28.0411 47.8589 28.2078C48.1922 28.3744 48.4422 28.6244 48.6089 28.9578C48.7756 27.2078 48.9006 25.4578 48.9839 23.7078C49.0672 21.9578 49.0256 20.2078 48.8589 18.4578C49.2756 17.9578 49.6922 17.5828 50.1089 17.3328C50.6089 16.9994 51.1922 16.9161 51.8589 17.0828C52.4422 17.4994 52.7339 17.8328 52.7339 18.0828C52.7339 18.2494 52.8172 18.2911 52.9839 18.2078C52.9839 18.7078 52.9422 19.3744 52.8589 20.2078C52.7756 21.0411 52.6922 21.8744 52.6089 22.7078C52.5256 23.5411 52.4839 24.3328 52.4839 25.0828C52.5672 25.8328 52.7339 26.4161 52.9839 26.8328C52.8172 27.9994 52.8589 28.8328 53.1089 29.3328C53.3589 29.7494 53.4839 30.2494 53.4839 30.8328C53.4839 31.4994 53.3172 32.0828 52.9839 32.5828C52.7339 33.0828 52.5672 33.6661 52.4839 34.3328C52.4839 34.5828 52.5256 34.8328 52.6089 35.0828C52.6922 35.3328 52.7339 35.6244 52.7339 35.9578C52.5672 37.2078 52.5256 38.1244 52.6089 38.7078C52.7756 39.2078 52.7339 39.6661 52.4839 40.0828C51.8172 40.3328 51.1506 40.5411 50.4839 40.7078C49.9006 40.7911 49.2756 40.7494 48.6089 40.5828C48.3589 40.3328 48.1506 40.0828 47.9839 39.8328C47.8172 39.4994 47.6089 39.2078 47.3589 38.9578C47.1089 38.6244 47.1506 38.3744 47.4839 38.2078C47.9006 37.9578 48.0256 37.5828 47.8589 37.0828C47.6089 35.5828 47.0256 34.2911 46.1089 33.2078C45.2756 32.1244 44.4006 30.9994 43.4839 29.8328L42.4839 28.4578C42.1506 28.0411 41.7756 27.6661 41.3589 27.3328C40.9422 26.9161 40.6506 26.4578 40.4839 25.9578C40.0672 25.9578 39.7339 25.7911 39.4839 25.4578C39.2339 25.0411 38.9422 24.7494 38.6089 24.5828C38.3589 24.4994 37.9006 24.3328 37.2339 24.0828C36.5672 23.8328 35.8172 23.6244 34.9839 23.4578C34.2339 23.2078 33.4839 22.9994 32.7339 22.8328C32.0672 22.5828 31.6089 22.4578 31.3589 22.4578C30.8589 22.3744 30.3589 22.4161 29.8589 22.5828C29.4422 22.6661 29.0256 22.7078 28.6089 22.7078C27.6089 22.3744 26.9839 22.2494 26.7339 22.3328C26.4839 22.4161 26.2339 22.4578 25.9839 22.4578C25.3172 22.4578 24.7339 22.4161 24.2339 22.3328C23.7339 22.2494 23.1506 22.4578 22.4839 22.9578C21.3172 22.7911 20.2756 22.8744 19.3589 23.2078C18.4422 23.4578 17.4006 23.6661 16.2339 23.8328C16.1506 24.0828 16.1506 24.3328 16.2339 24.5828C16.4006 24.8328 16.4006 25.0411 16.2339 25.2078C15.9839 25.7078 15.7756 26.2078 15.6089 26.7078C15.5256 27.2078 15.4006 27.7078 15.2339 28.2078C15.4006 28.3744 15.3589 28.6661 15.1089 29.0828C14.9422 29.4161 14.8589 29.6661 14.8589 29.8328C14.7756 30.1661 14.7756 30.4994 14.8589 30.8328C15.0256 31.0828 15.1089 31.3744 15.1089 31.7078C15.0256 31.9578 14.9006 32.2078 14.7339 32.4578C14.6506 32.7078 14.6089 32.9161 14.6089 33.0828C14.4422 33.9994 14.4422 34.8744 14.6089 35.7078C14.7756 36.5411 14.8589 37.3744 14.8589 38.2078C14.8589 38.4578 14.8172 38.7078 14.7339 38.9578C14.6506 39.2078 14.6089 39.4578 14.6089 39.7078C14.6089 40.0411 14.6506 40.3744 14.7339 40.7078C14.9006 41.0411 15.0256 41.3744 15.1089 41.7078C15.1922 42.2911 15.2339 42.9578 15.2339 43.7078C15.2339 44.4578 15.4839 45.0411 15.9839 45.4578C15.8172 45.6244 15.7339 45.8744 15.7339 46.2078C15.7339 46.4578 15.6506 46.6661 15.4839 46.8328C15.6506 47.4994 15.8589 48.0828 16.1089 48.5828C16.3589 48.9994 16.4006 49.5828 16.2339 50.3328C16.8172 50.8328 17.0256 51.1661 16.8589 51.3328C16.6922 51.4994 16.6506 51.6244 16.7339 51.7078C16.9006 52.0411 17.2339 52.3328 17.7339 52.5828C18.3172 52.8328 18.9422 53.0411 19.6089 53.2078C20.3589 53.2911 21.0672 53.4161 21.7339 53.5828C22.4006 53.6661 22.9006 53.7494 23.2339 53.8328C23.6506 53.9994 23.9839 54.1661 24.2339 54.3328C24.5672 54.4994 24.9422 54.6661 25.3589 54.8328C25.7756 54.9161 26.1506 54.9578 26.4839 54.9578C26.8172 54.8744 27.1922 54.9161 27.6089 55.0828C28.5256 55.2494 29.3589 55.4994 30.1089 55.8328C30.9422 56.0828 31.8172 56.2911 32.7339 56.4578C32.9839 56.5411 33.2339 56.5411 33.4839 56.4578C33.8172 56.3744 34.1089 56.3744 34.3589 56.4578C35.6089 56.8744 36.5256 57.0411 37.1089 56.9578C37.7756 56.8744 38.4006 56.9161 38.9839 57.0828C39.4006 57.1661 39.7339 57.2911 39.9839 57.4578C40.2339 57.5411 40.5256 57.6661 40.8589 57.8328C41.8589 58.1661 43.1089 58.5411 44.6089 58.9578C46.1922 59.3744 47.2756 59.9994 47.8589 60.8328C48.5256 60.9161 49.0672 61.1244 49.4839 61.4578C49.9006 61.7911 50.4422 62.0411 51.1089 62.2078C51.3589 62.7911 51.6506 63.2494 51.9839 63.5828C52.4006 63.9161 52.8172 64.3328 53.2339 64.8328C53.9006 66.1661 54.3172 67.2078 54.4839 67.9578C54.6506 68.7078 54.7756 69.4994 54.8589 70.3328C55.0256 71.4161 55.0256 72.0828 54.8589 72.3328C54.7756 72.4994 54.6922 72.7078 54.6089 72.9578C54.5256 73.2911 54.5256 73.6244 54.6089 73.9578C54.6922 74.2911 54.6922 74.6661 54.6089 75.0828C54.6089 75.3328 54.5256 75.8328 54.3589 76.5828C54.1922 77.2494 54.0256 77.9994 53.8589 78.8328C53.6922 79.5828 53.4839 80.3328 53.2339 81.0828C52.9839 81.7494 52.8172 82.2078 52.7339 82.4578C52.3172 82.8744 52.1506 83.2078 52.2339 83.4578C52.3172 83.7078 52.2756 83.9161 52.1089 84.0828C51.4422 84.9161 50.9839 85.5828 50.7339 86.0828C50.4839 86.4994 50.1506 86.7911 49.7339 86.9578C49.8172 87.2911 49.7756 87.5411 49.6089 87.7078C49.4422 87.7911 49.4006 87.9994 49.4839 88.3328C48.7339 89.0828 48.1089 89.5411 47.6089 89.7078C47.1922 89.8744 46.9006 90.0411 46.7339 90.2078L45.6089 91.0828C44.3589 91.1661 43.5256 91.3328 43.1089 91.5828C42.6922 91.7494 42.2756 91.9161 41.8589 92.0828C40.6922 92.3328 39.4839 92.4994 38.2339 92.5828C37.0672 92.5828 36.0256 92.8744 35.1089 93.4578C34.6089 93.1244 34.0256 93.0828 33.3589 93.3328C32.6922 93.5828 32.0256 93.6244 31.3589 93.4578C31.1089 94.1244 31.1506 94.8744 31.4839 95.7078C31.8172 96.5411 31.9422 97.1661 31.8589 97.5828C32.2756 98.5828 32.4422 99.2494 32.3589 99.5828C32.2756 99.9161 32.3172 100.291 32.4839 100.708C32.7339 101.124 32.7339 101.999 32.4839 103.333C32.3172 104.583 32.1089 105.416 31.8589 105.833C31.3589 106.416 30.6506 106.708 29.7339 106.708C28.8172 106.708 28.1089 106.416 27.6089 105.833C27.6089 105.249 27.5672 104.666 27.4839 104.083C27.4006 103.416 27.5256 102.833 27.8589 102.333C27.6089 101.999 27.4422 101.749 27.3589 101.583C27.3589 101.333 27.3589 101.124 27.3589 100.958C27.4422 100.791 27.4839 100.624 27.4839 100.458C27.5672 100.291 27.6089 100.041 27.6089 99.7078C27.6089 99.2911 27.5256 98.9578 27.3589 98.7078C27.2756 98.3744 27.1922 97.9994 27.1089 97.5828C27.0256 96.9161 26.9839 96.2911 26.9839 95.7078C26.9839 95.0411 26.9006 94.3744 26.7339 93.7078C26.4839 93.7911 26.1089 93.7911 25.6089 93.7078C25.1922 93.6244 24.9422 93.7078 24.8589 93.9578C24.1089 93.6244 23.4839 93.2911 22.9839 92.9578C22.4839 92.6244 21.7756 92.4578 20.8589 92.4578C20.4422 91.9578 19.6922 91.5411 18.6089 91.2078C17.5256 90.7911 16.6506 90.4578 15.9839 90.2078C15.5672 90.0411 15.1506 89.8328 14.7339 89.5828C14.4006 89.3328 14.0256 89.1244 13.6089 88.9578C13.1922 88.7911 12.7756 88.6661 12.3589 88.5828C11.9422 88.4994 11.5256 88.3328 11.1089 88.0828C10.7756 87.9161 10.4839 87.6661 10.2339 87.3328C9.98389 86.9994 9.65055 86.8744 9.23389 86.9578C9.06722 86.5411 8.81722 86.2911 8.48389 86.2078C8.23389 86.0411 7.94222 85.8744 7.60889 85.7078C7.19222 86.2911 6.98389 87.1244 6.98389 88.2078C7.06722 89.2911 7.19222 90.1661 7.35889 90.8328C7.44222 91.2494 7.65055 91.5828 7.98389 91.8328C8.31722 91.9994 8.48389 92.2911 8.48389 92.7078C8.15055 93.6244 7.77555 94.1661 7.35889 94.3328C7.02555 94.4161 6.81722 94.7494 6.73389 95.3328C6.31722 95.1661 5.85889 95.0828 5.35889 95.0828C4.94222 94.9994 4.52555 94.9161 4.10889 94.8328C3.94222 94.2494 3.69222 93.7078 3.35889 93.2078C3.02555 92.7078 2.81722 92.1661 2.73389 91.5828C2.56722 90.7494 2.56722 89.9578 2.73389 89.2078C2.98389 88.4578 3.06722 87.7078 2.98389 86.9578C2.90055 86.7078 2.81722 86.4994 2.73389 86.3328C2.73389 86.0828 2.56722 85.8744 2.23389 85.7078C2.56722 84.7911 2.52555 84.1661 2.10889 83.8328C1.77555 83.4994 1.52555 83.0411 1.35889 82.4578C1.19222 82.2078 1.10889 81.9161 1.10889 81.5828C1.19222 81.2494 1.19222 80.9161 1.10889 80.5828C1.10889 80.4994 1.02555 80.2911 0.858887 79.9578C0.775553 79.6244 0.69222 79.2911 0.608887 78.9578C0.525553 78.6244 0.44222 78.3328 0.358887 78.0828C0.358887 77.7494 0.44222 77.5828 0.608887 77.5828C0.525553 77.4161 0.400553 77.2078 0.233887 76.9578C0.150553 76.6244 0.108887 76.3744 0.108887 76.2078C0.108887 75.9578 0.150553 75.4994 0.233887 74.8328C0.400553 74.0828 0.56722 73.2911 0.733887 72.4578C0.900553 71.6244 1.10889 70.8744 1.35889 70.2078C1.60889 69.5411 1.81722 69.1244 1.98389 68.9578C2.23389 68.7911 2.40055 68.7494 2.48389 68.8328C2.56722 68.9161 2.81722 68.7494 3.23389 68.3328C3.65055 68.1661 4.02555 68.2078 4.35889 68.4578C4.69222 68.7078 5.06722 68.7494 5.48389 68.5828C5.81722 68.9994 6.02555 69.7078 6.10889 70.7078C6.19222 71.6244 6.31722 72.3744 6.48389 72.9578C6.31722 73.3744 6.40055 73.5828 6.73389 73.5828C7.06722 73.5828 7.27555 73.7494 7.35889 74.0828C7.44222 74.4161 7.52555 74.8328 7.60889 75.3328C7.69222 75.7494 7.94222 76.0411 8.35889 76.2078C8.27555 76.6244 8.27555 77.0828 8.35889 77.5828C8.44222 78.0828 8.65055 78.4161 8.98389 78.5828C8.90055 79.2494 9.02555 79.7911 9.35889 80.2078C9.69222 80.6244 9.94222 80.9994 10.1089 81.3328C10.5256 82.1661 11.1089 82.8328 11.8589 83.3328C12.6089 83.8328 13.2756 84.4161 13.8589 85.0828C14.6922 85.2494 15.4006 85.5828 15.9839 86.0828C16.5672 86.4994 17.1922 86.9161 17.8589 87.3328C18.9422 87.3328 19.7756 87.6661 20.3589 88.3328C21.0256 88.1661 21.9006 88.3328 22.9839 88.8328C24.1506 89.3328 24.7756 89.7078 24.8589 89.9578C25.2756 89.7911 25.7339 89.7494 26.2339 89.8328C26.8172 89.9161 27.3589 89.9578 27.8589 89.9578C28.7756 89.7911 29.4006 89.7494 29.7339 89.8328C30.0672 89.9161 30.4422 89.8744 30.8589 89.7078C31.0256 89.6244 31.3589 89.6244 31.8589 89.7078C32.4422 89.7078 33.0256 89.7078 33.6089 89.7078C34.1922 89.7078 34.6922 89.6661 35.1089 89.5828C35.5256 89.4161 35.7339 89.2078 35.7339 88.9578C35.9006 89.1244 36.1922 89.1661 36.6089 89.0828C37.1089 88.9994 37.4422 88.9161 37.6089 88.8328C38.6089 88.4161 39.1922 88.2078 39.3589 88.2078C39.5256 88.2078 39.6922 88.2078 39.8589 88.2078C40.0256 88.2078 40.1922 88.1244 40.3589 87.9578C40.6089 87.7911 40.9422 87.4578 41.3589 86.9578C41.5256 86.0411 41.7756 85.4161 42.1089 85.0828C42.4422 84.7494 42.5672 84.2911 42.4839 83.7078C42.1506 82.8744 42.0256 82.4161 42.1089 82.3328C42.2756 82.1661 42.3172 81.9994 42.2339 81.8328C42.2339 80.6661 42.1089 79.4578 41.8589 78.2078C41.6089 76.9578 41.4422 75.7494 41.3589 74.5828C41.3589 74.2494 41.3589 73.9578 41.3589 73.7078C41.4422 73.3744 41.4422 73.0411 41.3589 72.7078C40.9422 71.7078 40.7339 70.9994 40.7339 70.5828C40.7339 70.0828 40.6506 69.6244 40.4839 69.2078C39.8172 68.2078 39.4006 67.3744 39.2339 66.7078C39.1506 65.9578 38.8589 65.5411 38.3589 65.4578C38.4422 64.6244 38.2756 63.9994 37.8589 63.5828C37.5256 63.1661 37.3589 62.5828 37.3589 61.8328C36.6089 61.4161 35.5672 60.9994 34.2339 60.5828C32.9006 60.1661 31.7756 59.8744 30.8589 59.7078C30.4422 59.6244 29.9839 59.6244 29.4839 59.7078C29.0672 59.7911 28.6089 59.7911 28.1089 59.7078C27.4422 59.5411 26.9006 59.3328 26.4839 59.0828C26.1506 58.7494 25.6922 58.4994 25.1089 58.3328C24.5256 58.1661 23.9422 58.0828 23.3589 58.0828C22.8589 58.0828 22.3589 57.9994 21.8589 57.8328C21.4422 57.6661 21.1089 57.4994 20.8589 57.3328C20.6089 57.1661 20.3172 56.9994 19.9839 56.8328C19.6506 56.7494 19.3172 56.7494 18.9839 56.8328C18.7339 56.9161 18.4422 56.9161 18.1089 56.8328C17.1922 56.4994 16.5672 56.3744 16.2339 56.4578C15.9839 56.5411 15.7339 56.5411 15.4839 56.4578C15.2339 56.3744 14.9839 56.2494 14.7339 56.0828C14.5672 55.9161 14.3589 55.7911 14.1089 55.7078C13.8589 55.6244 13.5672 55.5828 13.2339 55.5828C12.9839 55.4994 12.7339 55.3744 12.4839 55.2078C11.7339 54.9578 11.3589 54.7911 11.3589 54.7078C11.4422 54.5411 11.4422 54.4161 11.3589 54.3328C11.1922 54.1661 10.9006 54.0828 10.4839 54.0828C10.1506 53.9994 9.90055 53.9161 9.73389 53.8328C8.40055 52.6661 7.10889 51.4994 5.85889 50.3328C4.69222 49.0828 3.48389 47.8328 2.23389 46.5828C2.23389 46.4994 2.19222 46.2911 2.10889 45.9578C2.10889 45.5411 2.06722 45.1661 1.98389 44.8328C1.98389 44.4161 1.94222 44.0411 1.85889 43.7078C1.77555 43.2911 1.73389 43.0411 1.73389 42.9578C1.48389 42.1244 1.40055 41.6661 1.48389 41.5828C1.56722 41.4161 1.60889 41.2494 1.60889 41.0828C1.44222 40.0828 1.40055 39.4994 1.48389 39.3328C1.65055 39.1661 1.73389 38.9578 1.73389 38.7078C1.81722 38.2911 1.77555 37.9578 1.60889 37.7078C1.52555 37.4578 1.56722 37.0828 1.73389 36.5828C2.23389 35.7494 2.44222 35.1244 2.35889 34.7078C2.35889 34.2078 2.40055 33.7494 2.48389 33.3328C2.48389 33.2494 2.52555 32.9994 2.60889 32.5828C2.77555 32.0828 2.90055 31.5411 2.98389 30.9578C3.15055 30.3744 3.27555 29.8744 3.35889 29.4578C3.52555 28.9578 3.60889 28.7078 3.60889 28.7078C4.02555 27.9578 4.27555 27.5411 4.35889 27.4578C4.52555 27.3744 4.69222 27.2494 4.85889 27.0828C5.02555 26.8328 5.19222 26.5828 5.35889 26.3328C5.52555 25.9994 5.73389 25.7078 5.98389 25.4578C6.40055 24.9578 6.85889 24.4994 7.35889 24.0828C7.85889 23.6661 8.31722 23.2078 8.73389 22.7078C9.56722 22.3744 10.1089 22.1661 10.3589 22.0828C10.6922 21.9161 10.9422 21.6244 11.1089 21.2078C12.0256 20.8744 12.5256 20.7494 12.6089 20.8328C12.6922 20.8328 12.8172 20.8328 12.9839 20.8328C13.4006 20.3328 13.7756 20.1244 14.1089 20.2078C14.4422 20.2078 14.7756 20.1661 15.1089 20.0828C15.7756 19.9161 16.4839 19.6661 17.2339 19.3328C17.9839 18.9994 18.7339 18.9578 19.4839 19.2078C20.2339 18.8744 20.6506 18.7078 20.7339 18.7078C20.9006 18.6244 21.0256 18.5411 21.1089 18.4578C21.4422 18.4578 21.7339 18.4994 21.9839 18.5828C22.3172 18.6661 22.5672 18.7078 22.7339 18.7078C23.5672 18.2911 24.0672 18.1244 24.2339 18.2078C24.4839 18.2078 24.6922 18.1244 24.8589 17.9578C24.8589 16.6244 24.9006 15.2911 24.9839 13.9578C25.1506 12.5411 25.1089 11.1661 24.8589 9.83276C24.7756 8.6661 24.8172 7.95776 24.9839 7.70776C25.2339 7.37443 25.1922 6.9161 24.8589 6.33276C24.8589 5.58276 24.9006 4.83276 24.9839 4.08276C25.0672 3.33276 25.2339 2.70776 25.4839 2.20776C25.8172 1.70776 26.2756 1.37443 26.8589 1.20776C27.4422 1.0411 28.2339 1.20776 29.2339 1.70776ZM9.73389 28.7078C9.23389 29.1244 8.98389 29.4994 8.98389 29.8328C8.98389 30.1661 8.77555 30.3328 8.35889 30.3328C8.19222 30.9994 8.02555 31.4994 7.85889 31.8328C7.69222 32.1661 7.44222 32.5828 7.10889 33.0828C7.35889 33.9994 7.27555 34.9161 6.85889 35.8328C6.44222 36.6661 6.40055 37.5411 6.73389 38.4578C6.48389 38.6244 6.27555 39.1661 6.10889 40.0828C5.94222 40.9161 5.90055 41.4578 5.98389 41.7078C5.98389 42.0411 6.06722 42.3328 6.23389 42.5828C6.40055 42.7494 6.56722 42.9578 6.73389 43.2078C6.81722 44.2078 6.98389 44.8744 7.23389 45.2078C7.48389 45.4578 7.52555 45.7911 7.35889 46.2078C7.60889 46.3744 7.90055 46.6244 8.23389 46.9578C8.56722 47.2911 8.90055 47.6244 9.23389 47.9578C9.65055 48.2911 9.98389 48.5828 10.2339 48.8328C10.5672 49.0828 10.8589 49.2078 11.1089 49.2078C11.4422 48.8744 11.5256 48.5411 11.3589 48.2078C11.1922 47.8744 11.0256 47.4994 10.8589 47.0828C11.1922 46.1661 11.2339 44.9994 10.9839 43.5828C10.7339 42.1661 10.4006 40.9994 9.98389 40.0828C9.98389 38.4161 9.98389 37.0828 9.98389 36.0828C10.0672 35.0828 10.1922 34.1244 10.3589 33.2078C10.6089 32.2911 10.7756 31.3744 10.8589 30.4578C11.0256 29.5411 11.0256 28.5828 10.8589 27.5828C10.1922 27.7494 9.85889 27.9578 9.85889 28.2078C9.85889 28.3744 9.81722 28.5411 9.73389 28.7078ZM45.7339 75.0828C45.7339 76.4994 45.8589 77.9578 46.1089 79.4578C46.3589 80.9578 46.5672 82.4161 46.7339 83.8328C47.4839 83.0828 48.0256 82.5411 48.3589 82.2078C48.5256 80.9578 48.9839 79.9578 49.7339 79.2078C49.8172 78.0411 50.0256 76.8744 50.3589 75.7078C50.7756 74.4578 50.9422 73.2494 50.8589 72.0828C50.8589 71.4161 50.6922 70.7494 50.3589 70.0828C50.1089 69.4161 50.0672 68.7494 50.2339 68.0828C49.8172 67.4994 49.3589 66.9994 48.8589 66.5828C48.3589 66.1661 47.9422 65.6661 47.6089 65.0828C47.5256 65.0828 47.2339 64.9578 46.7339 64.7078C46.2339 64.4578 45.6922 64.2078 45.1089 63.9578C44.6089 63.6244 44.1089 63.3328 43.6089 63.0828C43.1089 62.7494 42.8172 62.5411 42.7339 62.4578C42.0672 63.2911 41.9006 64.0411 42.2339 64.7078C42.5672 65.2911 42.9006 65.9578 43.2339 66.7078C43.5672 67.6244 43.9006 68.2494 44.2339 68.5828C44.5672 68.9161 44.8589 69.4578 45.1089 70.2078C45.2756 70.6244 45.3172 71.0411 45.2339 71.4578C45.1506 71.8744 45.1922 72.2911 45.3589 72.7078C45.3589 72.8744 45.4422 73.1244 45.6089 73.4578C45.7756 73.7078 45.8172 73.9161 45.7339 74.0828V75.0828Z" fill="#FF00FF"/>
</svg>
