<svg width="56" height="107" viewBox="0 0 56 107" fill="none" xmlns="http://www.w3.org/2000/svg">
<path d="M30 1.625C29.8333 2.45833 29.7917 3.29167 29.875 4.125C29.9583 4.875 30 5.66667 30 6.5C30 6.75 29.9583 7 29.875 7.25C29.7917 7.5 29.75 7.70833 29.75 7.875C29.8333 8.29167 29.9167 8.66667 30 9C30.1667 9.25 30.25 9.58333 30.25 10C30.25 10.5 30.2917 11.0417 30.375 11.625C30.4583 12.125 30.5 12.5833 30.5 13C30.4167 13.6667 30.2083 14.4167 29.875 15.25C29.5417 16.0833 29.5833 16.8333 30 17.5C30.25 17.9167 30.9167 18.125 32 18.125C33.0833 18.125 33.8333 18.0417 34.25 17.875C34.6667 18.375 35.2083 18.7083 35.875 18.875C36.625 19.0417 37.3333 19.125 38 19.125C38.3333 19.5417 39.0417 19.9583 40.125 20.375C41.2917 20.7083 42.125 21.0417 42.625 21.375C43.2083 22.2083 43.5833 22.625 43.75 22.625C43.9167 22.625 44.0833 22.7083 44.25 22.875C44.5 23.0417 44.7083 23.2917 44.875 23.625C45.125 23.9583 45.4583 24.1667 45.875 24.25C45.7917 24.5833 45.7917 24.8333 45.875 25C46.0417 25.0833 46.2083 25.2917 46.375 25.625C46.7917 25.7917 47.0417 26.0833 47.125 26.5C47.2917 26.8333 47.5 27.1667 47.75 27.5C48 27.75 48.2917 27.9583 48.625 28.125C48.9583 28.2917 49.2083 28.5417 49.375 28.875C49.5417 27.125 49.6667 25.375 49.75 23.625C49.8333 21.875 49.7917 20.125 49.625 18.375C50.0417 17.875 50.4583 17.5 50.875 17.25C51.375 16.9167 51.9583 16.8333 52.625 17C53.2083 17.4167 53.5 17.75 53.5 18C53.5 18.1667 53.5833 18.2083 53.75 18.125C53.75 18.625 53.7083 19.2917 53.625 20.125C53.5417 20.9583 53.4583 21.7917 53.375 22.625C53.2917 23.4583 53.25 24.25 53.25 25C53.3333 25.75 53.5 26.3333 53.75 26.75C53.5833 27.9167 53.625 28.75 53.875 29.25C54.125 29.6667 54.25 30.1667 54.25 30.75C54.25 31.4167 54.0833 32 53.75 32.5C53.5 33 53.3333 33.5833 53.25 34.25C53.25 34.5 53.2917 34.75 53.375 35C53.4583 35.25 53.5 35.5417 53.5 35.875C53.3333 37.125 53.2917 38.0417 53.375 38.625C53.5417 39.125 53.5 39.5833 53.25 40C52.5833 40.25 51.9167 40.4583 51.25 40.625C50.6667 40.7083 50.0417 40.6667 49.375 40.5C49.125 40.25 48.9167 40 48.75 39.75C48.5833 39.4167 48.375 39.125 48.125 38.875C47.875 38.5417 47.9167 38.2917 48.25 38.125C48.6667 37.875 48.7917 37.5 48.625 37C48.375 35.5 47.7917 34.2083 46.875 33.125C46.0417 32.0417 45.1667 30.9167 44.25 29.75L43.25 28.375C42.9167 27.9583 42.5417 27.5833 42.125 27.25C41.7083 26.8333 41.4167 26.375 41.25 25.875C40.8333 25.875 40.5 25.7083 40.25 25.375C40 24.9583 39.7083 24.6667 39.375 24.5C39.125 24.4167 38.6667 24.25 38 24C37.3333 23.75 36.5833 23.5417 35.75 23.375C35 23.125 34.25 22.9167 33.5 22.75C32.8333 22.5 32.375 22.375 32.125 22.375C31.625 22.2917 31.125 22.3333 30.625 22.5C30.2083 22.5833 29.7917 22.625 29.375 22.625C28.375 22.2917 27.75 22.1667 27.5 22.25C27.25 22.3333 27 22.375 26.75 22.375C26.0833 22.375 25.5 22.3333 25 22.25C24.5 22.1667 23.9167 22.375 23.25 22.875C22.0833 22.7083 21.0417 22.7917 20.125 23.125C19.2083 23.375 18.1667 23.5833 17 23.75C16.9167 24 16.9167 24.25 17 24.5C17.1667 24.75 17.1667 24.9583 17 25.125C16.75 25.625 16.5417 26.125 16.375 26.625C16.2917 27.125 16.1667 27.625 16 28.125C16.1667 28.2917 16.125 28.5833 15.875 29C15.7083 29.3333 15.625 29.5833 15.625 29.75C15.5417 30.0833 15.5417 30.4167 15.625 30.75C15.7917 31 15.875 31.2917 15.875 31.625C15.7917 31.875 15.6667 32.125 15.5 32.375C15.4167 32.625 15.375 32.8333 15.375 33C15.2083 33.9167 15.2083 34.7917 15.375 35.625C15.5417 36.4583 15.625 37.2917 15.625 38.125C15.625 38.375 15.5833 38.625 15.5 38.875C15.4167 39.125 15.375 39.375 15.375 39.625C15.375 39.9583 15.4167 40.2917 15.5 40.625C15.6667 40.9583 15.7917 41.2917 15.875 41.625C15.9583 42.2083 16 42.875 16 43.625C16 44.375 16.25 44.9583 16.75 45.375C16.5833 45.5417 16.5 45.7917 16.5 46.125C16.5 46.375 16.4167 46.5833 16.25 46.75C16.4167 47.4167 16.625 48 16.875 48.5C17.125 48.9167 17.1667 49.5 17 50.25C17.5833 50.75 17.7917 51.0833 17.625 51.25C17.4583 51.4167 17.4167 51.5417 17.5 51.625C17.6667 51.9583 18 52.25 18.5 52.5C19.0833 52.75 19.7083 52.9583 20.375 53.125C21.125 53.2083 21.8333 53.3333 22.5 53.5C23.1667 53.5833 23.6667 53.6667 24 53.75C24.4167 53.9167 24.75 54.0833 25 54.25C25.3333 54.4167 25.7083 54.5833 26.125 54.75C26.5417 54.8333 26.9167 54.875 27.25 54.875C27.5833 54.7917 27.9583 54.8333 28.375 55C29.2917 55.1667 30.125 55.4167 30.875 55.75C31.7083 56 32.5833 56.2083 33.5 56.375C33.75 56.4583 34 56.4583 34.25 56.375C34.5833 56.2917 34.875 56.2917 35.125 56.375C36.375 56.7917 37.2917 56.9583 37.875 56.875C38.5417 56.7917 39.1667 56.8333 39.75 57C40.1667 57.0833 40.5 57.2083 40.75 57.375C41 57.4583 41.2917 57.5833 41.625 57.75C42.625 58.0833 43.875 58.4583 45.375 58.875C46.9583 59.2917 48.0417 59.9167 48.625 60.75C49.2917 60.8333 49.8333 61.0417 50.25 61.375C50.6667 61.7083 51.2083 61.9583 51.875 62.125C52.125 62.7083 52.4167 63.1667 52.75 63.5C53.1667 63.8333 53.5833 64.25 54 64.75C54.6667 66.0833 55.0833 67.125 55.25 67.875C55.4167 68.625 55.5417 69.4167 55.625 70.25C55.7917 71.3333 55.7917 72 55.625 72.25C55.5417 72.4167 55.4583 72.625 55.375 72.875C55.2917 73.2083 55.2917 73.5417 55.375 73.875C55.4583 74.2083 55.4583 74.5833 55.375 75C55.375 75.25 55.2917 75.75 55.125 76.5C54.9583 77.1667 54.7917 77.9167 54.625 78.75C54.4583 79.5 54.25 80.25 54 81C53.75 81.6667 53.5833 82.125 53.5 82.375C53.0833 82.7917 52.9167 83.125 53 83.375C53.0833 83.625 53.0417 83.8333 52.875 84C52.2083 84.8333 51.75 85.5 51.5 86C51.25 86.4167 50.9167 86.7083 50.5 86.875C50.5833 87.2083 50.5417 87.4583 50.375 87.625C50.2083 87.7083 50.1667 87.9167 50.25 88.25C49.5 89 48.875 89.4583 48.375 89.625C47.9583 89.7917 47.6667 89.9583 47.5 90.125L46.375 91C45.125 91.0833 44.2917 91.25 43.875 91.5C43.4583 91.6667 43.0417 91.8333 42.625 92C41.4583 92.25 40.25 92.4167 39 92.5C37.8333 92.5 36.7917 92.7917 35.875 93.375C35.375 93.0417 34.7917 93 34.125 93.25C33.4583 93.5 32.7917 93.5417 32.125 93.375C31.875 94.0417 31.9167 94.7917 32.25 95.625C32.5833 96.4583 32.7083 97.0833 32.625 97.5C33.0417 98.5 33.2083 99.1667 33.125 99.5C33.0417 99.8333 33.0833 100.208 33.25 100.625C33.5 101.042 33.5 101.917 33.25 103.25C33.0833 104.5 32.875 105.333 32.625 105.75C32.125 106.333 31.4167 106.625 30.5 106.625C29.5833 106.625 28.875 106.333 28.375 105.75C28.375 105.167 28.3333 104.583 28.25 104C28.1667 103.333 28.2917 102.75 28.625 102.25C28.375 101.917 28.2083 101.667 28.125 101.5C28.125 101.25 28.125 101.042 28.125 100.875C28.2083 100.708 28.25 100.542 28.25 100.375C28.3333 100.208 28.375 99.9583 28.375 99.625C28.375 99.2083 28.2917 98.875 28.125 98.625C28.0417 98.2917 27.9583 97.9167 27.875 97.5C27.7917 96.8333 27.75 96.2083 27.75 95.625C27.75 94.9583 27.6667 94.2917 27.5 93.625C27.25 93.7083 26.875 93.7083 26.375 93.625C25.9583 93.5417 25.7083 93.625 25.625 93.875C24.875 93.5417 24.25 93.2083 23.75 92.875C23.25 92.5417 22.5417 92.375 21.625 92.375C21.2083 91.875 20.4583 91.4583 19.375 91.125C18.2917 90.7083 17.4167 90.375 16.75 90.125C16.3333 89.9583 15.9167 89.75 15.5 89.5C15.1667 89.25 14.7917 89.0417 14.375 88.875C13.9583 88.7083 13.5417 88.5833 13.125 88.5C12.7083 88.4167 12.2917 88.25 11.875 88C11.5417 87.8333 11.25 87.5833 11 87.25C10.75 86.9167 10.4167 86.7917 10 86.875C9.83333 86.4583 9.58333 86.2083 9.25 86.125C9 85.9583 8.70833 85.7917 8.375 85.625C7.95833 86.2083 7.75 87.0417 7.75 88.125C7.83333 89.2083 7.95833 90.0833 8.125 90.75C8.20833 91.1667 8.41667 91.5 8.75 91.75C9.08333 91.9167 9.25 92.2083 9.25 92.625C8.91667 93.5417 8.54167 94.0833 8.125 94.25C7.79167 94.3333 7.58333 94.6667 7.5 95.25C7.08333 95.0833 6.625 95 6.125 95C5.70833 94.9167 5.29167 94.8333 4.875 94.75C4.70833 94.1667 4.45833 93.625 4.125 93.125C3.79167 92.625 3.58333 92.0833 3.5 91.5C3.33333 90.6667 3.33333 89.875 3.5 89.125C3.75 88.375 3.83333 87.625 3.75 86.875C3.66667 86.625 3.58333 86.4167 3.5 86.25C3.5 86 3.33333 85.7917 3 85.625C3.33333 84.7083 3.29167 84.0833 2.875 83.75C2.54167 83.4167 2.29167 82.9583 2.125 82.375C1.95833 82.125 1.875 81.8333 1.875 81.5C1.95833 81.1667 1.95833 80.8333 1.875 80.5C1.875 80.4167 1.79167 80.2083 1.625 79.875C1.54167 79.5417 1.45833 79.2083 1.375 78.875C1.29167 78.5417 1.20833 78.25 1.125 78C1.125 77.6667 1.20833 77.5 1.375 77.5C1.29167 77.3333 1.16667 77.125 1 76.875C0.916667 76.5417 0.875 76.2917 0.875 76.125C0.875 75.875 0.916667 75.4167 1 74.75C1.16667 74 1.33333 73.2083 1.5 72.375C1.66667 71.5417 1.875 70.7917 2.125 70.125C2.375 69.4583 2.58333 69.0417 2.75 68.875C3 68.7083 3.16667 68.6667 3.25 68.75C3.33333 68.8333 3.58333 68.6667 4 68.25C4.41667 68.0833 4.79167 68.125 5.125 68.375C5.45833 68.625 5.83333 68.6667 6.25 68.5C6.58333 68.9167 6.79167 69.625 6.875 70.625C6.95833 71.5417 7.08333 72.2917 7.25 72.875C7.08333 73.2917 7.16667 73.5 7.5 73.5C7.83333 73.5 8.04167 73.6667 8.125 74C8.20833 74.3333 8.29167 74.75 8.375 75.25C8.45833 75.6667 8.70833 75.9583 9.125 76.125C9.04167 76.5417 9.04167 77 9.125 77.5C9.20833 78 9.41667 78.3333 9.75 78.5C9.66667 79.1667 9.79167 79.7083 10.125 80.125C10.4583 80.5417 10.7083 80.9167 10.875 81.25C11.2917 82.0833 11.875 82.75 12.625 83.25C13.375 83.75 14.0417 84.3333 14.625 85C15.4583 85.1667 16.1667 85.5 16.75 86C17.3333 86.4167 17.9583 86.8333 18.625 87.25C19.7083 87.25 20.5417 87.5833 21.125 88.25C21.7917 88.0833 22.6667 88.25 23.75 88.75C24.9167 89.25 25.5417 89.625 25.625 89.875C26.0417 89.7083 26.5 89.6667 27 89.75C27.5833 89.8333 28.125 89.875 28.625 89.875C29.5417 89.7083 30.1667 89.6667 30.5 89.75C30.8333 89.8333 31.2083 89.7917 31.625 89.625C31.7917 89.5417 32.125 89.5417 32.625 89.625C33.2083 89.625 33.7917 89.625 34.375 89.625C34.9583 89.625 35.4583 89.5833 35.875 89.5C36.2917 89.3333 36.5 89.125 36.5 88.875C36.6667 89.0417 36.9583 89.0833 37.375 89C37.875 88.9167 38.2083 88.8333 38.375 88.75C39.375 88.3333 39.9583 88.125 40.125 88.125C40.2917 88.125 40.4583 88.125 40.625 88.125C40.7917 88.125 40.9583 88.0417 41.125 87.875C41.375 87.7083 41.7083 87.375 42.125 86.875C42.2917 85.9583 42.5417 85.3333 42.875 85C43.2083 84.6667 43.3333 84.2083 43.25 83.625C42.9167 82.7917 42.7917 82.3333 42.875 82.25C43.0417 82.0833 43.0833 81.9167 43 81.75C43 80.5833 42.875 79.375 42.625 78.125C42.375 76.875 42.2083 75.6667 42.125 74.5C42.125 74.1667 42.125 73.875 42.125 73.625C42.2083 73.2917 42.2083 72.9583 42.125 72.625C41.7083 71.625 41.5 70.9167 41.5 70.5C41.5 70 41.4167 69.5417 41.25 69.125C40.5833 68.125 40.1667 67.2917 40 66.625C39.9167 65.875 39.625 65.4583 39.125 65.375C39.2083 64.5417 39.0417 63.9167 38.625 63.5C38.2917 63.0833 38.125 62.5 38.125 61.75C37.375 61.3333 36.3333 60.9167 35 60.5C33.6667 60.0833 32.5417 59.7917 31.625 59.625C31.2083 59.5417 30.75 59.5417 30.25 59.625C29.8333 59.7083 29.375 59.7083 28.875 59.625C28.2083 59.4583 27.6667 59.25 27.25 59C26.9167 58.6667 26.4583 58.4167 25.875 58.25C25.2917 58.0833 24.7083 58 24.125 58C23.625 58 23.125 57.9167 22.625 57.75C22.2083 57.5833 21.875 57.4167 21.625 57.25C21.375 57.0833 21.0833 56.9167 20.75 56.75C20.4167 56.6667 20.0833 56.6667 19.75 56.75C19.5 56.8333 19.2083 56.8333 18.875 56.75C17.9583 56.4167 17.3333 56.2917 17 56.375C16.75 56.4583 16.5 56.4583 16.25 56.375C16 56.2917 15.75 56.1667 15.5 56C15.3333 55.8333 15.125 55.7083 14.875 55.625C14.625 55.5417 14.3333 55.5 14 55.5C13.75 55.4167 13.5 55.2917 13.25 55.125C12.5 54.875 12.125 54.7083 12.125 54.625C12.2083 54.4583 12.2083 54.3333 12.125 54.25C11.9583 54.0833 11.6667 54 11.25 54C10.9167 53.9167 10.6667 53.8333 10.5 53.75C9.16667 52.5833 7.875 51.4167 6.625 50.25C5.45833 49 4.25 47.75 3 46.5C3 46.4167 2.95833 46.2083 2.875 45.875C2.875 45.4583 2.83333 45.0833 2.75 44.75C2.75 44.3333 2.70833 43.9583 2.625 43.625C2.54167 43.2083 2.5 42.9583 2.5 42.875C2.25 42.0417 2.16667 41.5833 2.25 41.5C2.33333 41.3333 2.375 41.1667 2.375 41C2.20833 40 2.16667 39.4167 2.25 39.25C2.41667 39.0833 2.5 38.875 2.5 38.625C2.58333 38.2083 2.54167 37.875 2.375 37.625C2.29167 37.375 2.33333 37 2.5 36.5C3 35.6667 3.20833 35.0417 3.125 34.625C3.125 34.125 3.16667 33.6667 3.25 33.25C3.25 33.1667 3.29167 32.9167 3.375 32.5C3.54167 32 3.66667 31.4583 3.75 30.875C3.91667 30.2917 4.04167 29.7917 4.125 29.375C4.29167 28.875 4.375 28.625 4.375 28.625C4.79167 27.875 5.04167 27.4583 5.125 27.375C5.29167 27.2917 5.45833 27.1667 5.625 27C5.79167 26.75 5.95833 26.5 6.125 26.25C6.29167 25.9167 6.5 25.625 6.75 25.375C7.16667 24.875 7.625 24.4167 8.125 24C8.625 23.5833 9.08333 23.125 9.5 22.625C10.3333 22.2917 10.875 22.0833 11.125 22C11.4583 21.8333 11.7083 21.5417 11.875 21.125C12.7917 20.7917 13.2917 20.6667 13.375 20.75C13.4583 20.75 13.5833 20.75 13.75 20.75C14.1667 20.25 14.5417 20.0417 14.875 20.125C15.2083 20.125 15.5417 20.0833 15.875 20C16.5417 19.8333 17.25 19.5833 18 19.25C18.75 18.9167 19.5 18.875 20.25 19.125C21 18.7917 21.4167 18.625 21.5 18.625C21.6667 18.5417 21.7917 18.4583 21.875 18.375C22.2083 18.375 22.5 18.4167 22.75 18.5C23.0833 18.5833 23.3333 18.625 23.5 18.625C24.3333 18.2083 24.8333 18.0417 25 18.125C25.25 18.125 25.4583 18.0417 25.625 17.875C25.625 16.5417 25.6667 15.2083 25.75 13.875C25.9167 12.4583 25.875 11.0833 25.625 9.75C25.5417 8.58333 25.5833 7.875 25.75 7.625C26 7.29167 25.9583 6.83333 25.625 6.25C25.625 5.5 25.6667 4.75 25.75 4C25.8333 3.25 26 2.625 26.25 2.125C26.5833 1.625 27.0417 1.29167 27.625 1.125C28.2083 0.958333 29 1.125 30 1.625ZM10.5 28.625C10 29.0417 9.75 29.4167 9.75 29.75C9.75 30.0833 9.54167 30.25 9.125 30.25C8.95833 30.9167 8.79167 31.4167 8.625 31.75C8.45833 32.0833 8.20833 32.5 7.875 33C8.125 33.9167 8.04167 34.8333 7.625 35.75C7.20833 36.5833 7.16667 37.4583 7.5 38.375C7.25 38.5417 7.04167 39.0833 6.875 40C6.70833 40.8333 6.66667 41.375 6.75 41.625C6.75 41.9583 6.83333 42.25 7 42.5C7.16667 42.6667 7.33333 42.875 7.5 43.125C7.58333 44.125 7.75 44.7917 8 45.125C8.25 45.375 8.29167 45.7083 8.125 46.125C8.375 46.2917 8.66667 46.5417 9 46.875C9.33333 47.2083 9.66667 47.5417 10 47.875C10.4167 48.2083 10.75 48.5 11 48.75C11.3333 49 11.625 49.125 11.875 49.125C12.2083 48.7917 12.2917 48.4583 12.125 48.125C11.9583 47.7917 11.7917 47.4167 11.625 47C11.9583 46.0833 12 44.9167 11.75 43.5C11.5 42.0833 11.1667 40.9167 10.75 40C10.75 38.3333 10.75 37 10.75 36C10.8333 35 10.9583 34.0417 11.125 33.125C11.375 32.2083 11.5417 31.2917 11.625 30.375C11.7917 29.4583 11.7917 28.5 11.625 27.5C10.9583 27.6667 10.625 27.875 10.625 28.125C10.625 28.2917 10.5833 28.4583 10.5 28.625ZM46.5 75C46.5 76.4167 46.625 77.875 46.875 79.375C47.125 80.875 47.3333 82.3333 47.5 83.75C48.25 83 48.7917 82.4583 49.125 82.125C49.2917 80.875 49.75 79.875 50.5 79.125C50.5833 77.9583 50.7917 76.7917 51.125 75.625C51.5417 74.375 51.7083 73.1667 51.625 72C51.625 71.3333 51.4583 70.6667 51.125 70C50.875 69.3333 50.8333 68.6667 51 68C50.5833 67.4167 50.125 66.9167 49.625 66.5C49.125 66.0833 48.7083 65.5833 48.375 65C48.2917 65 48 64.875 47.5 64.625C47 64.375 46.4583 64.125 45.875 63.875C45.375 63.5417 44.875 63.25 44.375 63C43.875 62.6667 43.5833 62.4583 43.5 62.375C42.8333 63.2083 42.6667 63.9583 43 64.625C43.3333 65.2083 43.6667 65.875 44 66.625C44.3333 67.5417 44.6667 68.1667 45 68.5C45.3333 68.8333 45.625 69.375 45.875 70.125C46.0417 70.5417 46.0833 70.9583 46 71.375C45.9167 71.7917 45.9583 72.2083 46.125 72.625C46.125 72.7917 46.2083 73.0417 46.375 73.375C46.5417 73.625 46.5833 73.8333 46.5 74V75Z" fill="#FF0000"/>
<path d="M30 1.625C29.8333 2.45833 29.7917 3.29167 29.875 4.125C29.9583 4.875 30 5.66667 30 6.5C30 6.75 29.9583 7 29.875 7.25C29.7917 7.5 29.75 7.70833 29.75 7.875C29.8333 8.29167 29.9167 8.66667 30 9C30.1667 9.25 30.25 9.58333 30.25 10C30.25 10.5 30.2917 11.0417 30.375 11.625C30.4583 12.125 30.5 12.5833 30.5 13C30.4167 13.6667 30.2083 14.4167 29.875 15.25C29.5417 16.0833 29.5833 16.8333 30 17.5C30.25 17.9167 30.9167 18.125 32 18.125C33.0833 18.125 33.8333 18.0417 34.25 17.875C34.6667 18.375 35.2083 18.7083 35.875 18.875C36.625 19.0417 37.3333 19.125 38 19.125C38.3333 19.5417 39.0417 19.9583 40.125 20.375C41.2917 20.7083 42.125 21.0417 42.625 21.375C43.2083 22.2083 43.5833 22.625 43.75 22.625C43.9167 22.625 44.0833 22.7083 44.25 22.875C44.5 23.0417 44.7083 23.2917 44.875 23.625C45.125 23.9583 45.4583 24.1667 45.875 24.25C45.7917 24.5833 45.7917 24.8333 45.875 25C46.0417 25.0833 46.2083 25.2917 46.375 25.625C46.7917 25.7917 47.0417 26.0833 47.125 26.5C47.2917 26.8333 47.5 27.1667 47.75 27.5C48 27.75 48.2917 27.9583 48.625 28.125C48.9583 28.2917 49.2083 28.5417 49.375 28.875C49.5417 27.125 49.6667 25.375 49.75 23.625C49.8333 21.875 49.7917 20.125 49.625 18.375C50.0417 17.875 50.4583 17.5 50.875 17.25C51.375 16.9167 51.9583 16.8333 52.625 17C53.2083 17.4167 53.5 17.75 53.5 18C53.5 18.1667 53.5833 18.2083 53.75 18.125C53.75 18.625 53.7083 19.2917 53.625 20.125C53.5417 20.9583 53.4583 21.7917 53.375 22.625C53.2917 23.4583 53.25 24.25 53.25 25C53.3333 25.75 53.5 26.3333 53.75 26.75C53.5833 27.9167 53.625 28.75 53.875 29.25C54.125 29.6667 54.25 30.1667 54.25 30.75C54.25 31.4167 54.0833 32 53.75 32.5C53.5 33 53.3333 33.5833 53.25 34.25C53.25 34.5 53.2917 34.75 53.375 35C53.4583 35.25 53.5 35.5417 53.5 35.875C53.3333 37.125 53.2917 38.0417 53.375 38.625C53.5417 39.125 53.5 39.5833 53.25 40C52.5833 40.25 51.9167 40.4583 51.25 40.625C50.6667 40.7083 50.0417 40.6667 49.375 40.5C49.125 40.25 48.9167 40 48.75 39.75C48.5833 39.4167 48.375 39.125 48.125 38.875C47.875 38.5417 47.9167 38.2917 48.25 38.125C48.6667 37.875 48.7917 37.5 48.625 37C48.375 35.5 47.7917 34.2083 46.875 33.125C46.0417 32.0417 45.1667 30.9167 44.25 29.75L43.25 28.375C42.9167 27.9583 42.5417 27.5833 42.125 27.25C41.7083 26.8333 41.4167 26.375 41.25 25.875C40.8333 25.875 40.5 25.7083 40.25 25.375C40 24.9583 39.7083 24.6667 39.375 24.5C39.125 24.4167 38.6667 24.25 38 24C37.3333 23.75 36.5833 23.5417 35.75 23.375C35 23.125 34.25 22.9167 33.5 22.75C32.8333 22.5 32.375 22.375 32.125 22.375C31.625 22.2917 31.125 22.3333 30.625 22.5C30.2083 22.5833 29.7917 22.625 29.375 22.625C28.375 22.2917 27.75 22.1667 27.5 22.25C27.25 22.3333 27 22.375 26.75 22.375C26.0833 22.375 25.5 22.3333 25 22.25C24.5 22.1667 23.9167 22.375 23.25 22.875C22.0833 22.7083 21.0417 22.7917 20.125 23.125C19.2083 23.375 18.1667 23.5833 17 23.75C16.9167 24 16.9167 24.25 17 24.5C17.1667 24.75 17.1667 24.9583 17 25.125C16.75 25.625 16.5417 26.125 16.375 26.625C16.2917 27.125 16.1667 27.625 16 28.125C16.1667 28.2917 16.125 28.5833 15.875 29C15.7083 29.3333 15.625 29.5833 15.625 29.75C15.5417 30.0833 15.5417 30.4167 15.625 30.75C15.7917 31 15.875 31.2917 15.875 31.625C15.7917 31.875 15.6667 32.125 15.5 32.375C15.4167 32.625 15.375 32.8333 15.375 33C15.2083 33.9167 15.2083 34.7917 15.375 35.625C15.5417 36.4583 15.625 37.2917 15.625 38.125C15.625 38.375 15.5833 38.625 15.5 38.875C15.4167 39.125 15.375 39.375 15.375 39.625C15.375 39.9583 15.4167 40.2917 15.5 40.625C15.6667 40.9583 15.7917 41.2917 15.875 41.625C15.9583 42.2083 16 42.875 16 43.625C16 44.375 16.25 44.9583 16.75 45.375C16.5833 45.5417 16.5 45.7917 16.5 46.125C16.5 46.375 16.4167 46.5833 16.25 46.75C16.4167 47.4167 16.625 48 16.875 48.5C17.125 48.9167 17.1667 49.5 17 50.25C17.5833 50.75 17.7917 51.0833 17.625 51.25C17.4583 51.4167 17.4167 51.5417 17.5 51.625C17.6667 51.9583 18 52.25 18.5 52.5C19.0833 52.75 19.7083 52.9583 20.375 53.125C21.125 53.2083 21.8333 53.3333 22.5 53.5C23.1667 53.5833 23.6667 53.6667 24 53.75C24.4167 53.9167 24.75 54.0833 25 54.25C25.3333 54.4167 25.7083 54.5833 26.125 54.75C26.5417 54.8333 26.9167 54.875 27.25 54.875C27.5833 54.7917 27.9583 54.8333 28.375 55C29.2917 55.1667 30.125 55.4167 30.875 55.75C31.7083 56 32.5833 56.2083 33.5 56.375C33.75 56.4583 34 56.4583 34.25 56.375C34.5833 56.2917 34.875 56.2917 35.125 56.375C36.375 56.7917 37.2917 56.9583 37.875 56.875C38.5417 56.7917 39.1667 56.8333 39.75 57C40.1667 57.0833 40.5 57.2083 40.75 57.375C41 57.4583 41.2917 57.5833 41.625 57.75C42.625 58.0833 43.875 58.4583 45.375 58.875C46.9583 59.2917 48.0417 59.9167 48.625 60.75C49.2917 60.8333 49.8333 61.0417 50.25 61.375C50.6667 61.7083 51.2083 61.9583 51.875 62.125C52.125 62.7083 52.4167 63.1667 52.75 63.5C53.1667 63.8333 53.5833 64.25 54 64.75C54.6667 66.0833 55.0833 67.125 55.25 67.875C55.4167 68.625 55.5417 69.4167 55.625 70.25C55.7917 71.3333 55.7917 72 55.625 72.25C55.5417 72.4167 55.4583 72.625 55.375 72.875C55.2917 73.2083 55.2917 73.5417 55.375 73.875C55.4583 74.2083 55.4583 74.5833 55.375 75C55.375 75.25 55.2917 75.75 55.125 76.5C54.9583 77.1667 54.7917 77.9167 54.625 78.75C54.4583 79.5 54.25 80.25 54 81C53.75 81.6667 53.5833 82.125 53.5 82.375C53.0833 82.7917 52.9167 83.125 53 83.375C53.0833 83.625 53.0417 83.8333 52.875 84C52.2083 84.8333 51.75 85.5 51.5 86C51.25 86.4167 50.9167 86.7083 50.5 86.875C50.5833 87.2083 50.5417 87.4583 50.375 87.625C50.2083 87.7083 50.1667 87.9167 50.25 88.25C49.5 89 48.875 89.4583 48.375 89.625C47.9583 89.7917 47.6667 89.9583 47.5 90.125L46.375 91C45.125 91.0833 44.2917 91.25 43.875 91.5C43.4583 91.6667 43.0417 91.8333 42.625 92C41.4583 92.25 40.25 92.4167 39 92.5C37.8333 92.5 36.7917 92.7917 35.875 93.375C35.375 93.0417 34.7917 93 34.125 93.25C33.4583 93.5 32.7917 93.5417 32.125 93.375C31.875 94.0417 31.9167 94.7917 32.25 95.625C32.5833 96.4583 32.7083 97.0833 32.625 97.5C33.0417 98.5 33.2083 99.1667 33.125 99.5C33.0417 99.8333 33.0833 100.208 33.25 100.625C33.5 101.042 33.5 101.917 33.25 103.25C33.0833 104.5 32.875 105.333 32.625 105.75C32.125 106.333 31.4167 106.625 30.5 106.625C29.5833 106.625 28.875 106.333 28.375 105.75C28.375 105.167 28.3333 104.583 28.25 104C28.1667 103.333 28.2917 102.75 28.625 102.25C28.375 101.917 28.2083 101.667 28.125 101.5C28.125 101.25 28.125 101.042 28.125 100.875C28.2083 100.708 28.25 100.542 28.25 100.375C28.3333 100.208 28.375 99.9583 28.375 99.625C28.375 99.2083 28.2917 98.875 28.125 98.625C28.0417 98.2917 27.9583 97.9167 27.875 97.5C27.7917 96.8333 27.75 96.2083 27.75 95.625C27.75 94.9583 27.6667 94.2917 27.5 93.625C27.25 93.7083 26.875 93.7083 26.375 93.625C25.9583 93.5417 25.7083 93.625 25.625 93.875C24.875 93.5417 24.25 93.2083 23.75 92.875C23.25 92.5417 22.5417 92.375 21.625 92.375C21.2083 91.875 20.4583 91.4583 19.375 91.125C18.2917 90.7083 17.4167 90.375 16.75 90.125C16.3333 89.9583 15.9167 89.75 15.5 89.5C15.1667 89.25 14.7917 89.0417 14.375 88.875C13.9583 88.7083 13.5417 88.5833 13.125 88.5C12.7083 88.4167 12.2917 88.25 11.875 88C11.5417 87.8333 11.25 87.5833 11 87.25C10.75 86.9167 10.4167 86.7917 10 86.875C9.83333 86.4583 9.58333 86.2083 9.25 86.125C9 85.9583 8.70833 85.7917 8.375 85.625C7.95833 86.2083 7.75 87.0417 7.75 88.125C7.83333 89.2083 7.95833 90.0833 8.125 90.75C8.20833 91.1667 8.41667 91.5 8.75 91.75C9.08333 91.9167 9.25 92.2083 9.25 92.625C8.91667 93.5417 8.54167 94.0833 8.125 94.25C7.79167 94.3333 7.58333 94.6667 7.5 95.25C7.08333 95.0833 6.625 95 6.125 95C5.70833 94.9167 5.29167 94.8333 4.875 94.75C4.70833 94.1667 4.45833 93.625 4.125 93.125C3.79167 92.625 3.58333 92.0833 3.5 91.5C3.33333 90.6667 3.33333 89.875 3.5 89.125C3.75 88.375 3.83333 87.625 3.75 86.875C3.66667 86.625 3.58333 86.4167 3.5 86.25C3.5 86 3.33333 85.7917 3 85.625C3.33333 84.7083 3.29167 84.0833 2.875 83.75C2.54167 83.4167 2.29167 82.9583 2.125 82.375C1.95833 82.125 1.875 81.8333 1.875 81.5C1.95833 81.1667 1.95833 80.8333 1.875 80.5C1.875 80.4167 1.79167 80.2083 1.625 79.875C1.54167 79.5417 1.45833 79.2083 1.375 78.875C1.29167 78.5417 1.20833 78.25 1.125 78C1.125 77.6667 1.20833 77.5 1.375 77.5C1.29167 77.3333 1.16667 77.125 1 76.875C0.916667 76.5417 0.875 76.2917 0.875 76.125C0.875 75.875 0.916667 75.4167 1 74.75C1.16667 74 1.33333 73.2083 1.5 72.375C1.66667 71.5417 1.875 70.7917 2.125 70.125C2.375 69.4583 2.58333 69.0417 2.75 68.875C3 68.7083 3.16667 68.6667 3.25 68.75C3.33333 68.8333 3.58333 68.6667 4 68.25C4.41667 68.0833 4.79167 68.125 5.125 68.375C5.45833 68.625 5.83333 68.6667 6.25 68.5C6.58333 68.9167 6.79167 69.625 6.875 70.625C6.95833 71.5417 7.08333 72.2917 7.25 72.875C7.08333 73.2917 7.16667 73.5 7.5 73.5C7.83333 73.5 8.04167 73.6667 8.125 74C8.20833 74.3333 8.29167 74.75 8.375 75.25C8.45833 75.6667 8.70833 75.9583 9.125 76.125C9.04167 76.5417 9.04167 77 9.125 77.5C9.20833 78 9.41667 78.3333 9.75 78.5C9.66667 79.1667 9.79167 79.7083 10.125 80.125C10.4583 80.5417 10.7083 80.9167 10.875 81.25C11.2917 82.0833 11.875 82.75 12.625 83.25C13.375 83.75 14.0417 84.3333 14.625 85C15.4583 85.1667 16.1667 85.5 16.75 86C17.3333 86.4167 17.9583 86.8333 18.625 87.25C19.7083 87.25 20.5417 87.5833 21.125 88.25C21.7917 88.0833 22.6667 88.25 23.75 88.75C24.9167 89.25 25.5417 89.625 25.625 89.875C26.0417 89.7083 26.5 89.6667 27 89.75C27.5833 89.8333 28.125 89.875 28.625 89.875C29.5417 89.7083 30.1667 89.6667 30.5 89.75C30.8333 89.8333 31.2083 89.7917 31.625 89.625C31.7917 89.5417 32.125 89.5417 32.625 89.625C33.2083 89.625 33.7917 89.625 34.375 89.625C34.9583 89.625 35.4583 89.5833 35.875 89.5C36.2917 89.3333 36.5 89.125 36.5 88.875C36.6667 89.0417 36.9583 89.0833 37.375 89C37.875 88.9167 38.2083 88.8333 38.375 88.75C39.375 88.3333 39.9583 88.125 40.125 88.125C40.2917 88.125 40.4583 88.125 40.625 88.125C40.7917 88.125 40.9583 88.0417 41.125 87.875C41.375 87.7083 41.7083 87.375 42.125 86.875C42.2917 85.9583 42.5417 85.3333 42.875 85C43.2083 84.6667 43.3333 84.2083 43.25 83.625C42.9167 82.7917 42.7917 82.3333 42.875 82.25C43.0417 82.0833 43.0833 81.9167 43 81.75C43 80.5833 42.875 79.375 42.625 78.125C42.375 76.875 42.2083 75.6667 42.125 74.5C42.125 74.1667 42.125 73.875 42.125 73.625C42.2083 73.2917 42.2083 72.9583 42.125 72.625C41.7083 71.625 41.5 70.9167 41.5 70.5C41.5 70 41.4167 69.5417 41.25 69.125C40.5833 68.125 40.1667 67.2917 40 66.625C39.9167 65.875 39.625 65.4583 39.125 65.375C39.2083 64.5417 39.0417 63.9167 38.625 63.5C38.2917 63.0833 38.125 62.5 38.125 61.75C37.375 61.3333 36.3333 60.9167 35 60.5C33.6667 60.0833 32.5417 59.7917 31.625 59.625C31.2083 59.5417 30.75 59.5417 30.25 59.625C29.8333 59.7083 29.375 59.7083 28.875 59.625C28.2083 59.4583 27.6667 59.25 27.25 59C26.9167 58.6667 26.4583 58.4167 25.875 58.25C25.2917 58.0833 24.7083 58 24.125 58C23.625 58 23.125 57.9167 22.625 57.75C22.2083 57.5833 21.875 57.4167 21.625 57.25C21.375 57.0833 21.0833 56.9167 20.75 56.75C20.4167 56.6667 20.0833 56.6667 19.75 56.75C19.5 56.8333 19.2083 56.8333 18.875 56.75C17.9583 56.4167 17.3333 56.2917 17 56.375C16.75 56.4583 16.5 56.4583 16.25 56.375C16 56.2917 15.75 56.1667 15.5 56C15.3333 55.8333 15.125 55.7083 14.875 55.625C14.625 55.5417 14.3333 55.5 14 55.5C13.75 55.4167 13.5 55.2917 13.25 55.125C12.5 54.875 12.125 54.7083 12.125 54.625C12.2083 54.4583 12.2083 54.3333 12.125 54.25C11.9583 54.0833 11.6667 54 11.25 54C10.9167 53.9167 10.6667 53.8333 10.5 53.75C9.16667 52.5833 7.875 51.4167 6.625 50.25C5.45833 49 4.25 47.75 3 46.5C3 46.4167 2.95833 46.2083 2.875 45.875C2.875 45.4583 2.83333 45.0833 2.75 44.75C2.75 44.3333 2.70833 43.9583 2.625 43.625C2.54167 43.2083 2.5 42.9583 2.5 42.875C2.25 42.0417 2.16667 41.5833 2.25 41.5C2.33333 41.3333 2.375 41.1667 2.375 41C2.20833 40 2.16667 39.4167 2.25 39.25C2.41667 39.0833 2.5 38.875 2.5 38.625C2.58333 38.2083 2.54167 37.875 2.375 37.625C2.29167 37.375 2.33333 37 2.5 36.5C3 35.6667 3.20833 35.0417 3.125 34.625C3.125 34.125 3.16667 33.6667 3.25 33.25C3.25 33.1667 3.29167 32.9167 3.375 32.5C3.54167 32 3.66667 31.4583 3.75 30.875C3.91667 30.2917 4.04167 29.7917 4.125 29.375C4.29167 28.875 4.375 28.625 4.375 28.625C4.79167 27.875 5.04167 27.4583 5.125 27.375C5.29167 27.2917 5.45833 27.1667 5.625 27C5.79167 26.75 5.95833 26.5 6.125 26.25C6.29167 25.9167 6.5 25.625 6.75 25.375C7.16667 24.875 7.625 24.4167 8.125 24C8.625 23.5833 9.08333 23.125 9.5 22.625C10.3333 22.2917 10.875 22.0833 11.125 22C11.4583 21.8333 11.7083 21.5417 11.875 21.125C12.7917 20.7917 13.2917 20.6667 13.375 20.75C13.4583 20.75 13.5833 20.75 13.75 20.75C14.1667 20.25 14.5417 20.0417 14.875 20.125C15.2083 20.125 15.5417 20.0833 15.875 20C16.5417 19.8333 17.25 19.5833 18 19.25C18.75 18.9167 19.5 18.875 20.25 19.125C21 18.7917 21.4167 18.625 21.5 18.625C21.6667 18.5417 21.7917 18.4583 21.875 18.375C22.2083 18.375 22.5 18.4167 22.75 18.5C23.0833 18.5833 23.3333 18.625 23.5 18.625C24.3333 18.2083 24.8333 18.0417 25 18.125C25.25 18.125 25.4583 18.0417 25.625 17.875C25.625 16.5417 25.6667 15.2083 25.75 13.875C25.9167 12.4583 25.875 11.0833 25.625 9.75C25.5417 8.58333 25.5833 7.875 25.75 7.625C26 7.29167 25.9583 6.83333 25.625 6.25C25.625 5.5 25.6667 4.75 25.75 4C25.8333 3.25 26 2.625 26.25 2.125C26.5833 1.625 27.0417 1.29167 27.625 1.125C28.2083 0.958333 29 1.125 30 1.625ZM10.5 28.625C10 29.0417 9.75 29.4167 9.75 29.75C9.75 30.0833 9.54167 30.25 9.125 30.25C8.95833 30.9167 8.79167 31.4167 8.625 31.75C8.45833 32.0833 8.20833 32.5 7.875 33C8.125 33.9167 8.04167 34.8333 7.625 35.75C7.20833 36.5833 7.16667 37.4583 7.5 38.375C7.25 38.5417 7.04167 39.0833 6.875 40C6.70833 40.8333 6.66667 41.375 6.75 41.625C6.75 41.9583 6.83333 42.25 7 42.5C7.16667 42.6667 7.33333 42.875 7.5 43.125C7.58333 44.125 7.75 44.7917 8 45.125C8.25 45.375 8.29167 45.7083 8.125 46.125C8.375 46.2917 8.66667 46.5417 9 46.875C9.33333 47.2083 9.66667 47.5417 10 47.875C10.4167 48.2083 10.75 48.5 11 48.75C11.3333 49 11.625 49.125 11.875 49.125C12.2083 48.7917 12.2917 48.4583 12.125 48.125C11.9583 47.7917 11.7917 47.4167 11.625 47C11.9583 46.0833 12 44.9167 11.75 43.5C11.5 42.0833 11.1667 40.9167 10.75 40C10.75 38.3333 10.75 37 10.75 36C10.8333 35 10.9583 34.0417 11.125 33.125C11.375 32.2083 11.5417 31.2917 11.625 30.375C11.7917 29.4583 11.7917 28.5 11.625 27.5C10.9583 27.6667 10.625 27.875 10.625 28.125C10.625 28.2917 10.5833 28.4583 10.5 28.625ZM46.5 75C46.5 76.4167 46.625 77.875 46.875 79.375C47.125 80.875 47.3333 82.3333 47.5 83.75C48.25 83 48.7917 82.4583 49.125 82.125C49.2917 80.875 49.75 79.875 50.5 79.125C50.5833 77.9583 50.7917 76.7917 51.125 75.625C51.5417 74.375 51.7083 73.1667 51.625 72C51.625 71.3333 51.4583 70.6667 51.125 70C50.875 69.3333 50.8333 68.6667 51 68C50.5833 67.4167 50.125 66.9167 49.625 66.5C49.125 66.0833 48.7083 65.5833 48.375 65C48.2917 65 48 64.875 47.5 64.625C47 64.375 46.4583 64.125 45.875 63.875C45.375 63.5417 44.875 63.25 44.375 63C43.875 62.6667 43.5833 62.4583 43.5 62.375C42.8333 63.2083 42.6667 63.9583 43 64.625C43.3333 65.2083 43.6667 65.875 44 66.625C44.3333 67.5417 44.6667 68.1667 45 68.5C45.3333 68.8333 45.625 69.375 45.875 70.125C46.0417 70.5417 46.0833 70.9583 46 71.375C45.9167 71.7917 45.9583 72.2083 46.125 72.625C46.125 72.7917 46.2083 73.0417 46.375 73.375C46.5417 73.625 46.5833 73.8333 46.5 74V75Z" fill="#FF0000"/>
<path d="M30 1.625C29.8333 2.45833 29.7917 3.29167 29.875 4.125C29.9583 4.875 30 5.66667 30 6.5C30 6.75 29.9583 7 29.875 7.25C29.7917 7.5 29.75 7.70833 29.75 7.875C29.8333 8.29167 29.9167 8.66667 30 9C30.1667 9.25 30.25 9.58333 30.25 10C30.25 10.5 30.2917 11.0417 30.375 11.625C30.4583 12.125 30.5 12.5833 30.5 13C30.4167 13.6667 30.2083 14.4167 29.875 15.25C29.5417 16.0833 29.5833 16.8333 30 17.5C30.25 17.9167 30.9167 18.125 32 18.125C33.0833 18.125 33.8333 18.0417 34.25 17.875C34.6667 18.375 35.2083 18.7083 35.875 18.875C36.625 19.0417 37.3333 19.125 38 19.125C38.3333 19.5417 39.0417 19.9583 40.125 20.375C41.2917 20.7083 42.125 21.0417 42.625 21.375C43.2083 22.2083 43.5833 22.625 43.75 22.625C43.9167 22.625 44.0833 22.7083 44.25 22.875C44.5 23.0417 44.7083 23.2917 44.875 23.625C45.125 23.9583 45.4583 24.1667 45.875 24.25C45.7917 24.5833 45.7917 24.8333 45.875 25C46.0417 25.0833 46.2083 25.2917 46.375 25.625C46.7917 25.7917 47.0417 26.0833 47.125 26.5C47.2917 26.8333 47.5 27.1667 47.75 27.5C48 27.75 48.2917 27.9583 48.625 28.125C48.9583 28.2917 49.2083 28.5417 49.375 28.875C49.5417 27.125 49.6667 25.375 49.75 23.625C49.8333 21.875 49.7917 20.125 49.625 18.375C50.0417 17.875 50.4583 17.5 50.875 17.25C51.375 16.9167 51.9583 16.8333 52.625 17C53.2083 17.4167 53.5 17.75 53.5 18C53.5 18.1667 53.5833 18.2083 53.75 18.125C53.75 18.625 53.7083 19.2917 53.625 20.125C53.5417 20.9583 53.4583 21.7917 53.375 22.625C53.2917 23.4583 53.25 24.25 53.25 25C53.3333 25.75 53.5 26.3333 53.75 26.75C53.5833 27.9167 53.625 28.75 53.875 29.25C54.125 29.6667 54.25 30.1667 54.25 30.75C54.25 31.4167 54.0833 32 53.75 32.5C53.5 33 53.3333 33.5833 53.25 34.25C53.25 34.5 53.2917 34.75 53.375 35C53.4583 35.25 53.5 35.5417 53.5 35.875C53.3333 37.125 53.2917 38.0417 53.375 38.625C53.5417 39.125 53.5 39.5833 53.25 40C52.5833 40.25 51.9167 40.4583 51.25 40.625C50.6667 40.7083 50.0417 40.6667 49.375 40.5C49.125 40.25 48.9167 40 48.75 39.75C48.5833 39.4167 48.375 39.125 48.125 38.875C47.875 38.5417 47.9167 38.2917 48.25 38.125C48.6667 37.875 48.7917 37.5 48.625 37C48.375 35.5 47.7917 34.2083 46.875 33.125C46.0417 32.0417 45.1667 30.9167 44.25 29.75L43.25 28.375C42.9167 27.9583 42.5417 27.5833 42.125 27.25C41.7083 26.8333 41.4167 26.375 41.25 25.875C40.8333 25.875 40.5 25.7083 40.25 25.375C40 24.9583 39.7083 24.6667 39.375 24.5C39.125 24.4167 38.6667 24.25 38 24C37.3333 23.75 36.5833 23.5417 35.75 23.375C35 23.125 34.25 22.9167 33.5 22.75C32.8333 22.5 32.375 22.375 32.125 22.375C31.625 22.2917 31.125 22.3333 30.625 22.5C30.2083 22.5833 29.7917 22.625 29.375 22.625C28.375 22.2917 27.75 22.1667 27.5 22.25C27.25 22.3333 27 22.375 26.75 22.375C26.0833 22.375 25.5 22.3333 25 22.25C24.5 22.1667 23.9167 22.375 23.25 22.875C22.0833 22.7083 21.0417 22.7917 20.125 23.125C19.2083 23.375 18.1667 23.5833 17 23.75C16.9167 24 16.9167 24.25 17 24.5C17.1667 24.75 17.1667 24.9583 17 25.125C16.75 25.625 16.5417 26.125 16.375 26.625C16.2917 27.125 16.1667 27.625 16 28.125C16.1667 28.2917 16.125 28.5833 15.875 29C15.7083 29.3333 15.625 29.5833 15.625 29.75C15.5417 30.0833 15.5417 30.4167 15.625 30.75C15.7917 31 15.875 31.2917 15.875 31.625C15.7917 31.875 15.6667 32.125 15.5 32.375C15.4167 32.625 15.375 32.8333 15.375 33C15.2083 33.9167 15.2083 34.7917 15.375 35.625C15.5417 36.4583 15.625 37.2917 15.625 38.125C15.625 38.375 15.5833 38.625 15.5 38.875C15.4167 39.125 15.375 39.375 15.375 39.625C15.375 39.9583 15.4167 40.2917 15.5 40.625C15.6667 40.9583 15.7917 41.2917 15.875 41.625C15.9583 42.2083 16 42.875 16 43.625C16 44.375 16.25 44.9583 16.75 45.375C16.5833 45.5417 16.5 45.7917 16.5 46.125C16.5 46.375 16.4167 46.5833 16.25 46.75C16.4167 47.4167 16.625 48 16.875 48.5C17.125 48.9167 17.1667 49.5 17 50.25C17.5833 50.75 17.7917 51.0833 17.625 51.25C17.4583 51.4167 17.4167 51.5417 17.5 51.625C17.6667 51.9583 18 52.25 18.5 52.5C19.0833 52.75 19.7083 52.9583 20.375 53.125C21.125 53.2083 21.8333 53.3333 22.5 53.5C23.1667 53.5833 23.6667 53.6667 24 53.75C24.4167 53.9167 24.75 54.0833 25 54.25C25.3333 54.4167 25.7083 54.5833 26.125 54.75C26.5417 54.8333 26.9167 54.875 27.25 54.875C27.5833 54.7917 27.9583 54.8333 28.375 55C29.2917 55.1667 30.125 55.4167 30.875 55.75C31.7083 56 32.5833 56.2083 33.5 56.375C33.75 56.4583 34 56.4583 34.25 56.375C34.5833 56.2917 34.875 56.2917 35.125 56.375C36.375 56.7917 37.2917 56.9583 37.875 56.875C38.5417 56.7917 39.1667 56.8333 39.75 57C40.1667 57.0833 40.5 57.2083 40.75 57.375C41 57.4583 41.2917 57.5833 41.625 57.75C42.625 58.0833 43.875 58.4583 45.375 58.875C46.9583 59.2917 48.0417 59.9167 48.625 60.75C49.2917 60.8333 49.8333 61.0417 50.25 61.375C50.6667 61.7083 51.2083 61.9583 51.875 62.125C52.125 62.7083 52.4167 63.1667 52.75 63.5C53.1667 63.8333 53.5833 64.25 54 64.75C54.6667 66.0833 55.0833 67.125 55.25 67.875C55.4167 68.625 55.5417 69.4167 55.625 70.25C55.7917 71.3333 55.7917 72 55.625 72.25C55.5417 72.4167 55.4583 72.625 55.375 72.875C55.2917 73.2083 55.2917 73.5417 55.375 73.875C55.4583 74.2083 55.4583 74.5833 55.375 75C55.375 75.25 55.2917 75.75 55.125 76.5C54.9583 77.1667 54.7917 77.9167 54.625 78.75C54.4583 79.5 54.25 80.25 54 81C53.75 81.6667 53.5833 82.125 53.5 82.375C53.0833 82.7917 52.9167 83.125 53 83.375C53.0833 83.625 53.0417 83.8333 52.875 84C52.2083 84.8333 51.75 85.5 51.5 86C51.25 86.4167 50.9167 86.7083 50.5 86.875C50.5833 87.2083 50.5417 87.4583 50.375 87.625C50.2083 87.7083 50.1667 87.9167 50.25 88.25C49.5 89 48.875 89.4583 48.375 89.625C47.9583 89.7917 47.6667 89.9583 47.5 90.125L46.375 91C45.125 91.0833 44.2917 91.25 43.875 91.5C43.4583 91.6667 43.0417 91.8333 42.625 92C41.4583 92.25 40.25 92.4167 39 92.5C37.8333 92.5 36.7917 92.7917 35.875 93.375C35.375 93.0417 34.7917 93 34.125 93.25C33.4583 93.5 32.7917 93.5417 32.125 93.375C31.875 94.0417 31.9167 94.7917 32.25 95.625C32.5833 96.4583 32.7083 97.0833 32.625 97.5C33.0417 98.5 33.2083 99.1667 33.125 99.5C33.0417 99.8333 33.0833 100.208 33.25 100.625C33.5 101.042 33.5 101.917 33.25 103.25C33.0833 104.5 32.875 105.333 32.625 105.75C32.125 106.333 31.4167 106.625 30.5 106.625C29.5833 106.625 28.875 106.333 28.375 105.75C28.375 105.167 28.3333 104.583 28.25 104C28.1667 103.333 28.2917 102.75 28.625 102.25C28.375 101.917 28.2083 101.667 28.125 101.5C28.125 101.25 28.125 101.042 28.125 100.875C28.2083 100.708 28.25 100.542 28.25 100.375C28.3333 100.208 28.375 99.9583 28.375 99.625C28.375 99.2083 28.2917 98.875 28.125 98.625C28.0417 98.2917 27.9583 97.9167 27.875 97.5C27.7917 96.8333 27.75 96.2083 27.75 95.625C27.75 94.9583 27.6667 94.2917 27.5 93.625C27.25 93.7083 26.875 93.7083 26.375 93.625C25.9583 93.5417 25.7083 93.625 25.625 93.875C24.875 93.5417 24.25 93.2083 23.75 92.875C23.25 92.5417 22.5417 92.375 21.625 92.375C21.2083 91.875 20.4583 91.4583 19.375 91.125C18.2917 90.7083 17.4167 90.375 16.75 90.125C16.3333 89.9583 15.9167 89.75 15.5 89.5C15.1667 89.25 14.7917 89.0417 14.375 88.875C13.9583 88.7083 13.5417 88.5833 13.125 88.5C12.7083 88.4167 12.2917 88.25 11.875 88C11.5417 87.8333 11.25 87.5833 11 87.25C10.75 86.9167 10.4167 86.7917 10 86.875C9.83333 86.4583 9.58333 86.2083 9.25 86.125C9 85.9583 8.70833 85.7917 8.375 85.625C7.95833 86.2083 7.75 87.0417 7.75 88.125C7.83333 89.2083 7.95833 90.0833 8.125 90.75C8.20833 91.1667 8.41667 91.5 8.75 91.75C9.08333 91.9167 9.25 92.2083 9.25 92.625C8.91667 93.5417 8.54167 94.0833 8.125 94.25C7.79167 94.3333 7.58333 94.6667 7.5 95.25C7.08333 95.0833 6.625 95 6.125 95C5.70833 94.9167 5.29167 94.8333 4.875 94.75C4.70833 94.1667 4.45833 93.625 4.125 93.125C3.79167 92.625 3.58333 92.0833 3.5 91.5C3.33333 90.6667 3.33333 89.875 3.5 89.125C3.75 88.375 3.83333 87.625 3.75 86.875C3.66667 86.625 3.58333 86.4167 3.5 86.25C3.5 86 3.33333 85.7917 3 85.625C3.33333 84.7083 3.29167 84.0833 2.875 83.75C2.54167 83.4167 2.29167 82.9583 2.125 82.375C1.95833 82.125 1.875 81.8333 1.875 81.5C1.95833 81.1667 1.95833 80.8333 1.875 80.5C1.875 80.4167 1.79167 80.2083 1.625 79.875C1.54167 79.5417 1.45833 79.2083 1.375 78.875C1.29167 78.5417 1.20833 78.25 1.125 78C1.125 77.6667 1.20833 77.5 1.375 77.5C1.29167 77.3333 1.16667 77.125 1 76.875C0.916667 76.5417 0.875 76.2917 0.875 76.125C0.875 75.875 0.916667 75.4167 1 74.75C1.16667 74 1.33333 73.2083 1.5 72.375C1.66667 71.5417 1.875 70.7917 2.125 70.125C2.375 69.4583 2.58333 69.0417 2.75 68.875C3 68.7083 3.16667 68.6667 3.25 68.75C3.33333 68.8333 3.58333 68.6667 4 68.25C4.41667 68.0833 4.79167 68.125 5.125 68.375C5.45833 68.625 5.83333 68.6667 6.25 68.5C6.58333 68.9167 6.79167 69.625 6.875 70.625C6.95833 71.5417 7.08333 72.2917 7.25 72.875C7.08333 73.2917 7.16667 73.5 7.5 73.5C7.83333 73.5 8.04167 73.6667 8.125 74C8.20833 74.3333 8.29167 74.75 8.375 75.25C8.45833 75.6667 8.70833 75.9583 9.125 76.125C9.04167 76.5417 9.04167 77 9.125 77.5C9.20833 78 9.41667 78.3333 9.75 78.5C9.66667 79.1667 9.79167 79.7083 10.125 80.125C10.4583 80.5417 10.7083 80.9167 10.875 81.25C11.2917 82.0833 11.875 82.75 12.625 83.25C13.375 83.75 14.0417 84.3333 14.625 85C15.4583 85.1667 16.1667 85.5 16.75 86C17.3333 86.4167 17.9583 86.8333 18.625 87.25C19.7083 87.25 20.5417 87.5833 21.125 88.25C21.7917 88.0833 22.6667 88.25 23.75 88.75C24.9167 89.25 25.5417 89.625 25.625 89.875C26.0417 89.7083 26.5 89.6667 27 89.75C27.5833 89.8333 28.125 89.875 28.625 89.875C29.5417 89.7083 30.1667 89.6667 30.5 89.75C30.8333 89.8333 31.2083 89.7917 31.625 89.625C31.7917 89.5417 32.125 89.5417 32.625 89.625C33.2083 89.625 33.7917 89.625 34.375 89.625C34.9583 89.625 35.4583 89.5833 35.875 89.5C36.2917 89.3333 36.5 89.125 36.5 88.875C36.6667 89.0417 36.9583 89.0833 37.375 89C37.875 88.9167 38.2083 88.8333 38.375 88.75C39.375 88.3333 39.9583 88.125 40.125 88.125C40.2917 88.125 40.4583 88.125 40.625 88.125C40.7917 88.125 40.9583 88.0417 41.125 87.875C41.375 87.7083 41.7083 87.375 42.125 86.875C42.2917 85.9583 42.5417 85.3333 42.875 85C43.2083 84.6667 43.3333 84.2083 43.25 83.625C42.9167 82.7917 42.7917 82.3333 42.875 82.25C43.0417 82.0833 43.0833 81.9167 43 81.75C43 80.5833 42.875 79.375 42.625 78.125C42.375 76.875 42.2083 75.6667 42.125 74.5C42.125 74.1667 42.125 73.875 42.125 73.625C42.2083 73.2917 42.2083 72.9583 42.125 72.625C41.7083 71.625 41.5 70.9167 41.5 70.5C41.5 70 41.4167 69.5417 41.25 69.125C40.5833 68.125 40.1667 67.2917 40 66.625C39.9167 65.875 39.625 65.4583 39.125 65.375C39.2083 64.5417 39.0417 63.9167 38.625 63.5C38.2917 63.0833 38.125 62.5 38.125 61.75C37.375 61.3333 36.3333 60.9167 35 60.5C33.6667 60.0833 32.5417 59.7917 31.625 59.625C31.2083 59.5417 30.75 59.5417 30.25 59.625C29.8333 59.7083 29.375 59.7083 28.875 59.625C28.2083 59.4583 27.6667 59.25 27.25 59C26.9167 58.6667 26.4583 58.4167 25.875 58.25C25.2917 58.0833 24.7083 58 24.125 58C23.625 58 23.125 57.9167 22.625 57.75C22.2083 57.5833 21.875 57.4167 21.625 57.25C21.375 57.0833 21.0833 56.9167 20.75 56.75C20.4167 56.6667 20.0833 56.6667 19.75 56.75C19.5 56.8333 19.2083 56.8333 18.875 56.75C17.9583 56.4167 17.3333 56.2917 17 56.375C16.75 56.4583 16.5 56.4583 16.25 56.375C16 56.2917 15.75 56.1667 15.5 56C15.3333 55.8333 15.125 55.7083 14.875 55.625C14.625 55.5417 14.3333 55.5 14 55.5C13.75 55.4167 13.5 55.2917 13.25 55.125C12.5 54.875 12.125 54.7083 12.125 54.625C12.2083 54.4583 12.2083 54.3333 12.125 54.25C11.9583 54.0833 11.6667 54 11.25 54C10.9167 53.9167 10.6667 53.8333 10.5 53.75C9.16667 52.5833 7.875 51.4167 6.625 50.25C5.45833 49 4.25 47.75 3 46.5C3 46.4167 2.95833 46.2083 2.875 45.875C2.875 45.4583 2.83333 45.0833 2.75 44.75C2.75 44.3333 2.70833 43.9583 2.625 43.625C2.54167 43.2083 2.5 42.9583 2.5 42.875C2.25 42.0417 2.16667 41.5833 2.25 41.5C2.33333 41.3333 2.375 41.1667 2.375 41C2.20833 40 2.16667 39.4167 2.25 39.25C2.41667 39.0833 2.5 38.875 2.5 38.625C2.58333 38.2083 2.54167 37.875 2.375 37.625C2.29167 37.375 2.33333 37 2.5 36.5C3 35.6667 3.20833 35.0417 3.125 34.625C3.125 34.125 3.16667 33.6667 3.25 33.25C3.25 33.1667 3.29167 32.9167 3.375 32.5C3.54167 32 3.66667 31.4583 3.75 30.875C3.91667 30.2917 4.04167 29.7917 4.125 29.375C4.29167 28.875 4.375 28.625 4.375 28.625C4.79167 27.875 5.04167 27.4583 5.125 27.375C5.29167 27.2917 5.45833 27.1667 5.625 27C5.79167 26.75 5.95833 26.5 6.125 26.25C6.29167 25.9167 6.5 25.625 6.75 25.375C7.16667 24.875 7.625 24.4167 8.125 24C8.625 23.5833 9.08333 23.125 9.5 22.625C10.3333 22.2917 10.875 22.0833 11.125 22C11.4583 21.8333 11.7083 21.5417 11.875 21.125C12.7917 20.7917 13.2917 20.6667 13.375 20.75C13.4583 20.75 13.5833 20.75 13.75 20.75C14.1667 20.25 14.5417 20.0417 14.875 20.125C15.2083 20.125 15.5417 20.0833 15.875 20C16.5417 19.8333 17.25 19.5833 18 19.25C18.75 18.9167 19.5 18.875 20.25 19.125C21 18.7917 21.4167 18.625 21.5 18.625C21.6667 18.5417 21.7917 18.4583 21.875 18.375C22.2083 18.375 22.5 18.4167 22.75 18.5C23.0833 18.5833 23.3333 18.625 23.5 18.625C24.3333 18.2083 24.8333 18.0417 25 18.125C25.25 18.125 25.4583 18.0417 25.625 17.875C25.625 16.5417 25.6667 15.2083 25.75 13.875C25.9167 12.4583 25.875 11.0833 25.625 9.75C25.5417 8.58333 25.5833 7.875 25.75 7.625C26 7.29167 25.9583 6.83333 25.625 6.25C25.625 5.5 25.6667 4.75 25.75 4C25.8333 3.25 26 2.625 26.25 2.125C26.5833 1.625 27.0417 1.29167 27.625 1.125C28.2083 0.958333 29 1.125 30 1.625ZM10.5 28.625C10 29.0417 9.75 29.4167 9.75 29.75C9.75 30.0833 9.54167 30.25 9.125 30.25C8.95833 30.9167 8.79167 31.4167 8.625 31.75C8.45833 32.0833 8.20833 32.5 7.875 33C8.125 33.9167 8.04167 34.8333 7.625 35.75C7.20833 36.5833 7.16667 37.4583 7.5 38.375C7.25 38.5417 7.04167 39.0833 6.875 40C6.70833 40.8333 6.66667 41.375 6.75 41.625C6.75 41.9583 6.83333 42.25 7 42.5C7.16667 42.6667 7.33333 42.875 7.5 43.125C7.58333 44.125 7.75 44.7917 8 45.125C8.25 45.375 8.29167 45.7083 8.125 46.125C8.375 46.2917 8.66667 46.5417 9 46.875C9.33333 47.2083 9.66667 47.5417 10 47.875C10.4167 48.2083 10.75 48.5 11 48.75C11.3333 49 11.625 49.125 11.875 49.125C12.2083 48.7917 12.2917 48.4583 12.125 48.125C11.9583 47.7917 11.7917 47.4167 11.625 47C11.9583 46.0833 12 44.9167 11.75 43.5C11.5 42.0833 11.1667 40.9167 10.75 40C10.75 38.3333 10.75 37 10.75 36C10.8333 35 10.9583 34.0417 11.125 33.125C11.375 32.2083 11.5417 31.2917 11.625 30.375C11.7917 29.4583 11.7917 28.5 11.625 27.5C10.9583 27.6667 10.625 27.875 10.625 28.125C10.625 28.2917 10.5833 28.4583 10.5 28.625ZM46.5 75C46.5 76.4167 46.625 77.875 46.875 79.375C47.125 80.875 47.3333 82.3333 47.5 83.75C48.25 83 48.7917 82.4583 49.125 82.125C49.2917 80.875 49.75 79.875 50.5 79.125C50.5833 77.9583 50.7917 76.7917 51.125 75.625C51.5417 74.375 51.7083 73.1667 51.625 72C51.625 71.3333 51.4583 70.6667 51.125 70C50.875 69.3333 50.8333 68.6667 51 68C50.5833 67.4167 50.125 66.9167 49.625 66.5C49.125 66.0833 48.7083 65.5833 48.375 65C48.2917 65 48 64.875 47.5 64.625C47 64.375 46.4583 64.125 45.875 63.875C45.375 63.5417 44.875 63.25 44.375 63C43.875 62.6667 43.5833 62.4583 43.5 62.375C42.8333 63.2083 42.6667 63.9583 43 64.625C43.3333 65.2083 43.6667 65.875 44 66.625C44.3333 67.5417 44.6667 68.1667 45 68.5C45.3333 68.8333 45.625 69.375 45.875 70.125C46.0417 70.5417 46.0833 70.9583 46 71.375C45.9167 71.7917 45.9583 72.2083 46.125 72.625C46.125 72.7917 46.2083 73.0417 46.375 73.375C46.5417 73.625 46.5833 73.8333 46.5 74V75Z" fill="#FF0000"/>
<path d="M30 1.625C29.8333 2.45833 29.7917 3.29167 29.875 4.125C29.9583 4.875 30 5.66667 30 6.5C30 6.75 29.9583 7 29.875 7.25C29.7917 7.5 29.75 7.70833 29.75 7.875C29.8333 8.29167 29.9167 8.66667 30 9C30.1667 9.25 30.25 9.58333 30.25 10C30.25 10.5 30.2917 11.0417 30.375 11.625C30.4583 12.125 30.5 12.5833 30.5 13C30.4167 13.6667 30.2083 14.4167 29.875 15.25C29.5417 16.0833 29.5833 16.8333 30 17.5C30.25 17.9167 30.9167 18.125 32 18.125C33.0833 18.125 33.8333 18.0417 34.25 17.875C34.6667 18.375 35.2083 18.7083 35.875 18.875C36.625 19.0417 37.3333 19.125 38 19.125C38.3333 19.5417 39.0417 19.9583 40.125 20.375C41.2917 20.7083 42.125 21.0417 42.625 21.375C43.2083 22.2083 43.5833 22.625 43.75 22.625C43.9167 22.625 44.0833 22.7083 44.25 22.875C44.5 23.0417 44.7083 23.2917 44.875 23.625C45.125 23.9583 45.4583 24.1667 45.875 24.25C45.7917 24.5833 45.7917 24.8333 45.875 25C46.0417 25.0833 46.2083 25.2917 46.375 25.625C46.7917 25.7917 47.0417 26.0833 47.125 26.5C47.2917 26.8333 47.5 27.1667 47.75 27.5C48 27.75 48.2917 27.9583 48.625 28.125C48.9583 28.2917 49.2083 28.5417 49.375 28.875C49.5417 27.125 49.6667 25.375 49.75 23.625C49.8333 21.875 49.7917 20.125 49.625 18.375C50.0417 17.875 50.4583 17.5 50.875 17.25C51.375 16.9167 51.9583 16.8333 52.625 17C53.2083 17.4167 53.5 17.75 53.5 18C53.5 18.1667 53.5833 18.2083 53.75 18.125C53.75 18.625 53.7083 19.2917 53.625 20.125C53.5417 20.9583 53.4583 21.7917 53.375 22.625C53.2917 23.4583 53.25 24.25 53.25 25C53.3333 25.75 53.5 26.3333 53.75 26.75C53.5833 27.9167 53.625 28.75 53.875 29.25C54.125 29.6667 54.25 30.1667 54.25 30.75C54.25 31.4167 54.0833 32 53.75 32.5C53.5 33 53.3333 33.5833 53.25 34.25C53.25 34.5 53.2917 34.75 53.375 35C53.4583 35.25 53.5 35.5417 53.5 35.875C53.3333 37.125 53.2917 38.0417 53.375 38.625C53.5417 39.125 53.5 39.5833 53.25 40C52.5833 40.25 51.9167 40.4583 51.25 40.625C50.6667 40.7083 50.0417 40.6667 49.375 40.5C49.125 40.25 48.9167 40 48.75 39.75C48.5833 39.4167 48.375 39.125 48.125 38.875C47.875 38.5417 47.9167 38.2917 48.25 38.125C48.6667 37.875 48.7917 37.5 48.625 37C48.375 35.5 47.7917 34.2083 46.875 33.125C46.0417 32.0417 45.1667 30.9167 44.25 29.75L43.25 28.375C42.9167 27.9583 42.5417 27.5833 42.125 27.25C41.7083 26.8333 41.4167 26.375 41.25 25.875C40.8333 25.875 40.5 25.7083 40.25 25.375C40 24.9583 39.7083 24.6667 39.375 24.5C39.125 24.4167 38.6667 24.25 38 24C37.3333 23.75 36.5833 23.5417 35.75 23.375C35 23.125 34.25 22.9167 33.5 22.75C32.8333 22.5 32.375 22.375 32.125 22.375C31.625 22.2917 31.125 22.3333 30.625 22.5C30.2083 22.5833 29.7917 22.625 29.375 22.625C28.375 22.2917 27.75 22.1667 27.5 22.25C27.25 22.3333 27 22.375 26.75 22.375C26.0833 22.375 25.5 22.3333 25 22.25C24.5 22.1667 23.9167 22.375 23.25 22.875C22.0833 22.7083 21.0417 22.7917 20.125 23.125C19.2083 23.375 18.1667 23.5833 17 23.75C16.9167 24 16.9167 24.25 17 24.5C17.1667 24.75 17.1667 24.9583 17 25.125C16.75 25.625 16.5417 26.125 16.375 26.625C16.2917 27.125 16.1667 27.625 16 28.125C16.1667 28.2917 16.125 28.5833 15.875 29C15.7083 29.3333 15.625 29.5833 15.625 29.75C15.5417 30.0833 15.5417 30.4167 15.625 30.75C15.7917 31 15.875 31.2917 15.875 31.625C15.7917 31.875 15.6667 32.125 15.5 32.375C15.4167 32.625 15.375 32.8333 15.375 33C15.2083 33.9167 15.2083 34.7917 15.375 35.625C15.5417 36.4583 15.625 37.2917 15.625 38.125C15.625 38.375 15.5833 38.625 15.5 38.875C15.4167 39.125 15.375 39.375 15.375 39.625C15.375 39.9583 15.4167 40.2917 15.5 40.625C15.6667 40.9583 15.7917 41.2917 15.875 41.625C15.9583 42.2083 16 42.875 16 43.625C16 44.375 16.25 44.9583 16.75 45.375C16.5833 45.5417 16.5 45.7917 16.5 46.125C16.5 46.375 16.4167 46.5833 16.25 46.75C16.4167 47.4167 16.625 48 16.875 48.5C17.125 48.9167 17.1667 49.5 17 50.25C17.5833 50.75 17.7917 51.0833 17.625 51.25C17.4583 51.4167 17.4167 51.5417 17.5 51.625C17.6667 51.9583 18 52.25 18.5 52.5C19.0833 52.75 19.7083 52.9583 20.375 53.125C21.125 53.2083 21.8333 53.3333 22.5 53.5C23.1667 53.5833 23.6667 53.6667 24 53.75C24.4167 53.9167 24.75 54.0833 25 54.25C25.3333 54.4167 25.7083 54.5833 26.125 54.75C26.5417 54.8333 26.9167 54.875 27.25 54.875C27.5833 54.7917 27.9583 54.8333 28.375 55C29.2917 55.1667 30.125 55.4167 30.875 55.75C31.7083 56 32.5833 56.2083 33.5 56.375C33.75 56.4583 34 56.4583 34.25 56.375C34.5833 56.2917 34.875 56.2917 35.125 56.375C36.375 56.7917 37.2917 56.9583 37.875 56.875C38.5417 56.7917 39.1667 56.8333 39.75 57C40.1667 57.0833 40.5 57.2083 40.75 57.375C41 57.4583 41.2917 57.5833 41.625 57.75C42.625 58.0833 43.875 58.4583 45.375 58.875C46.9583 59.2917 48.0417 59.9167 48.625 60.75C49.2917 60.8333 49.8333 61.0417 50.25 61.375C50.6667 61.7083 51.2083 61.9583 51.875 62.125C52.125 62.7083 52.4167 63.1667 52.75 63.5C53.1667 63.8333 53.5833 64.25 54 64.75C54.6667 66.0833 55.0833 67.125 55.25 67.875C55.4167 68.625 55.5417 69.4167 55.625 70.25C55.7917 71.3333 55.7917 72 55.625 72.25C55.5417 72.4167 55.4583 72.625 55.375 72.875C55.2917 73.2083 55.2917 73.5417 55.375 73.875C55.4583 74.2083 55.4583 74.5833 55.375 75C55.375 75.25 55.2917 75.75 55.125 76.5C54.9583 77.1667 54.7917 77.9167 54.625 78.75C54.4583 79.5 54.25 80.25 54 81C53.75 81.6667 53.5833 82.125 53.5 82.375C53.0833 82.7917 52.9167 83.125 53 83.375C53.0833 83.625 53.0417 83.8333 52.875 84C52.2083 84.8333 51.75 85.5 51.5 86C51.25 86.4167 50.9167 86.7083 50.5 86.875C50.5833 87.2083 50.5417 87.4583 50.375 87.625C50.2083 87.7083 50.1667 87.9167 50.25 88.25C49.5 89 48.875 89.4583 48.375 89.625C47.9583 89.7917 47.6667 89.9583 47.5 90.125L46.375 91C45.125 91.0833 44.2917 91.25 43.875 91.5C43.4583 91.6667 43.0417 91.8333 42.625 92C41.4583 92.25 40.25 92.4167 39 92.5C37.8333 92.5 36.7917 92.7917 35.875 93.375C35.375 93.0417 34.7917 93 34.125 93.25C33.4583 93.5 32.7917 93.5417 32.125 93.375C31.875 94.0417 31.9167 94.7917 32.25 95.625C32.5833 96.4583 32.7083 97.0833 32.625 97.5C33.0417 98.5 33.2083 99.1667 33.125 99.5C33.0417 99.8333 33.0833 100.208 33.25 100.625C33.5 101.042 33.5 101.917 33.25 103.25C33.0833 104.5 32.875 105.333 32.625 105.75C32.125 106.333 31.4167 106.625 30.5 106.625C29.5833 106.625 28.875 106.333 28.375 105.75C28.375 105.167 28.3333 104.583 28.25 104C28.1667 103.333 28.2917 102.75 28.625 102.25C28.375 101.917 28.2083 101.667 28.125 101.5C28.125 101.25 28.125 101.042 28.125 100.875C28.2083 100.708 28.25 100.542 28.25 100.375C28.3333 100.208 28.375 99.9583 28.375 99.625C28.375 99.2083 28.2917 98.875 28.125 98.625C28.0417 98.2917 27.9583 97.9167 27.875 97.5C27.7917 96.8333 27.75 96.2083 27.75 95.625C27.75 94.9583 27.6667 94.2917 27.5 93.625C27.25 93.7083 26.875 93.7083 26.375 93.625C25.9583 93.5417 25.7083 93.625 25.625 93.875C24.875 93.5417 24.25 93.2083 23.75 92.875C23.25 92.5417 22.5417 92.375 21.625 92.375C21.2083 91.875 20.4583 91.4583 19.375 91.125C18.2917 90.7083 17.4167 90.375 16.75 90.125C16.3333 89.9583 15.9167 89.75 15.5 89.5C15.1667 89.25 14.7917 89.0417 14.375 88.875C13.9583 88.7083 13.5417 88.5833 13.125 88.5C12.7083 88.4167 12.2917 88.25 11.875 88C11.5417 87.8333 11.25 87.5833 11 87.25C10.75 86.9167 10.4167 86.7917 10 86.875C9.83333 86.4583 9.58333 86.2083 9.25 86.125C9 85.9583 8.70833 85.7917 8.375 85.625C7.95833 86.2083 7.75 87.0417 7.75 88.125C7.83333 89.2083 7.95833 90.0833 8.125 90.75C8.20833 91.1667 8.41667 91.5 8.75 91.75C9.08333 91.9167 9.25 92.2083 9.25 92.625C8.91667 93.5417 8.54167 94.0833 8.125 94.25C7.79167 94.3333 7.58333 94.6667 7.5 95.25C7.08333 95.0833 6.625 95 6.125 95C5.70833 94.9167 5.29167 94.8333 4.875 94.75C4.70833 94.1667 4.45833 93.625 4.125 93.125C3.79167 92.625 3.58333 92.0833 3.5 91.5C3.33333 90.6667 3.33333 89.875 3.5 89.125C3.75 88.375 3.83333 87.625 3.75 86.875C3.66667 86.625 3.58333 86.4167 3.5 86.25C3.5 86 3.33333 85.7917 3 85.625C3.33333 84.7083 3.29167 84.0833 2.875 83.75C2.54167 83.4167 2.29167 82.9583 2.125 82.375C1.95833 82.125 1.875 81.8333 1.875 81.5C1.95833 81.1667 1.95833 80.8333 1.875 80.5C1.875 80.4167 1.79167 80.2083 1.625 79.875C1.54167 79.5417 1.45833 79.2083 1.375 78.875C1.29167 78.5417 1.20833 78.25 1.125 78C1.125 77.6667 1.20833 77.5 1.375 77.5C1.29167 77.3333 1.16667 77.125 1 76.875C0.916667 76.5417 0.875 76.2917 0.875 76.125C0.875 75.875 0.916667 75.4167 1 74.75C1.16667 74 1.33333 73.2083 1.5 72.375C1.66667 71.5417 1.875 70.7917 2.125 70.125C2.375 69.4583 2.58333 69.0417 2.75 68.875C3 68.7083 3.16667 68.6667 3.25 68.75C3.33333 68.8333 3.58333 68.6667 4 68.25C4.41667 68.0833 4.79167 68.125 5.125 68.375C5.45833 68.625 5.83333 68.6667 6.25 68.5C6.58333 68.9167 6.79167 69.625 6.875 70.625C6.95833 71.5417 7.08333 72.2917 7.25 72.875C7.08333 73.2917 7.16667 73.5 7.5 73.5C7.83333 73.5 8.04167 73.6667 8.125 74C8.20833 74.3333 8.29167 74.75 8.375 75.25C8.45833 75.6667 8.70833 75.9583 9.125 76.125C9.04167 76.5417 9.04167 77 9.125 77.5C9.20833 78 9.41667 78.3333 9.75 78.5C9.66667 79.1667 9.79167 79.7083 10.125 80.125C10.4583 80.5417 10.7083 80.9167 10.875 81.25C11.2917 82.0833 11.875 82.75 12.625 83.25C13.375 83.75 14.0417 84.3333 14.625 85C15.4583 85.1667 16.1667 85.5 16.75 86C17.3333 86.4167 17.9583 86.8333 18.625 87.25C19.7083 87.25 20.5417 87.5833 21.125 88.25C21.7917 88.0833 22.6667 88.25 23.75 88.75C24.9167 89.25 25.5417 89.625 25.625 89.875C26.0417 89.7083 26.5 89.6667 27 89.75C27.5833 89.8333 28.125 89.875 28.625 89.875C29.5417 89.7083 30.1667 89.6667 30.5 89.75C30.8333 89.8333 31.2083 89.7917 31.625 89.625C31.7917 89.5417 32.125 89.5417 32.625 89.625C33.2083 89.625 33.7917 89.625 34.375 89.625C34.9583 89.625 35.4583 89.5833 35.875 89.5C36.2917 89.3333 36.5 89.125 36.5 88.875C36.6667 89.0417 36.9583 89.0833 37.375 89C37.875 88.9167 38.2083 88.8333 38.375 88.75C39.375 88.3333 39.9583 88.125 40.125 88.125C40.2917 88.125 40.4583 88.125 40.625 88.125C40.7917 88.125 40.9583 88.0417 41.125 87.875C41.375 87.7083 41.7083 87.375 42.125 86.875C42.2917 85.9583 42.5417 85.3333 42.875 85C43.2083 84.6667 43.3333 84.2083 43.25 83.625C42.9167 82.7917 42.7917 82.3333 42.875 82.25C43.0417 82.0833 43.0833 81.9167 43 81.75C43 80.5833 42.875 79.375 42.625 78.125C42.375 76.875 42.2083 75.6667 42.125 74.5C42.125 74.1667 42.125 73.875 42.125 73.625C42.2083 73.2917 42.2083 72.9583 42.125 72.625C41.7083 71.625 41.5 70.9167 41.5 70.5C41.5 70 41.4167 69.5417 41.25 69.125C40.5833 68.125 40.1667 67.2917 40 66.625C39.9167 65.875 39.625 65.4583 39.125 65.375C39.2083 64.5417 39.0417 63.9167 38.625 63.5C38.2917 63.0833 38.125 62.5 38.125 61.75C37.375 61.3333 36.3333 60.9167 35 60.5C33.6667 60.0833 32.5417 59.7917 31.625 59.625C31.2083 59.5417 30.75 59.5417 30.25 59.625C29.8333 59.7083 29.375 59.7083 28.875 59.625C28.2083 59.4583 27.6667 59.25 27.25 59C26.9167 58.6667 26.4583 58.4167 25.875 58.25C25.2917 58.0833 24.7083 58 24.125 58C23.625 58 23.125 57.9167 22.625 57.75C22.2083 57.5833 21.875 57.4167 21.625 57.25C21.375 57.0833 21.0833 56.9167 20.75 56.75C20.4167 56.6667 20.0833 56.6667 19.75 56.75C19.5 56.8333 19.2083 56.8333 18.875 56.75C17.9583 56.4167 17.3333 56.2917 17 56.375C16.75 56.4583 16.5 56.4583 16.25 56.375C16 56.2917 15.75 56.1667 15.5 56C15.3333 55.8333 15.125 55.7083 14.875 55.625C14.625 55.5417 14.3333 55.5 14 55.5C13.75 55.4167 13.5 55.2917 13.25 55.125C12.5 54.875 12.125 54.7083 12.125 54.625C12.2083 54.4583 12.2083 54.3333 12.125 54.25C11.9583 54.0833 11.6667 54 11.25 54C10.9167 53.9167 10.6667 53.8333 10.5 53.75C9.16667 52.5833 7.875 51.4167 6.625 50.25C5.45833 49 4.25 47.75 3 46.5C3 46.4167 2.95833 46.2083 2.875 45.875C2.875 45.4583 2.83333 45.0833 2.75 44.75C2.75 44.3333 2.70833 43.9583 2.625 43.625C2.54167 43.2083 2.5 42.9583 2.5 42.875C2.25 42.0417 2.16667 41.5833 2.25 41.5C2.33333 41.3333 2.375 41.1667 2.375 41C2.20833 40 2.16667 39.4167 2.25 39.25C2.41667 39.0833 2.5 38.875 2.5 38.625C2.58333 38.2083 2.54167 37.875 2.375 37.625C2.29167 37.375 2.33333 37 2.5 36.5C3 35.6667 3.20833 35.0417 3.125 34.625C3.125 34.125 3.16667 33.6667 3.25 33.25C3.25 33.1667 3.29167 32.9167 3.375 32.5C3.54167 32 3.66667 31.4583 3.75 30.875C3.91667 30.2917 4.04167 29.7917 4.125 29.375C4.29167 28.875 4.375 28.625 4.375 28.625C4.79167 27.875 5.04167 27.4583 5.125 27.375C5.29167 27.2917 5.45833 27.1667 5.625 27C5.79167 26.75 5.95833 26.5 6.125 26.25C6.29167 25.9167 6.5 25.625 6.75 25.375C7.16667 24.875 7.625 24.4167 8.125 24C8.625 23.5833 9.08333 23.125 9.5 22.625C10.3333 22.2917 10.875 22.0833 11.125 22C11.4583 21.8333 11.7083 21.5417 11.875 21.125C12.7917 20.7917 13.2917 20.6667 13.375 20.75C13.4583 20.75 13.5833 20.75 13.75 20.75C14.1667 20.25 14.5417 20.0417 14.875 20.125C15.2083 20.125 15.5417 20.0833 15.875 20C16.5417 19.8333 17.25 19.5833 18 19.25C18.75 18.9167 19.5 18.875 20.25 19.125C21 18.7917 21.4167 18.625 21.5 18.625C21.6667 18.5417 21.7917 18.4583 21.875 18.375C22.2083 18.375 22.5 18.4167 22.75 18.5C23.0833 18.5833 23.3333 18.625 23.5 18.625C24.3333 18.2083 24.8333 18.0417 25 18.125C25.25 18.125 25.4583 18.0417 25.625 17.875C25.625 16.5417 25.6667 15.2083 25.75 13.875C25.9167 12.4583 25.875 11.0833 25.625 9.75C25.5417 8.58333 25.5833 7.875 25.75 7.625C26 7.29167 25.9583 6.83333 25.625 6.25C25.625 5.5 25.6667 4.75 25.75 4C25.8333 3.25 26 2.625 26.25 2.125C26.5833 1.625 27.0417 1.29167 27.625 1.125C28.2083 0.958333 29 1.125 30 1.625ZM10.5 28.625C10 29.0417 9.75 29.4167 9.75 29.75C9.75 30.0833 9.54167 30.25 9.125 30.25C8.95833 30.9167 8.79167 31.4167 8.625 31.75C8.45833 32.0833 8.20833 32.5 7.875 33C8.125 33.9167 8.04167 34.8333 7.625 35.75C7.20833 36.5833 7.16667 37.4583 7.5 38.375C7.25 38.5417 7.04167 39.0833 6.875 40C6.70833 40.8333 6.66667 41.375 6.75 41.625C6.75 41.9583 6.83333 42.25 7 42.5C7.16667 42.6667 7.33333 42.875 7.5 43.125C7.58333 44.125 7.75 44.7917 8 45.125C8.25 45.375 8.29167 45.7083 8.125 46.125C8.375 46.2917 8.66667 46.5417 9 46.875C9.33333 47.2083 9.66667 47.5417 10 47.875C10.4167 48.2083 10.75 48.5 11 48.75C11.3333 49 11.625 49.125 11.875 49.125C12.2083 48.7917 12.2917 48.4583 12.125 48.125C11.9583 47.7917 11.7917 47.4167 11.625 47C11.9583 46.0833 12 44.9167 11.75 43.5C11.5 42.0833 11.1667 40.9167 10.75 40C10.75 38.3333 10.75 37 10.75 36C10.8333 35 10.9583 34.0417 11.125 33.125C11.375 32.2083 11.5417 31.2917 11.625 30.375C11.7917 29.4583 11.7917 28.5 11.625 27.5C10.9583 27.6667 10.625 27.875 10.625 28.125C10.625 28.2917 10.5833 28.4583 10.5 28.625ZM46.5 75C46.5 76.4167 46.625 77.875 46.875 79.375C47.125 80.875 47.3333 82.3333 47.5 83.75C48.25 83 48.7917 82.4583 49.125 82.125C49.2917 80.875 49.75 79.875 50.5 79.125C50.5833 77.9583 50.7917 76.7917 51.125 75.625C51.5417 74.375 51.7083 73.1667 51.625 72C51.625 71.3333 51.4583 70.6667 51.125 70C50.875 69.3333 50.8333 68.6667 51 68C50.5833 67.4167 50.125 66.9167 49.625 66.5C49.125 66.0833 48.7083 65.5833 48.375 65C48.2917 65 48 64.875 47.5 64.625C47 64.375 46.4583 64.125 45.875 63.875C45.375 63.5417 44.875 63.25 44.375 63C43.875 62.6667 43.5833 62.4583 43.5 62.375C42.8333 63.2083 42.6667 63.9583 43 64.625C43.3333 65.2083 43.6667 65.875 44 66.625C44.3333 67.5417 44.6667 68.1667 45 68.5C45.3333 68.8333 45.625 69.375 45.875 70.125C46.0417 70.5417 46.0833 70.9583 46 71.375C45.9167 71.7917 45.9583 72.2083 46.125 72.625C46.125 72.7917 46.2083 73.0417 46.375 73.375C46.5417 73.625 46.5833 73.8333 46.5 74V75Z" fill="#FF0000"/>
</svg>
