<svg width="56" height="107" viewBox="0 0 56 107" fill="none" xmlns="http://www.w3.org/2000/svg">
<path d="M29.4114 1.12845C29.2447 1.96178 29.203 2.79512 29.2864 3.62845C29.3697 4.37845 29.4114 5.17012 29.4114 6.00345C29.4114 6.25345 29.3697 6.50345 29.2864 6.75345C29.203 7.00345 29.1614 7.21178 29.1614 7.37845C29.2447 7.79512 29.328 8.17012 29.4114 8.50345C29.578 8.75345 29.6614 9.08678 29.6614 9.50345C29.6614 10.0034 29.703 10.5451 29.7864 11.1284C29.8697 11.6284 29.9114 12.0868 29.9114 12.5034C29.828 13.1701 29.6197 13.9201 29.2864 14.7534C28.953 15.5868 28.9947 16.3368 29.4114 17.0034C29.6614 17.4201 30.328 17.6284 31.4114 17.6284C32.4947 17.6284 33.2447 17.5451 33.6614 17.3784C34.078 17.8784 34.6197 18.2118 35.2864 18.3784C36.0364 18.5451 36.7447 18.6284 37.4114 18.6284C37.7447 19.0451 38.453 19.4618 39.5364 19.8784C40.703 20.2118 41.5364 20.5451 42.0364 20.8784C42.6197 21.7118 42.9947 22.1284 43.1614 22.1284C43.328 22.1284 43.4947 22.2118 43.6614 22.3784C43.9114 22.5451 44.1197 22.7951 44.2864 23.1284C44.5364 23.4618 44.8697 23.6701 45.2864 23.7534C45.203 24.0868 45.203 24.3368 45.2864 24.5034C45.453 24.5868 45.6197 24.7951 45.7864 25.1284C46.203 25.2951 46.453 25.5868 46.5364 26.0034C46.703 26.3368 46.9114 26.6701 47.1614 27.0034C47.4114 27.2534 47.703 27.4618 48.0364 27.6284C48.3697 27.7951 48.6197 28.0451 48.7864 28.3784C48.953 26.6284 49.078 24.8784 49.1614 23.1284C49.2447 21.3784 49.203 19.6284 49.0364 17.8784C49.453 17.3784 49.8697 17.0034 50.2864 16.7534C50.7864 16.4201 51.3697 16.3368 52.0364 16.5034C52.6197 16.9201 52.9114 17.2534 52.9114 17.5034C52.9114 17.6701 52.9947 17.7118 53.1614 17.6284C53.1614 18.1284 53.1197 18.7951 53.0364 19.6284C52.953 20.4618 52.8697 21.2951 52.7864 22.1284C52.703 22.9618 52.6614 23.7534 52.6614 24.5034C52.7447 25.2534 52.9114 25.8368 53.1614 26.2534C52.9947 27.4201 53.0364 28.2534 53.2864 28.7534C53.5364 29.1701 53.6614 29.6701 53.6614 30.2534C53.6614 30.9201 53.4947 31.5034 53.1614 32.0034C52.9114 32.5034 52.7447 33.0868 52.6614 33.7534C52.6614 34.0034 52.703 34.2534 52.7864 34.5034C52.8697 34.7534 52.9114 35.0451 52.9114 35.3784C52.7447 36.6284 52.703 37.5451 52.7864 38.1284C52.953 38.6284 52.9114 39.0868 52.6614 39.5034C51.9947 39.7534 51.328 39.9618 50.6614 40.1284C50.078 40.2118 49.453 40.1701 48.7864 40.0034C48.5364 39.7534 48.328 39.5034 48.1614 39.2534C47.9947 38.9201 47.7864 38.6284 47.5364 38.3784C47.2864 38.0451 47.328 37.7951 47.6614 37.6284C48.078 37.3784 48.203 37.0034 48.0364 36.5034C47.7864 35.0034 47.203 33.7118 46.2864 32.6284C45.453 31.5451 44.578 30.4201 43.6614 29.2534L42.6614 27.8784C42.328 27.4618 41.953 27.0868 41.5364 26.7534C41.1197 26.3368 40.828 25.8784 40.6614 25.3784C40.2447 25.3784 39.9114 25.2118 39.6614 24.8784C39.4114 24.4618 39.1197 24.1701 38.7864 24.0034C38.5364 23.9201 38.078 23.7534 37.4114 23.5034C36.7447 23.2534 35.9947 23.0451 35.1614 22.8784C34.4114 22.6284 33.6614 22.4201 32.9114 22.2534C32.2447 22.0034 31.7864 21.8784 31.5364 21.8784C31.0364 21.7951 30.5364 21.8368 30.0364 22.0034C29.6197 22.0868 29.203 22.1284 28.7864 22.1284C27.7864 21.7951 27.1614 21.6701 26.9114 21.7534C26.6614 21.8368 26.4114 21.8784 26.1614 21.8784C25.4947 21.8784 24.9114 21.8368 24.4114 21.7534C23.9114 21.6701 23.328 21.8784 22.6614 22.3784C21.4947 22.2118 20.453 22.2951 19.5364 22.6284C18.6197 22.8784 17.578 23.0868 16.4114 23.2534C16.328 23.5034 16.328 23.7534 16.4114 24.0034C16.578 24.2534 16.578 24.4618 16.4114 24.6284C16.1614 25.1284 15.953 25.6284 15.7864 26.1284C15.703 26.6284 15.578 27.1284 15.4114 27.6284C15.578 27.7951 15.5364 28.0868 15.2864 28.5034C15.1197 28.8368 15.0364 29.0868 15.0364 29.2534C14.953 29.5868 14.953 29.9201 15.0364 30.2534C15.203 30.5034 15.2864 30.7951 15.2864 31.1284C15.203 31.3784 15.078 31.6284 14.9114 31.8784C14.828 32.1284 14.7864 32.3368 14.7864 32.5034C14.6197 33.4201 14.6197 34.2951 14.7864 35.1284C14.953 35.9618 15.0364 36.7951 15.0364 37.6284C15.0364 37.8784 14.9947 38.1284 14.9114 38.3784C14.828 38.6284 14.7864 38.8784 14.7864 39.1284C14.7864 39.4618 14.828 39.7951 14.9114 40.1284C15.078 40.4618 15.203 40.7951 15.2864 41.1284C15.3697 41.7118 15.4114 42.3784 15.4114 43.1284C15.4114 43.8784 15.6614 44.4618 16.1614 44.8784C15.9947 45.0451 15.9114 45.2951 15.9114 45.6284C15.9114 45.8784 15.828 46.0868 15.6614 46.2534C15.828 46.9201 16.0364 47.5034 16.2864 48.0034C16.5364 48.4201 16.578 49.0034 16.4114 49.7534C16.9947 50.2534 17.203 50.5868 17.0364 50.7534C16.8697 50.9201 16.828 51.0451 16.9114 51.1284C17.078 51.4618 17.4114 51.7534 17.9114 52.0034C18.4947 52.2534 19.1197 52.4618 19.7864 52.6284C20.5364 52.7118 21.2447 52.8368 21.9114 53.0034C22.578 53.0868 23.078 53.1701 23.4114 53.2534C23.828 53.4201 24.1614 53.5868 24.4114 53.7534C24.7447 53.9201 25.1197 54.0868 25.5364 54.2534C25.953 54.3368 26.328 54.3784 26.6614 54.3784C26.9947 54.2951 27.3697 54.3368 27.7864 54.5034C28.703 54.6701 29.5364 54.9201 30.2864 55.2534C31.1197 55.5034 31.9947 55.7118 32.9114 55.8784C33.1614 55.9618 33.4114 55.9618 33.6614 55.8784C33.9947 55.7951 34.2864 55.7951 34.5364 55.8784C35.7864 56.2951 36.703 56.4618 37.2864 56.3784C37.953 56.2951 38.578 56.3368 39.1614 56.5034C39.578 56.5868 39.9114 56.7118 40.1614 56.8784C40.4114 56.9618 40.703 57.0868 41.0364 57.2534C42.0364 57.5868 43.2864 57.9618 44.7864 58.3784C46.3697 58.7951 47.453 59.4201 48.0364 60.2534C48.703 60.3368 49.2447 60.5451 49.6614 60.8784C50.078 61.2118 50.6197 61.4618 51.2864 61.6284C51.5364 62.2118 51.828 62.6701 52.1614 63.0034C52.578 63.3368 52.9947 63.7534 53.4114 64.2534C54.078 65.5868 54.4947 66.6284 54.6614 67.3784C54.828 68.1284 54.953 68.9201 55.0364 69.7534C55.203 70.8368 55.203 71.5034 55.0364 71.7534C54.953 71.9201 54.8697 72.1284 54.7864 72.3784C54.703 72.7118 54.703 73.0451 54.7864 73.3784C54.8697 73.7118 54.8697 74.0868 54.7864 74.5034C54.7864 74.7534 54.703 75.2534 54.5364 76.0034C54.3697 76.6701 54.203 77.4201 54.0364 78.2534C53.8697 79.0034 53.6614 79.7534 53.4114 80.5034C53.1614 81.1701 52.9947 81.6284 52.9114 81.8784C52.4947 82.2951 52.328 82.6284 52.4114 82.8784C52.4947 83.1284 52.453 83.3368 52.2864 83.5034C51.6197 84.3368 51.1614 85.0034 50.9114 85.5034C50.6614 85.9201 50.328 86.2118 49.9114 86.3784C49.9947 86.7118 49.953 86.9618 49.7864 87.1284C49.6197 87.2118 49.578 87.4201 49.6614 87.7534C48.9114 88.5034 48.2864 88.9618 47.7864 89.1284C47.3697 89.2951 47.078 89.4618 46.9114 89.6284L45.7864 90.5034C44.5364 90.5868 43.703 90.7534 43.2864 91.0034C42.8697 91.1701 42.453 91.3368 42.0364 91.5034C40.8697 91.7534 39.6614 91.9201 38.4114 92.0034C37.2447 92.0034 36.203 92.2951 35.2864 92.8784C34.7864 92.5451 34.203 92.5034 33.5364 92.7534C32.8697 93.0034 32.203 93.0451 31.5364 92.8784C31.2864 93.5451 31.328 94.2951 31.6614 95.1284C31.9947 95.9618 32.1197 96.5868 32.0364 97.0034C32.453 98.0034 32.6197 98.6701 32.5364 99.0034C32.453 99.3368 32.4947 99.7118 32.6614 100.128C32.9114 100.545 32.9114 101.42 32.6614 102.753C32.4947 104.003 32.2864 104.837 32.0364 105.253C31.5364 105.837 30.828 106.128 29.9114 106.128C28.9947 106.128 28.2864 105.837 27.7864 105.253C27.7864 104.67 27.7447 104.087 27.6614 103.503C27.578 102.837 27.703 102.253 28.0364 101.753C27.7864 101.42 27.6197 101.17 27.5364 101.003C27.5364 100.753 27.5364 100.545 27.5364 100.378C27.6197 100.212 27.6614 100.045 27.6614 99.8784C27.7447 99.7118 27.7864 99.4618 27.7864 99.1284C27.7864 98.7118 27.703 98.3784 27.5364 98.1284C27.453 97.7951 27.3697 97.4201 27.2864 97.0034C27.203 96.3368 27.1614 95.7118 27.1614 95.1284C27.1614 94.4618 27.078 93.7951 26.9114 93.1284C26.6614 93.2118 26.2864 93.2118 25.7864 93.1284C25.3697 93.0451 25.1197 93.1284 25.0364 93.3784C24.2864 93.0451 23.6614 92.7118 23.1614 92.3784C22.6614 92.0451 21.953 91.8784 21.0364 91.8784C20.6197 91.3784 19.8697 90.9618 18.7864 90.6284C17.703 90.2118 16.828 89.8784 16.1614 89.6284C15.7447 89.4618 15.328 89.2534 14.9114 89.0034C14.578 88.7534 14.203 88.5451 13.7864 88.3784C13.3697 88.2118 12.953 88.0868 12.5364 88.0034C12.1197 87.9201 11.703 87.7534 11.2864 87.5034C10.953 87.3368 10.6614 87.0868 10.4114 86.7534C10.1614 86.4201 9.82804 86.2951 9.41138 86.3784C9.24471 85.9618 8.99471 85.7118 8.66138 85.6284C8.41138 85.4618 8.11971 85.2951 7.78638 85.1284C7.36971 85.7118 7.16138 86.5451 7.16138 87.6284C7.24471 88.7118 7.36971 89.5868 7.53638 90.2534C7.61971 90.6701 7.82804 91.0034 8.16138 91.2534C8.49471 91.4201 8.66138 91.7118 8.66138 92.1284C8.32804 93.0451 7.95304 93.5868 7.53638 93.7534C7.20304 93.8368 6.99471 94.1701 6.91138 94.7534C6.49471 94.5868 6.03638 94.5034 5.53638 94.5034C5.11971 94.4201 4.70304 94.3368 4.28638 94.2534C4.11971 93.6701 3.86971 93.1284 3.53638 92.6284C3.20304 92.1284 2.99471 91.5868 2.91138 91.0034C2.74471 90.1701 2.74471 89.3784 2.91138 88.6284C3.16138 87.8784 3.24471 87.1284 3.16138 86.3784C3.07804 86.1284 2.99471 85.9201 2.91138 85.7534C2.91138 85.5034 2.74471 85.2951 2.41138 85.1284C2.74471 84.2118 2.70304 83.5868 2.28638 83.2534C1.95304 82.9201 1.70304 82.4618 1.53638 81.8784C1.36971 81.6284 1.28638 81.3368 1.28638 81.0034C1.36971 80.6701 1.36971 80.3368 1.28638 80.0034C1.28638 79.9201 1.20304 79.7118 1.03638 79.3784C0.953044 79.0451 0.86971 78.7118 0.786377 78.3784C0.703044 78.0451 0.61971 77.7534 0.536377 77.5034C0.536377 77.1701 0.61971 77.0034 0.786377 77.0034C0.703044 76.8368 0.578044 76.6284 0.411377 76.3784C0.328044 76.0451 0.286377 75.7951 0.286377 75.6284C0.286377 75.3784 0.328044 74.9201 0.411377 74.2534C0.578044 73.5034 0.74471 72.7118 0.911377 71.8784C1.07804 71.0451 1.28638 70.2951 1.53638 69.6284C1.78638 68.9618 1.99471 68.5451 2.16138 68.3784C2.41138 68.2118 2.57804 68.1701 2.66138 68.2534C2.74471 68.3368 2.99471 68.1701 3.41138 67.7534C3.82804 67.5868 4.20304 67.6284 4.53638 67.8784C4.86971 68.1284 5.24471 68.1701 5.66138 68.0034C5.99471 68.4201 6.20304 69.1284 6.28638 70.1284C6.36971 71.0451 6.49471 71.7951 6.66138 72.3784C6.49471 72.7951 6.57804 73.0034 6.91138 73.0034C7.24471 73.0034 7.45304 73.1701 7.53638 73.5034C7.61971 73.8368 7.70304 74.2534 7.78638 74.7534C7.86971 75.1701 8.11971 75.4618 8.53638 75.6284C8.45304 76.0451 8.45304 76.5034 8.53638 77.0034C8.61971 77.5034 8.82804 77.8368 9.16138 78.0034C9.07804 78.6701 9.20304 79.2118 9.53638 79.6284C9.86971 80.0451 10.1197 80.4201 10.2864 80.7534C10.703 81.5868 11.2864 82.2534 12.0364 82.7534C12.7864 83.2534 13.453 83.8368 14.0364 84.5034C14.8697 84.6701 15.578 85.0034 16.1614 85.5034C16.7447 85.9201 17.3697 86.3368 18.0364 86.7534C19.1197 86.7534 19.953 87.0868 20.5364 87.7534C21.203 87.5868 22.078 87.7534 23.1614 88.2534C24.328 88.7534 24.953 89.1284 25.0364 89.3784C25.453 89.2118 25.9114 89.1701 26.4114 89.2534C26.9947 89.3368 27.5364 89.3784 28.0364 89.3784C28.953 89.2118 29.578 89.1701 29.9114 89.2534C30.2447 89.3368 30.6197 89.2951 31.0364 89.1284C31.203 89.0451 31.5364 89.0451 32.0364 89.1284C32.6197 89.1284 33.203 89.1284 33.7864 89.1284C34.3697 89.1284 34.8697 89.0868 35.2864 89.0034C35.703 88.8368 35.9114 88.6284 35.9114 88.3784C36.078 88.5451 36.3697 88.5868 36.7864 88.5034C37.2864 88.4201 37.6197 88.3368 37.7864 88.2534C38.7864 87.8368 39.3697 87.6284 39.5364 87.6284C39.703 87.6284 39.8697 87.6284 40.0364 87.6284C40.203 87.6284 40.3697 87.5451 40.5364 87.3784C40.7864 87.2118 41.1197 86.8784 41.5364 86.3784C41.703 85.4618 41.953 84.8368 42.2864 84.5034C42.6197 84.1701 42.7447 83.7118 42.6614 83.1284C42.328 82.2951 42.203 81.8368 42.2864 81.7534C42.453 81.5868 42.4947 81.4201 42.4114 81.2534C42.4114 80.0868 42.2864 78.8784 42.0364 77.6284C41.7864 76.3784 41.6197 75.1701 41.5364 74.0034C41.5364 73.6701 41.5364 73.3784 41.5364 73.1284C41.6197 72.7951 41.6197 72.4618 41.5364 72.1284C41.1197 71.1284 40.9114 70.4201 40.9114 70.0034C40.9114 69.5034 40.828 69.0451 40.6614 68.6284C39.9947 67.6284 39.578 66.7951 39.4114 66.1284C39.328 65.3784 39.0364 64.9618 38.5364 64.8784C38.6197 64.0451 38.453 63.4201 38.0364 63.0034C37.703 62.5868 37.5364 62.0034 37.5364 61.2534C36.7864 60.8368 35.7447 60.4201 34.4114 60.0034C33.078 59.5868 31.953 59.2951 31.0364 59.1284C30.6197 59.0451 30.1614 59.0451 29.6614 59.1284C29.2447 59.2118 28.7864 59.2118 28.2864 59.1284C27.6197 58.9618 27.078 58.7534 26.6614 58.5034C26.328 58.1701 25.8697 57.9201 25.2864 57.7534C24.703 57.5868 24.1197 57.5034 23.5364 57.5034C23.0364 57.5034 22.5364 57.4201 22.0364 57.2534C21.6197 57.0868 21.2864 56.9201 21.0364 56.7534C20.7864 56.5868 20.4947 56.4201 20.1614 56.2534C19.828 56.1701 19.4947 56.1701 19.1614 56.2534C18.9114 56.3368 18.6197 56.3368 18.2864 56.2534C17.3697 55.9201 16.7447 55.7951 16.4114 55.8784C16.1614 55.9618 15.9114 55.9618 15.6614 55.8784C15.4114 55.7951 15.1614 55.6701 14.9114 55.5034C14.7447 55.3368 14.5364 55.2118 14.2864 55.1284C14.0364 55.0451 13.7447 55.0034 13.4114 55.0034C13.1614 54.9201 12.9114 54.7951 12.6614 54.6284C11.9114 54.3784 11.5364 54.2118 11.5364 54.1284C11.6197 53.9618 11.6197 53.8368 11.5364 53.7534C11.3697 53.5868 11.078 53.5034 10.6614 53.5034C10.328 53.4201 10.078 53.3368 9.91138 53.2534C8.57804 52.0868 7.28638 50.9201 6.03638 49.7534C4.86971 48.5034 3.66138 47.2534 2.41138 46.0034C2.41138 45.9201 2.36971 45.7118 2.28638 45.3784C2.28638 44.9618 2.24471 44.5868 2.16138 44.2534C2.16138 43.8368 2.11971 43.4618 2.03638 43.1284C1.95304 42.7118 1.91138 42.4618 1.91138 42.3784C1.66138 41.5451 1.57804 41.0868 1.66138 41.0034C1.74471 40.8368 1.78638 40.6701 1.78638 40.5034C1.61971 39.5034 1.57804 38.9201 1.66138 38.7534C1.82804 38.5868 1.91138 38.3784 1.91138 38.1284C1.99471 37.7118 1.95304 37.3784 1.78638 37.1284C1.70304 36.8784 1.74471 36.5034 1.91138 36.0034C2.41138 35.1701 2.61971 34.5451 2.53638 34.1284C2.53638 33.6284 2.57804 33.1701 2.66138 32.7534C2.66138 32.6701 2.70304 32.4201 2.78638 32.0034C2.95304 31.5034 3.07804 30.9618 3.16138 30.3784C3.32804 29.7951 3.45304 29.2951 3.53638 28.8784C3.70304 28.3784 3.78638 28.1284 3.78638 28.1284C4.20304 27.3784 4.45304 26.9618 4.53638 26.8784C4.70304 26.7951 4.86971 26.6701 5.03638 26.5034C5.20304 26.2534 5.36971 26.0034 5.53638 25.7534C5.70304 25.4201 5.91138 25.1284 6.16138 24.8784C6.57804 24.3784 7.03638 23.9201 7.53638 23.5034C8.03638 23.0868 8.49471 22.6284 8.91138 22.1284C9.74471 21.7951 10.2864 21.5868 10.5364 21.5034C10.8697 21.3368 11.1197 21.0451 11.2864 20.6284C12.203 20.2951 12.703 20.1701 12.7864 20.2534C12.8697 20.2534 12.9947 20.2534 13.1614 20.2534C13.578 19.7534 13.953 19.5451 14.2864 19.6284C14.6197 19.6284 14.953 19.5868 15.2864 19.5034C15.953 19.3368 16.6614 19.0868 17.4114 18.7534C18.1614 18.4201 18.9114 18.3784 19.6614 18.6284C20.4114 18.2951 20.828 18.1284 20.9114 18.1284C21.078 18.0451 21.203 17.9618 21.2864 17.8784C21.6197 17.8784 21.9114 17.9201 22.1614 18.0034C22.4947 18.0868 22.7447 18.1284 22.9114 18.1284C23.7447 17.7118 24.2447 17.5451 24.4114 17.6284C24.6614 17.6284 24.8697 17.5451 25.0364 17.3784C25.0364 16.0451 25.078 14.7118 25.1614 13.3784C25.328 11.9618 25.2864 10.5868 25.0364 9.25345C24.953 8.08678 24.9947 7.37845 25.1614 7.12845C25.4114 6.79512 25.3697 6.33678 25.0364 5.75345C25.0364 5.00345 25.078 4.25345 25.1614 3.50345C25.2447 2.75345 25.4114 2.12845 25.6614 1.62845C25.9947 1.12845 26.453 0.795115 27.0364 0.628448C27.6197 0.461782 28.4114 0.628448 29.4114 1.12845ZM9.91138 28.1284C9.41138 28.5451 9.16138 28.9201 9.16138 29.2534C9.16138 29.5868 8.95304 29.7534 8.53638 29.7534C8.36971 30.4201 8.20304 30.9201 8.03638 31.2534C7.86971 31.5868 7.61971 32.0034 7.28638 32.5034C7.53638 33.4201 7.45304 34.3368 7.03638 35.2534C6.61971 36.0868 6.57804 36.9618 6.91138 37.8784C6.66138 38.0451 6.45304 38.5868 6.28638 39.5034C6.11971 40.3368 6.07804 40.8784 6.16138 41.1284C6.16138 41.4618 6.24471 41.7534 6.41138 42.0034C6.57804 42.1701 6.74471 42.3784 6.91138 42.6284C6.99471 43.6284 7.16138 44.2951 7.41138 44.6284C7.66138 44.8784 7.70304 45.2118 7.53638 45.6284C7.78638 45.7951 8.07804 46.0451 8.41138 46.3784C8.74471 46.7118 9.07804 47.0451 9.41138 47.3784C9.82804 47.7118 10.1614 48.0034 10.4114 48.2534C10.7447 48.5034 11.0364 48.6284 11.2864 48.6284C11.6197 48.2951 11.703 47.9618 11.5364 47.6284C11.3697 47.2951 11.203 46.9201 11.0364 46.5034C11.3697 45.5868 11.4114 44.4201 11.1614 43.0034C10.9114 41.5868 10.578 40.4201 10.1614 39.5034C10.1614 37.8368 10.1614 36.5034 10.1614 35.5034C10.2447 34.5034 10.3697 33.5451 10.5364 32.6284C10.7864 31.7118 10.953 30.7951 11.0364 29.8784C11.203 28.9618 11.203 28.0034 11.0364 27.0034C10.3697 27.1701 10.0364 27.3784 10.0364 27.6284C10.0364 27.7951 9.99471 27.9618 9.91138 28.1284ZM45.9114 74.5034C45.9114 75.9201 46.0364 77.3784 46.2864 78.8784C46.5364 80.3784 46.7447 81.8368 46.9114 83.2534C47.6614 82.5034 48.203 81.9618 48.5364 81.6284C48.703 80.3784 49.1614 79.3784 49.9114 78.6284C49.9947 77.4618 50.203 76.2951 50.5364 75.1284C50.953 73.8784 51.1197 72.6701 51.0364 71.5034C51.0364 70.8368 50.8697 70.1701 50.5364 69.5034C50.2864 68.8368 50.2447 68.1701 50.4114 67.5034C49.9947 66.9201 49.5364 66.4201 49.0364 66.0034C48.5364 65.5868 48.1197 65.0868 47.7864 64.5034C47.703 64.5034 47.4114 64.3784 46.9114 64.1284C46.4114 63.8784 45.8697 63.6284 45.2864 63.3784C44.7864 63.0451 44.2864 62.7534 43.7864 62.5034C43.2864 62.1701 42.9947 61.9618 42.9114 61.8784C42.2447 62.7118 42.078 63.4618 42.4114 64.1284C42.7447 64.7118 43.078 65.3784 43.4114 66.1284C43.7447 67.0451 44.078 67.6701 44.4114 68.0034C44.7447 68.3368 45.0364 68.8784 45.2864 69.6284C45.453 70.0451 45.4947 70.4618 45.4114 70.8784C45.328 71.2951 45.3697 71.7118 45.5364 72.1284C45.5364 72.2951 45.6197 72.5451 45.7864 72.8784C45.953 73.1284 45.9947 73.3368 45.9114 73.5034V74.5034Z" fill="#FF0000"/>
<path d="M29.4114 1.12845C29.2447 1.96178 29.203 2.79512 29.2864 3.62845C29.3697 4.37845 29.4114 5.17012 29.4114 6.00345C29.4114 6.25345 29.3697 6.50345 29.2864 6.75345C29.203 7.00345 29.1614 7.21178 29.1614 7.37845C29.2447 7.79512 29.328 8.17012 29.4114 8.50345C29.578 8.75345 29.6614 9.08678 29.6614 9.50345C29.6614 10.0034 29.703 10.5451 29.7864 11.1284C29.8697 11.6284 29.9114 12.0868 29.9114 12.5034C29.828 13.1701 29.6197 13.9201 29.2864 14.7534C28.953 15.5868 28.9947 16.3368 29.4114 17.0034C29.6614 17.4201 30.328 17.6284 31.4114 17.6284C32.4947 17.6284 33.2447 17.5451 33.6614 17.3784C34.078 17.8784 34.6197 18.2118 35.2864 18.3784C36.0364 18.5451 36.7447 18.6284 37.4114 18.6284C37.7447 19.0451 38.453 19.4618 39.5364 19.8784C40.703 20.2118 41.5364 20.5451 42.0364 20.8784C42.6197 21.7118 42.9947 22.1284 43.1614 22.1284C43.328 22.1284 43.4947 22.2118 43.6614 22.3784C43.9114 22.5451 44.1197 22.7951 44.2864 23.1284C44.5364 23.4618 44.8697 23.6701 45.2864 23.7534C45.203 24.0868 45.203 24.3368 45.2864 24.5034C45.453 24.5868 45.6197 24.7951 45.7864 25.1284C46.203 25.2951 46.453 25.5868 46.5364 26.0034C46.703 26.3368 46.9114 26.6701 47.1614 27.0034C47.4114 27.2534 47.703 27.4618 48.0364 27.6284C48.3697 27.7951 48.6197 28.0451 48.7864 28.3784C48.953 26.6284 49.078 24.8784 49.1614 23.1284C49.2447 21.3784 49.203 19.6284 49.0364 17.8784C49.453 17.3784 49.8697 17.0034 50.2864 16.7534C50.7864 16.4201 51.3697 16.3368 52.0364 16.5034C52.6197 16.9201 52.9114 17.2534 52.9114 17.5034C52.9114 17.6701 52.9947 17.7118 53.1614 17.6284C53.1614 18.1284 53.1197 18.7951 53.0364 19.6284C52.953 20.4618 52.8697 21.2951 52.7864 22.1284C52.703 22.9618 52.6614 23.7534 52.6614 24.5034C52.7447 25.2534 52.9114 25.8368 53.1614 26.2534C52.9947 27.4201 53.0364 28.2534 53.2864 28.7534C53.5364 29.1701 53.6614 29.6701 53.6614 30.2534C53.6614 30.9201 53.4947 31.5034 53.1614 32.0034C52.9114 32.5034 52.7447 33.0868 52.6614 33.7534C52.6614 34.0034 52.703 34.2534 52.7864 34.5034C52.8697 34.7534 52.9114 35.0451 52.9114 35.3784C52.7447 36.6284 52.703 37.5451 52.7864 38.1284C52.953 38.6284 52.9114 39.0868 52.6614 39.5034C51.9947 39.7534 51.328 39.9618 50.6614 40.1284C50.078 40.2118 49.453 40.1701 48.7864 40.0034C48.5364 39.7534 48.328 39.5034 48.1614 39.2534C47.9947 38.9201 47.7864 38.6284 47.5364 38.3784C47.2864 38.0451 47.328 37.7951 47.6614 37.6284C48.078 37.3784 48.203 37.0034 48.0364 36.5034C47.7864 35.0034 47.203 33.7118 46.2864 32.6284C45.453 31.5451 44.578 30.4201 43.6614 29.2534L42.6614 27.8784C42.328 27.4618 41.953 27.0868 41.5364 26.7534C41.1197 26.3368 40.828 25.8784 40.6614 25.3784C40.2447 25.3784 39.9114 25.2118 39.6614 24.8784C39.4114 24.4618 39.1197 24.1701 38.7864 24.0034C38.5364 23.9201 38.078 23.7534 37.4114 23.5034C36.7447 23.2534 35.9947 23.0451 35.1614 22.8784C34.4114 22.6284 33.6614 22.4201 32.9114 22.2534C32.2447 22.0034 31.7864 21.8784 31.5364 21.8784C31.0364 21.7951 30.5364 21.8368 30.0364 22.0034C29.6197 22.0868 29.203 22.1284 28.7864 22.1284C27.7864 21.7951 27.1614 21.6701 26.9114 21.7534C26.6614 21.8368 26.4114 21.8784 26.1614 21.8784C25.4947 21.8784 24.9114 21.8368 24.4114 21.7534C23.9114 21.6701 23.328 21.8784 22.6614 22.3784C21.4947 22.2118 20.453 22.2951 19.5364 22.6284C18.6197 22.8784 17.578 23.0868 16.4114 23.2534C16.328 23.5034 16.328 23.7534 16.4114 24.0034C16.578 24.2534 16.578 24.4618 16.4114 24.6284C16.1614 25.1284 15.953 25.6284 15.7864 26.1284C15.703 26.6284 15.578 27.1284 15.4114 27.6284C15.578 27.7951 15.5364 28.0868 15.2864 28.5034C15.1197 28.8368 15.0364 29.0868 15.0364 29.2534C14.953 29.5868 14.953 29.9201 15.0364 30.2534C15.203 30.5034 15.2864 30.7951 15.2864 31.1284C15.203 31.3784 15.078 31.6284 14.9114 31.8784C14.828 32.1284 14.7864 32.3368 14.7864 32.5034C14.6197 33.4201 14.6197 34.2951 14.7864 35.1284C14.953 35.9618 15.0364 36.7951 15.0364 37.6284C15.0364 37.8784 14.9947 38.1284 14.9114 38.3784C14.828 38.6284 14.7864 38.8784 14.7864 39.1284C14.7864 39.4618 14.828 39.7951 14.9114 40.1284C15.078 40.4618 15.203 40.7951 15.2864 41.1284C15.3697 41.7118 15.4114 42.3784 15.4114 43.1284C15.4114 43.8784 15.6614 44.4618 16.1614 44.8784C15.9947 45.0451 15.9114 45.2951 15.9114 45.6284C15.9114 45.8784 15.828 46.0868 15.6614 46.2534C15.828 46.9201 16.0364 47.5034 16.2864 48.0034C16.5364 48.4201 16.578 49.0034 16.4114 49.7534C16.9947 50.2534 17.203 50.5868 17.0364 50.7534C16.8697 50.9201 16.828 51.0451 16.9114 51.1284C17.078 51.4618 17.4114 51.7534 17.9114 52.0034C18.4947 52.2534 19.1197 52.4618 19.7864 52.6284C20.5364 52.7118 21.2447 52.8368 21.9114 53.0034C22.578 53.0868 23.078 53.1701 23.4114 53.2534C23.828 53.4201 24.1614 53.5868 24.4114 53.7534C24.7447 53.9201 25.1197 54.0868 25.5364 54.2534C25.953 54.3368 26.328 54.3784 26.6614 54.3784C26.9947 54.2951 27.3697 54.3368 27.7864 54.5034C28.703 54.6701 29.5364 54.9201 30.2864 55.2534C31.1197 55.5034 31.9947 55.7118 32.9114 55.8784C33.1614 55.9618 33.4114 55.9618 33.6614 55.8784C33.9947 55.7951 34.2864 55.7951 34.5364 55.8784C35.7864 56.2951 36.703 56.4618 37.2864 56.3784C37.953 56.2951 38.578 56.3368 39.1614 56.5034C39.578 56.5868 39.9114 56.7118 40.1614 56.8784C40.4114 56.9618 40.703 57.0868 41.0364 57.2534C42.0364 57.5868 43.2864 57.9618 44.7864 58.3784C46.3697 58.7951 47.453 59.4201 48.0364 60.2534C48.703 60.3368 49.2447 60.5451 49.6614 60.8784C50.078 61.2118 50.6197 61.4618 51.2864 61.6284C51.5364 62.2118 51.828 62.6701 52.1614 63.0034C52.578 63.3368 52.9947 63.7534 53.4114 64.2534C54.078 65.5868 54.4947 66.6284 54.6614 67.3784C54.828 68.1284 54.953 68.9201 55.0364 69.7534C55.203 70.8368 55.203 71.5034 55.0364 71.7534C54.953 71.9201 54.8697 72.1284 54.7864 72.3784C54.703 72.7118 54.703 73.0451 54.7864 73.3784C54.8697 73.7118 54.8697 74.0868 54.7864 74.5034C54.7864 74.7534 54.703 75.2534 54.5364 76.0034C54.3697 76.6701 54.203 77.4201 54.0364 78.2534C53.8697 79.0034 53.6614 79.7534 53.4114 80.5034C53.1614 81.1701 52.9947 81.6284 52.9114 81.8784C52.4947 82.2951 52.328 82.6284 52.4114 82.8784C52.4947 83.1284 52.453 83.3368 52.2864 83.5034C51.6197 84.3368 51.1614 85.0034 50.9114 85.5034C50.6614 85.9201 50.328 86.2118 49.9114 86.3784C49.9947 86.7118 49.953 86.9618 49.7864 87.1284C49.6197 87.2118 49.578 87.4201 49.6614 87.7534C48.9114 88.5034 48.2864 88.9618 47.7864 89.1284C47.3697 89.2951 47.078 89.4618 46.9114 89.6284L45.7864 90.5034C44.5364 90.5868 43.703 90.7534 43.2864 91.0034C42.8697 91.1701 42.453 91.3368 42.0364 91.5034C40.8697 91.7534 39.6614 91.9201 38.4114 92.0034C37.2447 92.0034 36.203 92.2951 35.2864 92.8784C34.7864 92.5451 34.203 92.5034 33.5364 92.7534C32.8697 93.0034 32.203 93.0451 31.5364 92.8784C31.2864 93.5451 31.328 94.2951 31.6614 95.1284C31.9947 95.9618 32.1197 96.5868 32.0364 97.0034C32.453 98.0034 32.6197 98.6701 32.5364 99.0034C32.453 99.3368 32.4947 99.7118 32.6614 100.128C32.9114 100.545 32.9114 101.42 32.6614 102.753C32.4947 104.003 32.2864 104.837 32.0364 105.253C31.5364 105.837 30.828 106.128 29.9114 106.128C28.9947 106.128 28.2864 105.837 27.7864 105.253C27.7864 104.67 27.7447 104.087 27.6614 103.503C27.578 102.837 27.703 102.253 28.0364 101.753C27.7864 101.42 27.6197 101.17 27.5364 101.003C27.5364 100.753 27.5364 100.545 27.5364 100.378C27.6197 100.212 27.6614 100.045 27.6614 99.8784C27.7447 99.7118 27.7864 99.4618 27.7864 99.1284C27.7864 98.7118 27.703 98.3784 27.5364 98.1284C27.453 97.7951 27.3697 97.4201 27.2864 97.0034C27.203 96.3368 27.1614 95.7118 27.1614 95.1284C27.1614 94.4618 27.078 93.7951 26.9114 93.1284C26.6614 93.2118 26.2864 93.2118 25.7864 93.1284C25.3697 93.0451 25.1197 93.1284 25.0364 93.3784C24.2864 93.0451 23.6614 92.7118 23.1614 92.3784C22.6614 92.0451 21.953 91.8784 21.0364 91.8784C20.6197 91.3784 19.8697 90.9618 18.7864 90.6284C17.703 90.2118 16.828 89.8784 16.1614 89.6284C15.7447 89.4618 15.328 89.2534 14.9114 89.0034C14.578 88.7534 14.203 88.5451 13.7864 88.3784C13.3697 88.2118 12.953 88.0868 12.5364 88.0034C12.1197 87.9201 11.703 87.7534 11.2864 87.5034C10.953 87.3368 10.6614 87.0868 10.4114 86.7534C10.1614 86.4201 9.82804 86.2951 9.41138 86.3784C9.24471 85.9618 8.99471 85.7118 8.66138 85.6284C8.41138 85.4618 8.11971 85.2951 7.78638 85.1284C7.36971 85.7118 7.16138 86.5451 7.16138 87.6284C7.24471 88.7118 7.36971 89.5868 7.53638 90.2534C7.61971 90.6701 7.82804 91.0034 8.16138 91.2534C8.49471 91.4201 8.66138 91.7118 8.66138 92.1284C8.32804 93.0451 7.95304 93.5868 7.53638 93.7534C7.20304 93.8368 6.99471 94.1701 6.91138 94.7534C6.49471 94.5868 6.03638 94.5034 5.53638 94.5034C5.11971 94.4201 4.70304 94.3368 4.28638 94.2534C4.11971 93.6701 3.86971 93.1284 3.53638 92.6284C3.20304 92.1284 2.99471 91.5868 2.91138 91.0034C2.74471 90.1701 2.74471 89.3784 2.91138 88.6284C3.16138 87.8784 3.24471 87.1284 3.16138 86.3784C3.07804 86.1284 2.99471 85.9201 2.91138 85.7534C2.91138 85.5034 2.74471 85.2951 2.41138 85.1284C2.74471 84.2118 2.70304 83.5868 2.28638 83.2534C1.95304 82.9201 1.70304 82.4618 1.53638 81.8784C1.36971 81.6284 1.28638 81.3368 1.28638 81.0034C1.36971 80.6701 1.36971 80.3368 1.28638 80.0034C1.28638 79.9201 1.20304 79.7118 1.03638 79.3784C0.953044 79.0451 0.86971 78.7118 0.786377 78.3784C0.703044 78.0451 0.61971 77.7534 0.536377 77.5034C0.536377 77.1701 0.61971 77.0034 0.786377 77.0034C0.703044 76.8368 0.578044 76.6284 0.411377 76.3784C0.328044 76.0451 0.286377 75.7951 0.286377 75.6284C0.286377 75.3784 0.328044 74.9201 0.411377 74.2534C0.578044 73.5034 0.74471 72.7118 0.911377 71.8784C1.07804 71.0451 1.28638 70.2951 1.53638 69.6284C1.78638 68.9618 1.99471 68.5451 2.16138 68.3784C2.41138 68.2118 2.57804 68.1701 2.66138 68.2534C2.74471 68.3368 2.99471 68.1701 3.41138 67.7534C3.82804 67.5868 4.20304 67.6284 4.53638 67.8784C4.86971 68.1284 5.24471 68.1701 5.66138 68.0034C5.99471 68.4201 6.20304 69.1284 6.28638 70.1284C6.36971 71.0451 6.49471 71.7951 6.66138 72.3784C6.49471 72.7951 6.57804 73.0034 6.91138 73.0034C7.24471 73.0034 7.45304 73.1701 7.53638 73.5034C7.61971 73.8368 7.70304 74.2534 7.78638 74.7534C7.86971 75.1701 8.11971 75.4618 8.53638 75.6284C8.45304 76.0451 8.45304 76.5034 8.53638 77.0034C8.61971 77.5034 8.82804 77.8368 9.16138 78.0034C9.07804 78.6701 9.20304 79.2118 9.53638 79.6284C9.86971 80.0451 10.1197 80.4201 10.2864 80.7534C10.703 81.5868 11.2864 82.2534 12.0364 82.7534C12.7864 83.2534 13.453 83.8368 14.0364 84.5034C14.8697 84.6701 15.578 85.0034 16.1614 85.5034C16.7447 85.9201 17.3697 86.3368 18.0364 86.7534C19.1197 86.7534 19.953 87.0868 20.5364 87.7534C21.203 87.5868 22.078 87.7534 23.1614 88.2534C24.328 88.7534 24.953 89.1284 25.0364 89.3784C25.453 89.2118 25.9114 89.1701 26.4114 89.2534C26.9947 89.3368 27.5364 89.3784 28.0364 89.3784C28.953 89.2118 29.578 89.1701 29.9114 89.2534C30.2447 89.3368 30.6197 89.2951 31.0364 89.1284C31.203 89.0451 31.5364 89.0451 32.0364 89.1284C32.6197 89.1284 33.203 89.1284 33.7864 89.1284C34.3697 89.1284 34.8697 89.0868 35.2864 89.0034C35.703 88.8368 35.9114 88.6284 35.9114 88.3784C36.078 88.5451 36.3697 88.5868 36.7864 88.5034C37.2864 88.4201 37.6197 88.3368 37.7864 88.2534C38.7864 87.8368 39.3697 87.6284 39.5364 87.6284C39.703 87.6284 39.8697 87.6284 40.0364 87.6284C40.203 87.6284 40.3697 87.5451 40.5364 87.3784C40.7864 87.2118 41.1197 86.8784 41.5364 86.3784C41.703 85.4618 41.953 84.8368 42.2864 84.5034C42.6197 84.1701 42.7447 83.7118 42.6614 83.1284C42.328 82.2951 42.203 81.8368 42.2864 81.7534C42.453 81.5868 42.4947 81.4201 42.4114 81.2534C42.4114 80.0868 42.2864 78.8784 42.0364 77.6284C41.7864 76.3784 41.6197 75.1701 41.5364 74.0034C41.5364 73.6701 41.5364 73.3784 41.5364 73.1284C41.6197 72.7951 41.6197 72.4618 41.5364 72.1284C41.1197 71.1284 40.9114 70.4201 40.9114 70.0034C40.9114 69.5034 40.828 69.0451 40.6614 68.6284C39.9947 67.6284 39.578 66.7951 39.4114 66.1284C39.328 65.3784 39.0364 64.9618 38.5364 64.8784C38.6197 64.0451 38.453 63.4201 38.0364 63.0034C37.703 62.5868 37.5364 62.0034 37.5364 61.2534C36.7864 60.8368 35.7447 60.4201 34.4114 60.0034C33.078 59.5868 31.953 59.2951 31.0364 59.1284C30.6197 59.0451 30.1614 59.0451 29.6614 59.1284C29.2447 59.2118 28.7864 59.2118 28.2864 59.1284C27.6197 58.9618 27.078 58.7534 26.6614 58.5034C26.328 58.1701 25.8697 57.9201 25.2864 57.7534C24.703 57.5868 24.1197 57.5034 23.5364 57.5034C23.0364 57.5034 22.5364 57.4201 22.0364 57.2534C21.6197 57.0868 21.2864 56.9201 21.0364 56.7534C20.7864 56.5868 20.4947 56.4201 20.1614 56.2534C19.828 56.1701 19.4947 56.1701 19.1614 56.2534C18.9114 56.3368 18.6197 56.3368 18.2864 56.2534C17.3697 55.9201 16.7447 55.7951 16.4114 55.8784C16.1614 55.9618 15.9114 55.9618 15.6614 55.8784C15.4114 55.7951 15.1614 55.6701 14.9114 55.5034C14.7447 55.3368 14.5364 55.2118 14.2864 55.1284C14.0364 55.0451 13.7447 55.0034 13.4114 55.0034C13.1614 54.9201 12.9114 54.7951 12.6614 54.6284C11.9114 54.3784 11.5364 54.2118 11.5364 54.1284C11.6197 53.9618 11.6197 53.8368 11.5364 53.7534C11.3697 53.5868 11.078 53.5034 10.6614 53.5034C10.328 53.4201 10.078 53.3368 9.91138 53.2534C8.57804 52.0868 7.28638 50.9201 6.03638 49.7534C4.86971 48.5034 3.66138 47.2534 2.41138 46.0034C2.41138 45.9201 2.36971 45.7118 2.28638 45.3784C2.28638 44.9618 2.24471 44.5868 2.16138 44.2534C2.16138 43.8368 2.11971 43.4618 2.03638 43.1284C1.95304 42.7118 1.91138 42.4618 1.91138 42.3784C1.66138 41.5451 1.57804 41.0868 1.66138 41.0034C1.74471 40.8368 1.78638 40.6701 1.78638 40.5034C1.61971 39.5034 1.57804 38.9201 1.66138 38.7534C1.82804 38.5868 1.91138 38.3784 1.91138 38.1284C1.99471 37.7118 1.95304 37.3784 1.78638 37.1284C1.70304 36.8784 1.74471 36.5034 1.91138 36.0034C2.41138 35.1701 2.61971 34.5451 2.53638 34.1284C2.53638 33.6284 2.57804 33.1701 2.66138 32.7534C2.66138 32.6701 2.70304 32.4201 2.78638 32.0034C2.95304 31.5034 3.07804 30.9618 3.16138 30.3784C3.32804 29.7951 3.45304 29.2951 3.53638 28.8784C3.70304 28.3784 3.78638 28.1284 3.78638 28.1284C4.20304 27.3784 4.45304 26.9618 4.53638 26.8784C4.70304 26.7951 4.86971 26.6701 5.03638 26.5034C5.20304 26.2534 5.36971 26.0034 5.53638 25.7534C5.70304 25.4201 5.91138 25.1284 6.16138 24.8784C6.57804 24.3784 7.03638 23.9201 7.53638 23.5034C8.03638 23.0868 8.49471 22.6284 8.91138 22.1284C9.74471 21.7951 10.2864 21.5868 10.5364 21.5034C10.8697 21.3368 11.1197 21.0451 11.2864 20.6284C12.203 20.2951 12.703 20.1701 12.7864 20.2534C12.8697 20.2534 12.9947 20.2534 13.1614 20.2534C13.578 19.7534 13.953 19.5451 14.2864 19.6284C14.6197 19.6284 14.953 19.5868 15.2864 19.5034C15.953 19.3368 16.6614 19.0868 17.4114 18.7534C18.1614 18.4201 18.9114 18.3784 19.6614 18.6284C20.4114 18.2951 20.828 18.1284 20.9114 18.1284C21.078 18.0451 21.203 17.9618 21.2864 17.8784C21.6197 17.8784 21.9114 17.9201 22.1614 18.0034C22.4947 18.0868 22.7447 18.1284 22.9114 18.1284C23.7447 17.7118 24.2447 17.5451 24.4114 17.6284C24.6614 17.6284 24.8697 17.5451 25.0364 17.3784C25.0364 16.0451 25.078 14.7118 25.1614 13.3784C25.328 11.9618 25.2864 10.5868 25.0364 9.25345C24.953 8.08678 24.9947 7.37845 25.1614 7.12845C25.4114 6.79512 25.3697 6.33678 25.0364 5.75345C25.0364 5.00345 25.078 4.25345 25.1614 3.50345C25.2447 2.75345 25.4114 2.12845 25.6614 1.62845C25.9947 1.12845 26.453 0.795115 27.0364 0.628448C27.6197 0.461782 28.4114 0.628448 29.4114 1.12845ZM9.91138 28.1284C9.41138 28.5451 9.16138 28.9201 9.16138 29.2534C9.16138 29.5868 8.95304 29.7534 8.53638 29.7534C8.36971 30.4201 8.20304 30.9201 8.03638 31.2534C7.86971 31.5868 7.61971 32.0034 7.28638 32.5034C7.53638 33.4201 7.45304 34.3368 7.03638 35.2534C6.61971 36.0868 6.57804 36.9618 6.91138 37.8784C6.66138 38.0451 6.45304 38.5868 6.28638 39.5034C6.11971 40.3368 6.07804 40.8784 6.16138 41.1284C6.16138 41.4618 6.24471 41.7534 6.41138 42.0034C6.57804 42.1701 6.74471 42.3784 6.91138 42.6284C6.99471 43.6284 7.16138 44.2951 7.41138 44.6284C7.66138 44.8784 7.70304 45.2118 7.53638 45.6284C7.78638 45.7951 8.07804 46.0451 8.41138 46.3784C8.74471 46.7118 9.07804 47.0451 9.41138 47.3784C9.82804 47.7118 10.1614 48.0034 10.4114 48.2534C10.7447 48.5034 11.0364 48.6284 11.2864 48.6284C11.6197 48.2951 11.703 47.9618 11.5364 47.6284C11.3697 47.2951 11.203 46.9201 11.0364 46.5034C11.3697 45.5868 11.4114 44.4201 11.1614 43.0034C10.9114 41.5868 10.578 40.4201 10.1614 39.5034C10.1614 37.8368 10.1614 36.5034 10.1614 35.5034C10.2447 34.5034 10.3697 33.5451 10.5364 32.6284C10.7864 31.7118 10.953 30.7951 11.0364 29.8784C11.203 28.9618 11.203 28.0034 11.0364 27.0034C10.3697 27.1701 10.0364 27.3784 10.0364 27.6284C10.0364 27.7951 9.99471 27.9618 9.91138 28.1284ZM45.9114 74.5034C45.9114 75.9201 46.0364 77.3784 46.2864 78.8784C46.5364 80.3784 46.7447 81.8368 46.9114 83.2534C47.6614 82.5034 48.203 81.9618 48.5364 81.6284C48.703 80.3784 49.1614 79.3784 49.9114 78.6284C49.9947 77.4618 50.203 76.2951 50.5364 75.1284C50.953 73.8784 51.1197 72.6701 51.0364 71.5034C51.0364 70.8368 50.8697 70.1701 50.5364 69.5034C50.2864 68.8368 50.2447 68.1701 50.4114 67.5034C49.9947 66.9201 49.5364 66.4201 49.0364 66.0034C48.5364 65.5868 48.1197 65.0868 47.7864 64.5034C47.703 64.5034 47.4114 64.3784 46.9114 64.1284C46.4114 63.8784 45.8697 63.6284 45.2864 63.3784C44.7864 63.0451 44.2864 62.7534 43.7864 62.5034C43.2864 62.1701 42.9947 61.9618 42.9114 61.8784C42.2447 62.7118 42.078 63.4618 42.4114 64.1284C42.7447 64.7118 43.078 65.3784 43.4114 66.1284C43.7447 67.0451 44.078 67.6701 44.4114 68.0034C44.7447 68.3368 45.0364 68.8784 45.2864 69.6284C45.453 70.0451 45.4947 70.4618 45.4114 70.8784C45.328 71.2951 45.3697 71.7118 45.5364 72.1284C45.5364 72.2951 45.6197 72.5451 45.7864 72.8784C45.953 73.1284 45.9947 73.3368 45.9114 73.5034V74.5034Z" fill="#FF0000"/>
<path d="M29.4114 1.12845C29.2447 1.96178 29.203 2.79512 29.2864 3.62845C29.3697 4.37845 29.4114 5.17012 29.4114 6.00345C29.4114 6.25345 29.3697 6.50345 29.2864 6.75345C29.203 7.00345 29.1614 7.21178 29.1614 7.37845C29.2447 7.79512 29.328 8.17012 29.4114 8.50345C29.578 8.75345 29.6614 9.08678 29.6614 9.50345C29.6614 10.0034 29.703 10.5451 29.7864 11.1284C29.8697 11.6284 29.9114 12.0868 29.9114 12.5034C29.828 13.1701 29.6197 13.9201 29.2864 14.7534C28.953 15.5868 28.9947 16.3368 29.4114 17.0034C29.6614 17.4201 30.328 17.6284 31.4114 17.6284C32.4947 17.6284 33.2447 17.5451 33.6614 17.3784C34.078 17.8784 34.6197 18.2118 35.2864 18.3784C36.0364 18.5451 36.7447 18.6284 37.4114 18.6284C37.7447 19.0451 38.453 19.4618 39.5364 19.8784C40.703 20.2118 41.5364 20.5451 42.0364 20.8784C42.6197 21.7118 42.9947 22.1284 43.1614 22.1284C43.328 22.1284 43.4947 22.2118 43.6614 22.3784C43.9114 22.5451 44.1197 22.7951 44.2864 23.1284C44.5364 23.4618 44.8697 23.6701 45.2864 23.7534C45.203 24.0868 45.203 24.3368 45.2864 24.5034C45.453 24.5868 45.6197 24.7951 45.7864 25.1284C46.203 25.2951 46.453 25.5868 46.5364 26.0034C46.703 26.3368 46.9114 26.6701 47.1614 27.0034C47.4114 27.2534 47.703 27.4618 48.0364 27.6284C48.3697 27.7951 48.6197 28.0451 48.7864 28.3784C48.953 26.6284 49.078 24.8784 49.1614 23.1284C49.2447 21.3784 49.203 19.6284 49.0364 17.8784C49.453 17.3784 49.8697 17.0034 50.2864 16.7534C50.7864 16.4201 51.3697 16.3368 52.0364 16.5034C52.6197 16.9201 52.9114 17.2534 52.9114 17.5034C52.9114 17.6701 52.9947 17.7118 53.1614 17.6284C53.1614 18.1284 53.1197 18.7951 53.0364 19.6284C52.953 20.4618 52.8697 21.2951 52.7864 22.1284C52.703 22.9618 52.6614 23.7534 52.6614 24.5034C52.7447 25.2534 52.9114 25.8368 53.1614 26.2534C52.9947 27.4201 53.0364 28.2534 53.2864 28.7534C53.5364 29.1701 53.6614 29.6701 53.6614 30.2534C53.6614 30.9201 53.4947 31.5034 53.1614 32.0034C52.9114 32.5034 52.7447 33.0868 52.6614 33.7534C52.6614 34.0034 52.703 34.2534 52.7864 34.5034C52.8697 34.7534 52.9114 35.0451 52.9114 35.3784C52.7447 36.6284 52.703 37.5451 52.7864 38.1284C52.953 38.6284 52.9114 39.0868 52.6614 39.5034C51.9947 39.7534 51.328 39.9618 50.6614 40.1284C50.078 40.2118 49.453 40.1701 48.7864 40.0034C48.5364 39.7534 48.328 39.5034 48.1614 39.2534C47.9947 38.9201 47.7864 38.6284 47.5364 38.3784C47.2864 38.0451 47.328 37.7951 47.6614 37.6284C48.078 37.3784 48.203 37.0034 48.0364 36.5034C47.7864 35.0034 47.203 33.7118 46.2864 32.6284C45.453 31.5451 44.578 30.4201 43.6614 29.2534L42.6614 27.8784C42.328 27.4618 41.953 27.0868 41.5364 26.7534C41.1197 26.3368 40.828 25.8784 40.6614 25.3784C40.2447 25.3784 39.9114 25.2118 39.6614 24.8784C39.4114 24.4618 39.1197 24.1701 38.7864 24.0034C38.5364 23.9201 38.078 23.7534 37.4114 23.5034C36.7447 23.2534 35.9947 23.0451 35.1614 22.8784C34.4114 22.6284 33.6614 22.4201 32.9114 22.2534C32.2447 22.0034 31.7864 21.8784 31.5364 21.8784C31.0364 21.7951 30.5364 21.8368 30.0364 22.0034C29.6197 22.0868 29.203 22.1284 28.7864 22.1284C27.7864 21.7951 27.1614 21.6701 26.9114 21.7534C26.6614 21.8368 26.4114 21.8784 26.1614 21.8784C25.4947 21.8784 24.9114 21.8368 24.4114 21.7534C23.9114 21.6701 23.328 21.8784 22.6614 22.3784C21.4947 22.2118 20.453 22.2951 19.5364 22.6284C18.6197 22.8784 17.578 23.0868 16.4114 23.2534C16.328 23.5034 16.328 23.7534 16.4114 24.0034C16.578 24.2534 16.578 24.4618 16.4114 24.6284C16.1614 25.1284 15.953 25.6284 15.7864 26.1284C15.703 26.6284 15.578 27.1284 15.4114 27.6284C15.578 27.7951 15.5364 28.0868 15.2864 28.5034C15.1197 28.8368 15.0364 29.0868 15.0364 29.2534C14.953 29.5868 14.953 29.9201 15.0364 30.2534C15.203 30.5034 15.2864 30.7951 15.2864 31.1284C15.203 31.3784 15.078 31.6284 14.9114 31.8784C14.828 32.1284 14.7864 32.3368 14.7864 32.5034C14.6197 33.4201 14.6197 34.2951 14.7864 35.1284C14.953 35.9618 15.0364 36.7951 15.0364 37.6284C15.0364 37.8784 14.9947 38.1284 14.9114 38.3784C14.828 38.6284 14.7864 38.8784 14.7864 39.1284C14.7864 39.4618 14.828 39.7951 14.9114 40.1284C15.078 40.4618 15.203 40.7951 15.2864 41.1284C15.3697 41.7118 15.4114 42.3784 15.4114 43.1284C15.4114 43.8784 15.6614 44.4618 16.1614 44.8784C15.9947 45.0451 15.9114 45.2951 15.9114 45.6284C15.9114 45.8784 15.828 46.0868 15.6614 46.2534C15.828 46.9201 16.0364 47.5034 16.2864 48.0034C16.5364 48.4201 16.578 49.0034 16.4114 49.7534C16.9947 50.2534 17.203 50.5868 17.0364 50.7534C16.8697 50.9201 16.828 51.0451 16.9114 51.1284C17.078 51.4618 17.4114 51.7534 17.9114 52.0034C18.4947 52.2534 19.1197 52.4618 19.7864 52.6284C20.5364 52.7118 21.2447 52.8368 21.9114 53.0034C22.578 53.0868 23.078 53.1701 23.4114 53.2534C23.828 53.4201 24.1614 53.5868 24.4114 53.7534C24.7447 53.9201 25.1197 54.0868 25.5364 54.2534C25.953 54.3368 26.328 54.3784 26.6614 54.3784C26.9947 54.2951 27.3697 54.3368 27.7864 54.5034C28.703 54.6701 29.5364 54.9201 30.2864 55.2534C31.1197 55.5034 31.9947 55.7118 32.9114 55.8784C33.1614 55.9618 33.4114 55.9618 33.6614 55.8784C33.9947 55.7951 34.2864 55.7951 34.5364 55.8784C35.7864 56.2951 36.703 56.4618 37.2864 56.3784C37.953 56.2951 38.578 56.3368 39.1614 56.5034C39.578 56.5868 39.9114 56.7118 40.1614 56.8784C40.4114 56.9618 40.703 57.0868 41.0364 57.2534C42.0364 57.5868 43.2864 57.9618 44.7864 58.3784C46.3697 58.7951 47.453 59.4201 48.0364 60.2534C48.703 60.3368 49.2447 60.5451 49.6614 60.8784C50.078 61.2118 50.6197 61.4618 51.2864 61.6284C51.5364 62.2118 51.828 62.6701 52.1614 63.0034C52.578 63.3368 52.9947 63.7534 53.4114 64.2534C54.078 65.5868 54.4947 66.6284 54.6614 67.3784C54.828 68.1284 54.953 68.9201 55.0364 69.7534C55.203 70.8368 55.203 71.5034 55.0364 71.7534C54.953 71.9201 54.8697 72.1284 54.7864 72.3784C54.703 72.7118 54.703 73.0451 54.7864 73.3784C54.8697 73.7118 54.8697 74.0868 54.7864 74.5034C54.7864 74.7534 54.703 75.2534 54.5364 76.0034C54.3697 76.6701 54.203 77.4201 54.0364 78.2534C53.8697 79.0034 53.6614 79.7534 53.4114 80.5034C53.1614 81.1701 52.9947 81.6284 52.9114 81.8784C52.4947 82.2951 52.328 82.6284 52.4114 82.8784C52.4947 83.1284 52.453 83.3368 52.2864 83.5034C51.6197 84.3368 51.1614 85.0034 50.9114 85.5034C50.6614 85.9201 50.328 86.2118 49.9114 86.3784C49.9947 86.7118 49.953 86.9618 49.7864 87.1284C49.6197 87.2118 49.578 87.4201 49.6614 87.7534C48.9114 88.5034 48.2864 88.9618 47.7864 89.1284C47.3697 89.2951 47.078 89.4618 46.9114 89.6284L45.7864 90.5034C44.5364 90.5868 43.703 90.7534 43.2864 91.0034C42.8697 91.1701 42.453 91.3368 42.0364 91.5034C40.8697 91.7534 39.6614 91.9201 38.4114 92.0034C37.2447 92.0034 36.203 92.2951 35.2864 92.8784C34.7864 92.5451 34.203 92.5034 33.5364 92.7534C32.8697 93.0034 32.203 93.0451 31.5364 92.8784C31.2864 93.5451 31.328 94.2951 31.6614 95.1284C31.9947 95.9618 32.1197 96.5868 32.0364 97.0034C32.453 98.0034 32.6197 98.6701 32.5364 99.0034C32.453 99.3368 32.4947 99.7118 32.6614 100.128C32.9114 100.545 32.9114 101.42 32.6614 102.753C32.4947 104.003 32.2864 104.837 32.0364 105.253C31.5364 105.837 30.828 106.128 29.9114 106.128C28.9947 106.128 28.2864 105.837 27.7864 105.253C27.7864 104.67 27.7447 104.087 27.6614 103.503C27.578 102.837 27.703 102.253 28.0364 101.753C27.7864 101.42 27.6197 101.17 27.5364 101.003C27.5364 100.753 27.5364 100.545 27.5364 100.378C27.6197 100.212 27.6614 100.045 27.6614 99.8784C27.7447 99.7118 27.7864 99.4618 27.7864 99.1284C27.7864 98.7118 27.703 98.3784 27.5364 98.1284C27.453 97.7951 27.3697 97.4201 27.2864 97.0034C27.203 96.3368 27.1614 95.7118 27.1614 95.1284C27.1614 94.4618 27.078 93.7951 26.9114 93.1284C26.6614 93.2118 26.2864 93.2118 25.7864 93.1284C25.3697 93.0451 25.1197 93.1284 25.0364 93.3784C24.2864 93.0451 23.6614 92.7118 23.1614 92.3784C22.6614 92.0451 21.953 91.8784 21.0364 91.8784C20.6197 91.3784 19.8697 90.9618 18.7864 90.6284C17.703 90.2118 16.828 89.8784 16.1614 89.6284C15.7447 89.4618 15.328 89.2534 14.9114 89.0034C14.578 88.7534 14.203 88.5451 13.7864 88.3784C13.3697 88.2118 12.953 88.0868 12.5364 88.0034C12.1197 87.9201 11.703 87.7534 11.2864 87.5034C10.953 87.3368 10.6614 87.0868 10.4114 86.7534C10.1614 86.4201 9.82804 86.2951 9.41138 86.3784C9.24471 85.9618 8.99471 85.7118 8.66138 85.6284C8.41138 85.4618 8.11971 85.2951 7.78638 85.1284C7.36971 85.7118 7.16138 86.5451 7.16138 87.6284C7.24471 88.7118 7.36971 89.5868 7.53638 90.2534C7.61971 90.6701 7.82804 91.0034 8.16138 91.2534C8.49471 91.4201 8.66138 91.7118 8.66138 92.1284C8.32804 93.0451 7.95304 93.5868 7.53638 93.7534C7.20304 93.8368 6.99471 94.1701 6.91138 94.7534C6.49471 94.5868 6.03638 94.5034 5.53638 94.5034C5.11971 94.4201 4.70304 94.3368 4.28638 94.2534C4.11971 93.6701 3.86971 93.1284 3.53638 92.6284C3.20304 92.1284 2.99471 91.5868 2.91138 91.0034C2.74471 90.1701 2.74471 89.3784 2.91138 88.6284C3.16138 87.8784 3.24471 87.1284 3.16138 86.3784C3.07804 86.1284 2.99471 85.9201 2.91138 85.7534C2.91138 85.5034 2.74471 85.2951 2.41138 85.1284C2.74471 84.2118 2.70304 83.5868 2.28638 83.2534C1.95304 82.9201 1.70304 82.4618 1.53638 81.8784C1.36971 81.6284 1.28638 81.3368 1.28638 81.0034C1.36971 80.6701 1.36971 80.3368 1.28638 80.0034C1.28638 79.9201 1.20304 79.7118 1.03638 79.3784C0.953044 79.0451 0.86971 78.7118 0.786377 78.3784C0.703044 78.0451 0.61971 77.7534 0.536377 77.5034C0.536377 77.1701 0.61971 77.0034 0.786377 77.0034C0.703044 76.8368 0.578044 76.6284 0.411377 76.3784C0.328044 76.0451 0.286377 75.7951 0.286377 75.6284C0.286377 75.3784 0.328044 74.9201 0.411377 74.2534C0.578044 73.5034 0.74471 72.7118 0.911377 71.8784C1.07804 71.0451 1.28638 70.2951 1.53638 69.6284C1.78638 68.9618 1.99471 68.5451 2.16138 68.3784C2.41138 68.2118 2.57804 68.1701 2.66138 68.2534C2.74471 68.3368 2.99471 68.1701 3.41138 67.7534C3.82804 67.5868 4.20304 67.6284 4.53638 67.8784C4.86971 68.1284 5.24471 68.1701 5.66138 68.0034C5.99471 68.4201 6.20304 69.1284 6.28638 70.1284C6.36971 71.0451 6.49471 71.7951 6.66138 72.3784C6.49471 72.7951 6.57804 73.0034 6.91138 73.0034C7.24471 73.0034 7.45304 73.1701 7.53638 73.5034C7.61971 73.8368 7.70304 74.2534 7.78638 74.7534C7.86971 75.1701 8.11971 75.4618 8.53638 75.6284C8.45304 76.0451 8.45304 76.5034 8.53638 77.0034C8.61971 77.5034 8.82804 77.8368 9.16138 78.0034C9.07804 78.6701 9.20304 79.2118 9.53638 79.6284C9.86971 80.0451 10.1197 80.4201 10.2864 80.7534C10.703 81.5868 11.2864 82.2534 12.0364 82.7534C12.7864 83.2534 13.453 83.8368 14.0364 84.5034C14.8697 84.6701 15.578 85.0034 16.1614 85.5034C16.7447 85.9201 17.3697 86.3368 18.0364 86.7534C19.1197 86.7534 19.953 87.0868 20.5364 87.7534C21.203 87.5868 22.078 87.7534 23.1614 88.2534C24.328 88.7534 24.953 89.1284 25.0364 89.3784C25.453 89.2118 25.9114 89.1701 26.4114 89.2534C26.9947 89.3368 27.5364 89.3784 28.0364 89.3784C28.953 89.2118 29.578 89.1701 29.9114 89.2534C30.2447 89.3368 30.6197 89.2951 31.0364 89.1284C31.203 89.0451 31.5364 89.0451 32.0364 89.1284C32.6197 89.1284 33.203 89.1284 33.7864 89.1284C34.3697 89.1284 34.8697 89.0868 35.2864 89.0034C35.703 88.8368 35.9114 88.6284 35.9114 88.3784C36.078 88.5451 36.3697 88.5868 36.7864 88.5034C37.2864 88.4201 37.6197 88.3368 37.7864 88.2534C38.7864 87.8368 39.3697 87.6284 39.5364 87.6284C39.703 87.6284 39.8697 87.6284 40.0364 87.6284C40.203 87.6284 40.3697 87.5451 40.5364 87.3784C40.7864 87.2118 41.1197 86.8784 41.5364 86.3784C41.703 85.4618 41.953 84.8368 42.2864 84.5034C42.6197 84.1701 42.7447 83.7118 42.6614 83.1284C42.328 82.2951 42.203 81.8368 42.2864 81.7534C42.453 81.5868 42.4947 81.4201 42.4114 81.2534C42.4114 80.0868 42.2864 78.8784 42.0364 77.6284C41.7864 76.3784 41.6197 75.1701 41.5364 74.0034C41.5364 73.6701 41.5364 73.3784 41.5364 73.1284C41.6197 72.7951 41.6197 72.4618 41.5364 72.1284C41.1197 71.1284 40.9114 70.4201 40.9114 70.0034C40.9114 69.5034 40.828 69.0451 40.6614 68.6284C39.9947 67.6284 39.578 66.7951 39.4114 66.1284C39.328 65.3784 39.0364 64.9618 38.5364 64.8784C38.6197 64.0451 38.453 63.4201 38.0364 63.0034C37.703 62.5868 37.5364 62.0034 37.5364 61.2534C36.7864 60.8368 35.7447 60.4201 34.4114 60.0034C33.078 59.5868 31.953 59.2951 31.0364 59.1284C30.6197 59.0451 30.1614 59.0451 29.6614 59.1284C29.2447 59.2118 28.7864 59.2118 28.2864 59.1284C27.6197 58.9618 27.078 58.7534 26.6614 58.5034C26.328 58.1701 25.8697 57.9201 25.2864 57.7534C24.703 57.5868 24.1197 57.5034 23.5364 57.5034C23.0364 57.5034 22.5364 57.4201 22.0364 57.2534C21.6197 57.0868 21.2864 56.9201 21.0364 56.7534C20.7864 56.5868 20.4947 56.4201 20.1614 56.2534C19.828 56.1701 19.4947 56.1701 19.1614 56.2534C18.9114 56.3368 18.6197 56.3368 18.2864 56.2534C17.3697 55.9201 16.7447 55.7951 16.4114 55.8784C16.1614 55.9618 15.9114 55.9618 15.6614 55.8784C15.4114 55.7951 15.1614 55.6701 14.9114 55.5034C14.7447 55.3368 14.5364 55.2118 14.2864 55.1284C14.0364 55.0451 13.7447 55.0034 13.4114 55.0034C13.1614 54.9201 12.9114 54.7951 12.6614 54.6284C11.9114 54.3784 11.5364 54.2118 11.5364 54.1284C11.6197 53.9618 11.6197 53.8368 11.5364 53.7534C11.3697 53.5868 11.078 53.5034 10.6614 53.5034C10.328 53.4201 10.078 53.3368 9.91138 53.2534C8.57804 52.0868 7.28638 50.9201 6.03638 49.7534C4.86971 48.5034 3.66138 47.2534 2.41138 46.0034C2.41138 45.9201 2.36971 45.7118 2.28638 45.3784C2.28638 44.9618 2.24471 44.5868 2.16138 44.2534C2.16138 43.8368 2.11971 43.4618 2.03638 43.1284C1.95304 42.7118 1.91138 42.4618 1.91138 42.3784C1.66138 41.5451 1.57804 41.0868 1.66138 41.0034C1.74471 40.8368 1.78638 40.6701 1.78638 40.5034C1.61971 39.5034 1.57804 38.9201 1.66138 38.7534C1.82804 38.5868 1.91138 38.3784 1.91138 38.1284C1.99471 37.7118 1.95304 37.3784 1.78638 37.1284C1.70304 36.8784 1.74471 36.5034 1.91138 36.0034C2.41138 35.1701 2.61971 34.5451 2.53638 34.1284C2.53638 33.6284 2.57804 33.1701 2.66138 32.7534C2.66138 32.6701 2.70304 32.4201 2.78638 32.0034C2.95304 31.5034 3.07804 30.9618 3.16138 30.3784C3.32804 29.7951 3.45304 29.2951 3.53638 28.8784C3.70304 28.3784 3.78638 28.1284 3.78638 28.1284C4.20304 27.3784 4.45304 26.9618 4.53638 26.8784C4.70304 26.7951 4.86971 26.6701 5.03638 26.5034C5.20304 26.2534 5.36971 26.0034 5.53638 25.7534C5.70304 25.4201 5.91138 25.1284 6.16138 24.8784C6.57804 24.3784 7.03638 23.9201 7.53638 23.5034C8.03638 23.0868 8.49471 22.6284 8.91138 22.1284C9.74471 21.7951 10.2864 21.5868 10.5364 21.5034C10.8697 21.3368 11.1197 21.0451 11.2864 20.6284C12.203 20.2951 12.703 20.1701 12.7864 20.2534C12.8697 20.2534 12.9947 20.2534 13.1614 20.2534C13.578 19.7534 13.953 19.5451 14.2864 19.6284C14.6197 19.6284 14.953 19.5868 15.2864 19.5034C15.953 19.3368 16.6614 19.0868 17.4114 18.7534C18.1614 18.4201 18.9114 18.3784 19.6614 18.6284C20.4114 18.2951 20.828 18.1284 20.9114 18.1284C21.078 18.0451 21.203 17.9618 21.2864 17.8784C21.6197 17.8784 21.9114 17.9201 22.1614 18.0034C22.4947 18.0868 22.7447 18.1284 22.9114 18.1284C23.7447 17.7118 24.2447 17.5451 24.4114 17.6284C24.6614 17.6284 24.8697 17.5451 25.0364 17.3784C25.0364 16.0451 25.078 14.7118 25.1614 13.3784C25.328 11.9618 25.2864 10.5868 25.0364 9.25345C24.953 8.08678 24.9947 7.37845 25.1614 7.12845C25.4114 6.79512 25.3697 6.33678 25.0364 5.75345C25.0364 5.00345 25.078 4.25345 25.1614 3.50345C25.2447 2.75345 25.4114 2.12845 25.6614 1.62845C25.9947 1.12845 26.453 0.795115 27.0364 0.628448C27.6197 0.461782 28.4114 0.628448 29.4114 1.12845ZM9.91138 28.1284C9.41138 28.5451 9.16138 28.9201 9.16138 29.2534C9.16138 29.5868 8.95304 29.7534 8.53638 29.7534C8.36971 30.4201 8.20304 30.9201 8.03638 31.2534C7.86971 31.5868 7.61971 32.0034 7.28638 32.5034C7.53638 33.4201 7.45304 34.3368 7.03638 35.2534C6.61971 36.0868 6.57804 36.9618 6.91138 37.8784C6.66138 38.0451 6.45304 38.5868 6.28638 39.5034C6.11971 40.3368 6.07804 40.8784 6.16138 41.1284C6.16138 41.4618 6.24471 41.7534 6.41138 42.0034C6.57804 42.1701 6.74471 42.3784 6.91138 42.6284C6.99471 43.6284 7.16138 44.2951 7.41138 44.6284C7.66138 44.8784 7.70304 45.2118 7.53638 45.6284C7.78638 45.7951 8.07804 46.0451 8.41138 46.3784C8.74471 46.7118 9.07804 47.0451 9.41138 47.3784C9.82804 47.7118 10.1614 48.0034 10.4114 48.2534C10.7447 48.5034 11.0364 48.6284 11.2864 48.6284C11.6197 48.2951 11.703 47.9618 11.5364 47.6284C11.3697 47.2951 11.203 46.9201 11.0364 46.5034C11.3697 45.5868 11.4114 44.4201 11.1614 43.0034C10.9114 41.5868 10.578 40.4201 10.1614 39.5034C10.1614 37.8368 10.1614 36.5034 10.1614 35.5034C10.2447 34.5034 10.3697 33.5451 10.5364 32.6284C10.7864 31.7118 10.953 30.7951 11.0364 29.8784C11.203 28.9618 11.203 28.0034 11.0364 27.0034C10.3697 27.1701 10.0364 27.3784 10.0364 27.6284C10.0364 27.7951 9.99471 27.9618 9.91138 28.1284ZM45.9114 74.5034C45.9114 75.9201 46.0364 77.3784 46.2864 78.8784C46.5364 80.3784 46.7447 81.8368 46.9114 83.2534C47.6614 82.5034 48.203 81.9618 48.5364 81.6284C48.703 80.3784 49.1614 79.3784 49.9114 78.6284C49.9947 77.4618 50.203 76.2951 50.5364 75.1284C50.953 73.8784 51.1197 72.6701 51.0364 71.5034C51.0364 70.8368 50.8697 70.1701 50.5364 69.5034C50.2864 68.8368 50.2447 68.1701 50.4114 67.5034C49.9947 66.9201 49.5364 66.4201 49.0364 66.0034C48.5364 65.5868 48.1197 65.0868 47.7864 64.5034C47.703 64.5034 47.4114 64.3784 46.9114 64.1284C46.4114 63.8784 45.8697 63.6284 45.2864 63.3784C44.7864 63.0451 44.2864 62.7534 43.7864 62.5034C43.2864 62.1701 42.9947 61.9618 42.9114 61.8784C42.2447 62.7118 42.078 63.4618 42.4114 64.1284C42.7447 64.7118 43.078 65.3784 43.4114 66.1284C43.7447 67.0451 44.078 67.6701 44.4114 68.0034C44.7447 68.3368 45.0364 68.8784 45.2864 69.6284C45.453 70.0451 45.4947 70.4618 45.4114 70.8784C45.328 71.2951 45.3697 71.7118 45.5364 72.1284C45.5364 72.2951 45.6197 72.5451 45.7864 72.8784C45.953 73.1284 45.9947 73.3368 45.9114 73.5034V74.5034Z" fill="#FF0000"/>
<path d="M29.4114 1.12845C29.2447 1.96178 29.203 2.79512 29.2864 3.62845C29.3697 4.37845 29.4114 5.17012 29.4114 6.00345C29.4114 6.25345 29.3697 6.50345 29.2864 6.75345C29.203 7.00345 29.1614 7.21178 29.1614 7.37845C29.2447 7.79512 29.328 8.17012 29.4114 8.50345C29.578 8.75345 29.6614 9.08678 29.6614 9.50345C29.6614 10.0034 29.703 10.5451 29.7864 11.1284C29.8697 11.6284 29.9114 12.0868 29.9114 12.5034C29.828 13.1701 29.6197 13.9201 29.2864 14.7534C28.953 15.5868 28.9947 16.3368 29.4114 17.0034C29.6614 17.4201 30.328 17.6284 31.4114 17.6284C32.4947 17.6284 33.2447 17.5451 33.6614 17.3784C34.078 17.8784 34.6197 18.2118 35.2864 18.3784C36.0364 18.5451 36.7447 18.6284 37.4114 18.6284C37.7447 19.0451 38.453 19.4618 39.5364 19.8784C40.703 20.2118 41.5364 20.5451 42.0364 20.8784C42.6197 21.7118 42.9947 22.1284 43.1614 22.1284C43.328 22.1284 43.4947 22.2118 43.6614 22.3784C43.9114 22.5451 44.1197 22.7951 44.2864 23.1284C44.5364 23.4618 44.8697 23.6701 45.2864 23.7534C45.203 24.0868 45.203 24.3368 45.2864 24.5034C45.453 24.5868 45.6197 24.7951 45.7864 25.1284C46.203 25.2951 46.453 25.5868 46.5364 26.0034C46.703 26.3368 46.9114 26.6701 47.1614 27.0034C47.4114 27.2534 47.703 27.4618 48.0364 27.6284C48.3697 27.7951 48.6197 28.0451 48.7864 28.3784C48.953 26.6284 49.078 24.8784 49.1614 23.1284C49.2447 21.3784 49.203 19.6284 49.0364 17.8784C49.453 17.3784 49.8697 17.0034 50.2864 16.7534C50.7864 16.4201 51.3697 16.3368 52.0364 16.5034C52.6197 16.9201 52.9114 17.2534 52.9114 17.5034C52.9114 17.6701 52.9947 17.7118 53.1614 17.6284C53.1614 18.1284 53.1197 18.7951 53.0364 19.6284C52.953 20.4618 52.8697 21.2951 52.7864 22.1284C52.703 22.9618 52.6614 23.7534 52.6614 24.5034C52.7447 25.2534 52.9114 25.8368 53.1614 26.2534C52.9947 27.4201 53.0364 28.2534 53.2864 28.7534C53.5364 29.1701 53.6614 29.6701 53.6614 30.2534C53.6614 30.9201 53.4947 31.5034 53.1614 32.0034C52.9114 32.5034 52.7447 33.0868 52.6614 33.7534C52.6614 34.0034 52.703 34.2534 52.7864 34.5034C52.8697 34.7534 52.9114 35.0451 52.9114 35.3784C52.7447 36.6284 52.703 37.5451 52.7864 38.1284C52.953 38.6284 52.9114 39.0868 52.6614 39.5034C51.9947 39.7534 51.328 39.9618 50.6614 40.1284C50.078 40.2118 49.453 40.1701 48.7864 40.0034C48.5364 39.7534 48.328 39.5034 48.1614 39.2534C47.9947 38.9201 47.7864 38.6284 47.5364 38.3784C47.2864 38.0451 47.328 37.7951 47.6614 37.6284C48.078 37.3784 48.203 37.0034 48.0364 36.5034C47.7864 35.0034 47.203 33.7118 46.2864 32.6284C45.453 31.5451 44.578 30.4201 43.6614 29.2534L42.6614 27.8784C42.328 27.4618 41.953 27.0868 41.5364 26.7534C41.1197 26.3368 40.828 25.8784 40.6614 25.3784C40.2447 25.3784 39.9114 25.2118 39.6614 24.8784C39.4114 24.4618 39.1197 24.1701 38.7864 24.0034C38.5364 23.9201 38.078 23.7534 37.4114 23.5034C36.7447 23.2534 35.9947 23.0451 35.1614 22.8784C34.4114 22.6284 33.6614 22.4201 32.9114 22.2534C32.2447 22.0034 31.7864 21.8784 31.5364 21.8784C31.0364 21.7951 30.5364 21.8368 30.0364 22.0034C29.6197 22.0868 29.203 22.1284 28.7864 22.1284C27.7864 21.7951 27.1614 21.6701 26.9114 21.7534C26.6614 21.8368 26.4114 21.8784 26.1614 21.8784C25.4947 21.8784 24.9114 21.8368 24.4114 21.7534C23.9114 21.6701 23.328 21.8784 22.6614 22.3784C21.4947 22.2118 20.453 22.2951 19.5364 22.6284C18.6197 22.8784 17.578 23.0868 16.4114 23.2534C16.328 23.5034 16.328 23.7534 16.4114 24.0034C16.578 24.2534 16.578 24.4618 16.4114 24.6284C16.1614 25.1284 15.953 25.6284 15.7864 26.1284C15.703 26.6284 15.578 27.1284 15.4114 27.6284C15.578 27.7951 15.5364 28.0868 15.2864 28.5034C15.1197 28.8368 15.0364 29.0868 15.0364 29.2534C14.953 29.5868 14.953 29.9201 15.0364 30.2534C15.203 30.5034 15.2864 30.7951 15.2864 31.1284C15.203 31.3784 15.078 31.6284 14.9114 31.8784C14.828 32.1284 14.7864 32.3368 14.7864 32.5034C14.6197 33.4201 14.6197 34.2951 14.7864 35.1284C14.953 35.9618 15.0364 36.7951 15.0364 37.6284C15.0364 37.8784 14.9947 38.1284 14.9114 38.3784C14.828 38.6284 14.7864 38.8784 14.7864 39.1284C14.7864 39.4618 14.828 39.7951 14.9114 40.1284C15.078 40.4618 15.203 40.7951 15.2864 41.1284C15.3697 41.7118 15.4114 42.3784 15.4114 43.1284C15.4114 43.8784 15.6614 44.4618 16.1614 44.8784C15.9947 45.0451 15.9114 45.2951 15.9114 45.6284C15.9114 45.8784 15.828 46.0868 15.6614 46.2534C15.828 46.9201 16.0364 47.5034 16.2864 48.0034C16.5364 48.4201 16.578 49.0034 16.4114 49.7534C16.9947 50.2534 17.203 50.5868 17.0364 50.7534C16.8697 50.9201 16.828 51.0451 16.9114 51.1284C17.078 51.4618 17.4114 51.7534 17.9114 52.0034C18.4947 52.2534 19.1197 52.4618 19.7864 52.6284C20.5364 52.7118 21.2447 52.8368 21.9114 53.0034C22.578 53.0868 23.078 53.1701 23.4114 53.2534C23.828 53.4201 24.1614 53.5868 24.4114 53.7534C24.7447 53.9201 25.1197 54.0868 25.5364 54.2534C25.953 54.3368 26.328 54.3784 26.6614 54.3784C26.9947 54.2951 27.3697 54.3368 27.7864 54.5034C28.703 54.6701 29.5364 54.9201 30.2864 55.2534C31.1197 55.5034 31.9947 55.7118 32.9114 55.8784C33.1614 55.9618 33.4114 55.9618 33.6614 55.8784C33.9947 55.7951 34.2864 55.7951 34.5364 55.8784C35.7864 56.2951 36.703 56.4618 37.2864 56.3784C37.953 56.2951 38.578 56.3368 39.1614 56.5034C39.578 56.5868 39.9114 56.7118 40.1614 56.8784C40.4114 56.9618 40.703 57.0868 41.0364 57.2534C42.0364 57.5868 43.2864 57.9618 44.7864 58.3784C46.3697 58.7951 47.453 59.4201 48.0364 60.2534C48.703 60.3368 49.2447 60.5451 49.6614 60.8784C50.078 61.2118 50.6197 61.4618 51.2864 61.6284C51.5364 62.2118 51.828 62.6701 52.1614 63.0034C52.578 63.3368 52.9947 63.7534 53.4114 64.2534C54.078 65.5868 54.4947 66.6284 54.6614 67.3784C54.828 68.1284 54.953 68.9201 55.0364 69.7534C55.203 70.8368 55.203 71.5034 55.0364 71.7534C54.953 71.9201 54.8697 72.1284 54.7864 72.3784C54.703 72.7118 54.703 73.0451 54.7864 73.3784C54.8697 73.7118 54.8697 74.0868 54.7864 74.5034C54.7864 74.7534 54.703 75.2534 54.5364 76.0034C54.3697 76.6701 54.203 77.4201 54.0364 78.2534C53.8697 79.0034 53.6614 79.7534 53.4114 80.5034C53.1614 81.1701 52.9947 81.6284 52.9114 81.8784C52.4947 82.2951 52.328 82.6284 52.4114 82.8784C52.4947 83.1284 52.453 83.3368 52.2864 83.5034C51.6197 84.3368 51.1614 85.0034 50.9114 85.5034C50.6614 85.9201 50.328 86.2118 49.9114 86.3784C49.9947 86.7118 49.953 86.9618 49.7864 87.1284C49.6197 87.2118 49.578 87.4201 49.6614 87.7534C48.9114 88.5034 48.2864 88.9618 47.7864 89.1284C47.3697 89.2951 47.078 89.4618 46.9114 89.6284L45.7864 90.5034C44.5364 90.5868 43.703 90.7534 43.2864 91.0034C42.8697 91.1701 42.453 91.3368 42.0364 91.5034C40.8697 91.7534 39.6614 91.9201 38.4114 92.0034C37.2447 92.0034 36.203 92.2951 35.2864 92.8784C34.7864 92.5451 34.203 92.5034 33.5364 92.7534C32.8697 93.0034 32.203 93.0451 31.5364 92.8784C31.2864 93.5451 31.328 94.2951 31.6614 95.1284C31.9947 95.9618 32.1197 96.5868 32.0364 97.0034C32.453 98.0034 32.6197 98.6701 32.5364 99.0034C32.453 99.3368 32.4947 99.7118 32.6614 100.128C32.9114 100.545 32.9114 101.42 32.6614 102.753C32.4947 104.003 32.2864 104.837 32.0364 105.253C31.5364 105.837 30.828 106.128 29.9114 106.128C28.9947 106.128 28.2864 105.837 27.7864 105.253C27.7864 104.67 27.7447 104.087 27.6614 103.503C27.578 102.837 27.703 102.253 28.0364 101.753C27.7864 101.42 27.6197 101.17 27.5364 101.003C27.5364 100.753 27.5364 100.545 27.5364 100.378C27.6197 100.212 27.6614 100.045 27.6614 99.8784C27.7447 99.7118 27.7864 99.4618 27.7864 99.1284C27.7864 98.7118 27.703 98.3784 27.5364 98.1284C27.453 97.7951 27.3697 97.4201 27.2864 97.0034C27.203 96.3368 27.1614 95.7118 27.1614 95.1284C27.1614 94.4618 27.078 93.7951 26.9114 93.1284C26.6614 93.2118 26.2864 93.2118 25.7864 93.1284C25.3697 93.0451 25.1197 93.1284 25.0364 93.3784C24.2864 93.0451 23.6614 92.7118 23.1614 92.3784C22.6614 92.0451 21.953 91.8784 21.0364 91.8784C20.6197 91.3784 19.8697 90.9618 18.7864 90.6284C17.703 90.2118 16.828 89.8784 16.1614 89.6284C15.7447 89.4618 15.328 89.2534 14.9114 89.0034C14.578 88.7534 14.203 88.5451 13.7864 88.3784C13.3697 88.2118 12.953 88.0868 12.5364 88.0034C12.1197 87.9201 11.703 87.7534 11.2864 87.5034C10.953 87.3368 10.6614 87.0868 10.4114 86.7534C10.1614 86.4201 9.82804 86.2951 9.41138 86.3784C9.24471 85.9618 8.99471 85.7118 8.66138 85.6284C8.41138 85.4618 8.11971 85.2951 7.78638 85.1284C7.36971 85.7118 7.16138 86.5451 7.16138 87.6284C7.24471 88.7118 7.36971 89.5868 7.53638 90.2534C7.61971 90.6701 7.82804 91.0034 8.16138 91.2534C8.49471 91.4201 8.66138 91.7118 8.66138 92.1284C8.32804 93.0451 7.95304 93.5868 7.53638 93.7534C7.20304 93.8368 6.99471 94.1701 6.91138 94.7534C6.49471 94.5868 6.03638 94.5034 5.53638 94.5034C5.11971 94.4201 4.70304 94.3368 4.28638 94.2534C4.11971 93.6701 3.86971 93.1284 3.53638 92.6284C3.20304 92.1284 2.99471 91.5868 2.91138 91.0034C2.74471 90.1701 2.74471 89.3784 2.91138 88.6284C3.16138 87.8784 3.24471 87.1284 3.16138 86.3784C3.07804 86.1284 2.99471 85.9201 2.91138 85.7534C2.91138 85.5034 2.74471 85.2951 2.41138 85.1284C2.74471 84.2118 2.70304 83.5868 2.28638 83.2534C1.95304 82.9201 1.70304 82.4618 1.53638 81.8784C1.36971 81.6284 1.28638 81.3368 1.28638 81.0034C1.36971 80.6701 1.36971 80.3368 1.28638 80.0034C1.28638 79.9201 1.20304 79.7118 1.03638 79.3784C0.953044 79.0451 0.86971 78.7118 0.786377 78.3784C0.703044 78.0451 0.61971 77.7534 0.536377 77.5034C0.536377 77.1701 0.61971 77.0034 0.786377 77.0034C0.703044 76.8368 0.578044 76.6284 0.411377 76.3784C0.328044 76.0451 0.286377 75.7951 0.286377 75.6284C0.286377 75.3784 0.328044 74.9201 0.411377 74.2534C0.578044 73.5034 0.74471 72.7118 0.911377 71.8784C1.07804 71.0451 1.28638 70.2951 1.53638 69.6284C1.78638 68.9618 1.99471 68.5451 2.16138 68.3784C2.41138 68.2118 2.57804 68.1701 2.66138 68.2534C2.74471 68.3368 2.99471 68.1701 3.41138 67.7534C3.82804 67.5868 4.20304 67.6284 4.53638 67.8784C4.86971 68.1284 5.24471 68.1701 5.66138 68.0034C5.99471 68.4201 6.20304 69.1284 6.28638 70.1284C6.36971 71.0451 6.49471 71.7951 6.66138 72.3784C6.49471 72.7951 6.57804 73.0034 6.91138 73.0034C7.24471 73.0034 7.45304 73.1701 7.53638 73.5034C7.61971 73.8368 7.70304 74.2534 7.78638 74.7534C7.86971 75.1701 8.11971 75.4618 8.53638 75.6284C8.45304 76.0451 8.45304 76.5034 8.53638 77.0034C8.61971 77.5034 8.82804 77.8368 9.16138 78.0034C9.07804 78.6701 9.20304 79.2118 9.53638 79.6284C9.86971 80.0451 10.1197 80.4201 10.2864 80.7534C10.703 81.5868 11.2864 82.2534 12.0364 82.7534C12.7864 83.2534 13.453 83.8368 14.0364 84.5034C14.8697 84.6701 15.578 85.0034 16.1614 85.5034C16.7447 85.9201 17.3697 86.3368 18.0364 86.7534C19.1197 86.7534 19.953 87.0868 20.5364 87.7534C21.203 87.5868 22.078 87.7534 23.1614 88.2534C24.328 88.7534 24.953 89.1284 25.0364 89.3784C25.453 89.2118 25.9114 89.1701 26.4114 89.2534C26.9947 89.3368 27.5364 89.3784 28.0364 89.3784C28.953 89.2118 29.578 89.1701 29.9114 89.2534C30.2447 89.3368 30.6197 89.2951 31.0364 89.1284C31.203 89.0451 31.5364 89.0451 32.0364 89.1284C32.6197 89.1284 33.203 89.1284 33.7864 89.1284C34.3697 89.1284 34.8697 89.0868 35.2864 89.0034C35.703 88.8368 35.9114 88.6284 35.9114 88.3784C36.078 88.5451 36.3697 88.5868 36.7864 88.5034C37.2864 88.4201 37.6197 88.3368 37.7864 88.2534C38.7864 87.8368 39.3697 87.6284 39.5364 87.6284C39.703 87.6284 39.8697 87.6284 40.0364 87.6284C40.203 87.6284 40.3697 87.5451 40.5364 87.3784C40.7864 87.2118 41.1197 86.8784 41.5364 86.3784C41.703 85.4618 41.953 84.8368 42.2864 84.5034C42.6197 84.1701 42.7447 83.7118 42.6614 83.1284C42.328 82.2951 42.203 81.8368 42.2864 81.7534C42.453 81.5868 42.4947 81.4201 42.4114 81.2534C42.4114 80.0868 42.2864 78.8784 42.0364 77.6284C41.7864 76.3784 41.6197 75.1701 41.5364 74.0034C41.5364 73.6701 41.5364 73.3784 41.5364 73.1284C41.6197 72.7951 41.6197 72.4618 41.5364 72.1284C41.1197 71.1284 40.9114 70.4201 40.9114 70.0034C40.9114 69.5034 40.828 69.0451 40.6614 68.6284C39.9947 67.6284 39.578 66.7951 39.4114 66.1284C39.328 65.3784 39.0364 64.9618 38.5364 64.8784C38.6197 64.0451 38.453 63.4201 38.0364 63.0034C37.703 62.5868 37.5364 62.0034 37.5364 61.2534C36.7864 60.8368 35.7447 60.4201 34.4114 60.0034C33.078 59.5868 31.953 59.2951 31.0364 59.1284C30.6197 59.0451 30.1614 59.0451 29.6614 59.1284C29.2447 59.2118 28.7864 59.2118 28.2864 59.1284C27.6197 58.9618 27.078 58.7534 26.6614 58.5034C26.328 58.1701 25.8697 57.9201 25.2864 57.7534C24.703 57.5868 24.1197 57.5034 23.5364 57.5034C23.0364 57.5034 22.5364 57.4201 22.0364 57.2534C21.6197 57.0868 21.2864 56.9201 21.0364 56.7534C20.7864 56.5868 20.4947 56.4201 20.1614 56.2534C19.828 56.1701 19.4947 56.1701 19.1614 56.2534C18.9114 56.3368 18.6197 56.3368 18.2864 56.2534C17.3697 55.9201 16.7447 55.7951 16.4114 55.8784C16.1614 55.9618 15.9114 55.9618 15.6614 55.8784C15.4114 55.7951 15.1614 55.6701 14.9114 55.5034C14.7447 55.3368 14.5364 55.2118 14.2864 55.1284C14.0364 55.0451 13.7447 55.0034 13.4114 55.0034C13.1614 54.9201 12.9114 54.7951 12.6614 54.6284C11.9114 54.3784 11.5364 54.2118 11.5364 54.1284C11.6197 53.9618 11.6197 53.8368 11.5364 53.7534C11.3697 53.5868 11.078 53.5034 10.6614 53.5034C10.328 53.4201 10.078 53.3368 9.91138 53.2534C8.57804 52.0868 7.28638 50.9201 6.03638 49.7534C4.86971 48.5034 3.66138 47.2534 2.41138 46.0034C2.41138 45.9201 2.36971 45.7118 2.28638 45.3784C2.28638 44.9618 2.24471 44.5868 2.16138 44.2534C2.16138 43.8368 2.11971 43.4618 2.03638 43.1284C1.95304 42.7118 1.91138 42.4618 1.91138 42.3784C1.66138 41.5451 1.57804 41.0868 1.66138 41.0034C1.74471 40.8368 1.78638 40.6701 1.78638 40.5034C1.61971 39.5034 1.57804 38.9201 1.66138 38.7534C1.82804 38.5868 1.91138 38.3784 1.91138 38.1284C1.99471 37.7118 1.95304 37.3784 1.78638 37.1284C1.70304 36.8784 1.74471 36.5034 1.91138 36.0034C2.41138 35.1701 2.61971 34.5451 2.53638 34.1284C2.53638 33.6284 2.57804 33.1701 2.66138 32.7534C2.66138 32.6701 2.70304 32.4201 2.78638 32.0034C2.95304 31.5034 3.07804 30.9618 3.16138 30.3784C3.32804 29.7951 3.45304 29.2951 3.53638 28.8784C3.70304 28.3784 3.78638 28.1284 3.78638 28.1284C4.20304 27.3784 4.45304 26.9618 4.53638 26.8784C4.70304 26.7951 4.86971 26.6701 5.03638 26.5034C5.20304 26.2534 5.36971 26.0034 5.53638 25.7534C5.70304 25.4201 5.91138 25.1284 6.16138 24.8784C6.57804 24.3784 7.03638 23.9201 7.53638 23.5034C8.03638 23.0868 8.49471 22.6284 8.91138 22.1284C9.74471 21.7951 10.2864 21.5868 10.5364 21.5034C10.8697 21.3368 11.1197 21.0451 11.2864 20.6284C12.203 20.2951 12.703 20.1701 12.7864 20.2534C12.8697 20.2534 12.9947 20.2534 13.1614 20.2534C13.578 19.7534 13.953 19.5451 14.2864 19.6284C14.6197 19.6284 14.953 19.5868 15.2864 19.5034C15.953 19.3368 16.6614 19.0868 17.4114 18.7534C18.1614 18.4201 18.9114 18.3784 19.6614 18.6284C20.4114 18.2951 20.828 18.1284 20.9114 18.1284C21.078 18.0451 21.203 17.9618 21.2864 17.8784C21.6197 17.8784 21.9114 17.9201 22.1614 18.0034C22.4947 18.0868 22.7447 18.1284 22.9114 18.1284C23.7447 17.7118 24.2447 17.5451 24.4114 17.6284C24.6614 17.6284 24.8697 17.5451 25.0364 17.3784C25.0364 16.0451 25.078 14.7118 25.1614 13.3784C25.328 11.9618 25.2864 10.5868 25.0364 9.25345C24.953 8.08678 24.9947 7.37845 25.1614 7.12845C25.4114 6.79512 25.3697 6.33678 25.0364 5.75345C25.0364 5.00345 25.078 4.25345 25.1614 3.50345C25.2447 2.75345 25.4114 2.12845 25.6614 1.62845C25.9947 1.12845 26.453 0.795115 27.0364 0.628448C27.6197 0.461782 28.4114 0.628448 29.4114 1.12845ZM9.91138 28.1284C9.41138 28.5451 9.16138 28.9201 9.16138 29.2534C9.16138 29.5868 8.95304 29.7534 8.53638 29.7534C8.36971 30.4201 8.20304 30.9201 8.03638 31.2534C7.86971 31.5868 7.61971 32.0034 7.28638 32.5034C7.53638 33.4201 7.45304 34.3368 7.03638 35.2534C6.61971 36.0868 6.57804 36.9618 6.91138 37.8784C6.66138 38.0451 6.45304 38.5868 6.28638 39.5034C6.11971 40.3368 6.07804 40.8784 6.16138 41.1284C6.16138 41.4618 6.24471 41.7534 6.41138 42.0034C6.57804 42.1701 6.74471 42.3784 6.91138 42.6284C6.99471 43.6284 7.16138 44.2951 7.41138 44.6284C7.66138 44.8784 7.70304 45.2118 7.53638 45.6284C7.78638 45.7951 8.07804 46.0451 8.41138 46.3784C8.74471 46.7118 9.07804 47.0451 9.41138 47.3784C9.82804 47.7118 10.1614 48.0034 10.4114 48.2534C10.7447 48.5034 11.0364 48.6284 11.2864 48.6284C11.6197 48.2951 11.703 47.9618 11.5364 47.6284C11.3697 47.2951 11.203 46.9201 11.0364 46.5034C11.3697 45.5868 11.4114 44.4201 11.1614 43.0034C10.9114 41.5868 10.578 40.4201 10.1614 39.5034C10.1614 37.8368 10.1614 36.5034 10.1614 35.5034C10.2447 34.5034 10.3697 33.5451 10.5364 32.6284C10.7864 31.7118 10.953 30.7951 11.0364 29.8784C11.203 28.9618 11.203 28.0034 11.0364 27.0034C10.3697 27.1701 10.0364 27.3784 10.0364 27.6284C10.0364 27.7951 9.99471 27.9618 9.91138 28.1284ZM45.9114 74.5034C45.9114 75.9201 46.0364 77.3784 46.2864 78.8784C46.5364 80.3784 46.7447 81.8368 46.9114 83.2534C47.6614 82.5034 48.203 81.9618 48.5364 81.6284C48.703 80.3784 49.1614 79.3784 49.9114 78.6284C49.9947 77.4618 50.203 76.2951 50.5364 75.1284C50.953 73.8784 51.1197 72.6701 51.0364 71.5034C51.0364 70.8368 50.8697 70.1701 50.5364 69.5034C50.2864 68.8368 50.2447 68.1701 50.4114 67.5034C49.9947 66.9201 49.5364 66.4201 49.0364 66.0034C48.5364 65.5868 48.1197 65.0868 47.7864 64.5034C47.703 64.5034 47.4114 64.3784 46.9114 64.1284C46.4114 63.8784 45.8697 63.6284 45.2864 63.3784C44.7864 63.0451 44.2864 62.7534 43.7864 62.5034C43.2864 62.1701 42.9947 61.9618 42.9114 61.8784C42.2447 62.7118 42.078 63.4618 42.4114 64.1284C42.7447 64.7118 43.078 65.3784 43.4114 66.1284C43.7447 67.0451 44.078 67.6701 44.4114 68.0034C44.7447 68.3368 45.0364 68.8784 45.2864 69.6284C45.453 70.0451 45.4947 70.4618 45.4114 70.8784C45.328 71.2951 45.3697 71.7118 45.5364 72.1284C45.5364 72.2951 45.6197 72.5451 45.7864 72.8784C45.953 73.1284 45.9947 73.3368 45.9114 73.5034V74.5034Z" fill="#FFFF00"/>
</svg>
